<svg width="794" height="828" viewBox="0 0 794 828" fill="none" xmlns="http://www.w3.org/2000/svg">
<g clip-path="url(#clip0_242_2774)">
<path d="M400.98 828C563.352 828 694.98 804.719 694.98 776C694.98 747.281 563.352 724 400.98 724C238.609 724 106.98 747.281 106.98 776C106.98 804.719 238.609 828 400.98 828Z" fill="#3D4356"/>
<path d="M155.963 286.204C155.963 210.448 267.046 149.035 404.073 149.035C541.1 149.035 652.183 210.448 652.183 286.204" stroke="#3D4356" stroke-width="2" stroke-miterlimit="10"/>
<path d="M482.088 201.851H280.237C240.314 134.567 240.314 67.2836 280.237 0H482.088C426.266 67.2836 426.266 134.567 482.088 201.851Z" fill="#E6E6E6"/>
<path d="M422.814 24.0312H309.072V38.4492H422.814V24.0312Z" fill="#0288D1"/>
<path d="M422.814 71.2891H272.227V76.095H422.814V71.2891Z" fill="white"/>
<path d="M422.814 96.1211H272.227V100.927H422.814V96.1211Z" fill="white"/>
<path d="M422.814 120.949H272.227V125.755H422.814V120.949Z" fill="white"/>
<path d="M562.676 648.66C562.676 712.676 602.836 764.477 652.467 764.477Z" fill="#3D4356"/>
<path d="M652.467 764.478C652.467 699.742 697.283 647.359 752.668 647.359Z" fill="#0288D1"/>
<path d="M595.209 654.461C595.209 715.269 620.818 764.475 652.467 764.475Z" fill="#0288D1"/>
<path d="M652.467 764.476C652.467 681.758 704.268 614.824 768.284 614.824Z" fill="#3D4356"/>
<path d="M633.578 765.295C633.578 765.295 646.312 764.903 650.15 762.17C653.987 759.437 669.737 756.174 670.689 760.557C671.641 764.94 689.826 782.354 675.45 782.47C661.073 782.586 642.045 780.231 638.215 777.898C634.385 775.565 633.578 765.295 633.578 765.295Z" fill="#A8A8A8"/>
<path opacity="0.2" d="M675.706 780.944C661.33 781.06 642.302 778.705 638.471 776.371C635.554 774.595 634.392 768.219 634.003 765.277C633.734 765.289 633.578 765.294 633.578 765.294C633.578 765.294 634.385 775.564 638.215 777.897C642.045 780.23 661.073 782.586 675.45 782.47C679.599 782.436 681.033 780.96 680.954 778.773C680.378 780.094 678.795 780.919 675.706 780.944Z" fill="black"/>
<path d="M357.829 157.68C358.998 158.216 360.405 157.417 361.094 156.331C363.718 152.197 358.887 146.866 359.933 142.082C360.771 138.25 365.126 135.975 366.016 132.154C366.881 128.442 364.215 124.257 366.017 120.898C367.429 118.266 370.955 117.574 373.906 118.035C376.857 118.496 379.657 119.793 382.638 119.975C386.61 120.217 390.397 118.468 394.281 117.602C398.165 116.735 402.903 117.075 405.188 120.333C408.121 124.516 405.145 130.342 406.167 135.348C406.978 139.324 410.306 142.616 410.378 146.673C410.403 148.115 406.613 146.953 406.814 148.381C407.016 149.809 405.224 148.552 406.656 148.382C407.241 148.239 407.765 147.913 408.152 147.452C408.54 146.991 408.771 146.419 408.811 145.818C408.982 144.629 411.217 144.233 411.191 143.031C411.13 140.216 416.22 142.114 417.059 139.426C418.986 133.159 418.591 126.408 415.944 120.409C414.803 117.848 413.248 115.424 412.698 112.675C411.95 108.942 413.126 104.935 411.893 101.333C410.231 96.4794 404.732 94.0051 399.626 93.5026C394.52 93 389.332 93.8996 384.255 93.1586C379.708 92.4947 375.305 90.5238 370.718 90.8093C365.214 91.152 360.424 94.6983 356.609 98.6802C352.793 102.662 349.557 107.242 345.224 110.653C343.897 111.566 342.673 112.62 341.573 113.796C339.366 116.485 339.142 120.317 339.756 123.741C340.37 127.166 341.706 130.432 342.27 133.865C342.8 137.092 342.637 140.388 342.865 143.649C343.094 146.911 343.771 150.271 345.735 152.885C346.521 153.953 347.541 154.827 348.716 155.441C349.892 156.055 351.192 156.393 352.517 156.428C353.436 156.449 354.212 155.624 355.138 155.839C356.297 156.108 356.801 157.209 357.829 157.68Z" fill="#2F2E41"/>
<path d="M318.547 394.705L321.951 415.617L328.76 406.376L324.869 392.273L318.547 394.705Z" fill="#ED9DA0"/>
<path d="M322.924 236.652L317.563 250.779C317.563 250.779 312.225 322.732 312.225 328.082C312.225 333.431 316.115 402.003 317.574 404.921C317.574 404.921 323.896 395.681 332.164 397.14C340.431 398.599 337.027 372.824 337.027 372.824L344.808 309.115L343.349 277.017L322.924 236.652Z" fill="#025F91"/>
<path opacity="0.1" d="M322.924 236.652L317.563 250.779C317.563 250.779 312.225 322.732 312.225 328.082C312.225 333.431 316.115 402.003 317.574 404.921C317.574 404.921 323.896 395.681 332.164 397.14C340.431 398.599 337.027 372.824 337.027 372.824L344.808 309.115L343.349 277.017L322.924 236.652Z" fill="black"/>
<path d="M355.992 158.837C355.992 158.837 372.041 199.689 362.801 207.47C353.561 215.251 414.351 194.339 414.351 194.339L412.892 188.989C412.892 188.989 392.953 181.208 402.68 158.837C412.406 136.466 355.992 158.837 355.992 158.837Z" fill="#ED9DA0"/>
<path opacity="0.1" d="M355.992 158.837C355.992 158.837 372.041 199.689 362.801 207.47C353.561 215.251 414.351 194.339 414.351 194.339L412.892 188.989C412.892 188.989 392.953 181.208 402.68 158.837C412.406 136.466 355.992 158.837 355.992 158.837Z" fill="black"/>
<path d="M330.703 704.498C330.703 704.498 323.895 702.552 320.004 707.416C316.113 712.279 301.524 724.437 301.524 724.437C301.524 724.437 273.317 721.519 269.426 735.622C265.536 749.726 313.682 749.726 325.354 746.322C337.026 742.917 339.457 746.322 339.457 746.322C339.457 746.322 375.445 749.24 375.445 743.404C375.445 737.568 372.041 717.628 372.041 717.628L330.703 704.498Z" fill="#025F91"/>
<path d="M444.991 737.079L438.668 756.532C438.668 756.532 419.702 782.794 430.401 788.144C441.1 793.493 479.033 798.843 479.033 784.739V757.991C479.033 757.991 475.143 739.025 471.252 737.079C467.362 735.134 444.991 737.079 444.991 737.079Z" fill="#025F91"/>
<path d="M337.591 387.589C337.591 387.589 317.087 405.404 317.573 407.836C318.059 410.267 327.786 566.378 327.786 566.378L333.135 667.534C333.135 667.534 326.327 691.364 329.731 696.714C333.135 702.063 324.868 703.522 324.868 703.522C324.868 703.522 359.883 735.133 374.473 721.516L388.09 544.98L425.537 673.37C425.537 673.37 431.86 741.456 439.155 741.456C446.449 741.456 476.115 742.915 475.629 739.024C475.143 735.133 477.088 705.467 473.684 687.96C470.279 670.452 447.422 531.849 447.422 531.849C447.422 531.849 445.457 413.027 450.573 401.921C455.69 390.814 447.908 379.143 447.908 379.143L413.866 366.012L373.014 370.875L337.591 387.589Z" fill="#2F2E41"/>
<path d="M378.851 175.375C397.653 175.375 412.894 160.133 412.894 141.332C412.894 122.531 397.653 107.289 378.851 107.289C360.05 107.289 344.809 122.531 344.809 141.332C344.809 160.133 360.05 175.375 378.851 175.375Z" fill="#ED9DA0"/>
<path d="M461.527 214.765C459.845 210.007 457.011 205.74 453.276 202.345C449.542 198.951 445.025 196.534 440.129 195.312C430.319 192.845 420.723 189.592 411.435 185.586C411.435 185.586 376.906 202.121 370.098 202.121C363.289 202.121 363.289 197.744 363.289 197.744C363.289 197.744 345.781 216.224 336.541 218.17C327.301 220.115 313.684 242.972 318.547 255.617C321.85 263.723 326.633 271.145 332.65 277.502C332.65 277.502 330.705 345.587 337.027 358.232C337.027 358.232 321.465 387.898 336.055 389.843C350.644 391.788 406.572 384.98 416.298 391.788C426.025 398.597 444.019 390.329 446.451 399.569C448.882 408.81 454.232 410.755 454.232 410.755C454.232 410.755 462.5 397.624 457.636 389.843C452.773 382.062 461.527 214.765 461.527 214.765Z" fill="#025F91"/>
<path d="M425.537 397.625L417.756 402.488C417.756 402.488 426.023 431.181 429.428 432.154C432.832 433.127 440.845 407.62 440.845 407.62L425.537 397.625Z" fill="#ED9DA0"/>
<path d="M351.993 154.278C353.162 154.814 354.569 154.015 355.258 152.929C357.882 148.795 353.051 143.464 354.097 138.68C354.935 134.847 359.29 132.573 360.18 128.752C361.046 125.039 358.38 120.855 360.181 117.496C361.593 114.864 365.12 114.171 368.07 114.632C371.021 115.093 373.822 116.391 376.802 116.572C380.775 116.814 384.561 115.066 388.445 114.2C392.329 113.333 397.067 113.672 399.352 116.931C402.285 121.114 399.309 126.939 400.331 131.946C401.142 135.922 410.384 138.712 411.223 136.024C413.15 129.757 412.755 123.005 410.109 117.006C408.967 114.445 407.413 112.022 406.862 109.272C406.114 105.54 407.291 101.532 406.057 97.9308C404.395 93.0771 398.896 90.6028 393.79 90.1002C388.685 89.5977 383.496 90.4972 378.419 89.7562C373.872 89.0924 369.469 87.1214 364.882 87.407C359.378 87.7496 354.588 91.296 350.773 95.2779C346.958 99.2597 343.721 103.839 339.388 107.251C338.061 108.164 336.837 109.217 335.737 110.393C333.53 113.083 333.307 116.914 333.92 120.339C334.534 123.763 335.87 127.03 336.434 130.463C336.965 133.689 336.801 136.985 337.029 140.247C337.258 143.508 337.935 146.869 339.899 149.482C340.685 150.55 341.705 151.424 342.881 152.038C344.056 152.652 345.356 152.99 346.682 153.026C347.6 153.047 348.376 152.222 349.303 152.437C350.461 152.706 350.965 153.806 351.993 154.278Z" fill="#2F2E41"/>
<path opacity="0.1" d="M442.316 223.276L458.122 214.766C458.122 214.766 496.542 306.195 487.301 331.484C478.061 356.773 442.559 408.81 442.559 408.81C442.559 408.81 414.352 402.974 417.27 397.138C420.188 391.302 439.155 353.855 440.614 348.992C442.073 344.128 451.799 312.517 447.423 309.113C443.046 305.709 434.535 226.681 434.535 226.681L442.316 223.276Z" fill="black"/>
<path d="M442.073 209.418L461.526 214.768C461.526 214.768 499.946 306.197 490.706 331.486C481.465 356.775 445.964 408.812 445.964 408.812C445.964 408.812 417.757 402.976 420.675 397.14C423.593 391.304 442.559 353.857 444.018 348.994C445.477 344.13 455.204 312.519 450.827 309.115C446.45 305.711 425.538 221.576 425.538 221.576L442.073 209.418Z" fill="#025F91"/>
<path d="M652.183 286.207C652.183 365.632 541.1 430.019 404.073 430.019C267.046 430.019 155.963 365.632 155.963 286.207" stroke="#3D4356" stroke-width="2" stroke-miterlimit="10"/>
<path d="M607.053 432.059C551.594 461.969 479.23 480.07 400.071 480.07C324.174 480.07 254.524 463.43 200.031 435.696" stroke="#3D4356" stroke-width="2" stroke-miterlimit="10"/>
<path d="M527.979 111.906C633.523 139.647 708.691 200.668 715.68 272.537" stroke="#3D4356" stroke-width="2" stroke-miterlimit="10"/>
<path d="M99.1641 225.822C116.948 193.136 149.435 164.372 192 142.273" stroke="#3D4356" stroke-width="2" stroke-miterlimit="10"/>
<path d="M317.357 575.706H519.208C559.131 508.423 559.131 441.139 519.208 373.855H317.357C373.179 441.139 373.179 508.423 317.357 575.706Z" fill="#F2F2F2"/>
<path d="M497.888 412.305H384.146V426.723H497.888V412.305Z" fill="#0288D1"/>
<path d="M525.923 455.559H375.336V460.365H525.923V455.559Z" fill="white"/>
<path d="M525.923 480.387H375.336V485.193H525.923V480.387Z" fill="white"/>
<path d="M231.793 438.698H29.9424C-9.98079 371.415 -9.98079 304.131 29.9424 236.848H231.793C175.971 304.131 175.971 371.415 231.793 438.698Z" fill="#F2F2F2"/>
<path d="M166.112 260.879H52.3711V275.297H166.112V260.879Z" fill="#0288D1"/>
<path d="M178.126 300.93H27.5391V305.736H178.126V300.93Z" fill="white"/>
<path d="M178.126 325.758H27.5391V330.564H178.126V325.758Z" fill="white"/>
<path d="M178.126 350.59H27.5391V355.396H178.126V350.59Z" fill="white"/>
<path d="M178.126 375.422H27.5391V380.228H178.126V375.422Z" fill="white"/>
<path d="M561.787 345.722H763.638C803.561 278.438 803.561 211.155 763.638 143.871H561.787C617.609 211.155 617.609 278.438 561.787 345.722Z" fill="#F2F2F2"/>
<path d="M739.913 163.895H626.172V178.312H739.913V163.895Z" fill="#0288D1"/>
<path d="M764.743 203.945H614.156V208.751H764.743V203.945Z" fill="white"/>
</g>
<defs>
<clipPath id="clip0_242_2774">
<rect width="793.58" height="828" fill="white"/>
</clipPath>
</defs>
</svg>
