<svg width="657" height="470" viewBox="0 0 657 470" fill="none" xmlns="http://www.w3.org/2000/svg">
<path d="M395.5 470C459.841 470 512 417.841 512 353.5C512 289.159 459.841 237 395.5 237C331.159 237 279 289.159 279 353.5C279 417.841 331.159 470 395.5 470Z" fill="#F2F2F2"/>
<path d="M525.5 382C558.913 382 586 354.913 586 321.5C586 288.087 558.913 261 525.5 261C492.087 261 465 288.087 465 321.5C465 354.913 492.087 382 525.5 382Z" fill="#F2F2F2"/>
<path d="M57.6997 452.966C56.9697 452.176 56.2397 451.386 55.5297 450.586C49.2033 443.591 43.7037 435.89 39.1397 427.636C34.2533 418.688 30.8045 409.026 28.9197 399.006C25.1797 379.076 27.8497 358.176 39.0397 341.576C39.3197 341.156 39.6097 340.736 39.9097 340.316C40.0497 340.836 40.1997 341.346 40.3597 341.866C42.3973 348.903 45.0025 355.762 48.1497 362.376C48.3797 362.896 48.6297 363.406 48.8897 363.916C56.6125 379.733 67.2054 393.978 80.1297 405.926C83.0598 408.636 86.0965 411.213 89.2398 413.656V413.666C91.6698 415.537 94.1564 417.33 96.6997 419.046C107.38 426.226 120.01 433.106 123.72 445.426C124.224 447.107 124.542 448.837 124.67 450.586C124.733 451.378 124.756 452.172 124.74 452.966H57.6997Z" fill="#E6E6E6"/>
<path d="M104.92 452.965H103.56C103.55 452.815 103.52 452.655 103.5 452.505C103.4 451.855 103.28 451.215 103.14 450.585C102.03 445.685 99.5302 441.165 95.0202 438.595C93.5311 437.765 91.9505 437.11 90.3101 436.645C87.0801 435.665 83.6601 435.225 80.3801 434.565C79.5301 434.395 78.6902 434.195 77.8701 433.975C73.6631 432.943 69.7253 431.023 66.3201 428.345C62.15 424.822 58.6095 420.616 55.8501 415.905C54.0179 412.931 52.3358 409.868 50.8101 406.725C50.6001 406.315 50.4001 405.915 50.2101 405.505C46.6708 397.968 43.9066 390.091 41.9601 381.995C40.9494 377.837 40.1615 373.628 39.6001 369.385C38.3589 360.167 38.171 350.837 39.0401 341.575C39.0701 341.155 39.1201 340.735 39.1601 340.315C39.2501 339.445 40.5701 339.755 40.4801 340.615C40.4401 341.035 40.4001 341.445 40.3601 341.865C39.5299 350.759 39.6909 359.717 40.8401 368.575C40.8901 369.025 40.9501 369.465 41.0201 369.915C42.7125 382.205 46.3019 394.157 51.6601 405.345C51.7101 405.465 51.7701 405.575 51.8201 405.695C51.8301 405.705 51.8301 405.705 51.8301 405.715C53.0901 408.315 54.4468 410.862 55.9001 413.355C58.5418 418.143 61.9197 422.486 65.9101 426.225C69.2836 429.211 73.3069 431.368 77.6601 432.525C78.0901 432.645 78.5301 432.765 78.9701 432.865C79.3201 432.955 79.6701 433.035 80.0301 433.105C83.3701 433.815 86.8301 434.265 90.1401 435.185C91.6444 435.597 93.11 436.139 94.5201 436.805C96.8213 437.962 98.8524 439.592 100.481 441.587C102.109 443.582 103.298 445.899 103.97 448.385C104.19 449.115 104.37 449.845 104.52 450.585C104.693 451.372 104.827 452.166 104.92 452.965Z" fill="white"/>
<path d="M51.4064 406.5C47.423 408.121 42.9929 408.274 38.9072 406.931C34.8215 405.588 31.3463 402.836 29.1022 399.167C28.6507 398.423 29.7855 397.686 30.2376 398.431C32.321 401.852 35.5585 404.415 39.3656 405.658C43.1728 406.901 47.2988 406.742 50.9992 405.21C51.8037 404.878 52.2064 406.17 51.4064 406.5Z" fill="white"/>
<path d="M77.4947 432.914C80.981 424.843 81.2972 415.755 78.3801 407.461C78.0904 406.64 79.3805 406.233 79.6698 407.054C82.6893 415.69 82.341 425.148 78.6947 433.538C78.3466 434.338 77.1485 433.71 77.4947 432.914Z" fill="white"/>
<path d="M40.423 368.665C42.095 368.359 43.6647 367.642 44.9913 366.58C46.3178 365.517 47.3596 364.141 48.0231 362.576C48.3609 361.772 49.5587 362.402 49.2231 363.2C48.482 364.926 47.3296 366.444 45.8666 367.621C44.4036 368.799 42.6744 369.6 40.8302 369.955C40.6592 370.003 40.4763 369.984 40.3187 369.902C40.1611 369.82 40.0406 369.682 39.9817 369.514C39.9286 369.343 39.9452 369.158 40.0278 368.999C40.1105 368.84 40.2525 368.72 40.423 368.665Z" fill="white"/>
<path d="M148.411 452.965H93.3006C93.1106 452.175 92.9306 451.385 92.7606 450.585C91.7506 445.965 90.9206 441.315 90.3106 436.645C90.2506 436.164 90.1806 435.675 90.1406 435.185C89.2515 428.048 88.9505 420.85 89.2406 413.665V413.655C89.4078 409.722 89.775 405.8 90.3406 401.905C91.8211 391.832 94.8786 382.056 99.4006 372.935L99.4606 372.815C108.481 354.685 123.181 339.645 142.081 333.135C142.571 332.965 143.041 332.805 143.531 332.645C143.341 333.145 143.151 333.645 142.961 334.155C142.961 334.165 142.951 334.175 142.951 334.185C140.344 341.021 138.294 348.058 136.821 355.225V355.235C136.701 355.785 136.591 356.345 136.481 356.905C133.13 374.221 133.021 392.009 136.161 409.365C136.171 409.395 136.171 409.425 136.181 409.455C137.436 416.328 139.207 423.097 141.481 429.705C143.821 436.495 146.711 443.565 148.031 450.585C148.181 451.385 148.311 452.175 148.411 452.965Z" fill="#E6E6E6"/>
<path d="M143.81 333.227C143.52 333.537 143.24 333.847 142.96 334.157C136.942 340.76 131.677 348.011 127.26 355.777C127.03 356.157 126.81 356.557 126.6 356.947C120.551 367.776 116.219 379.479 113.76 391.637C113.73 391.767 113.7 391.897 113.68 392.037C113.12 394.867 112.67 397.717 112.33 400.587C111.549 406.002 111.63 411.507 112.57 416.897C113.469 421.309 115.383 425.452 118.16 428.997C118.42 429.357 118.7 429.717 118.99 430.067C119.22 430.347 119.46 430.617 119.7 430.897C122.97 434.647 126.74 438.097 129.04 442.577C130.312 445.053 130.96 447.803 130.93 450.587C130.923 451.383 130.866 452.178 130.76 452.967H129.39C129.511 452.179 129.578 451.384 129.59 450.587C129.633 448.426 129.214 446.282 128.36 444.297C126.33 439.597 122.44 436.027 119.1 432.267C118.52 431.617 117.97 430.947 117.44 430.277C114.705 426.923 112.72 423.022 111.62 418.837C110.416 413.511 110.122 408.02 110.75 402.597C111.08 399.127 111.58 395.667 112.25 392.237C112.33 391.787 112.42 391.337 112.51 390.897C117.042 369.352 127.251 349.41 142.08 333.137C142.36 332.827 142.65 332.507 142.94 332.197C143.53 331.567 144.4 332.597 143.81 333.227Z" fill="white"/>
<path d="M112.866 392.414C108.709 391.311 105.08 388.766 102.627 385.233C100.173 381.701 99.0551 377.412 99.4723 373.131C99.5596 372.265 100.909 372.36 100.822 373.227C100.426 377.213 101.468 381.208 103.759 384.493C106.05 387.777 109.441 390.135 113.317 391.139C114.16 391.359 113.704 392.633 112.866 392.414Z" fill="white"/>
<path d="M117.793 429.215C125.436 424.87 131.16 417.803 133.824 409.425C134.088 408.595 135.362 409.047 135.099 409.876C132.311 418.59 126.339 425.932 118.375 430.436C117.616 430.865 117.038 429.642 117.793 429.215Z" fill="white"/>
<path d="M124.896 360.38C126.416 361.142 128.1 361.515 129.8 361.465C131.499 361.415 133.159 360.943 134.631 360.093C135.384 359.655 135.962 360.879 135.213 361.314C133.582 362.246 131.748 362.764 129.871 362.823C127.994 362.883 126.131 362.481 124.445 361.655C124.279 361.59 124.145 361.465 124.068 361.305C123.992 361.144 123.979 360.961 124.033 360.791C124.094 360.623 124.218 360.485 124.38 360.408C124.541 360.331 124.727 360.321 124.896 360.38Z" fill="white"/>
<path d="M439.68 451.776C439.68 451.932 439.65 452.087 439.59 452.232C439.531 452.376 439.443 452.508 439.332 452.618C439.222 452.729 439.091 452.817 438.946 452.876C438.801 452.936 438.646 452.966 438.49 452.966H9.19C8.87439 452.966 8.57168 452.841 8.34851 452.617C8.12534 452.394 8 452.092 8 451.776C8 451.46 8.12534 451.158 8.34851 450.935C8.57168 450.711 8.87439 450.586 9.19 450.586H438.49C438.646 450.585 438.801 450.616 438.946 450.676C439.091 450.735 439.222 450.823 439.332 450.933C439.443 451.044 439.531 451.175 439.59 451.32C439.65 451.465 439.68 451.62 439.68 451.776Z" fill="#CCCCCC"/>
<path d="M651.11 81H3.63069C3.29637 81 2.97573 80.8946 2.73933 80.7071C2.50293 80.5196 2.37012 80.2652 2.37012 80C2.37012 79.7348 2.50293 79.4804 2.73933 79.2929C2.97573 79.1054 3.29637 79 3.63069 79H651.11C651.444 79 651.764 79.1054 652.001 79.2929C652.237 79.4804 652.37 79.7348 652.37 80C652.37 80.2652 652.237 80.5196 652.001 80.7071C651.764 80.8946 651.444 81 651.11 81Z" fill="#E6E6E6"/>
<path d="M651.11 121H3.63069C3.29637 121 2.97573 120.895 2.73933 120.707C2.50293 120.52 2.37012 120.265 2.37012 120C2.37012 119.735 2.50293 119.48 2.73933 119.293C2.97573 119.105 3.29637 119 3.63069 119H651.11C651.444 119 651.764 119.105 652.001 119.293C652.237 119.48 652.37 119.735 652.37 120C652.37 120.265 652.237 120.52 652.001 120.707C651.764 120.895 651.444 121 651.11 121Z" fill="#E6E6E6"/>
<path d="M651.11 161H3.63069C3.29637 161 2.97573 160.895 2.73933 160.707C2.50293 160.52 2.37012 160.265 2.37012 160C2.37012 159.735 2.50293 159.48 2.73933 159.293C2.97573 159.105 3.29637 159 3.63069 159H651.11C651.444 159 651.764 159.105 652.001 159.293C652.237 159.48 652.37 159.735 652.37 160C652.37 160.265 652.237 160.52 652.001 160.707C651.764 160.895 651.444 161 651.11 161Z" fill="#E6E6E6"/>
<path d="M651.11 201H3.63069C3.29637 201 2.97573 200.895 2.73933 200.707C2.50293 200.52 2.37012 200.265 2.37012 200C2.37012 199.735 2.50293 199.48 2.73933 199.293C2.97573 199.105 3.29637 199 3.63069 199H651.11C651.444 199 651.764 199.105 652.001 199.293C652.237 199.48 652.37 199.735 652.37 200C652.37 200.265 652.237 200.52 652.001 200.707C651.764 200.895 651.444 201 651.11 201Z" fill="#E6E6E6"/>
<path d="M651.11 241H3.63069C3.29637 241 2.97573 240.895 2.73933 240.707C2.50293 240.52 2.37012 240.265 2.37012 240C2.37012 239.735 2.50293 239.48 2.73933 239.293C2.97573 239.105 3.29637 239 3.63069 239H651.11C651.444 239 651.764 239.105 652.001 239.293C652.237 239.48 652.37 239.735 652.37 240C652.37 240.265 652.237 240.52 652.001 240.707C651.764 240.895 651.444 241 651.11 241Z" fill="#E6E6E6"/>
<path d="M125 242.5C124.736 242.5 124.482 242.395 124.295 242.209C124.108 242.023 124.002 241.77 124 241.506L123 79.5063C122.998 79.2411 123.102 78.9861 123.288 78.7974C123.475 78.6087 123.728 78.5017 123.994 78.5H124C124.264 78.5001 124.517 78.6046 124.705 78.7907C124.892 78.9769 124.998 79.2296 125 79.4937L126 241.494C126.002 241.759 125.898 242.014 125.711 242.203C125.525 242.391 125.271 242.498 125.006 242.5H125Z" fill="#E6E6E6"/>
<path d="M528 243C527.736 243 527.482 242.895 527.295 242.709C527.108 242.523 527.002 242.27 527 242.006L526 80.0063C525.998 79.7411 526.102 79.4861 526.288 79.2974C526.475 79.1087 526.728 79.0017 526.994 79H527C527.264 79.0001 527.517 79.1046 527.705 79.2907C527.892 79.4769 527.998 79.7296 528 79.9937L529 241.994C529.002 242.259 528.898 242.514 528.711 242.703C528.525 242.891 528.271 242.998 528.006 243H528Z" fill="#E6E6E6"/>
<path d="M264 242.5C263.736 242.5 263.482 242.395 263.295 242.209C263.108 242.023 263.002 241.77 263 241.506L262 79.5063C261.998 79.2411 262.102 78.9861 262.288 78.7974C262.475 78.6087 262.728 78.5017 262.994 78.5H263C263.264 78.5001 263.517 78.6046 263.705 78.7907C263.892 78.9769 263.998 79.2296 264 79.4937L265 241.494C265.002 241.759 264.898 242.014 264.711 242.203C264.525 242.391 264.271 242.498 264.006 242.5H264Z" fill="#E6E6E6"/>
<path d="M403 242.5C402.736 242.5 402.482 242.395 402.295 242.209C402.108 242.023 402.002 241.77 402 241.506L401 79.5063C400.998 79.2411 401.102 78.9861 401.288 78.7974C401.475 78.6087 401.728 78.5017 401.994 78.5H402C402.264 78.5001 402.517 78.6046 402.705 78.7907C402.892 78.9769 402.998 79.2296 403 79.4937L404 241.494C404.002 241.759 403.898 242.014 403.711 242.203C403.525 242.391 403.271 242.498 403.006 242.5H403Z" fill="#E6E6E6"/>
<path d="M108.5 47H13.5C9.91958 47 6.4858 45.5777 3.95406 43.0459C1.42231 40.5142 0 37.0804 0 33.5C0 29.9196 1.42231 26.4858 3.95406 23.9541C6.4858 21.4223 9.91958 20 13.5 20H108.5C112.08 20 115.514 21.4223 118.046 23.9541C120.578 26.4858 122 29.9196 122 33.5C122 37.0804 120.578 40.5142 118.046 43.0459C115.514 45.5777 112.08 47 108.5 47Z" fill="#E6E6E6"/>
<path d="M643.5 47H548.5C544.92 47 541.486 45.5777 538.954 43.0459C536.422 40.5142 535 37.0804 535 33.5C535 29.9196 536.422 26.4858 538.954 23.9541C541.486 21.4223 544.92 20 548.5 20H643.5C647.08 20 650.514 21.4223 653.046 23.9541C655.578 26.4858 657 29.9196 657 33.5C657 37.0804 655.578 40.5142 653.046 43.0459C650.514 45.5777 647.08 47 643.5 47Z" fill="#E6E6E6"/>
<path d="M80.0538 111.501H41.9457C40.5073 111.503 39.0828 111.221 37.7536 110.671C36.4244 110.122 35.2165 109.316 34.1989 108.299C33.1814 107.282 32.3742 106.075 31.8235 104.747C31.2727 103.418 30.9893 101.994 30.9893 100.555C30.9893 99.117 31.2727 97.6928 31.8235 96.364C32.3742 95.0353 33.1814 93.8282 34.1989 92.8117C35.2165 91.7951 36.4244 90.989 37.7536 90.4396C39.0828 89.8901 40.5073 89.608 41.9457 89.6094H80.0538C81.4921 89.608 82.9166 89.8901 84.2458 90.4396C85.5751 90.989 86.7829 91.7951 87.8005 92.8117C88.818 93.8282 89.6252 95.0353 90.176 96.364C90.7267 97.6928 91.0102 99.117 91.0102 100.555C91.0102 101.994 90.7267 103.418 90.176 104.747C89.6252 106.075 88.818 107.282 87.8005 108.299C86.7829 109.316 85.5751 110.122 84.2458 110.671C82.9166 111.221 81.4921 111.503 80.0538 111.501Z" fill="#0288D1"/>
<path d="M213.054 150.501H174.946C172.043 150.501 169.259 149.348 167.206 147.295C165.153 145.243 164 142.458 164 139.555C164 136.652 165.153 133.868 167.206 131.815C169.259 129.763 172.043 128.609 174.946 128.609H213.054C214.492 128.608 215.917 128.89 217.246 129.44C218.575 129.989 219.783 130.795 220.801 131.812C221.818 132.828 222.625 134.035 223.176 135.364C223.727 136.693 224.01 138.117 224.01 139.555C224.01 140.994 223.727 142.418 223.176 143.747C222.625 145.075 221.818 146.282 220.801 147.299C219.783 148.316 218.575 149.122 217.246 149.671C215.917 150.221 214.492 150.503 213.054 150.501Z" fill="#0288D1"/>
<path d="M213.054 193.501H174.946C173.507 193.503 172.083 193.221 170.754 192.671C169.424 192.122 168.216 191.316 167.199 190.299C166.181 189.282 165.374 188.075 164.823 186.747C164.273 185.418 163.989 183.994 163.989 182.555C163.989 181.117 164.273 179.693 164.823 178.364C165.374 177.035 166.181 175.828 167.199 174.812C168.216 173.795 169.424 172.989 170.754 172.44C172.083 171.89 173.507 171.608 174.946 171.609H213.054C214.492 171.608 215.917 171.89 217.246 172.44C218.575 172.989 219.783 173.795 220.8 174.812C221.818 175.828 222.625 177.035 223.176 178.364C223.727 179.693 224.01 181.117 224.01 182.555C224.01 183.994 223.727 185.418 223.176 186.747C222.625 188.075 221.818 189.282 220.8 190.299C219.783 191.316 218.575 192.122 217.246 192.671C215.917 193.221 214.492 193.503 213.054 193.501Z" fill="#0288D1"/>
<path d="M355.054 112.501H316.946C314.043 112.501 311.259 111.348 309.206 109.295C307.153 107.243 306 104.458 306 101.555C306 98.6523 307.153 95.8681 309.206 93.8154C311.259 91.7626 314.043 90.6094 316.946 90.6094H355.054C356.492 90.608 357.917 90.8901 359.246 91.4396C360.575 91.989 361.783 92.7951 362.801 93.8117C363.818 94.8282 364.625 96.0353 365.176 97.364C365.727 98.6928 366.01 100.117 366.01 101.555C366.01 102.994 365.727 104.418 365.176 105.747C364.625 107.075 363.818 108.282 362.801 109.299C361.783 110.316 360.575 111.122 359.246 111.671C357.917 112.221 356.492 112.503 355.054 112.501Z" fill="#0288D1"/>
<path d="M484.054 149.892H445.946C443.043 149.892 440.259 148.739 438.206 146.686C436.153 144.633 435 141.849 435 138.946C435 136.043 436.153 133.259 438.206 131.206C440.259 129.153 443.043 128 445.946 128H484.054C485.492 127.999 486.917 128.281 488.246 128.83C489.575 129.38 490.783 130.186 491.801 131.202C492.818 132.219 493.625 133.426 494.176 134.755C494.727 136.083 495.01 137.508 495.01 138.946C495.01 140.384 494.727 141.808 494.176 143.137C493.625 144.466 492.818 145.673 491.801 146.69C490.783 147.706 489.575 148.512 488.246 149.062C486.917 149.611 485.492 149.893 484.054 149.892Z" fill="#0288D1"/>
<path d="M427.054 309.892H388.946C386.043 309.892 383.259 308.739 381.206 306.686C379.153 304.633 378 301.849 378 298.946C378 296.043 379.153 293.259 381.206 291.206C383.259 289.153 386.043 288 388.946 288H427.054C429.957 288 432.741 289.153 434.794 291.206C436.847 293.259 438 296.043 438 298.946C438 301.849 436.847 304.633 434.794 306.686C432.741 308.739 429.957 309.892 427.054 309.892Z" fill="#0288D1"/>
<path d="M339.054 150.892H300.946C298.043 150.892 295.259 149.739 293.206 147.686C291.153 145.633 290 142.849 290 139.946C290 137.043 291.153 134.259 293.206 132.206C295.259 130.153 298.043 129 300.946 129H339.054C341.957 129 344.741 130.153 346.794 132.206C348.847 134.259 350 137.043 350 139.946C350 142.849 348.847 145.633 346.794 147.686C344.741 149.739 341.957 150.892 339.054 150.892Z" fill="#0288D1"/>
<path d="M243.333 47.5H148.333C144.753 47.5 141.319 46.0777 138.787 43.5459C136.255 41.0142 134.833 37.5804 134.833 34C134.833 30.4196 136.255 26.9858 138.787 24.4541C141.319 21.9223 144.753 20.5 148.333 20.5H243.333C246.913 20.5 250.347 21.9223 252.879 24.4541C255.411 26.9858 256.833 30.4196 256.833 34C256.833 37.5804 255.411 41.0142 252.879 43.5459C250.347 46.0777 246.913 47.5 243.333 47.5Z" fill="#E6E6E6"/>
<path d="M378.167 48.5H283.167C279.587 48.5 276.153 47.0777 273.621 44.5459C271.089 42.0142 269.667 38.5804 269.667 35C269.667 31.4196 271.089 27.9858 273.621 25.4541C276.153 22.9223 279.587 21.5 283.167 21.5H378.167C381.747 21.5 385.181 22.9223 387.713 25.4541C390.245 27.9858 391.667 31.4196 391.667 35C391.667 38.5804 390.245 42.0142 387.713 44.5459C385.181 47.0777 381.747 48.5 378.167 48.5Z" fill="#E6E6E6"/>
<path d="M513 48.5H418C414.42 48.5 410.986 47.0777 408.454 44.5459C405.922 42.0142 404.5 38.5804 404.5 35C404.5 31.4196 405.922 27.9858 408.454 25.4541C410.986 22.9223 414.42 21.5 418 21.5H513C516.58 21.5 520.014 22.9223 522.546 25.4541C525.078 27.9858 526.5 31.4196 526.5 35C526.5 38.5804 525.078 42.0142 522.546 44.5459C520.014 47.0777 516.58 48.5 513 48.5Z" fill="#E6E6E6"/>
<path d="M174.781 33.5713C174.781 34.0205 174.736 34.46 174.645 34.8896C174.557 35.3161 174.428 35.7197 174.259 36.1006C174.09 36.4814 173.883 36.833 173.639 37.1553C173.395 37.4775 173.118 37.7591 172.809 38H170.919C171.118 37.873 171.31 37.7314 171.495 37.5752C171.681 37.4189 171.856 37.2513 172.022 37.0723C172.192 36.8932 172.348 36.7044 172.491 36.5059C172.634 36.3073 172.761 36.1022 172.872 35.8906C172.729 35.985 172.576 36.0664 172.413 36.1348C172.25 36.1999 172.083 36.2324 171.91 36.2324C171.513 36.2324 171.157 36.1673 170.841 36.0371C170.525 35.9036 170.255 35.7197 170.03 35.4854C169.809 35.2477 169.638 34.9661 169.518 34.6406C169.4 34.3151 169.342 33.9587 169.342 33.5713C169.342 33.1937 169.409 32.8372 169.542 32.502C169.679 32.1634 169.866 31.8688 170.104 31.6182C170.341 31.3643 170.623 31.1641 170.948 31.0176C171.274 30.8711 171.627 30.7979 172.008 30.7979C172.392 30.7979 172.752 30.8711 173.087 31.0176C173.425 31.1641 173.72 31.3643 173.971 31.6182C174.221 31.8688 174.418 32.1634 174.562 32.502C174.708 32.8372 174.781 33.1937 174.781 33.5713ZM173.282 33.5713C173.282 33.3923 173.251 33.2197 173.189 33.0537C173.128 32.8877 173.04 32.7412 172.926 32.6143C172.815 32.4873 172.682 32.3864 172.525 32.3115C172.369 32.2367 172.197 32.1992 172.008 32.1992C171.816 32.1992 171.642 32.2367 171.485 32.3115C171.332 32.3831 171.201 32.4808 171.09 32.6045C170.979 32.7282 170.895 32.873 170.836 33.0391C170.777 33.2051 170.748 33.3825 170.748 33.5713C170.748 33.7568 170.777 33.9326 170.836 34.0986C170.895 34.2614 170.979 34.4046 171.09 34.5283C171.201 34.652 171.332 34.7497 171.485 34.8213C171.642 34.8929 171.816 34.9287 172.008 34.9287C172.2 34.9287 172.374 34.8929 172.53 34.8213C172.69 34.7497 172.825 34.652 172.936 34.5283C173.046 34.4046 173.131 34.2614 173.189 34.0986C173.251 33.9326 173.282 33.7568 173.282 33.5713ZM177.384 34.6992C177.384 34.8164 177.361 34.9271 177.315 35.0312C177.273 35.1322 177.215 35.2201 177.14 35.2949C177.065 35.3698 176.977 35.43 176.876 35.4756C176.775 35.5179 176.668 35.5391 176.554 35.5391C176.437 35.5391 176.327 35.5179 176.227 35.4756C176.126 35.43 176.036 35.3698 175.958 35.2949C175.883 35.2201 175.823 35.1322 175.777 35.0312C175.735 34.9271 175.714 34.8164 175.714 34.6992C175.714 34.5885 175.735 34.4827 175.777 34.3818C175.823 34.2809 175.883 34.193 175.958 34.1182C176.036 34.04 176.126 33.9798 176.227 33.9375C176.327 33.8919 176.437 33.8691 176.554 33.8691C176.668 33.8691 176.775 33.8919 176.876 33.9375C176.977 33.9798 177.065 34.04 177.14 34.1182C177.215 34.193 177.273 34.2809 177.315 34.3818C177.361 34.4827 177.384 34.5885 177.384 34.6992ZM177.384 37.502C177.384 37.6191 177.361 37.7298 177.315 37.834C177.273 37.9349 177.215 38.0228 177.14 38.0977C177.065 38.1725 176.977 38.2311 176.876 38.2734C176.775 38.319 176.668 38.3418 176.554 38.3418C176.437 38.3418 176.327 38.319 176.227 38.2734C176.126 38.2311 176.036 38.1725 175.958 38.0977C175.883 38.0228 175.823 37.9349 175.777 37.834C175.735 37.7298 175.714 37.6191 175.714 37.502C175.714 37.388 175.735 37.2806 175.777 37.1797C175.823 37.0788 175.883 36.9909 175.958 36.916C176.036 36.8411 176.126 36.7826 176.227 36.7402C176.327 36.6947 176.437 36.6719 176.554 36.6719C176.668 36.6719 176.775 36.6947 176.876 36.7402C176.977 36.7826 177.065 36.8411 177.14 36.916C177.215 36.9909 177.273 37.0788 177.315 37.1797C177.361 37.2806 177.384 37.388 177.384 37.502ZM183.326 35.9004C183.326 36.1901 183.271 36.4619 183.16 36.7158C183.049 36.9697 182.898 37.1927 182.706 37.3848C182.517 37.5736 182.296 37.7233 182.042 37.834C181.788 37.9447 181.516 38 181.227 38H178.424V36.5986H181.227C181.324 36.5986 181.415 36.5807 181.5 36.5449C181.585 36.5091 181.658 36.4603 181.72 36.3984C181.785 36.3333 181.835 36.2585 181.871 36.1738C181.907 36.0892 181.925 35.998 181.925 35.9004C181.925 35.8027 181.907 35.7116 181.871 35.627C181.835 35.5423 181.785 35.4691 181.72 35.4072C181.658 35.3421 181.585 35.2917 181.5 35.2559C181.415 35.2201 181.324 35.2021 181.227 35.2021H179.317V33.8008H181.227C181.324 33.8008 181.415 33.7829 181.5 33.7471C181.585 33.7113 181.658 33.6624 181.72 33.6006C181.785 33.5355 181.835 33.4606 181.871 33.376C181.907 33.2881 181.925 33.1953 181.925 33.0977C181.925 33 181.907 32.9089 181.871 32.8242C181.835 32.7396 181.785 32.6663 181.72 32.6045C181.658 32.5394 181.585 32.4889 181.5 32.4531C181.415 32.4173 181.324 32.3994 181.227 32.3994H178.424V30.998H181.227C181.516 30.998 181.788 31.0534 182.042 31.1641C182.296 31.2747 182.517 31.4261 182.706 31.6182C182.898 31.807 183.049 32.0283 183.16 32.2822C183.271 32.5361 183.326 32.8079 183.326 33.0977C183.326 33.3548 183.279 33.6055 183.185 33.8496C183.09 34.0905 182.957 34.307 182.784 34.499C182.957 34.6911 183.09 34.9092 183.185 35.1533C183.279 35.3942 183.326 35.6432 183.326 35.9004ZM188.482 34.499C188.482 33.721 188.352 33.1432 188.092 32.7656C187.835 32.388 187.475 32.1992 187.013 32.1992C186.554 32.1992 186.197 32.3864 185.943 32.7607C185.689 33.1351 185.562 33.7145 185.562 34.499C185.562 35.277 185.689 35.8548 185.943 36.2324C186.197 36.61 186.554 36.7988 187.013 36.7988C187.244 36.7988 187.451 36.7533 187.633 36.6621C187.815 36.5677 187.968 36.4261 188.092 36.2373C188.219 36.0485 188.315 35.8109 188.38 35.5244C188.448 35.2347 188.482 34.8929 188.482 34.499ZM189.815 34.499C189.815 35.1631 189.742 35.7246 189.596 36.1836C189.449 36.6426 189.249 37.0137 188.995 37.2969C188.741 37.5801 188.443 37.7852 188.102 37.9121C187.763 38.0358 187.4 38.0977 187.013 38.0977C186.625 38.0977 186.261 38.0342 185.919 37.9072C185.58 37.777 185.284 37.5703 185.03 37.2871C184.78 37.0007 184.581 36.6296 184.435 36.1738C184.288 35.7148 184.215 35.1566 184.215 34.499C184.215 33.835 184.288 33.2751 184.435 32.8193C184.581 32.3604 184.78 31.9893 185.03 31.7061C185.284 31.4229 185.58 31.2178 185.919 31.0908C186.261 30.9639 186.625 30.9004 187.013 30.9004C187.4 30.9004 187.763 30.9655 188.102 31.0957C188.443 31.2227 188.741 31.4294 188.995 31.7158C189.249 32.0023 189.449 32.3734 189.596 32.8291C189.742 33.2848 189.815 33.8415 189.815 34.499ZM197.726 33.8008V35.1289H193.624V33.8008H197.726ZM200.67 38H199.269V32.3994H198.57V30.998H200.67V38ZM203.854 38H202.452V32.3994H201.754V30.998H203.854V38ZM206.778 34.6992C206.778 34.8164 206.756 34.9271 206.71 35.0312C206.668 35.1322 206.609 35.2201 206.534 35.2949C206.459 35.3698 206.371 35.43 206.271 35.4756C206.17 35.5179 206.062 35.5391 205.948 35.5391C205.831 35.5391 205.722 35.5179 205.621 35.4756C205.52 35.43 205.431 35.3698 205.353 35.2949C205.278 35.2201 205.217 35.1322 205.172 35.0312C205.13 34.9271 205.108 34.8164 205.108 34.6992C205.108 34.5885 205.13 34.4827 205.172 34.3818C205.217 34.2809 205.278 34.193 205.353 34.1182C205.431 34.04 205.52 33.9798 205.621 33.9375C205.722 33.8919 205.831 33.8691 205.948 33.8691C206.062 33.8691 206.17 33.8919 206.271 33.9375C206.371 33.9798 206.459 34.04 206.534 34.1182C206.609 34.193 206.668 34.2809 206.71 34.3818C206.756 34.4827 206.778 34.5885 206.778 34.6992ZM206.778 37.502C206.778 37.6191 206.756 37.7298 206.71 37.834C206.668 37.9349 206.609 38.0228 206.534 38.0977C206.459 38.1725 206.371 38.2311 206.271 38.2734C206.17 38.319 206.062 38.3418 205.948 38.3418C205.831 38.3418 205.722 38.319 205.621 38.2734C205.52 38.2311 205.431 38.1725 205.353 38.0977C205.278 38.0228 205.217 37.9349 205.172 37.834C205.13 37.7298 205.108 37.6191 205.108 37.502C205.108 37.388 205.13 37.2806 205.172 37.1797C205.217 37.0788 205.278 36.9909 205.353 36.916C205.431 36.8411 205.52 36.7826 205.621 36.7402C205.722 36.6947 205.831 36.6719 205.948 36.6719C206.062 36.6719 206.17 36.6947 206.271 36.7402C206.371 36.7826 206.459 36.8411 206.534 36.916C206.609 36.9909 206.668 37.0788 206.71 37.1797C206.756 37.2806 206.778 37.388 206.778 37.502ZM212.008 34.499C212.008 33.721 211.878 33.1432 211.617 32.7656C211.36 32.388 211 32.1992 210.538 32.1992C210.079 32.1992 209.723 32.3864 209.469 32.7607C209.215 33.1351 209.088 33.7145 209.088 34.499C209.088 35.277 209.215 35.8548 209.469 36.2324C209.723 36.61 210.079 36.7988 210.538 36.7988C210.769 36.7988 210.976 36.7533 211.158 36.6621C211.34 36.5677 211.493 36.4261 211.617 36.2373C211.744 36.0485 211.84 35.8109 211.905 35.5244C211.974 35.2347 212.008 34.8929 212.008 34.499ZM213.341 34.499C213.341 35.1631 213.268 35.7246 213.121 36.1836C212.975 36.6426 212.774 37.0137 212.521 37.2969C212.267 37.5801 211.969 37.7852 211.627 37.9121C211.288 38.0358 210.925 38.0977 210.538 38.0977C210.151 38.0977 209.786 38.0342 209.444 37.9072C209.106 37.777 208.81 37.5703 208.556 37.2871C208.305 37.0007 208.106 36.6296 207.96 36.1738C207.813 35.7148 207.74 35.1566 207.74 34.499C207.74 33.835 207.813 33.2751 207.96 32.8193C208.106 32.3604 208.305 31.9893 208.556 31.7061C208.81 31.4229 209.106 31.2178 209.444 31.0908C209.786 30.9639 210.151 30.9004 210.538 30.9004C210.925 30.9004 211.288 30.9655 211.627 31.0957C211.969 31.2227 212.267 31.4294 212.521 31.7158C212.774 32.0023 212.975 32.3734 213.121 32.8291C213.268 33.2848 213.341 33.8415 213.341 34.499ZM218.434 34.499C218.434 33.721 218.303 33.1432 218.043 32.7656C217.786 32.388 217.426 32.1992 216.964 32.1992C216.505 32.1992 216.148 32.3864 215.895 32.7607C215.641 33.1351 215.514 33.7145 215.514 34.499C215.514 35.277 215.641 35.8548 215.895 36.2324C216.148 36.61 216.505 36.7988 216.964 36.7988C217.195 36.7988 217.402 36.7533 217.584 36.6621C217.766 36.5677 217.919 36.4261 218.043 36.2373C218.17 36.0485 218.266 35.8109 218.331 35.5244C218.399 35.2347 218.434 34.8929 218.434 34.499ZM219.767 34.499C219.767 35.1631 219.693 35.7246 219.547 36.1836C219.4 36.6426 219.2 37.0137 218.946 37.2969C218.692 37.5801 218.395 37.7852 218.053 37.9121C217.714 38.0358 217.351 38.0977 216.964 38.0977C216.576 38.0977 216.212 38.0342 215.87 37.9072C215.532 37.777 215.235 37.5703 214.981 37.2871C214.731 37.0007 214.532 36.6296 214.386 36.1738C214.239 35.7148 214.166 35.1566 214.166 34.499C214.166 33.835 214.239 33.2751 214.386 32.8193C214.532 32.3604 214.731 31.9893 214.981 31.7061C215.235 31.4229 215.532 31.2178 215.87 31.0908C216.212 30.9639 216.576 30.9004 216.964 30.9004C217.351 30.9004 217.714 30.9655 218.053 31.0957C218.395 31.2227 218.692 31.4294 218.946 31.7158C219.2 32.0023 219.4 32.3734 219.547 32.8291C219.693 33.2848 219.767 33.8415 219.767 34.499Z" fill="black"/>
<path d="M36.8301 35.998C36.8301 36.3138 36.7585 36.6051 36.6152 36.8721C36.472 37.139 36.2751 37.3701 36.0244 37.5654C35.777 37.7575 35.4873 37.9072 35.1553 38.0146C34.8232 38.1253 34.4684 38.1807 34.0908 38.1807C33.7132 38.1807 33.3584 38.1253 33.0264 38.0146C32.6943 37.9072 32.403 37.7575 32.1523 37.5654C31.9049 37.3701 31.7096 37.139 31.5664 36.8721C31.4232 36.6051 31.3516 36.3138 31.3516 35.998C31.3516 35.8158 31.376 35.6383 31.4248 35.4658C31.4736 35.29 31.5436 35.1257 31.6348 34.9727C31.7292 34.8197 31.8415 34.6797 31.9717 34.5527C32.1019 34.4225 32.2484 34.3118 32.4111 34.2207C32.3102 34.1328 32.2191 34.0319 32.1377 33.918C32.0596 33.804 31.9912 33.6836 31.9326 33.5566C31.8773 33.4297 31.835 33.2995 31.8057 33.166C31.7764 33.0293 31.7617 32.8942 31.7617 32.7607C31.7617 32.4873 31.8219 32.2318 31.9424 31.9941C32.0661 31.7533 32.2337 31.5433 32.4453 31.3643C32.6569 31.182 32.9043 31.0387 33.1875 30.9346C33.4707 30.8304 33.7718 30.7783 34.0908 30.7783C34.4131 30.7783 34.7158 30.8304 34.999 30.9346C35.2822 31.0387 35.5296 31.182 35.7412 31.3643C35.9561 31.5433 36.1237 31.7533 36.2441 31.9941C36.3678 32.2318 36.4297 32.4873 36.4297 32.7607C36.4297 32.8942 36.4134 33.0293 36.3809 33.166C36.3516 33.2995 36.3092 33.4313 36.2539 33.5615C36.1986 33.6885 36.1302 33.8089 36.0488 33.9229C35.9707 34.0368 35.8812 34.1393 35.7803 34.2305C35.9398 34.3216 36.0846 34.4307 36.2148 34.5576C36.3451 34.6846 36.4557 34.8245 36.5469 34.9775C36.638 35.1305 36.708 35.2933 36.7568 35.4658C36.8057 35.6383 36.8301 35.8158 36.8301 35.998ZM35.0576 32.9121C35.0576 32.7982 35.0316 32.6924 34.9795 32.5947C34.9307 32.4938 34.8623 32.4059 34.7744 32.3311C34.6898 32.2562 34.5889 32.1976 34.4717 32.1553C34.3545 32.113 34.2308 32.0918 34.1006 32.0918C33.9671 32.0918 33.8418 32.113 33.7246 32.1553C33.6074 32.1976 33.5049 32.2562 33.417 32.3311C33.3324 32.4059 33.264 32.4938 33.2119 32.5947C33.1631 32.6924 33.1387 32.7982 33.1387 32.9121C33.1387 33.026 33.1631 33.1318 33.2119 33.2295C33.264 33.3271 33.3324 33.4118 33.417 33.4834C33.5049 33.555 33.6074 33.612 33.7246 33.6543C33.8418 33.6966 33.9671 33.7178 34.1006 33.7178C34.2308 33.7178 34.3545 33.6966 34.4717 33.6543C34.5889 33.612 34.6898 33.555 34.7744 33.4834C34.8623 33.4118 34.9307 33.3271 34.9795 33.2295C35.0316 33.1318 35.0576 33.026 35.0576 32.9121ZM35.4385 35.959C35.4385 35.8027 35.4027 35.6579 35.3311 35.5244C35.2627 35.3877 35.1667 35.2689 35.043 35.168C34.9225 35.0671 34.7793 34.9873 34.6133 34.9287C34.4505 34.8701 34.2764 34.8408 34.0908 34.8408C33.9053 34.8408 33.7311 34.8701 33.5684 34.9287C33.4056 34.9873 33.2624 35.0671 33.1387 35.168C33.0182 35.2689 32.9222 35.3877 32.8506 35.5244C32.7822 35.6579 32.748 35.8027 32.748 35.959C32.748 36.1152 32.7822 36.2585 32.8506 36.3887C32.9222 36.5189 33.0182 36.6312 33.1387 36.7256C33.2624 36.82 33.4056 36.8949 33.5684 36.9502C33.7311 37.0023 33.9053 37.0283 34.0908 37.0283C34.2764 37.0283 34.4505 37.0023 34.6133 36.9502C34.7793 36.8949 34.9225 36.82 35.043 36.7256C35.1667 36.6312 35.2627 36.5189 35.3311 36.3887C35.4027 36.2585 35.4385 36.1152 35.4385 35.959ZM39.4033 34.6992C39.4033 34.8164 39.3805 34.9271 39.335 35.0312C39.2926 35.1322 39.234 35.2201 39.1592 35.2949C39.0843 35.3698 38.9964 35.43 38.8955 35.4756C38.7946 35.5179 38.6872 35.5391 38.5732 35.5391C38.4561 35.5391 38.347 35.5179 38.2461 35.4756C38.1452 35.43 38.0557 35.3698 37.9775 35.2949C37.9027 35.2201 37.8424 35.1322 37.7969 35.0312C37.7546 34.9271 37.7334 34.8164 37.7334 34.6992C37.7334 34.5885 37.7546 34.4827 37.7969 34.3818C37.8424 34.2809 37.9027 34.193 37.9775 34.1182C38.0557 34.04 38.1452 33.9798 38.2461 33.9375C38.347 33.8919 38.4561 33.8691 38.5732 33.8691C38.6872 33.8691 38.7946 33.8919 38.8955 33.9375C38.9964 33.9798 39.0843 34.04 39.1592 34.1182C39.234 34.193 39.2926 34.2809 39.335 34.3818C39.3805 34.4827 39.4033 34.5885 39.4033 34.6992ZM39.4033 37.502C39.4033 37.6191 39.3805 37.7298 39.335 37.834C39.2926 37.9349 39.234 38.0228 39.1592 38.0977C39.0843 38.1725 38.9964 38.2311 38.8955 38.2734C38.7946 38.319 38.6872 38.3418 38.5732 38.3418C38.4561 38.3418 38.347 38.319 38.2461 38.2734C38.1452 38.2311 38.0557 38.1725 37.9775 38.0977C37.9027 38.0228 37.8424 37.9349 37.7969 37.834C37.7546 37.7298 37.7334 37.6191 37.7334 37.502C37.7334 37.388 37.7546 37.2806 37.7969 37.1797C37.8424 37.0788 37.9027 36.9909 37.9775 36.916C38.0557 36.8411 38.1452 36.7826 38.2461 36.7402C38.347 36.6947 38.4561 36.6719 38.5732 36.6719C38.6872 36.6719 38.7946 36.6947 38.8955 36.7402C38.9964 36.7826 39.0843 36.8411 39.1592 36.916C39.234 36.9909 39.2926 37.0788 39.335 37.1797C39.3805 37.2806 39.4033 37.388 39.4033 37.502ZM44.6328 34.499C44.6328 33.721 44.5026 33.1432 44.2422 32.7656C43.985 32.388 43.6253 32.1992 43.1631 32.1992C42.7041 32.1992 42.3477 32.3864 42.0938 32.7607C41.8398 33.1351 41.7129 33.7145 41.7129 34.499C41.7129 35.277 41.8398 35.8548 42.0938 36.2324C42.3477 36.61 42.7041 36.7988 43.1631 36.7988C43.3942 36.7988 43.6009 36.7533 43.7832 36.6621C43.9655 36.5677 44.1185 36.4261 44.2422 36.2373C44.3691 36.0485 44.4652 35.8109 44.5303 35.5244C44.5986 35.2347 44.6328 34.8929 44.6328 34.499ZM45.9658 34.499C45.9658 35.1631 45.8926 35.7246 45.7461 36.1836C45.5996 36.6426 45.3994 37.0137 45.1455 37.2969C44.8916 37.5801 44.5938 37.7852 44.252 37.9121C43.9134 38.0358 43.5505 38.0977 43.1631 38.0977C42.7757 38.0977 42.4111 38.0342 42.0693 37.9072C41.7308 37.777 41.4346 37.5703 41.1807 37.2871C40.93 37.0007 40.7314 36.6296 40.585 36.1738C40.4385 35.7148 40.3652 35.1566 40.3652 34.499C40.3652 33.835 40.4385 33.2751 40.585 32.8193C40.7314 32.3604 40.93 31.9893 41.1807 31.7061C41.4346 31.4229 41.7308 31.2178 42.0693 31.0908C42.4111 30.9639 42.7757 30.9004 43.1631 30.9004C43.5505 30.9004 43.9134 30.9655 44.252 31.0957C44.5938 31.2227 44.8916 31.4294 45.1455 31.7158C45.3994 32.0023 45.5996 32.3734 45.7461 32.8291C45.8926 33.2848 45.9658 33.8415 45.9658 34.499ZM51.0586 34.499C51.0586 33.721 50.9284 33.1432 50.668 32.7656C50.4108 32.388 50.0511 32.1992 49.5889 32.1992C49.1299 32.1992 48.7734 32.3864 48.5195 32.7607C48.2656 33.1351 48.1387 33.7145 48.1387 34.499C48.1387 35.277 48.2656 35.8548 48.5195 36.2324C48.7734 36.61 49.1299 36.7988 49.5889 36.7988C49.82 36.7988 50.0267 36.7533 50.209 36.6621C50.3913 36.5677 50.5443 36.4261 50.668 36.2373C50.7949 36.0485 50.891 35.8109 50.9561 35.5244C51.0244 35.2347 51.0586 34.8929 51.0586 34.499ZM52.3916 34.499C52.3916 35.1631 52.3184 35.7246 52.1719 36.1836C52.0254 36.6426 51.8252 37.0137 51.5713 37.2969C51.3174 37.5801 51.0195 37.7852 50.6777 37.9121C50.3392 38.0358 49.9762 38.0977 49.5889 38.0977C49.2015 38.0977 48.8369 38.0342 48.4951 37.9072C48.1566 37.777 47.8604 37.5703 47.6064 37.2871C47.3558 37.0007 47.1572 36.6296 47.0107 36.1738C46.8643 35.7148 46.791 35.1566 46.791 34.499C46.791 33.835 46.8643 33.2751 47.0107 32.8193C47.1572 32.3604 47.3558 31.9893 47.6064 31.7061C47.8604 31.4229 48.1566 31.2178 48.4951 31.0908C48.8369 30.9639 49.2015 30.9004 49.5889 30.9004C49.9762 30.9004 50.3392 30.9655 50.6777 31.0957C51.0195 31.2227 51.3174 31.4294 51.5713 31.7158C51.8252 32.0023 52.0254 32.3734 52.1719 32.8291C52.3184 33.2848 52.3916 33.8415 52.3916 34.499ZM57.499 33.8008V35.1289H53.3975V33.8008H57.499ZM63.8809 33.5713C63.8809 34.0205 63.8353 34.46 63.7441 34.8896C63.6562 35.3161 63.5277 35.7197 63.3584 36.1006C63.1891 36.4814 62.9824 36.833 62.7383 37.1553C62.4941 37.4775 62.2174 37.7591 61.9082 38H60.0186C60.2171 37.873 60.4092 37.7314 60.5947 37.5752C60.7803 37.4189 60.9561 37.2513 61.1221 37.0723C61.2913 36.8932 61.4476 36.7044 61.5908 36.5059C61.734 36.3073 61.861 36.1022 61.9717 35.8906C61.8285 35.985 61.6755 36.0664 61.5127 36.1348C61.3499 36.1999 61.1823 36.2324 61.0098 36.2324C60.6126 36.2324 60.2562 36.1673 59.9404 36.0371C59.6247 35.9036 59.3545 35.7197 59.1299 35.4854C58.9085 35.2477 58.7376 34.9661 58.6172 34.6406C58.5 34.3151 58.4414 33.9587 58.4414 33.5713C58.4414 33.1937 58.5081 32.8372 58.6416 32.502C58.7783 32.1634 58.9655 31.8688 59.2031 31.6182C59.4408 31.3643 59.7223 31.1641 60.0479 31.0176C60.3734 30.8711 60.7266 30.7979 61.1074 30.7979C61.4915 30.7979 61.8512 30.8711 62.1865 31.0176C62.5251 31.1641 62.8197 31.3643 63.0703 31.6182C63.321 31.8688 63.5179 32.1634 63.6611 32.502C63.8076 32.8372 63.8809 33.1937 63.8809 33.5713ZM62.3818 33.5713C62.3818 33.3923 62.3509 33.2197 62.2891 33.0537C62.2272 32.8877 62.1393 32.7412 62.0254 32.6143C61.9147 32.4873 61.7812 32.3864 61.625 32.3115C61.4688 32.2367 61.2962 32.1992 61.1074 32.1992C60.9154 32.1992 60.7412 32.2367 60.585 32.3115C60.432 32.3831 60.3001 32.4808 60.1895 32.6045C60.0788 32.7282 59.9941 32.873 59.9355 33.0391C59.877 33.2051 59.8477 33.3825 59.8477 33.5713C59.8477 33.7568 59.877 33.9326 59.9355 34.0986C59.9941 34.2614 60.0788 34.4046 60.1895 34.5283C60.3001 34.652 60.432 34.7497 60.585 34.8213C60.7412 34.8929 60.9154 34.9287 61.1074 34.9287C61.2995 34.9287 61.4736 34.8929 61.6299 34.8213C61.7894 34.7497 61.9245 34.652 62.0352 34.5283C62.1458 34.4046 62.2305 34.2614 62.2891 34.0986C62.3509 33.9326 62.3818 33.7568 62.3818 33.5713ZM66.4834 34.6992C66.4834 34.8164 66.4606 34.9271 66.415 35.0312C66.3727 35.1322 66.3141 35.2201 66.2393 35.2949C66.1644 35.3698 66.0765 35.43 65.9756 35.4756C65.8747 35.5179 65.7673 35.5391 65.6533 35.5391C65.5361 35.5391 65.4271 35.5179 65.3262 35.4756C65.2253 35.43 65.1357 35.3698 65.0576 35.2949C64.9827 35.2201 64.9225 35.1322 64.877 35.0312C64.8346 34.9271 64.8135 34.8164 64.8135 34.6992C64.8135 34.5885 64.8346 34.4827 64.877 34.3818C64.9225 34.2809 64.9827 34.193 65.0576 34.1182C65.1357 34.04 65.2253 33.9798 65.3262 33.9375C65.4271 33.8919 65.5361 33.8691 65.6533 33.8691C65.7673 33.8691 65.8747 33.8919 65.9756 33.9375C66.0765 33.9798 66.1644 34.04 66.2393 34.1182C66.3141 34.193 66.3727 34.2809 66.415 34.3818C66.4606 34.4827 66.4834 34.5885 66.4834 34.6992ZM66.4834 37.502C66.4834 37.6191 66.4606 37.7298 66.415 37.834C66.3727 37.9349 66.3141 38.0228 66.2393 38.0977C66.1644 38.1725 66.0765 38.2311 65.9756 38.2734C65.8747 38.319 65.7673 38.3418 65.6533 38.3418C65.5361 38.3418 65.4271 38.319 65.3262 38.2734C65.2253 38.2311 65.1357 38.1725 65.0576 38.0977C64.9827 38.0228 64.9225 37.9349 64.877 37.834C64.8346 37.7298 64.8135 37.6191 64.8135 37.502C64.8135 37.388 64.8346 37.2806 64.877 37.1797C64.9225 37.0788 64.9827 36.9909 65.0576 36.916C65.1357 36.8411 65.2253 36.7826 65.3262 36.7402C65.4271 36.6947 65.5361 36.6719 65.6533 36.6719C65.7673 36.6719 65.8747 36.6947 65.9756 36.7402C66.0765 36.7826 66.1644 36.8411 66.2393 36.916C66.3141 36.9909 66.3727 37.0788 66.415 37.1797C66.4606 37.2806 66.4834 37.388 66.4834 37.502ZM72.4258 35.9004C72.4258 36.1901 72.3704 36.4619 72.2598 36.7158C72.1491 36.9697 71.9977 37.1927 71.8057 37.3848C71.6169 37.5736 71.3955 37.7233 71.1416 37.834C70.8877 37.9447 70.6159 38 70.3262 38H67.5234V36.5986H70.3262C70.4238 36.5986 70.515 36.5807 70.5996 36.5449C70.6842 36.5091 70.7575 36.4603 70.8193 36.3984C70.8844 36.3333 70.9349 36.2585 70.9707 36.1738C71.0065 36.0892 71.0244 35.998 71.0244 35.9004C71.0244 35.8027 71.0065 35.7116 70.9707 35.627C70.9349 35.5423 70.8844 35.4691 70.8193 35.4072C70.7575 35.3421 70.6842 35.2917 70.5996 35.2559C70.515 35.2201 70.4238 35.2021 70.3262 35.2021H68.417V33.8008H70.3262C70.4238 33.8008 70.515 33.7829 70.5996 33.7471C70.6842 33.7113 70.7575 33.6624 70.8193 33.6006C70.8844 33.5355 70.9349 33.4606 70.9707 33.376C71.0065 33.2881 71.0244 33.1953 71.0244 33.0977C71.0244 33 71.0065 32.9089 70.9707 32.8242C70.9349 32.7396 70.8844 32.6663 70.8193 32.6045C70.7575 32.5394 70.6842 32.4889 70.5996 32.4531C70.515 32.4173 70.4238 32.3994 70.3262 32.3994H67.5234V30.998H70.3262C70.6159 30.998 70.8877 31.0534 71.1416 31.1641C71.3955 31.2747 71.6169 31.4261 71.8057 31.6182C71.9977 31.807 72.1491 32.0283 72.2598 32.2822C72.3704 32.5361 72.4258 32.8079 72.4258 33.0977C72.4258 33.3548 72.3786 33.6055 72.2842 33.8496C72.1898 34.0905 72.0563 34.307 71.8838 34.499C72.0563 34.6911 72.1898 34.9092 72.2842 35.1533C72.3786 35.3942 72.4258 35.6432 72.4258 35.9004ZM77.582 34.499C77.582 33.721 77.4518 33.1432 77.1914 32.7656C76.9342 32.388 76.5745 32.1992 76.1123 32.1992C75.6533 32.1992 75.2969 32.3864 75.043 32.7607C74.7891 33.1351 74.6621 33.7145 74.6621 34.499C74.6621 35.277 74.7891 35.8548 75.043 36.2324C75.2969 36.61 75.6533 36.7988 76.1123 36.7988C76.3434 36.7988 76.5501 36.7533 76.7324 36.6621C76.9147 36.5677 77.0677 36.4261 77.1914 36.2373C77.3184 36.0485 77.4144 35.8109 77.4795 35.5244C77.5479 35.2347 77.582 34.8929 77.582 34.499ZM78.915 34.499C78.915 35.1631 78.8418 35.7246 78.6953 36.1836C78.5488 36.6426 78.3486 37.0137 78.0947 37.2969C77.8408 37.5801 77.543 37.7852 77.2012 37.9121C76.8626 38.0358 76.4997 38.0977 76.1123 38.0977C75.7249 38.0977 75.3604 38.0342 75.0186 37.9072C74.68 37.777 74.3838 37.5703 74.1299 37.2871C73.8792 37.0007 73.6807 36.6296 73.5342 36.1738C73.3877 35.7148 73.3145 35.1566 73.3145 34.499C73.3145 33.835 73.3877 33.2751 73.5342 32.8193C73.6807 32.3604 73.8792 31.9893 74.1299 31.7061C74.3838 31.4229 74.68 31.2178 75.0186 31.0908C75.3604 30.9639 75.7249 30.9004 76.1123 30.9004C76.4997 30.9004 76.8626 30.9655 77.2012 31.0957C77.543 31.2227 77.8408 31.4294 78.0947 31.7158C78.3486 32.0023 78.5488 32.3734 78.6953 32.8291C78.8418 33.2848 78.915 33.8415 78.915 34.499Z" fill="black"/>
<path d="M575.48 37H574.079V31.3994H573.381V29.998H575.48V37ZM582.072 35.5986H581.374V37H579.973V35.5986H576.472L577.253 29.998H578.654L578.044 34.2021H579.973V30.7012H581.374V34.2021H582.072V35.5986ZM584.714 33.6992C584.714 33.8164 584.691 33.9271 584.646 34.0312C584.603 34.1322 584.545 34.2201 584.47 34.2949C584.395 34.3698 584.307 34.43 584.206 34.4756C584.105 34.5179 583.998 34.5391 583.884 34.5391C583.767 34.5391 583.658 34.5179 583.557 34.4756C583.456 34.43 583.366 34.3698 583.288 34.2949C583.213 34.2201 583.153 34.1322 583.107 34.0312C583.065 33.9271 583.044 33.8164 583.044 33.6992C583.044 33.5885 583.065 33.4827 583.107 33.3818C583.153 33.2809 583.213 33.193 583.288 33.1182C583.366 33.04 583.456 32.9798 583.557 32.9375C583.658 32.8919 583.767 32.8691 583.884 32.8691C583.998 32.8691 584.105 32.8919 584.206 32.9375C584.307 32.9798 584.395 33.04 584.47 33.1182C584.545 33.193 584.603 33.2809 584.646 33.3818C584.691 33.4827 584.714 33.5885 584.714 33.6992ZM584.714 36.502C584.714 36.6191 584.691 36.7298 584.646 36.834C584.603 36.9349 584.545 37.0228 584.47 37.0977C584.395 37.1725 584.307 37.2311 584.206 37.2734C584.105 37.319 583.998 37.3418 583.884 37.3418C583.767 37.3418 583.658 37.319 583.557 37.2734C583.456 37.2311 583.366 37.1725 583.288 37.0977C583.213 37.0228 583.153 36.9349 583.107 36.834C583.065 36.7298 583.044 36.6191 583.044 36.502C583.044 36.388 583.065 36.2806 583.107 36.1797C583.153 36.0788 583.213 35.9909 583.288 35.916C583.366 35.8411 583.456 35.7826 583.557 35.7402C583.658 35.6947 583.767 35.6719 583.884 35.6719C583.998 35.6719 584.105 35.6947 584.206 35.7402C584.307 35.7826 584.395 35.8411 584.47 35.916C584.545 35.9909 584.603 36.0788 584.646 36.1797C584.691 36.2806 584.714 36.388 584.714 36.502ZM589.943 33.499C589.943 32.721 589.813 32.1432 589.553 31.7656C589.296 31.388 588.936 31.1992 588.474 31.1992C588.015 31.1992 587.658 31.3864 587.404 31.7607C587.15 32.1351 587.023 32.7145 587.023 33.499C587.023 34.277 587.15 34.8548 587.404 35.2324C587.658 35.61 588.015 35.7988 588.474 35.7988C588.705 35.7988 588.911 35.7533 589.094 35.6621C589.276 35.5677 589.429 35.4261 589.553 35.2373C589.68 35.0485 589.776 34.8109 589.841 34.5244C589.909 34.2347 589.943 33.8929 589.943 33.499ZM591.276 33.499C591.276 34.1631 591.203 34.7246 591.057 35.1836C590.91 35.6426 590.71 36.0137 590.456 36.2969C590.202 36.5801 589.904 36.7852 589.562 36.9121C589.224 37.0358 588.861 37.0977 588.474 37.0977C588.086 37.0977 587.722 37.0342 587.38 36.9072C587.041 36.777 586.745 36.5703 586.491 36.2871C586.241 36.0007 586.042 35.6296 585.896 35.1738C585.749 34.7148 585.676 34.1566 585.676 33.499C585.676 32.835 585.749 32.2751 585.896 31.8193C586.042 31.3604 586.241 30.9893 586.491 30.7061C586.745 30.4229 587.041 30.2178 587.38 30.0908C587.722 29.9639 588.086 29.9004 588.474 29.9004C588.861 29.9004 589.224 29.9655 589.562 30.0957C589.904 30.2227 590.202 30.4294 590.456 30.7158C590.71 31.0023 590.91 31.3734 591.057 31.8291C591.203 32.2848 591.276 32.8415 591.276 33.499ZM596.369 33.499C596.369 32.721 596.239 32.1432 595.979 31.7656C595.721 31.388 595.362 31.1992 594.899 31.1992C594.44 31.1992 594.084 31.3864 593.83 31.7607C593.576 32.1351 593.449 32.7145 593.449 33.499C593.449 34.277 593.576 34.8548 593.83 35.2324C594.084 35.61 594.44 35.7988 594.899 35.7988C595.131 35.7988 595.337 35.7533 595.52 35.6621C595.702 35.5677 595.855 35.4261 595.979 35.2373C596.105 35.0485 596.201 34.8109 596.267 34.5244C596.335 34.2347 596.369 33.8929 596.369 33.499ZM597.702 33.499C597.702 34.1631 597.629 34.7246 597.482 35.1836C597.336 35.6426 597.136 36.0137 596.882 36.2969C596.628 36.5801 596.33 36.7852 595.988 36.9121C595.65 37.0358 595.287 37.0977 594.899 37.0977C594.512 37.0977 594.147 37.0342 593.806 36.9072C593.467 36.777 593.171 36.5703 592.917 36.2871C592.666 36.0007 592.468 35.6296 592.321 35.1738C592.175 34.7148 592.102 34.1566 592.102 33.499C592.102 32.835 592.175 32.2751 592.321 31.8193C592.468 31.3604 592.666 30.9893 592.917 30.7061C593.171 30.4229 593.467 30.2178 593.806 30.0908C594.147 29.9639 594.512 29.9004 594.899 29.9004C595.287 29.9004 595.65 29.9655 595.988 30.0957C596.33 30.2227 596.628 30.4294 596.882 30.7158C597.136 31.0023 597.336 31.3734 597.482 31.8291C597.629 32.2848 597.702 32.8415 597.702 33.499ZM602.81 32.8008V34.1289H598.708V32.8008H602.81ZM605.754 37H604.353V31.3994H603.654V29.998H605.754V37ZM611.965 34.7979C611.965 35.1396 611.905 35.4473 611.784 35.7207C611.664 35.9941 611.503 36.2253 611.301 36.4141C611.099 36.6029 610.865 36.7477 610.598 36.8486C610.334 36.9495 610.057 37 609.768 37H606.945V35.5986H609.768C609.862 35.5986 609.956 35.584 610.051 35.5547C610.148 35.5254 610.235 35.4782 610.31 35.4131C610.388 35.348 610.45 35.265 610.495 35.1641C610.544 35.0632 610.568 34.9411 610.568 34.7979C610.568 34.6676 610.544 34.5537 610.495 34.4561C610.45 34.3551 610.388 34.2721 610.31 34.207C610.235 34.1387 610.148 34.0882 610.051 34.0557C609.956 34.0199 609.862 34.002 609.768 34.002H606.945L607.355 29.998H611.677V31.3994H608.615L608.488 32.6006H609.768C610.057 32.6006 610.334 32.651 610.598 32.752C610.865 32.8529 611.099 32.9993 611.301 33.1914C611.503 33.3802 611.664 33.6113 611.784 33.8848C611.905 34.1549 611.965 34.4593 611.965 34.7979ZM614.538 33.6992C614.538 33.8164 614.515 33.9271 614.47 34.0312C614.427 34.1322 614.369 34.2201 614.294 34.2949C614.219 34.3698 614.131 34.43 614.03 34.4756C613.929 34.5179 613.822 34.5391 613.708 34.5391C613.591 34.5391 613.482 34.5179 613.381 34.4756C613.28 34.43 613.19 34.3698 613.112 34.2949C613.037 34.2201 612.977 34.1322 612.932 34.0312C612.889 33.9271 612.868 33.8164 612.868 33.6992C612.868 33.5885 612.889 33.4827 612.932 33.3818C612.977 33.2809 613.037 33.193 613.112 33.1182C613.19 33.04 613.28 32.9798 613.381 32.9375C613.482 32.8919 613.591 32.8691 613.708 32.8691C613.822 32.8691 613.929 32.8919 614.03 32.9375C614.131 32.9798 614.219 33.04 614.294 33.1182C614.369 33.193 614.427 33.2809 614.47 33.3818C614.515 33.4827 614.538 33.5885 614.538 33.6992ZM614.538 36.502C614.538 36.6191 614.515 36.7298 614.47 36.834C614.427 36.9349 614.369 37.0228 614.294 37.0977C614.219 37.1725 614.131 37.2311 614.03 37.2734C613.929 37.319 613.822 37.3418 613.708 37.3418C613.591 37.3418 613.482 37.319 613.381 37.2734C613.28 37.2311 613.19 37.1725 613.112 37.0977C613.037 37.0228 612.977 36.9349 612.932 36.834C612.889 36.7298 612.868 36.6191 612.868 36.502C612.868 36.388 612.889 36.2806 612.932 36.1797C612.977 36.0788 613.037 35.9909 613.112 35.916C613.19 35.8411 613.28 35.7826 613.381 35.7402C613.482 35.6947 613.591 35.6719 613.708 35.6719C613.822 35.6719 613.929 35.6947 614.03 35.7402C614.131 35.7826 614.219 35.8411 614.294 35.916C614.369 35.9909 614.427 36.0788 614.47 36.1797C614.515 36.2806 614.538 36.388 614.538 36.502ZM620.48 34.9004C620.48 35.1901 620.425 35.4619 620.314 35.7158C620.204 35.9697 620.052 36.1927 619.86 36.3848C619.672 36.5736 619.45 36.7233 619.196 36.834C618.942 36.9447 618.671 37 618.381 37H615.578V35.5986H618.381C618.479 35.5986 618.57 35.5807 618.654 35.5449C618.739 35.5091 618.812 35.4603 618.874 35.3984C618.939 35.3333 618.99 35.2585 619.025 35.1738C619.061 35.0892 619.079 34.998 619.079 34.9004C619.079 34.8027 619.061 34.7116 619.025 34.627C618.99 34.5423 618.939 34.4691 618.874 34.4072C618.812 34.3421 618.739 34.2917 618.654 34.2559C618.57 34.2201 618.479 34.2021 618.381 34.2021H616.472V32.8008H618.381C618.479 32.8008 618.57 32.7829 618.654 32.7471C618.739 32.7113 618.812 32.6624 618.874 32.6006C618.939 32.5355 618.99 32.4606 619.025 32.376C619.061 32.2881 619.079 32.1953 619.079 32.0977C619.079 32 619.061 31.9089 619.025 31.8242C618.99 31.7396 618.939 31.6663 618.874 31.6045C618.812 31.5394 618.739 31.4889 618.654 31.4531C618.57 31.4173 618.479 31.3994 618.381 31.3994H615.578V29.998H618.381C618.671 29.998 618.942 30.0534 619.196 30.1641C619.45 30.2747 619.672 30.4261 619.86 30.6182C620.052 30.807 620.204 31.0283 620.314 31.2822C620.425 31.5361 620.48 31.8079 620.48 32.0977C620.48 32.3548 620.433 32.6055 620.339 32.8496C620.244 33.0905 620.111 33.307 619.938 33.499C620.111 33.6911 620.244 33.9092 620.339 34.1533C620.433 34.3942 620.48 34.6432 620.48 34.9004ZM625.637 33.499C625.637 32.721 625.507 32.1432 625.246 31.7656C624.989 31.388 624.629 31.1992 624.167 31.1992C623.708 31.1992 623.352 31.3864 623.098 31.7607C622.844 32.1351 622.717 32.7145 622.717 33.499C622.717 34.277 622.844 34.8548 623.098 35.2324C623.352 35.61 623.708 35.7988 624.167 35.7988C624.398 35.7988 624.605 35.7533 624.787 35.6621C624.969 35.5677 625.122 35.4261 625.246 35.2373C625.373 35.0485 625.469 34.8109 625.534 34.5244C625.603 34.2347 625.637 33.8929 625.637 33.499ZM626.97 33.499C626.97 34.1631 626.896 34.7246 626.75 35.1836C626.604 35.6426 626.403 36.0137 626.149 36.2969C625.896 36.5801 625.598 36.7852 625.256 36.9121C624.917 37.0358 624.554 37.0977 624.167 37.0977C623.78 37.0977 623.415 37.0342 623.073 36.9072C622.735 36.777 622.438 36.5703 622.185 36.2871C621.934 36.0007 621.735 35.6296 621.589 35.1738C621.442 34.7148 621.369 34.1566 621.369 33.499C621.369 32.835 621.442 32.2751 621.589 31.8193C621.735 31.3604 621.934 30.9893 622.185 30.7061C622.438 30.4229 622.735 30.2178 623.073 30.0908C623.415 29.9639 623.78 29.9004 624.167 29.9004C624.554 29.9004 624.917 29.9655 625.256 30.0957C625.598 30.2227 625.896 30.4294 626.149 30.7158C626.403 31.0023 626.604 31.3734 626.75 31.8291C626.896 32.2848 626.97 32.8415 626.97 33.499Z" fill="black"/>
<path d="M308.48 38H307.079V32.3994H306.381V30.998H308.48V38ZM311.664 38H310.263V32.3994H309.564V30.998H311.664V38ZM314.589 34.6992C314.589 34.8164 314.566 34.9271 314.521 35.0312C314.478 35.1322 314.42 35.2201 314.345 35.2949C314.27 35.3698 314.182 35.43 314.081 35.4756C313.98 35.5179 313.873 35.5391 313.759 35.5391C313.642 35.5391 313.533 35.5179 313.432 35.4756C313.331 35.43 313.241 35.3698 313.163 35.2949C313.088 35.2201 313.028 35.1322 312.982 35.0312C312.94 34.9271 312.919 34.8164 312.919 34.6992C312.919 34.5885 312.94 34.4827 312.982 34.3818C313.028 34.2809 313.088 34.193 313.163 34.1182C313.241 34.04 313.331 33.9798 313.432 33.9375C313.533 33.8919 313.642 33.8691 313.759 33.8691C313.873 33.8691 313.98 33.8919 314.081 33.9375C314.182 33.9798 314.27 34.04 314.345 34.1182C314.42 34.193 314.478 34.2809 314.521 34.3818C314.566 34.4827 314.589 34.5885 314.589 34.6992ZM314.589 37.502C314.589 37.6191 314.566 37.7298 314.521 37.834C314.478 37.9349 314.42 38.0228 314.345 38.0977C314.27 38.1725 314.182 38.2311 314.081 38.2734C313.98 38.319 313.873 38.3418 313.759 38.3418C313.642 38.3418 313.533 38.319 313.432 38.2734C313.331 38.2311 313.241 38.1725 313.163 38.0977C313.088 38.0228 313.028 37.9349 312.982 37.834C312.94 37.7298 312.919 37.6191 312.919 37.502C312.919 37.388 312.94 37.2806 312.982 37.1797C313.028 37.0788 313.088 36.9909 313.163 36.916C313.241 36.8411 313.331 36.7826 313.432 36.7402C313.533 36.6947 313.642 36.6719 313.759 36.6719C313.873 36.6719 313.98 36.6947 314.081 36.7402C314.182 36.7826 314.27 36.8411 314.345 36.916C314.42 36.9909 314.478 37.0788 314.521 37.1797C314.566 37.2806 314.589 37.388 314.589 37.502ZM319.818 34.499C319.818 33.721 319.688 33.1432 319.428 32.7656C319.171 32.388 318.811 32.1992 318.349 32.1992C317.89 32.1992 317.533 32.3864 317.279 32.7607C317.025 33.1351 316.898 33.7145 316.898 34.499C316.898 35.277 317.025 35.8548 317.279 36.2324C317.533 36.61 317.89 36.7988 318.349 36.7988C318.58 36.7988 318.786 36.7533 318.969 36.6621C319.151 36.5677 319.304 36.4261 319.428 36.2373C319.555 36.0485 319.651 35.8109 319.716 35.5244C319.784 35.2347 319.818 34.8929 319.818 34.499ZM321.151 34.499C321.151 35.1631 321.078 35.7246 320.932 36.1836C320.785 36.6426 320.585 37.0137 320.331 37.2969C320.077 37.5801 319.779 37.7852 319.438 37.9121C319.099 38.0358 318.736 38.0977 318.349 38.0977C317.961 38.0977 317.597 38.0342 317.255 37.9072C316.916 37.777 316.62 37.5703 316.366 37.2871C316.116 37.0007 315.917 36.6296 315.771 36.1738C315.624 35.7148 315.551 35.1566 315.551 34.499C315.551 33.835 315.624 33.2751 315.771 32.8193C315.917 32.3604 316.116 31.9893 316.366 31.7061C316.62 31.4229 316.916 31.2178 317.255 31.0908C317.597 30.9639 317.961 30.9004 318.349 30.9004C318.736 30.9004 319.099 30.9655 319.438 31.0957C319.779 31.2227 320.077 31.4294 320.331 31.7158C320.585 32.0023 320.785 32.3734 320.932 32.8291C321.078 33.2848 321.151 33.8415 321.151 34.499ZM326.244 34.499C326.244 33.721 326.114 33.1432 325.854 32.7656C325.596 32.388 325.237 32.1992 324.774 32.1992C324.315 32.1992 323.959 32.3864 323.705 32.7607C323.451 33.1351 323.324 33.7145 323.324 34.499C323.324 35.277 323.451 35.8548 323.705 36.2324C323.959 36.61 324.315 36.7988 324.774 36.7988C325.006 36.7988 325.212 36.7533 325.395 36.6621C325.577 36.5677 325.73 36.4261 325.854 36.2373C325.98 36.0485 326.076 35.8109 326.142 35.5244C326.21 35.2347 326.244 34.8929 326.244 34.499ZM327.577 34.499C327.577 35.1631 327.504 35.7246 327.357 36.1836C327.211 36.6426 327.011 37.0137 326.757 37.2969C326.503 37.5801 326.205 37.7852 325.863 37.9121C325.525 38.0358 325.162 38.0977 324.774 38.0977C324.387 38.0977 324.022 38.0342 323.681 37.9072C323.342 37.777 323.046 37.5703 322.792 37.2871C322.541 37.0007 322.343 36.6296 322.196 36.1738C322.05 35.7148 321.977 35.1566 321.977 34.499C321.977 33.835 322.05 33.2751 322.196 32.8193C322.343 32.3604 322.541 31.9893 322.792 31.7061C323.046 31.4229 323.342 31.2178 323.681 31.0908C324.022 30.9639 324.387 30.9004 324.774 30.9004C325.162 30.9004 325.525 30.9655 325.863 31.0957C326.205 31.2227 326.503 31.4294 326.757 31.7158C327.011 32.0023 327.211 32.3734 327.357 32.8291C327.504 33.2848 327.577 33.8415 327.577 34.499ZM332.685 33.8008V35.1289H328.583V33.8008H332.685ZM335.629 38H334.228V32.3994H333.529V30.998H335.629V38ZM341.664 33.0977C341.664 33.3874 341.609 33.6608 341.498 33.918C341.387 34.1719 341.236 34.3949 341.044 34.5869C340.855 34.7757 340.634 34.9255 340.38 35.0361C340.126 35.1468 339.854 35.2021 339.564 35.2021H338.861C338.764 35.2021 338.673 35.2201 338.588 35.2559C338.503 35.2917 338.428 35.3421 338.363 35.4072C338.301 35.4691 338.253 35.5423 338.217 35.627C338.181 35.7116 338.163 35.8027 338.163 35.9004V36.5986H341.474V38H336.762V35.9004C336.762 35.6107 336.817 35.3389 336.928 35.085C337.038 34.8278 337.188 34.6048 337.377 34.416C337.569 34.224 337.792 34.0742 338.046 33.9668C338.3 33.8561 338.572 33.8008 338.861 33.8008H339.564C339.662 33.8008 339.753 33.7829 339.838 33.7471C339.923 33.7113 339.996 33.6624 340.058 33.6006C340.123 33.5355 340.173 33.4606 340.209 33.376C340.245 33.2881 340.263 33.1953 340.263 33.0977C340.263 33 340.245 32.9089 340.209 32.8242C340.173 32.7396 340.123 32.6663 340.058 32.6045C339.996 32.5394 339.923 32.4889 339.838 32.4531C339.753 32.4173 339.662 32.3994 339.564 32.3994H337.064V30.998H339.564C339.854 30.998 340.126 31.0534 340.38 31.1641C340.634 31.2747 340.855 31.4261 341.044 31.6182C341.236 31.807 341.387 32.0283 341.498 32.2822C341.609 32.5361 341.664 32.8079 341.664 33.0977ZM344.267 34.6992C344.267 34.8164 344.244 34.9271 344.198 35.0312C344.156 35.1322 344.097 35.2201 344.022 35.2949C343.948 35.3698 343.86 35.43 343.759 35.4756C343.658 35.5179 343.55 35.5391 343.437 35.5391C343.319 35.5391 343.21 35.5179 343.109 35.4756C343.008 35.43 342.919 35.3698 342.841 35.2949C342.766 35.2201 342.706 35.1322 342.66 35.0312C342.618 34.9271 342.597 34.8164 342.597 34.6992C342.597 34.5885 342.618 34.4827 342.66 34.3818C342.706 34.2809 342.766 34.193 342.841 34.1182C342.919 34.04 343.008 33.9798 343.109 33.9375C343.21 33.8919 343.319 33.8691 343.437 33.8691C343.55 33.8691 343.658 33.8919 343.759 33.9375C343.86 33.9798 343.948 34.04 344.022 34.1182C344.097 34.193 344.156 34.2809 344.198 34.3818C344.244 34.4827 344.267 34.5885 344.267 34.6992ZM344.267 37.502C344.267 37.6191 344.244 37.7298 344.198 37.834C344.156 37.9349 344.097 38.0228 344.022 38.0977C343.948 38.1725 343.86 38.2311 343.759 38.2734C343.658 38.319 343.55 38.3418 343.437 38.3418C343.319 38.3418 343.21 38.319 343.109 38.2734C343.008 38.2311 342.919 38.1725 342.841 38.0977C342.766 38.0228 342.706 37.9349 342.66 37.834C342.618 37.7298 342.597 37.6191 342.597 37.502C342.597 37.388 342.618 37.2806 342.66 37.1797C342.706 37.0788 342.766 36.9909 342.841 36.916C342.919 36.8411 343.008 36.7826 343.109 36.7402C343.21 36.6947 343.319 36.6719 343.437 36.6719C343.55 36.6719 343.658 36.6947 343.759 36.7402C343.86 36.7826 343.948 36.8411 344.022 36.916C344.097 36.9909 344.156 37.0788 344.198 37.1797C344.244 37.2806 344.267 37.388 344.267 37.502ZM350.209 35.9004C350.209 36.1901 350.154 36.4619 350.043 36.7158C349.932 36.9697 349.781 37.1927 349.589 37.3848C349.4 37.5736 349.179 37.7233 348.925 37.834C348.671 37.9447 348.399 38 348.109 38H345.307V36.5986H348.109C348.207 36.5986 348.298 36.5807 348.383 36.5449C348.467 36.5091 348.541 36.4603 348.603 36.3984C348.668 36.3333 348.718 36.2585 348.754 36.1738C348.79 36.0892 348.808 35.998 348.808 35.9004C348.808 35.8027 348.79 35.7116 348.754 35.627C348.718 35.5423 348.668 35.4691 348.603 35.4072C348.541 35.3421 348.467 35.2917 348.383 35.2559C348.298 35.2201 348.207 35.2021 348.109 35.2021H346.2V33.8008H348.109C348.207 33.8008 348.298 33.7829 348.383 33.7471C348.467 33.7113 348.541 33.6624 348.603 33.6006C348.668 33.5355 348.718 33.4606 348.754 33.376C348.79 33.2881 348.808 33.1953 348.808 33.0977C348.808 33 348.79 32.9089 348.754 32.8242C348.718 32.7396 348.668 32.6663 348.603 32.6045C348.541 32.5394 348.467 32.4889 348.383 32.4531C348.298 32.4173 348.207 32.3994 348.109 32.3994H345.307V30.998H348.109C348.399 30.998 348.671 31.0534 348.925 31.1641C349.179 31.2747 349.4 31.4261 349.589 31.6182C349.781 31.807 349.932 32.0283 350.043 32.2822C350.154 32.5361 350.209 32.8079 350.209 33.0977C350.209 33.3548 350.162 33.6055 350.067 33.8496C349.973 34.0905 349.84 34.307 349.667 34.499C349.84 34.6911 349.973 34.9092 350.067 35.1533C350.162 35.3942 350.209 35.6432 350.209 35.9004ZM355.365 34.499C355.365 33.721 355.235 33.1432 354.975 32.7656C354.717 32.388 354.358 32.1992 353.896 32.1992C353.437 32.1992 353.08 32.3864 352.826 32.7607C352.572 33.1351 352.445 33.7145 352.445 34.499C352.445 35.277 352.572 35.8548 352.826 36.2324C353.08 36.61 353.437 36.7988 353.896 36.7988C354.127 36.7988 354.333 36.7533 354.516 36.6621C354.698 36.5677 354.851 36.4261 354.975 36.2373C355.102 36.0485 355.198 35.8109 355.263 35.5244C355.331 35.2347 355.365 34.8929 355.365 34.499ZM356.698 34.499C356.698 35.1631 356.625 35.7246 356.479 36.1836C356.332 36.6426 356.132 37.0137 355.878 37.2969C355.624 37.5801 355.326 37.7852 354.984 37.9121C354.646 38.0358 354.283 38.0977 353.896 38.0977C353.508 38.0977 353.144 38.0342 352.802 37.9072C352.463 37.777 352.167 37.5703 351.913 37.2871C351.662 37.0007 351.464 36.6296 351.317 36.1738C351.171 35.7148 351.098 35.1566 351.098 34.499C351.098 33.835 351.171 33.2751 351.317 32.8193C351.464 32.3604 351.662 31.9893 351.913 31.7061C352.167 31.4229 352.463 31.2178 352.802 31.0908C353.144 30.9639 353.508 30.9004 353.896 30.9004C354.283 30.9004 354.646 30.9655 354.984 31.0957C355.326 31.2227 355.624 31.4294 355.878 31.7158C356.132 32.0023 356.332 32.3734 356.479 32.8291C356.625 33.2848 356.698 33.8415 356.698 34.499Z" fill="black"/>
<path d="M443.48 39H442.079V33.3994H441.381V31.998H443.48V39ZM449.516 34.0977C449.516 34.3874 449.46 34.6608 449.35 34.918C449.239 35.1719 449.088 35.3949 448.896 35.5869C448.707 35.7757 448.485 35.9255 448.231 36.0361C447.978 36.1468 447.706 36.2021 447.416 36.2021H446.713C446.615 36.2021 446.524 36.2201 446.439 36.2559C446.355 36.2917 446.28 36.3421 446.215 36.4072C446.153 36.4691 446.104 36.5423 446.068 36.627C446.033 36.7116 446.015 36.8027 446.015 36.9004V37.5986H449.325V39H444.613V36.9004C444.613 36.6107 444.669 36.3389 444.779 36.085C444.89 35.8278 445.04 35.6048 445.229 35.416C445.421 35.224 445.644 35.0742 445.897 34.9668C446.151 34.8561 446.423 34.8008 446.713 34.8008H447.416C447.514 34.8008 447.605 34.7829 447.689 34.7471C447.774 34.7113 447.847 34.6624 447.909 34.6006C447.974 34.5355 448.025 34.4606 448.061 34.376C448.096 34.2881 448.114 34.1953 448.114 34.0977C448.114 34 448.096 33.9089 448.061 33.8242C448.025 33.7396 447.974 33.6663 447.909 33.6045C447.847 33.5394 447.774 33.4889 447.689 33.4531C447.605 33.4173 447.514 33.3994 447.416 33.3994H444.916V31.998H447.416C447.706 31.998 447.978 32.0534 448.231 32.1641C448.485 32.2747 448.707 32.4261 448.896 32.6182C449.088 32.807 449.239 33.0283 449.35 33.2822C449.46 33.5361 449.516 33.8079 449.516 34.0977ZM452.118 35.6992C452.118 35.8164 452.095 35.9271 452.05 36.0312C452.007 36.1322 451.949 36.2201 451.874 36.2949C451.799 36.3698 451.711 36.43 451.61 36.4756C451.509 36.5179 451.402 36.5391 451.288 36.5391C451.171 36.5391 451.062 36.5179 450.961 36.4756C450.86 36.43 450.771 36.3698 450.692 36.2949C450.618 36.2201 450.557 36.1322 450.512 36.0312C450.469 35.9271 450.448 35.8164 450.448 35.6992C450.448 35.5885 450.469 35.4827 450.512 35.3818C450.557 35.2809 450.618 35.193 450.692 35.1182C450.771 35.04 450.86 34.9798 450.961 34.9375C451.062 34.8919 451.171 34.8691 451.288 34.8691C451.402 34.8691 451.509 34.8919 451.61 34.9375C451.711 34.9798 451.799 35.04 451.874 35.1182C451.949 35.193 452.007 35.2809 452.05 35.3818C452.095 35.4827 452.118 35.5885 452.118 35.6992ZM452.118 38.502C452.118 38.6191 452.095 38.7298 452.05 38.834C452.007 38.9349 451.949 39.0228 451.874 39.0977C451.799 39.1725 451.711 39.2311 451.61 39.2734C451.509 39.319 451.402 39.3418 451.288 39.3418C451.171 39.3418 451.062 39.319 450.961 39.2734C450.86 39.2311 450.771 39.1725 450.692 39.0977C450.618 39.0228 450.557 38.9349 450.512 38.834C450.469 38.7298 450.448 38.6191 450.448 38.502C450.448 38.388 450.469 38.2806 450.512 38.1797C450.557 38.0788 450.618 37.9909 450.692 37.916C450.771 37.8411 450.86 37.7826 450.961 37.7402C451.062 37.6947 451.171 37.6719 451.288 37.6719C451.402 37.6719 451.509 37.6947 451.61 37.7402C451.711 37.7826 451.799 37.8411 451.874 37.916C451.949 37.9909 452.007 38.0788 452.05 38.1797C452.095 38.2806 452.118 38.388 452.118 38.502ZM458.061 36.9004C458.061 37.1901 458.005 37.4619 457.895 37.7158C457.784 37.9697 457.632 38.1927 457.44 38.3848C457.252 38.5736 457.03 38.7233 456.776 38.834C456.522 38.9447 456.251 39 455.961 39H453.158V37.5986H455.961C456.059 37.5986 456.15 37.5807 456.234 37.5449C456.319 37.5091 456.392 37.4603 456.454 37.3984C456.519 37.3333 456.57 37.2585 456.605 37.1738C456.641 37.0892 456.659 36.998 456.659 36.9004C456.659 36.8027 456.641 36.7116 456.605 36.627C456.57 36.5423 456.519 36.4691 456.454 36.4072C456.392 36.3421 456.319 36.2917 456.234 36.2559C456.15 36.2201 456.059 36.2021 455.961 36.2021H454.052V34.8008H455.961C456.059 34.8008 456.15 34.7829 456.234 34.7471C456.319 34.7113 456.392 34.6624 456.454 34.6006C456.519 34.5355 456.57 34.4606 456.605 34.376C456.641 34.2881 456.659 34.1953 456.659 34.0977C456.659 34 456.641 33.9089 456.605 33.8242C456.57 33.7396 456.519 33.6663 456.454 33.6045C456.392 33.5394 456.319 33.4889 456.234 33.4531C456.15 33.4173 456.059 33.3994 455.961 33.3994H453.158V31.998H455.961C456.251 31.998 456.522 32.0534 456.776 32.1641C457.03 32.2747 457.252 32.4261 457.44 32.6182C457.632 32.807 457.784 33.0283 457.895 33.2822C458.005 33.5361 458.061 33.8079 458.061 34.0977C458.061 34.3548 458.013 34.6055 457.919 34.8496C457.825 35.0905 457.691 35.307 457.519 35.499C457.691 35.6911 457.825 35.9092 457.919 36.1533C458.013 36.3942 458.061 36.6432 458.061 36.9004ZM463.217 35.499C463.217 34.721 463.087 34.1432 462.826 33.7656C462.569 33.388 462.209 33.1992 461.747 33.1992C461.288 33.1992 460.932 33.3864 460.678 33.7607C460.424 34.1351 460.297 34.7145 460.297 35.499C460.297 36.277 460.424 36.8548 460.678 37.2324C460.932 37.61 461.288 37.7988 461.747 37.7988C461.978 37.7988 462.185 37.7533 462.367 37.6621C462.549 37.5677 462.702 37.4261 462.826 37.2373C462.953 37.0485 463.049 36.8109 463.114 36.5244C463.183 36.2347 463.217 35.8929 463.217 35.499ZM464.55 35.499C464.55 36.1631 464.477 36.7246 464.33 37.1836C464.184 37.6426 463.983 38.0137 463.729 38.2969C463.476 38.5801 463.178 38.7852 462.836 38.9121C462.497 39.0358 462.134 39.0977 461.747 39.0977C461.36 39.0977 460.995 39.0342 460.653 38.9072C460.315 38.777 460.019 38.5703 459.765 38.2871C459.514 38.0007 459.315 37.6296 459.169 37.1738C459.022 36.7148 458.949 36.1566 458.949 35.499C458.949 34.835 459.022 34.2751 459.169 33.8193C459.315 33.3604 459.514 32.9893 459.765 32.7061C460.019 32.4229 460.315 32.2178 460.653 32.0908C460.995 31.9639 461.36 31.9004 461.747 31.9004C462.134 31.9004 462.497 31.9655 462.836 32.0957C463.178 32.2227 463.476 32.4294 463.729 32.7158C463.983 33.0023 464.184 33.3734 464.33 33.8291C464.477 34.2848 464.55 34.8415 464.55 35.499ZM469.657 34.8008V36.1289H465.556V34.8008H469.657ZM472.602 39H471.2V33.3994H470.502V31.998H472.602V39ZM479.193 37.5986H478.495V39H477.094V37.5986H473.593L474.374 31.998H475.775L475.165 36.2021H477.094V32.7012H478.495V36.2021H479.193V37.5986ZM481.835 35.6992C481.835 35.8164 481.812 35.9271 481.767 36.0312C481.724 36.1322 481.666 36.2201 481.591 36.2949C481.516 36.3698 481.428 36.43 481.327 36.4756C481.226 36.5179 481.119 36.5391 481.005 36.5391C480.888 36.5391 480.779 36.5179 480.678 36.4756C480.577 36.43 480.487 36.3698 480.409 36.2949C480.334 36.2201 480.274 36.1322 480.229 36.0312C480.186 35.9271 480.165 35.8164 480.165 35.6992C480.165 35.5885 480.186 35.4827 480.229 35.3818C480.274 35.2809 480.334 35.193 480.409 35.1182C480.487 35.04 480.577 34.9798 480.678 34.9375C480.779 34.8919 480.888 34.8691 481.005 34.8691C481.119 34.8691 481.226 34.8919 481.327 34.9375C481.428 34.9798 481.516 35.04 481.591 35.1182C481.666 35.193 481.724 35.2809 481.767 35.3818C481.812 35.4827 481.835 35.5885 481.835 35.6992ZM481.835 38.502C481.835 38.6191 481.812 38.7298 481.767 38.834C481.724 38.9349 481.666 39.0228 481.591 39.0977C481.516 39.1725 481.428 39.2311 481.327 39.2734C481.226 39.319 481.119 39.3418 481.005 39.3418C480.888 39.3418 480.779 39.319 480.678 39.2734C480.577 39.2311 480.487 39.1725 480.409 39.0977C480.334 39.0228 480.274 38.9349 480.229 38.834C480.186 38.7298 480.165 38.6191 480.165 38.502C480.165 38.388 480.186 38.2806 480.229 38.1797C480.274 38.0788 480.334 37.9909 480.409 37.916C480.487 37.8411 480.577 37.7826 480.678 37.7402C480.779 37.6947 480.888 37.6719 481.005 37.6719C481.119 37.6719 481.226 37.6947 481.327 37.7402C481.428 37.7826 481.516 37.8411 481.591 37.916C481.666 37.9909 481.724 38.0788 481.767 38.1797C481.812 38.2806 481.835 38.388 481.835 38.502ZM487.064 35.499C487.064 34.721 486.934 34.1432 486.674 33.7656C486.417 33.388 486.057 33.1992 485.595 33.1992C485.136 33.1992 484.779 33.3864 484.525 33.7607C484.271 34.1351 484.145 34.7145 484.145 35.499C484.145 36.277 484.271 36.8548 484.525 37.2324C484.779 37.61 485.136 37.7988 485.595 37.7988C485.826 37.7988 486.033 37.7533 486.215 37.6621C486.397 37.5677 486.55 37.4261 486.674 37.2373C486.801 37.0485 486.897 36.8109 486.962 36.5244C487.03 36.2347 487.064 35.8929 487.064 35.499ZM488.397 35.499C488.397 36.1631 488.324 36.7246 488.178 37.1836C488.031 37.6426 487.831 38.0137 487.577 38.2969C487.323 38.5801 487.025 38.7852 486.684 38.9121C486.345 39.0358 485.982 39.0977 485.595 39.0977C485.207 39.0977 484.843 39.0342 484.501 38.9072C484.162 38.777 483.866 38.5703 483.612 38.2871C483.362 38.0007 483.163 37.6296 483.017 37.1738C482.87 36.7148 482.797 36.1566 482.797 35.499C482.797 34.835 482.87 34.2751 483.017 33.8193C483.163 33.3604 483.362 32.9893 483.612 32.7061C483.866 32.4229 484.162 32.2178 484.501 32.0908C484.843 31.9639 485.207 31.9004 485.595 31.9004C485.982 31.9004 486.345 31.9655 486.684 32.0957C487.025 32.2227 487.323 32.4294 487.577 32.7158C487.831 33.0023 488.031 33.3734 488.178 33.8291C488.324 34.2848 488.397 34.8415 488.397 35.499ZM493.49 35.499C493.49 34.721 493.36 34.1432 493.1 33.7656C492.842 33.388 492.483 33.1992 492.021 33.1992C491.562 33.1992 491.205 33.3864 490.951 33.7607C490.697 34.1351 490.57 34.7145 490.57 35.499C490.57 36.277 490.697 36.8548 490.951 37.2324C491.205 37.61 491.562 37.7988 492.021 37.7988C492.252 37.7988 492.458 37.7533 492.641 37.6621C492.823 37.5677 492.976 37.4261 493.1 37.2373C493.227 37.0485 493.323 36.8109 493.388 36.5244C493.456 36.2347 493.49 35.8929 493.49 35.499ZM494.823 35.499C494.823 36.1631 494.75 36.7246 494.604 37.1836C494.457 37.6426 494.257 38.0137 494.003 38.2969C493.749 38.5801 493.451 38.7852 493.109 38.9121C492.771 39.0358 492.408 39.0977 492.021 39.0977C491.633 39.0977 491.269 39.0342 490.927 38.9072C490.588 38.777 490.292 38.5703 490.038 38.2871C489.787 38.0007 489.589 37.6296 489.442 37.1738C489.296 36.7148 489.223 36.1566 489.223 35.499C489.223 34.835 489.296 34.2751 489.442 33.8193C489.589 33.3604 489.787 32.9893 490.038 32.7061C490.292 32.4229 490.588 32.2178 490.927 32.0908C491.269 31.9639 491.633 31.9004 492.021 31.9004C492.408 31.9004 492.771 31.9655 493.109 32.0957C493.451 32.2227 493.749 32.4294 494.003 32.7158C494.257 33.0023 494.457 33.3734 494.604 33.8291C494.75 34.2848 494.823 34.8415 494.823 35.499Z" fill="black"/>
<path d="M382.237 237.439C394.095 237.439 403.707 227.827 403.707 215.97C403.707 204.112 394.095 194.5 382.237 194.5C370.38 194.5 360.768 204.112 360.768 215.97C360.768 227.827 370.38 237.439 382.237 237.439Z" fill="#0288D1"/>
<path d="M385.816 233.857C397.674 233.857 407.286 224.245 407.286 212.388C407.286 200.53 397.674 190.918 385.816 190.918C373.959 190.918 364.347 200.53 364.347 212.388C364.347 224.245 373.959 233.857 385.816 233.857Z" stroke="#3F3D56" stroke-miterlimit="10"/>
<path d="M413.368 252.109H354.684V257.835H413.368V252.109Z" fill="#F2F2F2"/>
<path d="M332.203 167.034L335.783 159.161C335.783 159.161 344.371 136.26 336.498 140.556C328.626 144.853 325.763 156.301 325.763 156.301L323.616 163.458L332.203 167.034Z" fill="#9F616A"/>
<path d="M430.246 285.832C430.246 285.832 418.08 309.449 414.502 310.165C410.924 310.881 410.922 288.695 410.922 288.695C410.922 288.695 418.079 282.254 420.941 282.97C423.803 283.685 430.246 285.832 430.246 285.832Z" fill="#9F616A"/>
<path d="M412.355 434.691C412.355 434.691 418.796 438.272 415.935 446.142C413.074 454.012 411.641 451.867 410.21 458.308C408.778 464.749 395.897 464.033 395.181 461.171C394.465 458.309 393.034 446.858 396.612 442.566C400.191 438.274 412.355 434.691 412.355 434.691Z" fill="#090814"/>
<path d="M348.661 434.691C348.661 434.691 342.221 438.272 345.081 446.142C347.942 454.012 349.375 451.867 350.806 458.308C352.238 464.749 365.119 464.033 365.835 461.171C366.551 458.309 367.982 446.858 364.404 442.566C360.826 438.274 348.661 434.691 348.661 434.691Z" fill="#090814"/>
<path d="M408.774 291.563C408.774 291.563 414.499 295.143 415.93 317.328C417.362 339.514 415.215 364.562 414.499 370.288C413.783 376.013 415.214 384.601 416.646 388.893C418.077 393.185 413.066 426.107 413.066 426.107C414.122 428.345 414.669 430.789 414.669 433.263C414.669 435.738 414.122 438.182 413.066 440.42C409.486 448.292 398.753 456.164 395.89 448.292C395.74 445.545 395.174 418.95 395.174 418.95C395.174 418.95 392.312 391.755 393.027 384.598C393.743 377.441 384.439 335.217 383.008 328.061C381.577 320.905 382.293 315.179 381.577 317.326C380.861 319.473 367.983 378.874 367.983 378.874C367.983 378.874 369.415 416.804 368.699 421.814C367.983 426.823 362.974 456.881 355.101 449.009C347.229 441.136 348.661 438.273 347.945 434.695C347.229 431.117 347.945 426.823 347.945 421.098C347.945 415.372 342.219 383.167 345.082 378.158C347.944 373.149 346.513 366.707 345.797 355.257C345.081 343.806 344.366 288.701 351.522 278.681C358.679 268.661 408.774 291.563 408.774 291.563Z" fill="#090814"/>
<path d="M391.244 157.375C400.73 157.375 408.42 149.685 408.42 140.199C408.42 130.713 400.73 123.023 391.244 123.023C381.758 123.023 374.068 130.713 374.068 140.199C374.068 149.685 381.758 157.375 391.244 157.375Z" fill="#A0616A"/>
<path d="M402.336 146.993C402.336 146.993 401.621 172.758 405.199 177.051C408.778 181.343 374.426 173.47 374.426 173.47C374.426 173.47 382.298 157.01 377.289 146.275C372.279 135.541 402.336 146.993 402.336 146.993Z" fill="#9F616A"/>
<path d="M408.776 174.188C408.776 174.188 407.345 168.463 398.757 167.032C390.17 165.6 380.014 164.169 376.861 167.032C373.709 169.894 372.278 173.472 370.131 173.472H360.112L344.367 201.383C344.367 201.383 352.239 210.687 350.092 227.863C347.946 245.039 344.367 288.694 344.367 288.694C350.105 296.332 415.933 313.742 413.071 288.694C413.071 288.694 409.491 282.254 410.924 276.528C412.357 270.803 416.649 232.158 416.649 232.158L433.11 188.502C433.11 188.502 410.208 177.051 408.776 174.188Z" fill="#D6D6E3"/>
<path d="M434.246 190.941C439.063 203.649 434.279 235.085 434.279 235.085C434.279 235.085 437.278 242.549 436.672 249.134C436.065 255.72 434.933 273.586 434.933 273.586C434.933 273.586 434.646 298.953 420.785 286.038C420.785 286.038 416.43 283.294 418.376 271.05C420.322 258.805 418.519 237.234 417.706 231.613C416.892 225.991 413.718 208.197 413.718 208.197C413.718 208.197 429.43 178.234 434.246 190.941Z" fill="#D6D6E3"/>
<path d="M363.69 175.625L360.11 173.478C360.11 173.478 355.1 171.331 347.944 173.478C340.788 175.625 337.209 174.909 334.346 174.193C331.484 173.477 333.633 166.319 333.633 166.319C333.633 166.319 327.907 156.3 322.182 162.025C316.457 167.75 316.457 179.201 316.457 179.201C316.457 179.201 312.877 186.358 325.761 190.651C338.644 194.945 344.366 201.387 344.366 201.387H358.679L363.69 175.625Z" fill="#D6D6E3"/>
<path d="M390.078 160.698C390.056 160.059 389.85 159.441 389.485 158.917C389.12 158.392 388.611 157.985 388.02 157.742C387.23 157.473 386.408 157.311 385.575 157.259C383.138 156.945 380.631 156.051 379.211 154.19C377.321 151.711 377.838 148.243 376.323 145.552C375.618 144.493 374.847 143.479 374.013 142.518C371.372 138.98 370.903 134.463 370.663 130.166C370.545 129.294 370.646 128.406 370.957 127.583C371.41 126.843 371.959 126.166 372.589 125.569C373.657 124.328 374.233 122.739 374.209 121.102C374.131 117.774 378.893 115.538 382.266 114.388C385.638 113.238 389.296 113.056 392.889 113.007C394.955 112.979 397.086 113.003 398.985 113.758C400.077 114.232 401.104 114.843 402.042 115.577C406.021 118.49 409.758 122.071 411.093 126.603C411.618 128.671 411.862 130.801 411.819 132.935C411.882 133.598 411.785 134.266 411.535 134.883C411.058 135.844 409.932 136.364 409.204 137.178C407.845 138.698 408.089 140.899 407.913 142.867C407.693 144.897 406.999 146.846 405.887 148.558C404.775 150.27 403.277 151.697 401.512 152.724C400.779 153.082 400.105 153.549 399.51 154.108C399.062 154.701 398.691 155.348 398.406 156.035C396.975 158.783 393.368 160.601 390.078 160.698Z" fill="#090814"/>
</svg>
