<svg width="1120" height="699" viewBox="0 0 1120 699" fill="none" xmlns="http://www.w3.org/2000/svg">
<g clip-path="url(#clip0_244_2865)">
<path d="M292.609 426C410.246 426 505.609 330.637 505.609 213C505.609 95.3633 410.246 0 292.609 0C174.973 0 79.6094 95.3633 79.6094 213C79.6094 330.637 174.973 426 292.609 426Z" fill="#F2F2F2"/>
<path d="M0 51.1406C0 128.639 48.6181 191.349 108.701 191.349L0 51.1406Z" fill="#2F2E41"/>
<path d="M108.701 191.35C108.701 112.981 162.956 49.5664 230.005 49.5664L108.701 191.35Z" fill="#008EDB"/>
<path d="M39.3848 58.168C39.3848 131.783 70.3876 191.351 108.701 191.351L39.3848 58.168Z" fill="#008EDB"/>
<path d="M108.701 191.351C108.701 91.2138 171.411 10.1836 248.909 10.1836L108.701 191.351Z" fill="#2F2E41"/>
<path d="M85.832 192.338C85.832 192.338 101.248 191.863 105.893 188.555C110.539 185.246 129.606 181.296 130.759 186.602C131.911 191.908 153.926 212.99 136.522 213.13C119.118 213.271 96.0822 210.419 91.4453 207.595C86.8084 204.77 85.832 192.338 85.832 192.338Z" fill="#A8A8A8"/>
<path opacity="0.2" d="M136.832 211.286C119.428 211.427 96.3929 208.575 91.7559 205.751C88.2247 203.6 86.8175 195.881 86.3467 192.32C86.0206 192.334 85.832 192.34 85.832 192.34C85.832 192.34 86.8084 204.773 91.4453 207.598C96.0823 210.422 119.118 213.274 136.522 213.133C141.545 213.093 143.281 211.305 143.186 208.658C142.488 210.257 140.571 211.256 136.832 211.286Z" fill="black"/>
<path d="M198.609 449.938C301.887 449.938 385.609 438.549 385.609 424.499C385.609 410.448 301.887 399.059 198.609 399.059C95.3321 399.059 11.6094 410.448 11.6094 424.499C11.6094 438.549 95.3321 449.938 198.609 449.938Z" fill="#3F3D56"/>
<path opacity="0.1" d="M198.609 445.858C285.318 445.858 355.609 436.295 355.609 424.499C355.609 412.703 285.318 403.141 198.609 403.141C111.901 403.141 41.6094 412.703 41.6094 424.499C41.6094 436.295 111.901 445.858 198.609 445.858Z" fill="black"/>
<path d="M836.609 699C992.906 699 1119.61 681.763 1119.61 660.5C1119.61 639.237 992.906 622 836.609 622C680.313 622 553.609 639.237 553.609 660.5C553.609 681.763 680.313 699 836.609 699Z" fill="#3F3D56"/>
<path d="M310.609 668.625C404.498 668.625 480.609 658.271 480.609 645.498C480.609 632.725 404.498 622.371 310.609 622.371C216.721 622.371 140.609 632.725 140.609 645.498C140.609 658.271 216.721 668.625 310.609 668.625Z" fill="#3F3D56"/>
<path d="M462.609 626C552.609 649 725.609 596 744.609 536" stroke="#2F2E41" stroke-width="2" stroke-miterlimit="10"/>
<path d="M309.609 258.999C309.609 258.999 439.609 222.999 447.609 338.999C455.609 454.999 340.609 487.999 430.609 510.999" stroke="#2F2E41" stroke-width="2" stroke-miterlimit="10"/>
<path d="M184.012 537.282C184.012 537.282 223.084 526.462 225.488 561.327C227.893 596.191 193.329 606.11 220.379 613.022" stroke="#2F2E41" stroke-width="2" stroke-miterlimit="10"/>
<path d="M778.705 563.241L770.828 613.536C770.828 613.536 732.046 634.139 759.315 634.745C786.583 635.351 915.048 634.745 915.048 634.745C915.048 634.745 939.892 634.745 900.505 612.93L892.627 560.211L778.705 563.241Z" fill="#2F2E41"/>
<path opacity="0.1" d="M753.829 634.199C760.022 628.689 770.827 622.947 770.827 622.947L778.705 572.652L892.627 572.759L900.504 622.341C909.689 627.428 915.379 631.328 918.708 634.319C923.767 633.165 929.295 628.876 900.504 612.93L892.627 560.211L778.705 563.241L770.828 613.536C770.828 613.536 738.239 630.851 753.829 634.199Z" fill="black"/>
<path d="M1073.64 212.688H596.479C586.513 212.688 578.434 220.767 578.434 230.733V552.162C578.434 562.128 586.513 570.207 596.479 570.207H1073.64C1083.61 570.207 1091.69 562.128 1091.69 552.162V230.733C1091.69 220.767 1083.61 212.688 1073.64 212.688Z" fill="#2F2E41"/>
<path d="M1074.42 231.777H595.703V499.614H1074.42V231.777Z" fill="#3F3D56"/>
<path d="M835.059 226.321C836.732 226.321 838.089 224.965 838.089 223.292C838.089 221.618 836.732 220.262 835.059 220.262C833.386 220.262 832.029 221.618 832.029 223.292C832.029 224.965 833.386 226.321 835.059 226.321Z" fill="#F2F2F2"/>
<path d="M1091.69 520.82V552.161C1091.69 554.531 1091.22 556.877 1090.31 559.067C1089.41 561.256 1088.08 563.246 1086.4 564.922C1084.73 566.598 1082.74 567.927 1080.55 568.833C1078.36 569.74 1076.01 570.207 1073.64 570.207H596.479C594.109 570.207 591.763 569.74 589.573 568.833C587.384 567.927 585.394 566.598 583.718 564.922C582.043 563.246 580.713 561.256 579.807 559.067C578.9 556.877 578.433 554.531 578.434 552.161V520.82H1091.69Z" fill="#2F2E41"/>
<path d="M968.979 667.467V673.527H642.969V668.679L643.418 667.467L651.453 645.652H962.313L968.979 667.467Z" fill="#2F2E41"/>
<path d="M1094.44 661.533C1093.84 664.072 1091.6 666.75 1086.54 669.283C1068.36 678.373 1031.39 666.859 1031.39 666.859C1031.39 666.859 1002.91 662.012 1002.91 649.286C1003.71 648.739 1004.55 648.243 1005.41 647.802C1013.05 643.758 1038.39 633.781 1083.33 648.224C1086.64 649.263 1089.59 651.201 1091.87 653.821C1093.69 655.953 1095.12 658.656 1094.44 661.533Z" fill="#2F2E41"/>
<path opacity="0.1" d="M1094.44 661.533C1072.19 670.059 1052.35 670.695 1032 656.558C1021.73 649.432 1012.41 647.668 1005.41 647.802C1013.05 643.758 1038.39 633.781 1083.33 648.224C1086.64 649.263 1089.59 651.201 1091.87 653.821C1093.69 655.953 1095.12 658.656 1094.44 661.533Z" fill="black"/>
<path d="M1066.54 656.559C1070.89 656.559 1074.42 655.473 1074.42 654.135C1074.42 652.796 1070.89 651.711 1066.54 651.711C1062.19 651.711 1058.66 652.796 1058.66 654.135C1058.66 655.473 1062.19 656.559 1066.54 656.559Z" fill="#F2F2F2"/>
<path d="M835.06 557.179C841.419 557.179 846.574 552.024 846.574 545.666C846.574 539.307 841.419 534.152 835.06 534.152C828.702 534.152 823.547 539.307 823.547 545.666C823.547 552.024 828.702 557.179 835.06 557.179Z" fill="#F2F2F2"/>
<path opacity="0.1" d="M968.979 667.465V673.525H642.969V668.677L643.418 667.465H968.979Z" fill="black"/>
<path d="M316.609 159H108.609V401H316.609V159Z" fill="#2F2E41"/>
<path d="M337.609 135H87.6094V221H337.609V135Z" fill="#3F3D56"/>
<path d="M337.609 237H87.6094V323H337.609V237Z" fill="#3F3D56"/>
<path d="M337.609 339H87.6094V425H337.609V339Z" fill="#3F3D56"/>
<path opacity="0.4" d="M287.609 150H271.609V166H287.609V150Z" fill="#008EDB"/>
<path opacity="0.8" d="M310.609 150H294.609V166H310.609V150Z" fill="#008EDB"/>
<path d="M333.609 150H317.609V166H333.609V150Z" fill="#008EDB"/>
<path opacity="0.4" d="M287.609 251H271.609V267H287.609V251Z" fill="#008EDB"/>
<path opacity="0.8" d="M310.609 251H294.609V267H310.609V251Z" fill="#008EDB"/>
<path d="M333.609 251H317.609V267H333.609V251Z" fill="#008EDB"/>
<path opacity="0.4" d="M287.609 352H271.609V368H287.609V352Z" fill="#008EDB"/>
<path opacity="0.8" d="M310.609 352H294.609V368H310.609V352Z" fill="#008EDB"/>
<path d="M333.609 352H317.609V368H333.609V352Z" fill="#008EDB"/>
<path d="M316.609 617C360.24 617 395.609 581.63 395.609 538C395.609 494.37 360.24 459 316.609 459C272.979 459 237.609 494.37 237.609 538C237.609 581.63 272.979 617 316.609 617Z" fill="#2F2E41"/>
<path d="M304.609 600H280.609V643H304.609V600Z" fill="#2F2E41"/>
<path d="M352.609 600H328.609V643H352.609V600Z" fill="#2F2E41"/>
<path d="M300.609 651C311.655 651 320.609 647.642 320.609 643.5C320.609 639.358 311.655 636 300.609 636C289.564 636 280.609 639.358 280.609 643.5C280.609 647.642 289.564 651 300.609 651Z" fill="#2F2E41"/>
<path d="M348.609 650C359.655 650 368.609 646.642 368.609 642.5C368.609 638.358 359.655 635 348.609 635C337.564 635 328.609 638.358 328.609 642.5C328.609 646.642 337.564 650 348.609 650Z" fill="#2F2E41"/>
<path d="M318.609 545C333.521 545 345.609 532.912 345.609 518C345.609 503.088 333.521 491 318.609 491C303.698 491 291.609 503.088 291.609 518C291.609 532.912 303.698 545 318.609 545Z" fill="white"/>
<path d="M318.609 527C323.58 527 327.609 522.971 327.609 518C327.609 513.029 323.58 509 318.609 509C313.639 509 309.609 513.029 309.609 518C309.609 522.971 313.639 527 318.609 527Z" fill="#3F3D56"/>
<path d="M239.977 464.531C233.598 435.964 253.988 407.097 285.52 400.056C317.053 393.016 347.786 410.466 354.165 439.034C360.543 467.602 339.646 478.138 308.114 485.179C276.582 492.22 246.355 493.099 239.977 464.531Z" fill="#008EDB"/>
<path d="M390.703 522.242C410.759 513.658 424.832 501.596 422.137 495.3C419.443 489.003 401 490.858 380.945 499.442C360.889 508.026 346.815 520.088 349.51 526.384C352.205 532.68 370.648 530.826 390.703 522.242Z" fill="#2F2E41"/>
<path d="M242.703 575.242C262.759 566.658 276.832 554.596 274.137 548.299C271.443 542.003 253 543.858 232.945 552.442C212.889 561.026 198.815 573.088 201.51 579.384C204.205 585.68 222.648 583.826 242.703 575.242Z" fill="#2F2E41"/>
<path d="M362.609 561C362.609 568.732 342.701 584 320.609 584C298.518 584 277.609 569.732 277.609 562C277.609 554.268 298.518 556 320.609 556C342.701 556 362.609 553.268 362.609 561Z" fill="white"/>
<path d="M729.125 333.562C729.125 337.812 728.562 341.917 727.438 345.875C726.354 349.792 724.812 353.479 722.812 356.938C720.812 360.354 718.396 363.479 715.562 366.312C712.729 369.146 709.604 371.583 706.188 373.625C702.771 375.625 699.083 377.167 695.125 378.25C691.167 379.375 687.062 379.938 682.812 379.938C678.562 379.938 674.458 379.375 670.5 378.25C666.583 377.167 662.896 375.625 659.438 373.625C656.021 371.583 652.896 369.146 650.062 366.312C647.229 363.479 644.792 360.354 642.75 356.938C640.75 353.479 639.188 349.792 638.062 345.875C636.979 341.917 636.438 337.812 636.438 333.562C636.438 329.312 636.979 325.208 638.062 321.25C639.188 317.292 640.75 313.604 642.75 310.188C644.792 306.771 647.229 303.646 650.062 300.812C652.896 297.979 656.021 295.562 659.438 293.562C662.896 291.562 666.583 290.021 670.5 288.938C674.458 287.812 678.562 287.25 682.812 287.25C687.062 287.25 691.167 287.812 695.125 288.938C699.083 290.021 702.771 291.562 706.188 293.562C709.604 295.562 712.729 297.979 715.562 300.812C718.396 303.646 720.812 306.771 722.812 310.188C724.812 313.604 726.354 317.292 727.438 321.25C728.562 325.208 729.125 329.312 729.125 333.562ZM711.312 333.562C711.312 329.646 710.562 325.958 709.062 322.5C707.562 319 705.521 315.979 702.938 313.438C700.396 310.854 697.375 308.812 693.875 307.312C690.417 305.812 686.729 305.062 682.812 305.062C678.854 305.062 675.146 305.812 671.688 307.312C668.229 308.812 665.208 310.854 662.625 313.438C660.042 315.979 658 319 656.5 322.5C655 325.958 654.25 329.646 654.25 333.562C654.25 337.479 655 341.167 656.5 344.625C658 348.042 660.042 351.042 662.625 353.625C665.208 356.208 668.229 358.25 671.688 359.75C675.146 361.25 678.854 362 682.812 362C686.729 362 690.417 361.25 693.875 359.75C697.375 358.25 700.396 356.208 702.938 353.625C705.521 351.042 707.562 348.042 709.062 344.625C710.562 341.167 711.312 337.479 711.312 333.562ZM828.75 333.562C828.75 337.812 828.188 341.917 827.062 345.875C825.979 349.792 824.438 353.479 822.438 356.938C820.438 360.354 818.021 363.479 815.188 366.312C812.354 369.146 809.229 371.583 805.812 373.625C802.396 375.625 798.708 377.167 794.75 378.25C790.792 379.375 786.688 379.938 782.438 379.938C778.188 379.938 774.083 379.375 770.125 378.25C766.208 377.167 762.521 375.625 759.062 373.625C755.646 371.583 752.521 369.146 749.688 366.312C746.854 363.479 744.417 360.354 742.375 356.938C740.375 353.479 738.812 349.792 737.688 345.875C736.604 341.917 736.062 337.812 736.062 333.562C736.062 329.312 736.604 325.208 737.688 321.25C738.812 317.292 740.375 313.604 742.375 310.188C744.417 306.771 746.854 303.646 749.688 300.812C752.521 297.979 755.646 295.562 759.062 293.562C762.521 291.562 766.208 290.021 770.125 288.938C774.083 287.812 778.188 287.25 782.438 287.25C786.688 287.25 790.792 287.812 794.75 288.938C798.708 290.021 802.396 291.562 805.812 293.562C809.229 295.562 812.354 297.979 815.188 300.812C818.021 303.646 820.438 306.771 822.438 310.188C824.438 313.604 825.979 317.292 827.062 321.25C828.188 325.208 828.75 329.312 828.75 333.562ZM810.938 333.562C810.938 329.646 810.188 325.958 808.688 322.5C807.188 319 805.146 315.979 802.562 313.438C800.021 310.854 797 308.812 793.5 307.312C790.042 305.812 786.354 305.062 782.438 305.062C778.479 305.062 774.771 305.812 771.312 307.312C767.854 308.812 764.833 310.854 762.25 313.438C759.667 315.979 757.625 319 756.125 322.5C754.625 325.958 753.875 329.646 753.875 333.562C753.875 337.479 754.625 341.167 756.125 344.625C757.625 348.042 759.667 351.042 762.25 353.625C764.833 356.208 767.854 358.25 771.312 359.75C774.771 361.25 778.479 362 782.438 362C786.354 362 790.042 361.25 793.5 359.75C797 358.25 800.021 356.208 802.562 353.625C805.146 351.042 807.188 348.042 808.688 344.625C810.188 341.167 810.938 337.479 810.938 333.562ZM858.5 306.312V342.188H876.438C878.896 342.188 881.208 341.729 883.375 340.812C885.542 339.854 887.438 338.562 889.062 336.938C890.688 335.312 891.958 333.417 892.875 331.25C893.833 329.042 894.312 326.708 894.312 324.25C894.312 321.792 893.833 319.479 892.875 317.312C891.958 315.104 890.688 313.188 889.062 311.562C887.438 309.938 885.542 308.667 883.375 307.75C881.208 306.792 878.896 306.312 876.438 306.312H858.5ZM858.5 378H840.562V288.375H876.438C879.729 288.375 882.896 288.812 885.938 289.688C888.979 290.521 891.812 291.729 894.438 293.312C897.104 294.854 899.521 296.729 901.688 298.938C903.896 301.104 905.771 303.521 907.312 306.188C908.896 308.854 910.104 311.708 910.938 314.75C911.812 317.792 912.25 320.958 912.25 324.25C912.25 329.167 911.312 333.812 909.438 338.188C907.562 342.521 905 346.312 901.75 349.562C898.5 352.812 894.688 355.375 890.312 357.25C885.979 359.125 881.354 360.062 876.438 360.062H858.5V378ZM917.562 315.25C917.562 311.542 918.271 308.062 919.688 304.812C921.104 301.562 923.021 298.729 925.438 296.312C927.896 293.854 930.75 291.917 934 290.5C937.25 289.083 940.729 288.375 944.438 288.375H985.562V306.312H944.438C943.188 306.312 942.021 306.542 940.938 307C939.854 307.458 938.896 308.104 938.062 308.938C937.271 309.729 936.646 310.667 936.188 311.75C935.729 312.833 935.5 314 935.5 315.25C935.5 316.5 935.729 317.688 936.188 318.812C936.646 319.896 937.271 320.854 938.062 321.688C938.896 322.479 939.854 323.104 940.938 323.562C942.021 324.021 943.188 324.25 944.438 324.25H962.375C966.083 324.25 969.562 324.958 972.812 326.375C976.104 327.75 978.958 329.667 981.375 332.125C983.833 334.542 985.75 337.396 987.125 340.688C988.542 343.938 989.25 347.417 989.25 351.125C989.25 354.833 988.542 358.312 987.125 361.562C985.75 364.812 983.833 367.667 981.375 370.125C978.958 372.542 976.104 374.458 972.812 375.875C969.562 377.292 966.083 378 962.375 378H922.562V360.062H962.375C963.625 360.062 964.792 359.833 965.875 359.375C966.958 358.917 967.896 358.292 968.688 357.5C969.521 356.667 970.167 355.708 970.625 354.625C971.083 353.542 971.312 352.375 971.312 351.125C971.312 349.875 971.083 348.708 970.625 347.625C970.167 346.542 969.521 345.604 968.688 344.812C967.896 343.979 966.958 343.333 965.875 342.875C964.792 342.417 963.625 342.188 962.375 342.188H944.438C940.729 342.188 937.25 341.479 934 340.062C930.75 338.646 927.896 336.729 925.438 334.312C923.021 331.854 921.104 329 919.688 325.75C918.271 322.458 917.562 318.958 917.562 315.25ZM1017.31 355.875H1003.38L999.562 288.375H1021.19L1017.31 355.875ZM1021.06 371.625C1021.06 373.125 1020.77 374.542 1020.19 375.875C1019.65 377.167 1018.9 378.292 1017.94 379.25C1016.98 380.208 1015.85 380.958 1014.56 381.5C1013.27 382.083 1011.9 382.375 1010.44 382.375C1008.94 382.375 1007.54 382.083 1006.25 381.5C1004.96 380.958 1003.81 380.208 1002.81 379.25C1001.85 378.292 1001.08 377.167 1000.5 375.875C999.958 374.542 999.688 373.125 999.688 371.625C999.688 370.167 999.958 368.792 1000.5 367.5C1001.08 366.208 1001.85 365.083 1002.81 364.125C1003.81 363.167 1004.96 362.417 1006.25 361.875C1007.54 361.292 1008.94 361 1010.44 361C1011.9 361 1013.27 361.292 1014.56 361.875C1015.85 362.417 1016.98 363.167 1017.94 364.125C1018.9 365.083 1019.65 366.208 1020.19 367.5C1020.77 368.792 1021.06 370.167 1021.06 371.625Z" fill="white"/>
<path d="M657.312 445.594C657.312 446.521 657.135 447.396 656.781 448.219C656.438 449.031 655.958 449.745 655.344 450.359C654.74 450.964 654.026 451.443 653.203 451.797C652.391 452.141 651.521 452.312 650.594 452.312C649.76 452.312 648.958 452.167 648.188 451.875C647.427 451.583 646.74 451.156 646.125 450.594C645.51 451.156 644.818 451.583 644.047 451.875C643.276 452.167 642.474 452.312 641.641 452.312C640.714 452.312 639.839 452.141 639.016 451.797C638.203 451.443 637.49 450.964 636.875 450.359C636.271 449.745 635.792 449.031 635.438 448.219C635.094 447.396 634.922 446.521 634.922 445.594V429.594H639.406V445.594C639.406 445.906 639.464 446.203 639.578 446.484C639.693 446.755 639.849 446.995 640.047 447.203C640.255 447.401 640.495 447.557 640.766 447.672C641.036 447.786 641.328 447.844 641.641 447.844C641.953 447.844 642.245 447.786 642.516 447.672C642.786 447.557 643.021 447.401 643.219 447.203C643.427 446.995 643.589 446.755 643.703 446.484C643.818 446.203 643.875 445.906 643.875 445.594V429.594H648.359V445.594C648.359 445.906 648.417 446.203 648.531 446.484C648.646 446.755 648.802 446.995 649 447.203C649.208 447.401 649.448 447.557 649.719 447.672C649.99 447.786 650.281 447.844 650.594 447.844C650.906 447.844 651.198 447.786 651.469 447.672C651.74 447.557 651.974 447.401 652.172 447.203C652.38 446.995 652.542 446.755 652.656 446.484C652.781 446.203 652.844 445.906 652.844 445.594V429.594H657.312V445.594ZM676.688 452H661.328V429.594H676.688V434.078H665.812V438.562H673.172V443.047H665.812V447.516H676.688V452ZM706.688 449.703C705.646 450.599 704.479 451.286 703.188 451.766C701.896 452.245 700.557 452.484 699.172 452.484C698.109 452.484 697.083 452.344 696.094 452.062C695.115 451.792 694.193 451.406 693.328 450.906C692.474 450.396 691.693 449.786 690.984 449.078C690.276 448.37 689.667 447.589 689.156 446.734C688.656 445.87 688.266 444.948 687.984 443.969C687.714 442.979 687.578 441.953 687.578 440.891C687.578 439.828 687.714 438.802 687.984 437.812C688.266 436.823 688.656 435.901 689.156 435.047C689.667 434.182 690.276 433.396 690.984 432.688C691.693 431.979 692.474 431.375 693.328 430.875C694.193 430.365 695.115 429.974 696.094 429.703C697.083 429.422 698.109 429.281 699.172 429.281C700.557 429.281 701.896 429.521 703.188 430C704.479 430.469 705.646 431.156 706.688 432.062L704.312 435.969C703.656 435.26 702.88 434.719 701.984 434.344C701.089 433.958 700.151 433.766 699.172 433.766C698.182 433.766 697.255 433.953 696.391 434.328C695.526 434.703 694.771 435.214 694.125 435.859C693.479 436.495 692.969 437.25 692.594 438.125C692.219 438.99 692.031 439.911 692.031 440.891C692.031 441.87 692.219 442.792 692.594 443.656C692.969 444.51 693.479 445.26 694.125 445.906C694.771 446.552 695.526 447.062 696.391 447.438C697.255 447.812 698.182 448 699.172 448C700.151 448 701.089 447.812 701.984 447.438C702.88 447.052 703.656 446.505 704.312 445.797L706.688 449.703ZM722.484 443.047V438.562C722.484 437.948 722.365 437.37 722.125 436.828C721.896 436.276 721.578 435.797 721.172 435.391C720.766 434.984 720.286 434.667 719.734 434.438C719.193 434.198 718.615 434.078 718 434.078C717.385 434.078 716.802 434.198 716.25 434.438C715.708 434.667 715.234 434.984 714.828 435.391C714.422 435.797 714.099 436.276 713.859 436.828C713.63 437.37 713.516 437.948 713.516 438.562V443.047H722.484ZM726.969 452H722.484V447.516H713.516V452H709.047V438.562C709.047 437.323 709.281 436.161 709.75 435.078C710.219 433.984 710.854 433.031 711.656 432.219C712.469 431.406 713.417 430.766 714.5 430.297C715.594 429.828 716.76 429.594 718 429.594C719.24 429.594 720.401 429.828 721.484 430.297C722.578 430.766 723.531 431.406 724.344 432.219C725.156 433.031 725.797 433.984 726.266 435.078C726.734 436.161 726.969 437.323 726.969 438.562V452ZM748.781 452H743.984L735.344 437.25V452H730.859V429.594H735.656L744.297 444.359V429.594H748.781V452ZM757.406 432.219C757.406 432.677 757.359 433.172 757.266 433.703C757.182 434.224 757.042 434.745 756.844 435.266C756.656 435.776 756.406 436.266 756.094 436.734C755.781 437.203 755.406 437.599 754.969 437.922L753.281 436.734C753.562 436.401 753.776 436.083 753.922 435.781C754.068 435.479 754.182 435.177 754.266 434.875C753.953 434.823 753.661 434.719 753.391 434.562C753.12 434.406 752.885 434.214 752.688 433.984C752.5 433.745 752.349 433.474 752.234 433.172C752.12 432.87 752.062 432.552 752.062 432.219C752.062 431.865 752.13 431.526 752.266 431.203C752.411 430.88 752.604 430.599 752.844 430.359C753.094 430.109 753.375 429.917 753.688 429.781C754.01 429.635 754.354 429.562 754.719 429.562C755.094 429.562 755.443 429.635 755.766 429.781C756.099 429.917 756.385 430.109 756.625 430.359C756.865 430.599 757.052 430.88 757.188 431.203C757.333 431.526 757.406 431.865 757.406 432.219ZM770.203 452H765.734V434.078H759V429.594H776.922V434.078H770.203V452ZM792.75 452H788.266V429.594H803.953V434.078H792.75V438.562H799.469V443.047H792.75V452ZM810.75 452H806.266V429.594H810.75V452ZM832.844 452H828.047L819.406 437.25V452H814.922V429.594H819.719L828.359 444.359V429.594H832.844V452ZM854.969 440.797C854.969 441.828 854.833 442.823 854.562 443.781C854.302 444.729 853.927 445.62 853.438 446.453C852.948 447.276 852.365 448.031 851.688 448.719C851.01 449.396 850.255 449.979 849.422 450.469C848.589 450.958 847.693 451.339 846.734 451.609C845.786 451.87 844.797 452 843.766 452H837.016V429.594H843.766C844.797 429.594 845.786 429.729 846.734 430C847.693 430.26 848.589 430.635 849.422 431.125C850.255 431.615 851.01 432.203 851.688 432.891C852.365 433.568 852.948 434.323 853.438 435.156C853.927 435.979 854.302 436.87 854.562 437.828C854.833 438.776 854.969 439.766 854.969 440.797ZM850.484 440.797C850.484 439.87 850.307 439 849.953 438.188C849.609 437.375 849.13 436.667 848.516 436.062C847.911 435.448 847.198 434.964 846.375 434.609C845.562 434.255 844.693 434.078 843.766 434.078H841.531V447.516H843.766C844.693 447.516 845.562 447.344 846.375 447C847.198 446.646 847.911 446.167 848.516 445.562C849.13 444.948 849.609 444.234 849.953 443.422C850.307 442.599 850.484 441.724 850.484 440.797ZM877 452H872.531V444.984C871.542 444.734 870.63 444.333 869.797 443.781C868.974 443.229 868.266 442.573 867.672 441.812C867.078 441.042 866.615 440.193 866.281 439.266C865.958 438.328 865.797 437.344 865.797 436.312V429.594H870.281V436.312C870.281 436.927 870.396 437.51 870.625 438.062C870.865 438.604 871.188 439.078 871.594 439.484C872 439.891 872.474 440.214 873.016 440.453C873.568 440.682 874.151 440.797 874.766 440.797C875.38 440.797 875.958 440.682 876.5 440.453C877.052 440.214 877.531 439.891 877.938 439.484C878.344 439.078 878.661 438.604 878.891 438.062C879.13 437.51 879.25 436.927 879.25 436.312V429.594H883.719V436.312C883.719 437.344 883.552 438.328 883.219 439.266C882.896 440.193 882.438 441.042 881.844 441.812C881.25 442.573 880.542 443.229 879.719 443.781C878.896 444.333 877.99 444.734 877 444.984V452ZM908.719 440.891C908.719 441.953 908.578 442.979 908.297 443.969C908.026 444.948 907.641 445.87 907.141 446.734C906.641 447.589 906.036 448.37 905.328 449.078C904.62 449.786 903.839 450.396 902.984 450.906C902.13 451.406 901.208 451.792 900.219 452.062C899.229 452.344 898.203 452.484 897.141 452.484C896.078 452.484 895.052 452.344 894.062 452.062C893.083 451.792 892.161 451.406 891.297 450.906C890.443 450.396 889.661 449.786 888.953 449.078C888.245 448.37 887.635 447.589 887.125 446.734C886.625 445.87 886.234 444.948 885.953 443.969C885.682 442.979 885.547 441.953 885.547 440.891C885.547 439.828 885.682 438.802 885.953 437.812C886.234 436.823 886.625 435.901 887.125 435.047C887.635 434.193 888.245 433.411 888.953 432.703C889.661 431.995 890.443 431.391 891.297 430.891C892.161 430.391 893.083 430.005 894.062 429.734C895.052 429.453 896.078 429.312 897.141 429.312C898.203 429.312 899.229 429.453 900.219 429.734C901.208 430.005 902.13 430.391 902.984 430.891C903.839 431.391 904.62 431.995 905.328 432.703C906.036 433.411 906.641 434.193 907.141 435.047C907.641 435.901 908.026 436.823 908.297 437.812C908.578 438.802 908.719 439.828 908.719 440.891ZM904.266 440.891C904.266 439.911 904.078 438.99 903.703 438.125C903.328 437.25 902.818 436.495 902.172 435.859C901.536 435.214 900.781 434.703 899.906 434.328C899.042 433.953 898.12 433.766 897.141 433.766C896.151 433.766 895.224 433.953 894.359 434.328C893.495 434.703 892.74 435.214 892.094 435.859C891.448 436.495 890.938 437.25 890.562 438.125C890.188 438.99 890 439.911 890 440.891C890 441.87 890.188 442.792 890.562 443.656C890.938 444.51 891.448 445.26 892.094 445.906C892.74 446.552 893.495 447.062 894.359 447.438C895.224 447.812 896.151 448 897.141 448C898.12 448 899.042 447.812 899.906 447.438C900.781 447.062 901.536 446.552 902.172 445.906C902.818 445.26 903.328 444.51 903.703 443.656C904.078 442.792 904.266 441.87 904.266 440.891ZM929.344 443.047C929.344 444.286 929.109 445.453 928.641 446.547C928.172 447.63 927.531 448.578 926.719 449.391C925.906 450.193 924.953 450.828 923.859 451.297C922.776 451.766 921.615 452 920.375 452C919.135 452 917.969 451.766 916.875 451.297C915.792 450.828 914.844 450.193 914.031 449.391C913.229 448.578 912.594 447.63 912.125 446.547C911.656 445.453 911.422 444.286 911.422 443.047V429.594H915.891V443.047C915.891 443.661 916.005 444.24 916.234 444.781C916.474 445.323 916.797 445.797 917.203 446.203C917.609 446.609 918.083 446.932 918.625 447.172C919.177 447.401 919.76 447.516 920.375 447.516C920.99 447.516 921.568 447.401 922.109 447.172C922.661 446.932 923.141 446.609 923.547 446.203C923.953 445.797 924.271 445.323 924.5 444.781C924.74 444.24 924.859 443.661 924.859 443.047V429.594H929.344V443.047ZM937.719 434.078V443.047H942.203C942.818 443.047 943.396 442.932 943.938 442.703C944.479 442.464 944.953 442.141 945.359 441.734C945.766 441.328 946.083 440.854 946.312 440.312C946.552 439.76 946.672 439.177 946.672 438.562C946.672 437.948 946.552 437.37 946.312 436.828C946.083 436.276 945.766 435.797 945.359 435.391C944.953 434.984 944.479 434.667 943.938 434.438C943.396 434.198 942.818 434.078 942.203 434.078H937.719ZM937.719 452H933.234V429.594H942.203C943.026 429.594 943.818 429.703 944.578 429.922C945.339 430.13 946.047 430.432 946.703 430.828C947.37 431.214 947.974 431.682 948.516 432.234C949.068 432.776 949.536 433.38 949.922 434.047C950.318 434.714 950.62 435.427 950.828 436.188C951.047 436.948 951.156 437.74 951.156 438.562C951.156 439.333 951.057 440.083 950.859 440.812C950.672 441.542 950.396 442.234 950.031 442.891C949.677 443.547 949.24 444.151 948.719 444.703C948.198 445.255 947.615 445.734 946.969 446.141L949.453 452H944.688L942.734 447.484L937.719 447.516V452ZM967.562 434.078V443.047H972.047C972.661 443.047 973.24 442.932 973.781 442.703C974.323 442.464 974.797 442.141 975.203 441.734C975.609 441.328 975.927 440.854 976.156 440.312C976.396 439.76 976.516 439.177 976.516 438.562C976.516 437.948 976.396 437.37 976.156 436.828C975.927 436.276 975.609 435.797 975.203 435.391C974.797 434.984 974.323 434.667 973.781 434.438C973.24 434.198 972.661 434.078 972.047 434.078H967.562ZM967.562 452H963.078V429.594H972.047C972.87 429.594 973.661 429.703 974.422 429.922C975.182 430.13 975.891 430.432 976.547 430.828C977.214 431.214 977.818 431.682 978.359 432.234C978.911 432.776 979.38 433.38 979.766 434.047C980.161 434.714 980.464 435.427 980.672 436.188C980.891 436.948 981 437.74 981 438.562C981 439.792 980.766 440.953 980.297 442.047C979.828 443.13 979.188 444.078 978.375 444.891C977.562 445.703 976.609 446.344 975.516 446.812C974.432 447.281 973.276 447.516 972.047 447.516H967.562V452ZM996.828 443.047V438.562C996.828 437.948 996.708 437.37 996.469 436.828C996.24 436.276 995.922 435.797 995.516 435.391C995.109 434.984 994.63 434.667 994.078 434.438C993.536 434.198 992.958 434.078 992.344 434.078C991.729 434.078 991.146 434.198 990.594 434.438C990.052 434.667 989.578 434.984 989.172 435.391C988.766 435.797 988.443 436.276 988.203 436.828C987.974 437.37 987.859 437.948 987.859 438.562V443.047H996.828ZM1001.31 452H996.828V447.516H987.859V452H983.391V438.562C983.391 437.323 983.625 436.161 984.094 435.078C984.562 433.984 985.198 433.031 986 432.219C986.812 431.406 987.76 430.766 988.844 430.297C989.938 429.828 991.104 429.594 992.344 429.594C993.583 429.594 994.745 429.828 995.828 430.297C996.922 430.766 997.875 431.406 998.688 432.219C999.5 433.031 1000.14 433.984 1000.61 435.078C1001.08 436.161 1001.31 437.323 1001.31 438.562V452ZM1023.03 449.734C1021.99 450.62 1020.83 451.302 1019.55 451.781C1018.27 452.25 1016.93 452.484 1015.55 452.484C1014.48 452.484 1013.46 452.344 1012.47 452.062C1011.49 451.792 1010.57 451.406 1009.72 450.906C1008.86 450.396 1008.08 449.792 1007.38 449.094C1006.67 448.385 1006.06 447.604 1005.56 446.75C1005.06 445.885 1004.67 444.958 1004.39 443.969C1004.12 442.979 1003.98 441.953 1003.98 440.891C1003.98 439.828 1004.12 438.807 1004.39 437.828C1004.67 436.849 1005.06 435.932 1005.56 435.078C1006.06 434.214 1006.67 433.432 1007.38 432.734C1008.08 432.026 1008.86 431.422 1009.72 430.922C1010.57 430.422 1011.49 430.036 1012.47 429.766C1013.46 429.484 1014.48 429.344 1015.55 429.344C1016.93 429.344 1018.27 429.583 1019.55 430.062C1020.83 430.531 1021.99 431.208 1023.03 432.094L1020.69 436C1020.01 435.312 1019.23 434.776 1018.34 434.391C1017.46 433.995 1016.53 433.797 1015.55 433.797C1014.57 433.797 1013.65 433.984 1012.78 434.359C1011.93 434.734 1011.18 435.245 1010.53 435.891C1009.89 436.526 1009.38 437.276 1009 438.141C1008.62 438.995 1008.44 439.911 1008.44 440.891C1008.44 441.88 1008.62 442.807 1009 443.672C1009.38 444.536 1009.89 445.292 1010.53 445.938C1011.18 446.583 1011.93 447.094 1012.78 447.469C1013.65 447.844 1014.57 448.031 1015.55 448.031C1016.11 448.031 1016.66 447.964 1017.19 447.828C1017.72 447.693 1018.22 447.505 1018.7 447.266V440.891H1023.03V449.734ZM1041.84 452H1026.48V429.594H1041.84V434.078H1030.97V438.562H1038.33V443.047H1030.97V447.516H1041.84V452Z" fill="white"/>
<path d="M826.589 601H825.192V595.399H823.088V593.998H828.688V595.399H826.589V601ZM834.953 598.202C834.953 598.59 834.88 598.954 834.733 599.296C834.587 599.634 834.387 599.931 834.133 600.185C833.879 600.435 833.581 600.634 833.239 600.78C832.901 600.927 832.538 601 832.15 601C831.763 601 831.398 600.927 831.057 600.78C830.718 600.634 830.422 600.435 830.168 600.185C829.917 599.931 829.719 599.634 829.572 599.296C829.426 598.954 829.353 598.59 829.353 598.202V593.998H830.749V598.202C830.749 598.394 830.785 598.575 830.856 598.744C830.931 598.913 831.032 599.062 831.159 599.188C831.286 599.315 831.434 599.416 831.604 599.491C831.776 599.563 831.958 599.599 832.15 599.599C832.342 599.599 832.523 599.563 832.692 599.491C832.865 599.416 833.015 599.315 833.142 599.188C833.269 599.062 833.368 598.913 833.439 598.744C833.514 598.575 833.552 598.394 833.552 598.202V593.998H834.953V598.202ZM840.241 598.202V596.801C840.241 596.609 840.204 596.428 840.129 596.259C840.057 596.086 839.958 595.937 839.831 595.81C839.704 595.683 839.554 595.583 839.382 595.512C839.213 595.437 839.032 595.399 838.84 595.399C838.648 595.399 838.465 595.437 838.293 595.512C838.124 595.583 837.976 595.683 837.849 595.81C837.722 595.937 837.621 596.086 837.546 596.259C837.474 596.428 837.438 596.609 837.438 596.801V598.202H840.241ZM841.643 601H840.241V599.599H837.438V601H836.042V596.801C836.042 596.413 836.115 596.05 836.262 595.712C836.408 595.37 836.607 595.072 836.857 594.818C837.111 594.564 837.408 594.364 837.746 594.218C838.088 594.071 838.452 593.998 838.84 593.998C839.227 593.998 839.59 594.071 839.929 594.218C840.271 594.364 840.568 594.564 840.822 594.818C841.076 595.072 841.276 595.37 841.423 595.712C841.569 596.05 841.643 596.413 841.643 596.801V601ZM844.26 595.399V598.202H845.661C845.853 598.202 846.034 598.166 846.203 598.095C846.372 598.02 846.521 597.919 846.647 597.792C846.774 597.665 846.874 597.517 846.945 597.348C847.02 597.175 847.058 596.993 847.058 596.801C847.058 596.609 847.02 596.428 846.945 596.259C846.874 596.086 846.774 595.937 846.647 595.81C846.521 595.683 846.372 595.583 846.203 595.512C846.034 595.437 845.853 595.399 845.661 595.399H844.26ZM844.26 601H842.858V593.998H845.661C845.918 593.998 846.166 594.032 846.403 594.101C846.641 594.166 846.862 594.26 847.067 594.384C847.276 594.504 847.465 594.651 847.634 594.823C847.806 594.993 847.953 595.181 848.073 595.39C848.197 595.598 848.291 595.821 848.356 596.059C848.425 596.296 848.459 596.544 848.459 596.801C848.459 597.185 848.386 597.548 848.239 597.89C848.093 598.228 847.893 598.524 847.639 598.778C847.385 599.032 847.087 599.232 846.745 599.379C846.407 599.525 846.045 599.599 845.661 599.599H844.26V601Z" fill="white"/>
</g>
<defs>
<clipPath id="clip0_244_2865">
<rect width="1119.61" height="699" fill="white"/>
</clipPath>
</defs>
</svg>
