<svg width="1725" height="642" viewBox="0 0 1725 642" fill="none" xmlns="http://www.w3.org/2000/svg">
<path d="M1706.21 476.964H1145.79C1140.81 476.964 1136.03 474.984 1132.5 471.46C1128.98 467.936 1127 463.156 1127 458.172C1330.15 434.562 1529.48 434.562 1725 458.172C1725 463.156 1723.02 467.936 1719.5 471.46C1715.97 474.984 1711.19 476.964 1706.21 476.964Z" fill="#2F2E41"/>
<path d="M1725 459.277L1127 458.172L1196.31 341.556L1196.64 341.004V83.9964C1196.64 80.8769 1197.25 77.7878 1198.45 74.9057C1199.64 72.0236 1201.39 69.4049 1203.59 67.1991C1205.8 64.9932 1208.42 63.2435 1211.3 62.0498C1214.18 60.8562 1217.27 60.2419 1220.39 60.2422H1628.29C1631.41 60.2419 1634.5 60.8562 1637.38 62.0498C1640.26 63.2435 1642.88 64.9932 1645.09 67.1991C1647.3 69.4049 1649.04 72.0236 1650.24 74.9057C1651.43 77.7878 1652.05 80.8769 1652.05 83.9964V342.772L1725 459.277Z" fill="#3F3D56"/>
<path d="M1219.85 76.8242C1217.8 76.8265 1215.83 77.6425 1214.38 79.093C1212.93 80.5436 1212.12 82.5103 1212.11 84.5617V318.898C1212.12 320.95 1212.93 322.916 1214.38 324.367C1215.83 325.817 1217.8 326.633 1219.85 326.636H1632.15C1634.2 326.633 1636.17 325.817 1637.62 324.367C1639.07 322.916 1639.89 320.95 1639.89 318.898V84.5617C1639.89 82.5104 1639.07 80.5437 1637.62 79.0931C1636.17 77.6426 1634.2 76.8266 1632.15 76.8242H1219.85Z" fill="white"/>
<path d="M1221.58 357.586C1220.94 357.587 1220.32 357.769 1219.79 358.111C1219.26 358.453 1218.83 358.941 1218.57 359.516L1197.21 405.941C1196.98 406.446 1196.88 407.002 1196.91 407.557C1196.95 408.112 1197.13 408.648 1197.43 409.116C1197.73 409.584 1198.14 409.97 1198.63 410.236C1199.12 410.503 1199.67 410.643 1200.22 410.643H1649.31C1649.88 410.643 1650.44 410.499 1650.93 410.223C1651.42 409.948 1651.84 409.551 1652.13 409.07C1652.43 408.59 1652.6 408.041 1652.63 407.476C1652.65 406.911 1652.53 406.35 1652.28 405.844L1629.07 359.419C1628.79 358.867 1628.37 358.403 1627.85 358.079C1627.32 357.755 1626.72 357.584 1626.1 357.586H1221.58Z" fill="#2F2E41"/>
<path d="M1424.34 72.9521C1427.09 72.9521 1429.32 70.7252 1429.32 67.978C1429.32 65.2309 1427.09 63.0039 1424.34 63.0039C1421.59 63.0039 1419.37 65.2309 1419.37 67.978C1419.37 70.7252 1421.59 72.9521 1424.34 72.9521Z" fill="white"/>
<path d="M1380.2 419.484C1379.47 419.485 1378.76 419.726 1378.18 420.169C1377.61 420.613 1377.19 421.234 1377 421.938L1371.64 441.834C1371.51 442.326 1371.49 442.841 1371.59 443.341C1371.69 443.84 1371.9 444.31 1372.21 444.714C1372.52 445.118 1372.92 445.445 1373.38 445.671C1373.83 445.896 1374.33 446.013 1374.84 446.013H1476.72C1477.25 446.013 1477.77 445.887 1478.24 445.644C1478.71 445.402 1479.11 445.051 1479.42 444.62C1479.72 444.19 1479.92 443.692 1480 443.169C1480.07 442.645 1480.02 442.112 1479.85 441.612L1472.96 421.716C1472.74 421.064 1472.31 420.499 1471.75 420.099C1471.19 419.7 1470.52 419.485 1469.83 419.484H1380.2Z" fill="#2F2E41"/>
<path d="M1652.05 337.137V341.558H1196.31L1196.65 341.006V337.137H1652.05Z" fill="#2F2E41"/>
<path d="M1639.33 154.75C1682.07 154.75 1716.71 120.108 1716.71 77.3752C1716.71 34.6421 1682.07 0 1639.33 0C1596.6 0 1561.96 34.6421 1561.96 77.3752C1561.96 120.108 1596.6 154.75 1639.33 154.75Z" fill="#6C63FF"/>
<path d="M493 569C590.202 569 669 498.261 669 411C669 323.739 590.202 253 493 253C395.798 253 317 323.739 317 411C317 498.261 395.798 569 493 569Z" fill="#6C63FF"/>
<path d="M1658.79 67.793H1619V50.1072C1619 37.2974 1627.37 28 1638.9 28C1650.43 28 1658.79 37.2974 1658.79 50.1072L1658.79 67.793ZM1623.42 63.3716H1654.37V50.1072C1654.37 39.6942 1648.01 32.4215 1638.9 32.4215C1629.78 32.4215 1623.42 39.6943 1623.42 50.1072L1623.42 63.3716Z" fill="white"/>
<path d="M1671.39 111.089H1607.28C1606.11 111.088 1604.98 110.622 1604.15 109.793C1603.32 108.964 1602.86 107.84 1602.86 106.668V67.98C1602.86 66.8078 1603.32 65.6839 1604.15 64.855C1604.98 64.0261 1606.11 63.5598 1607.28 63.5586H1671.39C1672.56 63.5598 1673.69 64.0261 1674.51 64.855C1675.34 65.6839 1675.81 66.8078 1675.81 67.98V106.668C1675.81 107.84 1675.34 108.964 1674.51 109.793C1673.69 110.622 1672.56 111.088 1671.39 111.089ZM1607.28 67.9801V106.668H1671.39L1671.39 67.98L1607.28 67.9801Z" fill="white"/>
<path d="M1639.34 90.6398C1641.78 90.6398 1643.76 88.6602 1643.76 86.2183C1643.76 83.7764 1641.78 81.7969 1639.34 81.7969C1636.89 81.7969 1634.91 83.7764 1634.91 86.2183C1634.91 88.6602 1636.89 90.6398 1639.34 90.6398Z" fill="white"/>
<path d="M1585.32 247.151H1266.68C1265.12 247.149 1263.62 246.527 1262.51 245.421C1261.4 244.315 1260.78 242.815 1260.78 241.25V162.209C1260.78 160.645 1261.4 159.145 1262.51 158.039C1263.62 156.933 1265.12 156.31 1266.68 156.309H1585.32C1586.88 156.31 1588.38 156.933 1589.49 158.039C1590.6 159.145 1591.22 160.645 1591.22 162.209V241.25C1591.22 242.815 1590.6 244.315 1589.49 245.421C1588.38 246.527 1586.88 247.149 1585.32 247.151ZM1266.68 158.669C1265.74 158.67 1264.84 159.043 1264.18 159.707C1263.51 160.371 1263.14 161.271 1263.14 162.209V241.25C1263.14 242.189 1263.51 243.089 1264.18 243.753C1264.84 244.416 1265.74 244.79 1266.68 244.791H1585.32C1586.26 244.79 1587.16 244.416 1587.82 243.753C1588.49 243.089 1588.86 242.189 1588.86 241.25V162.209C1588.86 161.271 1588.49 160.371 1587.82 159.707C1587.16 159.043 1586.26 158.67 1585.32 158.669L1266.68 158.669Z" fill="#E6E6E6"/>
<path d="M1316.19 222.733C1329.47 222.733 1340.23 211.972 1340.23 198.697C1340.23 185.422 1329.47 174.66 1316.19 174.66C1302.92 174.66 1292.15 185.422 1292.15 198.697C1292.15 211.972 1302.92 222.733 1316.19 222.733Z" fill="#E6E6E6"/>
<path d="M1371.7 182.672C1371.18 182.671 1370.66 182.774 1370.17 182.975C1369.68 183.176 1369.24 183.471 1368.87 183.843C1368.49 184.215 1368.2 184.657 1368 185.143C1367.8 185.63 1367.69 186.151 1367.69 186.678C1367.69 187.205 1367.8 187.726 1368 188.212C1368.2 188.699 1368.49 189.141 1368.87 189.513C1369.24 189.885 1369.68 190.18 1370.17 190.381C1370.66 190.582 1371.18 190.685 1371.7 190.684H1560.56C1561.62 190.684 1562.64 190.262 1563.39 189.511C1564.15 188.759 1564.57 187.74 1564.57 186.678C1564.57 185.615 1564.15 184.597 1563.39 183.845C1562.64 183.094 1561.62 182.672 1560.56 182.672H1371.7Z" fill="#E6E6E6"/>
<path d="M1371.7 206.707C1370.64 206.707 1369.62 207.129 1368.87 207.88C1368.12 208.632 1367.7 209.651 1367.7 210.713C1367.7 211.776 1368.12 212.795 1368.87 213.546C1369.62 214.297 1370.64 214.719 1371.7 214.719H1452.97C1454.03 214.719 1455.05 214.297 1455.8 213.546C1456.55 212.795 1456.98 211.776 1456.98 210.713C1456.98 209.651 1456.55 208.632 1455.8 207.88C1455.05 207.129 1454.03 206.707 1452.97 206.707H1371.7Z" fill="#E6E6E6"/>
<path d="M903.209 373.355C935.808 316.01 997.991 271.978 1063.82 276.22C1015.26 329.022 986.948 397.296 983.886 468.964C982.805 496.608 984.481 527.467 966.127 548.166C954.706 561.046 937.25 567.283 920.087 568.592C902.922 569.9 885.762 566.799 868.827 563.711L864.719 564.972C863.155 499.027 870.61 430.7 903.209 373.355Z" fill="#F0F0F0"/>
<path d="M1063.91 277.601C1015.24 301.035 973.73 340.171 948.251 387.901C942.742 398.22 938.052 409.167 936.006 420.742C933.959 432.322 935.389 443.345 939.344 454.344C942.96 464.399 947.823 474.265 948.932 485.024C950.101 496.364 945.928 506.967 938.417 515.383C929.228 525.679 916.886 532.06 904.601 537.88C890.96 544.342 876.689 550.838 867.027 562.898C865.857 564.359 863.658 562.458 864.826 560.999C881.636 540.015 910.41 536.071 930.363 519.168C939.673 511.28 946.663 500.54 946.222 487.954C945.836 476.949 940.83 466.77 937.081 456.621C933.144 445.964 931.181 435.249 932.593 423.888C934.037 412.265 938.309 401.112 943.529 390.697C955.303 367.209 971.416 345.646 989.874 327.006C1011.09 305.579 1035.81 287.94 1062.97 274.85C1064.65 274.041 1065.59 276.797 1063.91 277.601Z" fill="white"/>
<path d="M955.714 371.947C948.251 366.49 942.972 358.559 940.817 349.569C938.663 340.579 939.774 331.116 943.953 322.87C944.804 321.204 947.433 322.449 946.58 324.116C942.675 331.788 941.64 340.603 943.664 348.97C945.687 357.338 950.634 364.706 957.614 369.746C959.129 370.843 957.221 373.038 955.714 371.947Z" fill="white"/>
<path d="M936.84 449.483C955.54 446.751 972.522 437.071 984.401 422.374C985.577 420.917 987.776 422.819 986.602 424.274C974.211 439.545 956.518 449.582 937.053 452.383C935.198 452.649 934.995 449.748 936.84 449.483Z" fill="white"/>
<path d="M1012.53 309.155C1014.97 311.868 1018.06 313.93 1021.5 315.157C1024.94 316.384 1028.63 316.737 1032.24 316.185C1034.09 315.896 1034.29 318.797 1032.46 319.084C1028.46 319.676 1024.39 319.281 1020.58 317.934C1016.77 316.587 1013.36 314.328 1010.63 311.356C1010.34 311.097 1010.17 310.741 1010.14 310.36C1010.12 309.98 1010.23 309.602 1010.47 309.306C1010.73 309.015 1011.09 308.837 1011.47 308.809C1011.85 308.78 1012.23 308.905 1012.53 309.155Z" fill="white"/>
<path d="M1194.79 457.121C1193.64 457.334 1192.49 457.547 1191.33 457.783C1175.87 460.731 1160.68 464.931 1145.9 470.339C1144.75 470.739 1143.6 471.162 1142.46 471.594C1107 485.005 1074.34 504.882 1046.13 530.216C1034.92 540.307 1024.49 551.237 1014.93 562.911C1001.73 579.034 988.71 597.565 971.466 608.077C969.679 609.194 967.825 610.199 965.914 611.087L866.576 569.883C866.397 569.676 866.208 569.491 866.028 569.284L861.986 567.82C862.437 567.184 862.918 566.533 863.369 565.897C863.629 565.526 863.911 565.165 864.171 564.795C864.351 564.551 864.533 564.307 864.682 564.077C864.741 563.995 864.802 563.915 864.853 563.856C865.001 563.625 865.164 563.427 865.303 563.219C867.983 559.576 870.693 555.945 873.434 552.327C873.443 552.304 873.443 552.304 873.475 552.291C894.425 524.774 917.857 498.765 944.492 477.14C945.293 476.489 946.103 475.816 946.95 475.184C959.01 465.503 971.841 456.824 985.314 449.233C992.705 445.1 1000.3 441.344 1008.07 437.98C1028.17 429.324 1049.5 423.884 1071.29 421.857C1114.72 417.824 1158.96 427.726 1192.27 455.011C1193.12 455.71 1193.95 456.399 1194.79 457.121Z" fill="#F0F0F0"/>
<path d="M1194.05 458.292C1141.07 447.695 1084.37 453.953 1035.29 476.723C1024.68 481.645 1014.34 487.562 1005.74 495.572C997.131 503.586 991.636 513.248 988.172 524.411C985.005 534.616 982.948 545.422 977.356 554.68C971.461 564.438 961.746 570.392 950.682 572.589C937.146 575.277 923.45 572.941 910.137 570.192C895.355 567.139 880.049 563.733 865.074 567.546C863.259 568.008 862.649 565.165 864.46 564.704C890.515 558.07 915.864 572.245 941.972 570.762C954.155 570.07 966.203 565.702 973.428 555.388C979.746 546.368 981.877 535.227 984.994 524.867C988.267 513.988 993.15 504.25 1001.12 496.029C1009.27 487.618 1019.39 481.285 1029.83 476.112C1053.38 464.448 1079.22 456.932 1105.18 453.161C1135.02 448.826 1165.38 449.627 1194.95 455.529C1196.78 455.895 1195.86 458.656 1194.05 458.292Z" fill="white"/>
<path d="M1050.85 468.479C1048.18 459.63 1048.74 450.118 1052.43 441.643C1056.12 433.168 1062.7 426.281 1071.01 422.213C1072.69 421.395 1074.04 423.972 1072.35 424.79C1064.62 428.564 1058.48 434.98 1055.06 442.879C1051.64 450.778 1051.15 459.64 1053.69 467.866C1054.24 469.654 1051.39 470.257 1050.85 468.479Z" fill="white"/>
<path d="M989.096 519.024C1005.67 528.101 1025.06 530.597 1043.39 526.014C1045.21 525.558 1045.82 528.401 1044.01 528.856C1024.92 533.589 1004.75 530.951 987.52 521.468C985.879 520.563 987.463 518.124 989.096 519.024Z" fill="white"/>
<path d="M1134.01 452.544C1134.34 456.184 1135.56 459.687 1137.56 462.738C1139.57 465.79 1142.31 468.295 1145.53 470.028C1147.18 470.912 1145.59 473.349 1143.95 472.471C1140.41 470.54 1137.39 467.77 1135.16 464.403C1132.93 461.036 1131.56 457.175 1131.17 453.157C1131.1 452.782 1131.18 452.394 1131.39 452.073C1131.6 451.752 1131.92 451.522 1132.29 451.43C1132.66 451.35 1133.06 451.423 1133.38 451.632C1133.7 451.84 1133.93 452.168 1134.01 452.544Z" fill="white"/>
<path d="M1005.56 525.099C991.647 457.832 974.257 435.405 974.257 435.405L967.614 430.253L959.624 424.048L959.663 423.25L957.768 422.606L957.323 422.26L956.594 421.7L956.476 421.826L956.229 422.082L920.076 409.794L874.211 394.214L852.972 366.608C849.513 362.112 845.06 358.478 839.962 355.992C834.863 353.505 829.258 352.232 823.586 352.274L755.756 352.776C746.585 352.844 737.771 356.34 731.047 362.578L686.464 403.932L616.995 437.11L616.877 436.992L616.148 437.513L605.414 442.646L605.857 444.951L599.214 449.745C599.214 449.745 581.824 470.613 567.912 533.204C564.373 549.13 562.631 583.294 562.002 625.392C561.97 627.522 562.362 629.637 563.155 631.613C563.948 633.59 565.126 635.389 566.621 636.907C568.115 638.424 569.897 639.629 571.861 640.452C573.826 641.275 575.934 641.699 578.064 641.7H949.112L995.423 641.7C997.552 641.699 999.659 641.275 1001.62 640.453C1003.59 639.631 1005.37 638.428 1006.86 636.912C1008.35 635.396 1009.53 633.599 1010.33 631.625C1011.12 629.65 1011.51 627.537 1011.49 625.409C1010.87 579.599 1009.13 542.37 1005.56 525.099Z" fill="#2F2E41"/>
<path d="M800.324 326.792C849.401 326.792 889.187 287.007 889.187 237.929C889.187 188.852 849.401 149.066 800.324 149.066C751.246 149.066 711.461 188.852 711.461 237.929C711.461 287.007 751.246 326.792 800.324 326.792Z" fill="#ED9DA0"/>
<path d="M777.591 322.442C777.211 321.606 776.833 320.767 776.455 319.926C776.601 319.93 776.745 319.951 776.89 319.955L777.591 322.442Z" fill="#2F2E41"/>
<path d="M708.989 153.109C713.483 149.524 718.736 146.225 724.482 146.411C730.228 146.596 736.056 151.786 734.865 157.41C745.42 138.722 762.22 124.349 782.316 116.814C802.412 109.278 824.52 109.062 844.76 116.203C859.042 121.241 873.048 131.322 876.328 146.107C877.171 149.902 877.351 154.064 879.721 157.146C882.709 161.031 888.426 161.91 893.133 160.543C893.18 160.53 893.227 160.516 893.274 160.502C894.069 160.23 894.928 160.204 895.738 160.425C896.549 160.647 897.274 161.106 897.82 161.745C898.367 162.383 898.709 163.171 898.803 164.006C898.897 164.841 898.738 165.685 898.347 166.429L894.306 173.965C899.4 175.101 904.693 174.988 909.734 173.637C910.572 173.417 911.456 173.462 912.267 173.765C913.078 174.069 913.776 174.615 914.264 175.33C914.752 176.045 915.006 176.894 914.993 177.76C914.98 178.625 914.699 179.466 914.189 180.165C900.864 198.459 878.603 210.273 855.886 210.134C839.74 210.036 823.427 204.471 807.714 208.184C801.635 209.62 795.954 212.399 791.09 216.317C786.225 220.236 782.299 225.193 779.6 230.826C776.901 236.459 775.497 242.625 775.492 248.872C775.487 255.118 776.88 261.286 779.57 266.924C774.743 261.644 765.411 262.894 760.473 268.071C755.535 273.248 754.257 280.975 754.754 288.112C755.515 299.028 759.792 309.313 764.301 319.324C726.5 318.134 690.746 291.617 678.711 255.752C666.626 219.737 679.291 176.8 708.989 153.109Z" fill="#2F2E41"/>
<path opacity="0.2" d="M649.465 504.793L674.389 640.4L689.344 641.702L649.465 504.793Z" fill="black"/>
<path opacity="0.2" d="M924.008 494.566L899.084 640.302L884.129 641.702L924.008 494.566Z" fill="black"/>
<path d="M54.4307 74C39.9948 74 26.1501 79.7346 15.9424 89.9424C5.73464 100.15 0 113.995 0 128.431C0 142.867 5.73464 156.711 15.9424 166.919C26.1501 177.127 39.9948 182.861 54.4307 182.861H460.069C474.505 182.861 488.35 177.127 498.558 166.919C508.765 156.711 514.5 142.867 514.5 128.431C514.5 113.995 508.765 100.15 498.558 89.9424C488.35 79.7346 474.505 74 460.069 74H54.4307Z" fill="#E5E5E5"/>
<path d="M54.4306 85.0156C42.9162 85.0156 31.8735 89.5897 23.7316 97.7316C15.5897 105.873 11.0156 116.916 11.0156 128.431C11.0156 139.945 15.5897 150.988 23.7316 159.13C31.8735 167.272 42.9162 171.846 54.4306 171.846H460.069C471.584 171.846 482.626 167.272 490.768 159.13C498.91 150.988 503.484 139.945 503.484 128.431C503.484 116.916 498.91 105.873 490.768 97.7316C482.626 89.5897 471.584 85.0156 460.069 85.0156H54.4306Z" fill="white"/>
<path d="M144.029 154.388H63.3224C63.0661 154.39 62.8118 154.341 62.5745 154.244C62.3371 154.147 62.1212 154.004 61.9393 153.823C61.7574 153.643 61.613 153.428 61.5145 153.191C61.4159 152.954 61.3652 152.7 61.3652 152.444C61.3652 152.188 61.4159 151.934 61.5145 151.697C61.613 151.46 61.7574 151.245 61.9393 151.065C62.1212 150.884 62.3371 150.741 62.5745 150.644C62.8118 150.547 63.0661 150.498 63.3224 150.5H144.029C144.543 150.504 145.034 150.71 145.396 151.074C145.757 151.438 145.96 151.931 145.96 152.444C145.96 152.957 145.757 153.45 145.396 153.814C145.034 154.178 144.543 154.384 144.029 154.388Z" fill="#6C63FF"/>
<path d="M246.412 155.036H165.705C165.449 155.038 165.195 154.989 164.957 154.892C164.72 154.795 164.504 154.652 164.322 154.472C164.14 154.291 163.996 154.076 163.897 153.839C163.799 153.603 163.748 153.349 163.748 153.092C163.748 152.836 163.799 152.582 163.897 152.345C163.996 152.109 164.14 151.894 164.322 151.713C164.504 151.532 164.72 151.39 164.957 151.293C165.195 151.196 165.449 151.147 165.705 151.148H246.412C246.669 151.147 246.923 151.196 247.16 151.293C247.398 151.39 247.613 151.532 247.795 151.713C247.977 151.894 248.122 152.109 248.22 152.345C248.319 152.582 248.37 152.836 248.37 153.092C248.37 153.349 248.319 153.603 248.22 153.839C248.122 154.076 247.977 154.291 247.795 154.472C247.613 154.652 247.398 154.795 247.16 154.892C246.923 154.989 246.669 155.038 246.412 155.036Z" fill="#6C63FF"/>
<path d="M348.794 155.685H268.087C267.574 155.681 267.083 155.475 266.721 155.111C266.359 154.747 266.156 154.254 266.156 153.741C266.156 153.228 266.359 152.735 266.721 152.371C267.083 152.007 267.574 151.8 268.087 151.797H348.794C349.05 151.795 349.305 151.844 349.542 151.941C349.779 152.038 349.995 152.181 350.177 152.362C350.359 152.542 350.503 152.757 350.602 152.994C350.701 153.231 350.751 153.484 350.751 153.741C350.751 153.997 350.701 154.251 350.602 154.488C350.503 154.725 350.359 154.939 350.177 155.12C349.995 155.301 349.779 155.444 349.542 155.541C349.305 155.638 349.05 155.687 348.794 155.685Z" fill="#6C63FF"/>
<path d="M451.175 156.333H370.468C369.955 156.33 369.464 156.123 369.102 155.759C368.74 155.395 368.537 154.903 368.537 154.389C368.537 153.876 368.74 153.384 369.102 153.019C369.464 152.655 369.955 152.449 370.468 152.445H451.175C451.688 152.449 452.179 152.655 452.541 153.019C452.903 153.384 453.106 153.876 453.106 154.389C453.106 154.903 452.903 155.395 452.541 155.759C452.179 156.123 451.688 156.33 451.175 156.333Z" fill="#6C63FF"/>
<path d="M103.5 136.5C111.784 136.5 118.5 129.784 118.5 121.5C118.5 113.216 111.784 106.5 103.5 106.5C95.2157 106.5 88.5 113.216 88.5 121.5C88.5 129.784 95.2157 136.5 103.5 136.5Z" fill="#6C63FF"/>
<path d="M206.5 136.5C214.784 136.5 221.5 129.784 221.5 121.5C221.5 113.216 214.784 106.5 206.5 106.5C198.216 106.5 191.5 113.216 191.5 121.5C191.5 129.784 198.216 136.5 206.5 136.5Z" fill="#6C63FF"/>
<path d="M309.5 136.5C317.784 136.5 324.5 129.784 324.5 121.5C324.5 113.216 317.784 106.5 309.5 106.5C301.216 106.5 294.5 113.216 294.5 121.5C294.5 129.784 301.216 136.5 309.5 136.5Z" fill="#6C63FF"/>
<path d="M412.5 136.5C420.784 136.5 427.5 129.784 427.5 121.5C427.5 113.216 420.784 106.5 412.5 106.5C404.216 106.5 397.5 113.216 397.5 121.5C397.5 129.784 404.216 136.5 412.5 136.5Z" fill="#6C63FF"/>
<path d="M489 466C502.807 466 514 454.807 514 441C514 427.193 502.807 416 489 416C475.193 416 464 427.193 464 441C464 454.807 475.193 466 489 466Z" fill="#3F3D56"/>
<path d="M489 453C495.075 453 500 447.627 500 441C500 434.373 495.075 429 489 429C482.925 429 478 434.373 478 441C478 447.627 482.925 453 489 453Z" fill="#6C63FF"/>
<path d="M535.367 497H442.634C433.452 496.99 424.649 493.331 418.156 486.826C411.663 480.321 408.011 471.501 408 462.301V419.701C408.01 410.501 411.663 401.681 418.156 395.175C424.649 388.67 433.452 385.011 442.634 385H535.367C544.549 385.011 553.352 388.67 559.845 395.176C566.337 401.681 569.99 410.501 570 419.701V462.301C569.989 471.5 566.337 480.32 559.844 486.825C553.352 493.331 544.549 496.99 535.367 497ZM442.634 388.633C434.413 388.643 426.532 391.919 420.719 397.743C414.906 403.568 411.636 411.464 411.626 419.701V462.301C411.636 470.537 414.906 478.434 420.719 484.258C426.532 490.082 434.413 493.358 442.634 493.367H535.367C543.587 493.358 551.469 490.082 557.282 484.258C563.095 478.434 566.364 470.537 566.374 462.301V419.701C566.364 411.464 563.095 403.568 557.282 397.743C551.469 391.919 543.587 388.643 535.367 388.633L442.634 388.633Z" fill="white"/>
<path d="M436.707 473.627H519.454C523.749 473.627 528.001 472.786 531.97 471.151C535.938 469.517 539.543 467.122 542.58 464.102C545.617 461.082 548.026 457.497 549.67 453.551C551.313 449.605 552.159 445.376 552.159 441.106V405.537C552.153 401.593 551.422 397.683 550.002 394C554.039 397.023 557.314 400.936 559.57 405.433C561.826 409.929 563 414.885 563 419.91V455.479C563 459.749 562.154 463.978 560.51 467.924C558.867 471.87 556.458 475.455 553.421 478.475C550.384 481.495 546.778 483.89 542.81 485.524C538.842 487.159 534.589 488 530.294 488H447.548C440.917 487.996 434.443 485.987 428.987 482.239C423.531 478.491 419.35 473.182 417 467.016C422.664 471.305 429.587 473.628 436.707 473.627Z" fill="#3F3D56"/>
<path d="M490.337 310C473.365 310 458.447 317.674 450 329.192C459.03 322.629 469.932 319.135 481.099 319.226C507.381 319.226 528.763 337.613 528.763 360.214V379H538V350.988C538 328.387 516.618 310 490.337 310Z" fill="#3F3D56"/>
<path d="M545 389H433V356.116C433 329.585 458.122 308 489 308C519.878 308 545 329.585 545 356.116V389ZM436.618 385.39H541.382V356.116C541.382 331.575 517.884 311.61 489 311.61C460.116 311.61 436.618 331.575 436.618 356.116V385.39Z" fill="white"/>
<path d="M517.372 377H460.628C458.075 376.997 455.628 375.971 453.823 374.146C452.018 372.321 451.003 369.847 451 367.267V354.155C451 335.873 468.047 321 489 321C509.953 321 527 335.873 527 354.155V367.267C526.997 369.847 525.982 372.321 524.177 374.146C522.372 375.971 519.925 376.997 517.372 377ZM489 324.617C470.02 324.617 454.578 337.867 454.578 354.154V367.267C454.58 368.888 455.218 370.443 456.352 371.589C457.486 372.736 459.024 373.381 460.628 373.383H517.372C518.976 373.381 520.514 372.736 521.648 371.589C522.782 370.443 523.42 368.888 523.422 367.267V354.154C523.422 337.867 507.98 324.617 489 324.617Z" fill="white"/>
</svg>
