<svg width="1799" height="642" viewBox="0 0 1799 642" fill="none" xmlns="http://www.w3.org/2000/svg">
<path d="M1780.21 476.964H1219.79C1214.81 476.964 1210.03 474.984 1206.5 471.46C1202.98 467.936 1201 463.156 1201 458.172C1404.15 434.562 1603.48 434.562 1799 458.172C1799 463.156 1797.02 467.936 1793.5 471.46C1789.97 474.984 1785.19 476.964 1780.21 476.964Z" fill="#2F2E41"/>
<path d="M1799 459.277L1201 458.172L1270.31 341.556L1270.64 341.004V83.9964C1270.64 80.8769 1271.25 77.7878 1272.45 74.9057C1273.64 72.0236 1275.39 69.4049 1277.59 67.1991C1279.8 64.9932 1282.42 63.2435 1285.3 62.0498C1288.18 60.8562 1291.27 60.2419 1294.39 60.2422H1702.29C1705.41 60.2419 1708.5 60.8562 1711.38 62.0498C1714.26 63.2435 1716.88 64.9932 1719.09 67.1991C1721.3 69.4049 1723.04 72.0236 1724.24 74.9057C1725.43 77.7878 1726.05 80.8769 1726.05 83.9964V342.772L1799 459.277Z" fill="#3F3D56"/>
<path d="M1293.85 76.8242C1291.8 76.8265 1289.83 77.6425 1288.38 79.093C1286.93 80.5436 1286.12 82.5103 1286.11 84.5617V318.898C1286.12 320.95 1286.93 322.916 1288.38 324.367C1289.83 325.817 1291.8 326.633 1293.85 326.636H1706.15C1708.2 326.633 1710.17 325.817 1711.62 324.367C1713.07 322.916 1713.89 320.95 1713.89 318.898V84.5617C1713.89 82.5104 1713.07 80.5437 1711.62 79.0931C1710.17 77.6426 1708.2 76.8266 1706.15 76.8242H1293.85Z" fill="white"/>
<path d="M1295.58 357.586C1294.94 357.587 1294.32 357.769 1293.79 358.111C1293.26 358.453 1292.83 358.941 1292.57 359.516L1271.21 405.941C1270.98 406.446 1270.88 407.002 1270.91 407.557C1270.95 408.112 1271.13 408.648 1271.43 409.116C1271.73 409.584 1272.14 409.97 1272.63 410.236C1273.12 410.503 1273.67 410.643 1274.22 410.643H1723.31C1723.88 410.643 1724.44 410.499 1724.93 410.223C1725.42 409.948 1725.84 409.551 1726.13 409.07C1726.43 408.59 1726.6 408.041 1726.63 407.476C1726.65 406.911 1726.53 406.35 1726.28 405.844L1703.07 359.419C1702.79 358.867 1702.37 358.403 1701.85 358.079C1701.32 357.755 1700.72 357.584 1700.1 357.586H1295.58Z" fill="#2F2E41"/>
<path d="M1498.34 72.9521C1501.09 72.9521 1503.32 70.7252 1503.32 67.978C1503.32 65.2309 1501.09 63.0039 1498.34 63.0039C1495.59 63.0039 1493.37 65.2309 1493.37 67.978C1493.37 70.7252 1495.59 72.9521 1498.34 72.9521Z" fill="white"/>
<path d="M1454.2 419.484C1453.47 419.485 1452.76 419.726 1452.18 420.169C1451.61 420.613 1451.19 421.234 1451 421.938L1445.64 441.834C1445.51 442.326 1445.49 442.841 1445.59 443.341C1445.69 443.84 1445.9 444.31 1446.21 444.714C1446.52 445.118 1446.92 445.445 1447.38 445.671C1447.83 445.896 1448.33 446.013 1448.84 446.013H1550.72C1551.25 446.013 1551.77 445.887 1552.24 445.644C1552.71 445.402 1553.11 445.051 1553.42 444.62C1553.72 444.19 1553.92 443.692 1554 443.169C1554.07 442.645 1554.02 442.112 1553.85 441.612L1546.96 421.716C1546.74 421.064 1546.31 420.499 1545.75 420.099C1545.19 419.7 1544.52 419.485 1543.83 419.484H1454.2Z" fill="#2F2E41"/>
<path d="M1726.05 337.137V341.558H1270.31L1270.65 341.006V337.137H1726.05Z" fill="#2F2E41"/>
<path d="M1713.33 154.75C1756.07 154.75 1790.71 120.108 1790.71 77.3752C1790.71 34.6421 1756.07 0 1713.33 0C1670.6 0 1635.96 34.6421 1635.96 77.3752C1635.96 120.108 1670.6 154.75 1713.33 154.75Z" fill="#6C63FF"/>
<path d="M1732.79 67.793H1693V50.1072C1693 37.2974 1701.37 28 1712.9 28C1724.43 28 1732.79 37.2974 1732.79 50.1072L1732.79 67.793ZM1697.42 63.3716H1728.37V50.1072C1728.37 39.6942 1722.01 32.4215 1712.9 32.4215C1703.78 32.4215 1697.42 39.6943 1697.42 50.1072L1697.42 63.3716Z" fill="white"/>
<path d="M1745.39 111.089H1681.28C1680.11 111.088 1678.98 110.622 1678.15 109.793C1677.32 108.964 1676.86 107.84 1676.86 106.668V67.98C1676.86 66.8078 1677.32 65.6839 1678.15 64.855C1678.98 64.0261 1680.11 63.5598 1681.28 63.5586H1745.39C1746.56 63.5598 1747.69 64.0261 1748.51 64.855C1749.34 65.6839 1749.81 66.8078 1749.81 67.98V106.668C1749.81 107.84 1749.34 108.964 1748.51 109.793C1747.69 110.622 1746.56 111.088 1745.39 111.089ZM1681.28 67.9801V106.668H1745.39L1745.39 67.98L1681.28 67.9801Z" fill="white"/>
<path d="M1713.34 90.6398C1715.78 90.6398 1717.76 88.6602 1717.76 86.2183C1717.76 83.7764 1715.78 81.7969 1713.34 81.7969C1710.89 81.7969 1708.91 83.7764 1708.91 86.2183C1708.91 88.6602 1710.89 90.6398 1713.34 90.6398Z" fill="white"/>
<path d="M1659.32 247.151H1340.68C1339.12 247.149 1337.62 246.527 1336.51 245.421C1335.4 244.315 1334.78 242.815 1334.78 241.25V162.209C1334.78 160.645 1335.4 159.145 1336.51 158.039C1337.62 156.933 1339.12 156.31 1340.68 156.309H1659.32C1660.88 156.31 1662.38 156.933 1663.49 158.039C1664.6 159.145 1665.22 160.645 1665.22 162.209V241.25C1665.22 242.815 1664.6 244.315 1663.49 245.421C1662.38 246.527 1660.88 247.149 1659.32 247.151ZM1340.68 158.669C1339.74 158.67 1338.84 159.043 1338.18 159.707C1337.51 160.371 1337.14 161.271 1337.14 162.209V241.25C1337.14 242.189 1337.51 243.089 1338.18 243.753C1338.84 244.416 1339.74 244.79 1340.68 244.791H1659.32C1660.26 244.79 1661.16 244.416 1661.82 243.753C1662.49 243.089 1662.86 242.189 1662.86 241.25V162.209C1662.86 161.271 1662.49 160.371 1661.82 159.707C1661.16 159.043 1660.26 158.67 1659.32 158.669L1340.68 158.669Z" fill="#E6E6E6"/>
<path d="M1390.19 222.733C1403.47 222.733 1414.23 211.972 1414.23 198.697C1414.23 185.422 1403.47 174.66 1390.19 174.66C1376.92 174.66 1366.15 185.422 1366.15 198.697C1366.15 211.972 1376.92 222.733 1390.19 222.733Z" fill="#E6E6E6"/>
<path d="M1445.7 182.672C1445.18 182.671 1444.66 182.774 1444.17 182.975C1443.68 183.176 1443.24 183.471 1442.87 183.843C1442.49 184.215 1442.2 184.657 1442 185.143C1441.8 185.63 1441.69 186.151 1441.69 186.678C1441.69 187.205 1441.8 187.726 1442 188.212C1442.2 188.699 1442.49 189.141 1442.87 189.513C1443.24 189.885 1443.68 190.18 1444.17 190.381C1444.66 190.582 1445.18 190.685 1445.7 190.684H1634.56C1635.62 190.684 1636.64 190.262 1637.39 189.511C1638.15 188.759 1638.57 187.74 1638.57 186.678C1638.57 185.615 1638.15 184.597 1637.39 183.845C1636.64 183.094 1635.62 182.672 1634.56 182.672H1445.7Z" fill="#E6E6E6"/>
<path d="M1445.7 206.707C1444.64 206.707 1443.62 207.129 1442.87 207.88C1442.12 208.632 1441.7 209.651 1441.7 210.713C1441.7 211.776 1442.12 212.795 1442.87 213.546C1443.62 214.297 1444.64 214.719 1445.7 214.719H1526.97C1528.03 214.719 1529.05 214.297 1529.8 213.546C1530.55 212.795 1530.98 211.776 1530.98 210.713C1530.98 209.651 1530.55 208.632 1529.8 207.88C1529.05 207.129 1528.03 206.707 1526.97 206.707H1445.7Z" fill="#E6E6E6"/>
<path d="M977.209 373.355C1009.81 316.01 1071.99 271.978 1137.82 276.22C1089.26 329.022 1060.95 397.296 1057.89 468.964C1056.8 496.608 1058.48 527.467 1040.13 548.166C1028.71 561.046 1011.25 567.283 994.087 568.592C976.922 569.9 959.762 566.799 942.827 563.711L938.719 564.972C937.155 499.027 944.61 430.7 977.209 373.355Z" fill="#F0F0F0"/>
<path d="M1137.91 277.601C1089.24 301.035 1047.73 340.171 1022.25 387.901C1016.74 398.22 1012.05 409.167 1010.01 420.742C1007.96 432.322 1009.39 443.345 1013.34 454.344C1016.96 464.399 1021.82 474.265 1022.93 485.024C1024.1 496.364 1019.93 506.967 1012.42 515.383C1003.23 525.679 990.886 532.06 978.601 537.88C964.96 544.342 950.689 550.838 941.027 562.898C939.857 564.359 937.658 562.458 938.826 560.999C955.636 540.015 984.41 536.071 1004.36 519.168C1013.67 511.28 1020.66 500.54 1020.22 487.954C1019.84 476.949 1014.83 466.77 1011.08 456.621C1007.14 445.964 1005.18 435.249 1006.59 423.888C1008.04 412.265 1012.31 401.112 1017.53 390.697C1029.3 367.209 1045.42 345.646 1063.87 327.006C1085.09 305.579 1109.81 287.94 1136.97 274.85C1138.65 274.041 1139.59 276.797 1137.91 277.601Z" fill="white"/>
<path d="M1029.71 371.947C1022.25 366.49 1016.97 358.559 1014.82 349.569C1012.66 340.579 1013.77 331.116 1017.95 322.87C1018.8 321.204 1021.43 322.449 1020.58 324.116C1016.67 331.788 1015.64 340.603 1017.66 348.97C1019.69 357.338 1024.63 364.706 1031.61 369.746C1033.13 370.843 1031.22 373.038 1029.71 371.947Z" fill="white"/>
<path d="M1010.84 449.483C1029.54 446.751 1046.52 437.071 1058.4 422.374C1059.58 420.917 1061.78 422.819 1060.6 424.274C1048.21 439.545 1030.52 449.582 1011.05 452.383C1009.2 452.649 1009 449.748 1010.84 449.483Z" fill="white"/>
<path d="M1086.53 309.155C1088.97 311.868 1092.06 313.93 1095.5 315.157C1098.94 316.384 1102.63 316.737 1106.24 316.185C1108.09 315.896 1108.29 318.797 1106.46 319.084C1102.46 319.676 1098.39 319.281 1094.58 317.934C1090.77 316.587 1087.36 314.328 1084.63 311.356C1084.34 311.097 1084.17 310.741 1084.14 310.36C1084.12 309.98 1084.23 309.602 1084.47 309.306C1084.73 309.015 1085.09 308.837 1085.47 308.809C1085.85 308.78 1086.23 308.905 1086.53 309.155Z" fill="white"/>
<path d="M1268.79 457.121C1267.64 457.334 1266.49 457.547 1265.33 457.783C1249.87 460.731 1234.68 464.931 1219.9 470.339C1218.75 470.739 1217.6 471.162 1216.46 471.594C1181 485.005 1148.34 504.882 1120.13 530.216C1108.92 540.307 1098.49 551.237 1088.93 562.911C1075.73 579.034 1062.71 597.565 1045.47 608.077C1043.68 609.194 1041.82 610.199 1039.91 611.087L940.576 569.883C940.397 569.676 940.208 569.491 940.028 569.284L935.986 567.82C936.437 567.184 936.918 566.533 937.369 565.897C937.629 565.526 937.911 565.165 938.171 564.795C938.351 564.551 938.533 564.307 938.682 564.077C938.741 563.995 938.802 563.915 938.853 563.856C939.001 563.625 939.164 563.427 939.303 563.219C941.983 559.576 944.693 555.945 947.434 552.327C947.443 552.304 947.443 552.304 947.475 552.291C968.425 524.774 991.857 498.765 1018.49 477.14C1019.29 476.489 1020.1 475.816 1020.95 475.184C1033.01 465.503 1045.84 456.824 1059.31 449.233C1066.71 445.1 1074.3 441.344 1082.07 437.98C1102.17 429.324 1123.5 423.884 1145.29 421.857C1188.72 417.824 1232.96 427.726 1266.27 455.011C1267.12 455.71 1267.95 456.399 1268.79 457.121Z" fill="#F0F0F0"/>
<path d="M1268.05 458.292C1215.07 447.695 1158.37 453.953 1109.29 476.723C1098.68 481.645 1088.34 487.562 1079.74 495.572C1071.13 503.586 1065.64 513.248 1062.17 524.411C1059.01 534.616 1056.95 545.422 1051.36 554.68C1045.46 564.438 1035.75 570.392 1024.68 572.589C1011.15 575.277 997.45 572.941 984.137 570.192C969.355 567.139 954.049 563.733 939.074 567.546C937.259 568.008 936.649 565.165 938.46 564.704C964.515 558.07 989.864 572.245 1015.97 570.762C1028.15 570.07 1040.2 565.702 1047.43 555.388C1053.75 546.368 1055.88 535.227 1058.99 524.867C1062.27 513.988 1067.15 504.25 1075.12 496.029C1083.27 487.618 1093.39 481.285 1103.83 476.112C1127.38 464.448 1153.22 456.932 1179.18 453.161C1209.02 448.826 1239.38 449.627 1268.95 455.529C1270.78 455.895 1269.86 458.656 1268.05 458.292Z" fill="white"/>
<path d="M1124.85 468.479C1122.18 459.63 1122.74 450.118 1126.43 441.643C1130.12 433.168 1136.7 426.281 1145.01 422.213C1146.69 421.395 1148.04 423.972 1146.35 424.79C1138.62 428.564 1132.48 434.98 1129.06 442.879C1125.64 450.778 1125.15 459.64 1127.69 467.866C1128.24 469.654 1125.39 470.257 1124.85 468.479Z" fill="white"/>
<path d="M1063.1 519.024C1079.67 528.101 1099.06 530.597 1117.39 526.014C1119.21 525.558 1119.82 528.401 1118.01 528.856C1098.92 533.589 1078.75 530.951 1061.52 521.468C1059.88 520.563 1061.46 518.124 1063.1 519.024Z" fill="white"/>
<path d="M1208.01 452.544C1208.34 456.184 1209.56 459.687 1211.56 462.738C1213.57 465.79 1216.31 468.295 1219.53 470.028C1221.18 470.912 1219.59 473.349 1217.95 472.471C1214.41 470.54 1211.39 467.77 1209.16 464.403C1206.93 461.036 1205.56 457.175 1205.17 453.157C1205.1 452.782 1205.18 452.394 1205.39 452.073C1205.6 451.752 1205.92 451.522 1206.29 451.43C1206.66 451.35 1207.06 451.423 1207.38 451.632C1207.7 451.84 1207.93 452.168 1208.01 452.544Z" fill="white"/>
<path d="M1079.56 525.099C1065.65 457.832 1048.26 435.405 1048.26 435.405L1041.61 430.253L1033.62 424.048L1033.66 423.25L1031.77 422.606L1031.32 422.26L1030.59 421.7L1030.48 421.826L1030.23 422.082L994.076 409.794L948.211 394.214L926.972 366.608C923.513 362.112 919.06 358.478 913.962 355.992C908.863 353.505 903.258 352.232 897.586 352.274L829.756 352.776C820.585 352.844 811.771 356.34 805.047 362.578L760.464 403.932L690.995 437.11L690.877 436.992L690.148 437.513L679.414 442.646L679.857 444.951L673.214 449.745C673.214 449.745 655.824 470.613 641.912 533.204C638.373 549.13 636.631 583.294 636.002 625.392C635.97 627.522 636.362 629.637 637.155 631.613C637.948 633.59 639.126 635.389 640.621 636.907C642.115 638.424 643.897 639.629 645.861 640.452C647.826 641.275 649.934 641.699 652.064 641.7H1023.11L1069.42 641.7C1071.55 641.699 1073.66 641.275 1075.62 640.453C1077.59 639.631 1079.37 638.428 1080.86 636.912C1082.35 635.396 1083.53 633.599 1084.33 631.625C1085.12 629.65 1085.51 627.537 1085.49 625.409C1084.87 579.599 1083.13 542.37 1079.56 525.099Z" fill="#3F3D56"/>
<path d="M874.324 326.792C923.401 326.792 963.187 287.007 963.187 237.929C963.187 188.852 923.401 149.066 874.324 149.066C825.246 149.066 785.461 188.852 785.461 237.929C785.461 287.007 825.246 326.792 874.324 326.792Z" fill="#9E616A"/>
<path d="M851.591 322.442C851.211 321.606 850.833 320.767 850.455 319.926C850.601 319.93 850.745 319.951 850.89 319.955L851.591 322.442Z" fill="#2F2E41"/>
<path d="M782.989 153.109C787.483 149.524 792.736 146.225 798.482 146.411C804.228 146.596 810.056 151.786 808.865 157.41C819.42 138.722 836.22 124.349 856.316 116.814C876.412 109.278 898.52 109.062 918.76 116.203C933.042 121.241 947.048 131.322 950.328 146.107C951.171 149.902 951.351 154.064 953.721 157.146C956.709 161.031 962.426 161.91 967.133 160.543C967.18 160.53 967.227 160.516 967.274 160.502C968.069 160.23 968.928 160.204 969.738 160.425C970.549 160.647 971.274 161.106 971.82 161.745C972.367 162.383 972.709 163.171 972.803 164.006C972.897 164.841 972.738 165.685 972.347 166.429L968.306 173.965C973.4 175.101 978.693 174.988 983.734 173.637C984.572 173.417 985.456 173.462 986.267 173.765C987.078 174.069 987.776 174.615 988.264 175.33C988.752 176.045 989.006 176.894 988.993 177.76C988.98 178.625 988.699 179.466 988.189 180.165C974.864 198.459 952.603 210.273 929.886 210.134C913.74 210.036 897.427 204.471 881.714 208.184C875.635 209.62 869.954 212.399 865.09 216.317C860.225 220.236 856.299 225.193 853.6 230.826C850.901 236.459 849.497 242.625 849.492 248.872C849.487 255.118 850.88 261.286 853.57 266.924C848.743 261.644 839.411 262.894 834.473 268.071C829.535 273.248 828.257 280.975 828.754 288.112C829.515 299.028 833.792 309.313 838.301 319.324C800.5 318.134 764.746 291.617 752.711 255.752C740.626 219.737 753.291 176.8 782.989 153.109Z" fill="#2F2E41"/>
<path opacity="0.2" d="M723.465 504.793L748.389 640.4L763.344 641.702L723.465 504.793Z" fill="black"/>
<path opacity="0.2" d="M998.008 494.566L973.084 640.302L958.129 641.702L998.008 494.566Z" fill="black"/>
<path d="M54.4307 502C39.9948 502 26.1501 507.735 15.9424 517.942C5.73464 528.15 0 541.995 0 556.431C0 570.867 5.73464 584.711 15.9424 594.919C26.1501 605.127 39.9948 610.861 54.4307 610.861H460.069C474.505 610.861 488.35 605.127 498.558 594.919C508.765 584.711 514.5 570.867 514.5 556.431C514.5 541.995 508.765 528.15 498.558 517.942C488.35 507.735 474.505 502 460.069 502H54.4307Z" fill="#E5E5E5"/>
<path d="M54.4306 513.016C42.9162 513.016 31.8735 517.59 23.7316 525.732C15.5897 533.873 11.0156 544.916 11.0156 556.431C11.0156 567.945 15.5897 578.988 23.7316 587.13C31.8735 595.272 42.9162 599.846 54.4306 599.846H460.069C471.584 599.846 482.626 595.272 490.768 587.13C498.91 578.988 503.484 567.945 503.484 556.431C503.484 544.916 498.91 533.873 490.768 525.732C482.626 517.59 471.584 513.016 460.069 513.016H54.4306Z" fill="white"/>
<path d="M144.029 582.388H63.3224C63.0661 582.39 62.8118 582.341 62.5745 582.244C62.3371 582.147 62.1212 582.004 61.9393 581.823C61.7574 581.643 61.613 581.428 61.5145 581.191C61.4159 580.954 61.3652 580.7 61.3652 580.444C61.3652 580.188 61.4159 579.934 61.5145 579.697C61.613 579.46 61.7574 579.245 61.9393 579.065C62.1212 578.884 62.3371 578.741 62.5745 578.644C62.8118 578.547 63.0661 578.498 63.3224 578.5H144.029C144.543 578.504 145.034 578.71 145.396 579.074C145.757 579.438 145.96 579.931 145.96 580.444C145.96 580.957 145.757 581.45 145.396 581.814C145.034 582.178 144.543 582.384 144.029 582.388Z" fill="#6C63FF"/>
<path d="M246.412 583.036H165.705C165.449 583.038 165.195 582.989 164.957 582.892C164.72 582.795 164.504 582.652 164.322 582.472C164.14 582.291 163.996 582.076 163.897 581.839C163.799 581.603 163.748 581.349 163.748 581.092C163.748 580.836 163.799 580.582 163.897 580.345C163.996 580.109 164.14 579.894 164.322 579.713C164.504 579.532 164.72 579.39 164.957 579.293C165.195 579.196 165.449 579.147 165.705 579.148H246.412C246.669 579.147 246.923 579.196 247.16 579.293C247.398 579.39 247.613 579.532 247.795 579.713C247.977 579.894 248.122 580.109 248.22 580.345C248.319 580.582 248.37 580.836 248.37 581.092C248.37 581.349 248.319 581.603 248.22 581.839C248.122 582.076 247.977 582.291 247.795 582.472C247.613 582.652 247.398 582.795 247.16 582.892C246.923 582.989 246.669 583.038 246.412 583.036Z" fill="#6C63FF"/>
<path d="M348.794 583.685H268.087C267.574 583.681 267.083 583.475 266.721 583.111C266.359 582.747 266.156 582.254 266.156 581.741C266.156 581.228 266.359 580.735 266.721 580.371C267.083 580.007 267.574 579.8 268.087 579.797H348.794C349.05 579.795 349.305 579.844 349.542 579.941C349.779 580.038 349.995 580.181 350.177 580.362C350.359 580.542 350.503 580.757 350.602 580.994C350.701 581.231 350.751 581.484 350.751 581.741C350.751 581.997 350.701 582.251 350.602 582.488C350.503 582.725 350.359 582.939 350.177 583.12C349.995 583.301 349.779 583.444 349.542 583.541C349.305 583.638 349.05 583.687 348.794 583.685Z" fill="#6C63FF"/>
<path d="M451.175 584.333H370.468C369.955 584.33 369.464 584.123 369.102 583.759C368.74 583.395 368.537 582.903 368.537 582.389C368.537 581.876 368.74 581.384 369.102 581.019C369.464 580.655 369.955 580.449 370.468 580.445H451.175C451.688 580.449 452.179 580.655 452.541 581.019C452.903 581.384 453.106 581.876 453.106 582.389C453.106 582.903 452.903 583.395 452.541 583.759C452.179 584.123 451.688 584.33 451.175 584.333Z" fill="#6C63FF"/>
<path d="M103.5 564.5C111.784 564.5 118.5 557.784 118.5 549.5C118.5 541.216 111.784 534.5 103.5 534.5C95.2157 534.5 88.5 541.216 88.5 549.5C88.5 557.784 95.2157 564.5 103.5 564.5Z" fill="#6C63FF"/>
<path d="M206.5 564.5C214.784 564.5 221.5 557.784 221.5 549.5C221.5 541.216 214.784 534.5 206.5 534.5C198.216 534.5 191.5 541.216 191.5 549.5C191.5 557.784 198.216 564.5 206.5 564.5Z" fill="#6C63FF"/>
<path d="M309.5 564.5C317.784 564.5 324.5 557.784 324.5 549.5C324.5 541.216 317.784 534.5 309.5 534.5C301.216 534.5 294.5 541.216 294.5 549.5C294.5 557.784 301.216 564.5 309.5 564.5Z" fill="#6C63FF"/>
<path d="M412.5 564.5C420.784 564.5 427.5 557.784 427.5 549.5C427.5 541.216 420.784 534.5 412.5 534.5C404.216 534.5 397.5 541.216 397.5 549.5C397.5 557.784 404.216 564.5 412.5 564.5Z" fill="#6C63FF"/>
</svg>
