<svg width="908" height="677" viewBox="0 0 908 677" fill="none" xmlns="http://www.w3.org/2000/svg">
<path d="M114 228C176.96 228 228 176.96 228 114C228 51.0395 176.96 0 114 0C51.0395 0 0 51.0395 0 114C0 176.96 51.0395 228 114 228Z" fill="#F2F2F2"/>
<path d="M199.5 672C282.619 672 350 604.619 350 521.5C350 438.381 282.619 371 199.5 371C116.381 371 49 438.381 49 521.5C49 604.619 116.381 672 199.5 672Z" fill="#F2F2F2"/>
<path d="M711.5 672C794.619 672 862 604.619 862 521.5C862 438.381 794.619 371 711.5 371C628.381 371 561 438.381 561 521.5C561 604.619 628.381 672 711.5 672Z" fill="#F2F2F2"/>
<path d="M454 644C576.055 644 675 545.055 675 423C675 300.945 576.055 202 454 202C331.945 202 233 300.945 233 423C233 545.055 331.945 644 454 644Z" fill="#F2F2F2"/>
<path opacity="0.1" d="M330.57 59H259.43C255.327 59 252 62.3265 252 66.43V77.57C252 81.6735 255.327 85 259.43 85H330.57C334.673 85 338 81.6735 338 77.57V66.43C338 62.3265 334.673 59 330.57 59Z" fill="#0288D1"/>
<path opacity="0.1" d="M420.57 85H349.43C345.327 85 342 88.3265 342 92.43V103.57C342 107.673 345.327 111 349.43 111H420.57C424.673 111 428 107.673 428 103.57V92.43C428 88.3265 424.673 85 420.57 85Z" fill="#0288D1"/>
<path opacity="0.1" d="M420.57 46H349.43C345.327 46 342 49.3265 342 53.43V64.57C342 68.6735 345.327 72 349.43 72H420.57C424.673 72 428 68.6735 428 64.57V53.43C428 49.3265 424.673 46 420.57 46Z" fill="#0288D1"/>
<path opacity="0.1" d="M520.57 33H449.43C445.327 33 442 36.3265 442 40.43V51.57C442 55.6735 445.327 59 449.43 59H520.57C524.673 59 528 55.6735 528 51.57V40.43C528 36.3265 524.673 33 520.57 33Z" fill="#0288D1"/>
<path opacity="0.1" d="M610.57 59H539.43C535.327 59 532 62.3265 532 66.43V77.57C532 81.6735 535.327 85 539.43 85H610.57C614.673 85 618 81.6735 618 77.57V66.43C618 62.3265 614.673 59 610.57 59Z" fill="#0288D1"/>
<path opacity="0.1" d="M700.57 85H629.43C625.327 85 622 88.3265 622 92.43V103.57C622 107.673 625.327 111 629.43 111H700.57C704.673 111 708 107.673 708 103.57V92.43C708 88.3265 704.673 85 700.57 85Z" fill="#0288D1"/>
<path opacity="0.1" d="M700.57 46H629.43C625.327 46 622 49.3265 622 53.43V64.57C622 68.6735 625.327 72 629.43 72H700.57C704.673 72 708 68.6735 708 64.57V53.43C708 49.3265 704.673 46 700.57 46Z" fill="#0288D1"/>
<path opacity="0.1" d="M240.57 366H169.43C165.327 366 162 369.327 162 373.43V384.57C162 388.673 165.327 392 169.43 392H240.57C244.673 392 248 388.673 248 384.57V373.43C248 369.327 244.673 366 240.57 366Z" fill="#0288D1"/>
<path opacity="0.1" d="M520.57 366H449.43C445.327 366 442 369.327 442 373.43V384.57C442 388.673 445.327 392 449.43 392H520.57C524.673 392 528 388.673 528 384.57V373.43C528 369.327 524.673 366 520.57 366Z" fill="#0288D1"/>
<path d="M808.79 42H94.21C90.228 42 87 45.228 87 49.21V399.79C87 403.772 90.228 407 94.21 407H808.79C812.772 407 816 403.772 816 399.79V49.21C816 45.228 812.772 42 808.79 42Z" fill="#3F3D56"/>
<path d="M800.756 49.9219H103.843C99.8608 49.9219 96.6328 53.1499 96.6328 57.1319V391.866C96.6328 395.848 99.8608 399.076 103.843 399.076H800.756C804.738 399.076 807.966 395.848 807.966 391.866V57.1319C807.966 53.1499 804.738 49.9219 800.756 49.9219Z" fill="white"/>
<path opacity="0.1" d="M87 385H816V399.79C816 401.702 815.24 403.536 813.888 404.888C812.536 406.24 810.702 407 808.79 407H94.21C92.2978 407 90.4639 406.24 89.1118 404.888C87.7596 403.536 87 401.702 87 399.79V385Z" fill="black"/>
<path d="M579.5 357H530.5C529.119 357 528 358.119 528 359.5V381.5C528 382.881 529.119 384 530.5 384H579.5C580.881 384 582 382.881 582 381.5V359.5C582 358.119 580.881 357 579.5 357Z" fill="#090814"/>
<path d="M632 380H599C597.895 380 597 380.895 597 382C597 383.105 597.895 384 599 384H632C633.105 384 634 383.105 634 382C634 380.895 633.105 380 632 380Z" fill="#090814"/>
<path d="M572.432 98H532.404V107.636H572.432V98Z" fill="#0288D1"/>
<path d="M565.432 181H525.404V190.636H565.432V181Z" fill="#0288D1"/>
<path d="M711.046 98H696.962V107.636H711.046V98Z" fill="#0288D1"/>
<path d="M704.046 181H689.962V190.636H704.046V181Z" fill="#0288D1"/>
<path d="M739.214 98H725.13V107.636H739.214V98Z" fill="#0288D1"/>
<path d="M732.214 181H718.13V190.636H732.214V181Z" fill="#0288D1"/>
<path d="M682.137 98H586.516V107.636H682.137V98Z" fill="#0288D1"/>
<path d="M675.137 181H579.516V190.636H675.137V181Z" fill="#0288D1"/>
<path d="M522.028 160.266H482V169.902H522.028V160.266Z" fill="#0288D1"/>
<path d="M515.028 243.266H475V252.902H515.028V243.266Z" fill="#0288D1"/>
<path d="M660.641 160.266H646.558V169.902H660.641V160.266Z" fill="#0288D1"/>
<path d="M653.641 243.266H639.558V252.902H653.641V243.266Z" fill="#0288D1"/>
<path d="M688.808 160.266H674.725V169.902H688.808V160.266Z" fill="#0288D1"/>
<path d="M681.808 243.266H667.725V252.902H681.808V243.266Z" fill="#0288D1"/>
<path d="M631.733 160.266H536.111V169.902H631.733V160.266Z" fill="#0288D1"/>
<path d="M624.733 243.266H529.111V252.902H624.733V243.266Z" fill="#0288D1"/>
<path d="M687.326 119.496H647.299V129.132H687.326V119.496Z" fill="#0288D1"/>
<path d="M680.326 202.496H640.299V212.132H680.326V202.496Z" fill="#0288D1"/>
<path d="M741.438 119.496H701.41V129.132H741.438V119.496Z" fill="#0288D1"/>
<path d="M734.438 202.496H694.41V212.132H734.438V202.496Z" fill="#0288D1"/>
<path d="M769.605 119.496H755.521V129.132H769.605V119.496Z" fill="#0288D1"/>
<path d="M762.605 202.496H748.521V212.132H762.605V202.496Z" fill="#0288D1"/>
<path d="M524.251 119.496H510.167V129.132H524.251V119.496Z" fill="#0288D1"/>
<path d="M517.251 202.496H503.167V212.132H517.251V202.496Z" fill="#0288D1"/>
<path d="M633.956 119.496H538.335V129.132H633.956V119.496Z" fill="#0288D1"/>
<path d="M626.956 202.496H531.335V212.132H626.956V202.496Z" fill="#0288D1"/>
<path d="M604.306 140.254H564.278V149.89H604.306V140.254Z" fill="#0288D1"/>
<path d="M597.306 223.254H557.278V232.89H597.306V223.254Z" fill="#0288D1"/>
<path d="M550.194 140.254H510.167V149.89H550.194V140.254Z" fill="#0288D1"/>
<path d="M543.194 223.254H503.167V232.89H543.194V223.254Z" fill="#0288D1"/>
<path d="M769.605 140.254H755.521V149.89H769.605V140.254Z" fill="#0288D1"/>
<path d="M762.605 223.254H748.521V232.89H762.605V223.254Z" fill="#0288D1"/>
<path d="M741.437 140.254H727.354V149.89H741.437V140.254Z" fill="#0288D1"/>
<path d="M734.437 223.254H720.354V232.89H734.437V223.254Z" fill="#0288D1"/>
<path d="M713.27 140.254H617.648V149.89H713.27V140.254Z" fill="#0288D1"/>
<path d="M706.27 223.254H610.648V232.89H706.27V223.254Z" fill="#0288D1"/>
<path d="M174.281 141.707C196.665 145.879 219.498 141.707 241.789 138.88L309.534 130.313C312.274 129.962 316.261 128.309 317.872 131.693C318.78 133.586 318.169 137.689 318.237 139.865C318.415 145.862 318.398 151.858 318.237 157.855C317.932 169.317 317.1 180.754 316.04 192.164C313.979 214.497 311.061 236.711 309.602 259.13C308.856 270.54 308.483 281.985 308.814 293.396C308.89 296.12 309 298.844 309.161 301.56C309.339 304.601 310.688 309.116 307.406 311.146C305.531 312.311 301.841 312.251 299.695 312.594C296.303 313.134 292.91 313.562 289.449 313.913C266.641 316.217 243.536 315.258 220.643 315.121L151.515 314.761L134.653 314.667C133.126 314.667 127.621 315.592 126.68 313.759C126.281 312.979 127.342 309.33 127.528 308.353C127.788 306.743 128.071 305.135 128.376 303.53C130.344 292.265 132.668 281.069 135.009 269.881C140.039 245.894 145.188 221.788 147.257 197.287C148.284 184.994 147.605 172.59 148.86 160.322C149.446 154.625 150.141 141.913 157.648 141.407C164.009 140.979 170.557 141.407 176.936 141.407C177.273 141.407 177.597 141.272 177.835 141.031C178.074 140.79 178.208 140.463 178.208 140.122C178.208 139.781 178.074 139.454 177.835 139.213C177.597 138.973 177.273 138.837 176.936 138.837C170.914 138.837 164.883 138.674 158.861 138.794C154.857 138.871 152.075 139.831 150.167 143.549C145.289 153.092 145.79 165.822 145.637 176.239C145.272 201.176 141.481 225.583 136.545 249.972C134.059 262.248 131.379 274.481 128.911 286.765C127.749 292.634 126.638 298.519 125.62 304.421C125.145 307.231 122.744 313.425 124.856 316.003C126.968 318.582 133.466 317.194 136.375 317.211L156.613 317.331L195.393 317.554C220.448 317.7 245.589 318.411 270.636 317.665C282.596 317.305 295.234 316.809 306.88 313.922C310.349 313.065 312.02 311.454 312.155 307.719C312.359 301.928 311.426 295.957 311.307 290.141C310.459 240.369 322.037 191.291 320.849 141.501C320.773 138.118 322.037 129.585 318.373 127.538C316.727 126.613 314.59 127.118 312.859 127.324C309.551 127.709 306.252 128.18 302.944 128.574L259.983 133.988C246.25 135.702 232.527 137.552 218.769 139.128C204.205 140.842 189.498 141.861 174.985 139.128C173.382 138.829 172.695 141.304 174.306 141.604L174.281 141.707Z" fill="#0288D1"/>
<path d="M147.225 171.998L316.769 163.579C318.406 163.493 318.415 160.916 316.769 161.002L147.225 169.421C145.596 169.498 145.587 172.076 147.225 171.998Z" fill="#0288D1"/>
<path d="M199.168 150.447C198.689 150.964 198.342 151.593 198.155 152.279C197.969 152.965 197.95 153.686 198.099 154.381C198.249 155.076 198.562 155.724 199.013 156.267C199.463 156.81 200.037 157.233 200.684 157.499C202.987 158.573 205.694 157.673 207.981 157.088C211.407 156.214 214.832 155.436 218.352 154.799C226.014 153.415 233.774 152.678 241.554 152.596C245.1 152.553 248.62 152.719 252.165 152.876C254.735 152.981 257.501 153.191 259.677 151.565C262.16 149.713 262.965 146.095 260.533 143.841C257.107 140.651 249.724 142.504 245.768 142.836C231.41 144.053 217.145 146.225 203.065 149.337C201.454 149.687 202.131 152.221 203.75 151.862C213.039 149.818 222.401 148.175 231.833 146.934C236.469 146.352 241.114 145.859 245.768 145.457C247.96 145.274 250.153 145.108 252.345 144.977C253.202 144.924 254.11 144.828 254.983 144.855C257.698 144.916 258.015 144.418 256.388 147.764C254.94 150.727 255.403 150.386 252.893 150.29C251.831 150.29 250.769 150.167 249.707 150.115C247.532 150.022 245.357 149.972 243.181 149.966C238.551 149.966 233.931 150.194 229.324 150.648C225.418 151.032 221.521 151.574 217.659 152.273C215.243 152.71 212.845 153.217 210.456 153.776C209.402 154.03 208.34 154.292 207.287 154.563C206.782 154.702 206.268 154.825 205.762 154.956C203.89 155.62 202.294 154.746 200.975 152.334C202.122 151.12 200.315 149.259 199.159 150.482L199.168 150.447Z" fill="#0288D1"/>
<path d="M230.479 186.988C218.193 186.506 204.921 189.872 196.829 199.899C190.495 207.74 186.887 221.193 193.594 230.024C200.803 239.492 216.613 237.822 226.148 233.786C236.236 229.482 247.274 220.608 250.305 209.505C254.083 195.638 241.814 185.155 229.035 185C228.698 185 228.374 185.136 228.135 185.378C227.896 185.62 227.762 185.949 227.762 186.291C227.762 186.633 227.896 186.962 228.135 187.204C228.374 187.446 228.698 187.582 229.035 187.582C236.32 187.668 243.47 190.836 246.866 197.713C250.424 204.96 247.359 212.569 242.621 218.37C235.03 227.606 223.16 234.569 211.069 234.371C203.809 234.259 195.785 231.737 193.535 223.973C191.684 217.681 193.094 210.804 196.32 205.227C203.3 193.177 217.505 189.097 230.53 189.613C232.168 189.674 232.168 187.092 230.53 187.031L230.479 186.988Z" fill="#0288D1"/>
<path d="M218.415 206.518C217.897 206.324 217.338 206.266 216.792 206.348C216.245 206.431 215.728 206.653 215.288 206.992C214.849 207.331 214.502 207.778 214.279 208.29C214.056 208.802 213.964 209.362 214.013 209.92C214.265 213.236 217.877 214.171 220.591 213.975C222.935 213.771 225.674 212.896 224.85 209.928C224.699 209.403 224.437 208.917 224.084 208.503C223.73 208.089 223.292 207.757 222.801 207.53C222.049 207.228 221.233 207.126 220.431 207.233C220.12 207.233 217.272 208.287 218.482 207.02L216.5 206.756C216.72 206.976 216.888 207.243 216.993 207.537C217.097 207.832 217.136 208.146 217.104 208.457C217.108 208.679 217.169 208.897 217.281 209.088C217.392 209.279 217.551 209.438 217.742 209.549C217.932 209.659 218.148 209.718 218.368 209.719C218.587 209.72 218.803 209.663 218.995 209.554C219.283 209.432 219.599 209.393 219.908 209.443C220.216 209.493 220.505 209.629 220.742 209.835C220.978 210.042 221.153 210.311 221.247 210.613C221.34 210.915 221.349 211.237 221.271 211.544C221.204 211.838 221.241 212.147 221.377 212.417C221.512 212.686 221.737 212.899 222.013 213.017C222.288 213.135 222.595 213.15 222.881 213.061C223.166 212.972 223.412 212.784 223.573 212.53C224.414 210.999 225.43 207.955 224.17 206.357C223.33 205.277 221.708 205.6 220.7 206.229C220.078 206.675 219.499 207.179 218.97 207.734C217.953 208.644 217.289 209.069 217.667 207.326C218.297 204.155 221.288 201.629 224.019 200.362L222.17 198.925C221.201 202.611 219.469 206.045 217.088 209.001L219.238 209.903C219.177 208.735 219.474 207.577 220.087 206.586C220.701 205.596 221.601 204.821 222.666 204.367H221.431L222.086 205.456C221.843 207.063 224.271 207.751 224.514 206.127C224.834 204.027 223.523 201.298 221.095 202.327C218.197 203.551 216.693 206.91 216.752 209.903C216.752 210.923 218.18 211.714 218.911 210.812C221.583 207.527 223.533 203.704 224.632 199.597C224.69 199.353 224.678 199.098 224.595 198.861C224.512 198.625 224.364 198.418 224.167 198.266C223.97 198.113 223.734 198.022 223.487 198.004C223.24 197.985 222.992 198.039 222.775 198.16C220.259 199.312 218.132 201.186 216.659 203.551C215.634 205.251 214.349 207.904 215.391 209.86C215.561 210.173 215.792 210.448 216.068 210.671C216.345 210.893 216.662 211.057 217.002 211.155C217.342 211.252 217.698 211.28 218.048 211.237C218.399 211.195 218.738 211.082 219.045 210.906C219.822 210.44 220.531 209.867 221.154 209.205C221.465 208.925 221.809 208.44 222.221 208.355C222.591 208.1 222.574 208.244 222.162 208.806C222.157 209.687 221.903 210.548 221.431 211.288L223.733 212.266C223.941 211.472 223.916 210.635 223.663 209.854C223.41 209.074 222.94 208.385 222.308 207.869C221.676 207.354 220.91 207.035 220.103 206.951C219.296 206.866 218.482 207.02 217.76 207.394L219.658 208.5C219.698 207.418 219.362 206.356 218.709 205.498C218.61 205.333 218.475 205.192 218.315 205.086C218.155 204.981 217.974 204.913 217.784 204.887C217.595 204.862 217.402 204.88 217.221 204.94C217.039 205 216.873 205.101 216.735 205.234C215.458 206.586 215.214 208.925 216.819 210.175C218.02 211.101 218.608 210.175 219.927 209.962C224.405 209.375 221.792 211.416 220.213 211.484C219.507 211.561 218.792 211.509 218.104 211.331C216.351 210.73 216.242 209.956 217.777 209.01C219.28 209.63 219.927 207.165 218.449 206.552L218.415 206.518Z" fill="#0288D1"/>
<path d="M216.176 210.637C217.263 214.182 212.775 215.353 210.646 216.576C209.152 217.417 207.849 218.561 206.82 219.936C204.594 222.932 203.764 226.744 203.03 230.334C202.695 232.01 205.248 232.719 205.592 231.043C205.996 228.405 206.748 225.833 207.827 223.393C209.418 220.219 211.697 219.156 214.665 217.525C217.634 215.893 219.78 213.367 218.729 209.927C218.234 208.296 215.672 208.997 216.176 210.637Z" fill="#0288D1"/>
<path d="M220.603 209C219.994 209.086 219.439 209.399 219.046 209.879C218.652 210.359 218.449 210.972 218.476 211.596C218.476 212.626 219.148 213.284 219.607 214.106C220.698 215.788 221.53 217.629 222.074 219.566C222.482 221.427 222.882 224.758 221.929 226.489C220.169 229.699 216.988 229.085 214.275 229.085C211.723 229.085 209.75 229.95 209.835 226.333C209.886 224.3 211.281 222.24 212.386 220.639L210.056 220.328C210.548 222.97 210.807 225.652 210.83 228.341C210.83 229.544 212.642 230.21 213.203 228.99C214.57 226.063 215.656 223.009 216.443 219.869L213.934 219.523L214.377 226.099C214.384 226.38 214.48 226.651 214.65 226.872C214.821 227.093 215.057 227.252 215.323 227.325C215.589 227.399 215.872 227.384 216.129 227.281C216.386 227.179 216.603 226.995 216.75 226.757C217.048 226.423 217.266 226.023 217.388 225.589C217.473 225.182 216.69 222.439 216.375 223.417L218.876 223.763L219.055 217.515L216.503 217.861C217.042 219.623 217.205 221.482 216.979 223.313C216.818 224.758 219.208 225.087 219.531 223.659L221.13 215.265L218.799 215.568C219.353 216.729 219.506 218.046 219.233 219.306C219.046 220.968 221.598 220.951 221.785 219.306C222.002 217.583 221.73 215.833 221.002 214.261C220.873 214.045 220.685 213.871 220.46 213.761C220.235 213.652 219.984 213.611 219.737 213.644C219.49 213.677 219.258 213.782 219.069 213.947C218.88 214.112 218.742 214.33 218.672 214.573L217.064 222.967L219.573 223.313C219.829 221.25 219.634 219.155 219.004 217.178C218.918 216.88 218.731 216.623 218.476 216.453C218.22 216.283 217.913 216.213 217.611 216.253C217.308 216.294 217.03 216.444 216.827 216.675C216.624 216.907 216.509 217.205 216.503 217.515L216.324 223.763C216.331 224.073 216.447 224.371 216.65 224.603C216.853 224.835 217.131 224.985 217.434 225.026C217.736 225.068 218.043 224.999 218.3 224.831C218.557 224.662 218.746 224.407 218.834 224.109L218.97 223.685C219.028 223.464 219.03 223.231 218.973 223.01C218.916 222.788 218.804 222.585 218.646 222.422C216.001 219.497 215.465 224.152 214.547 225.442L216.928 226.099L216.486 219.523C216.392 218.121 214.351 217.688 213.977 219.177C213.258 222.104 212.261 224.952 211 227.683L213.382 228.341C213.354 225.419 213.069 222.505 212.531 219.635C212.31 218.441 210.77 218.493 210.2 219.324C208.499 221.816 205.556 227.259 207.827 230.245C209.809 232.841 216.044 231.837 218.706 231.672C222.908 231.43 224.43 228.721 224.889 224.689C225.108 222.758 225.002 220.803 224.575 218.908C224.345 217.887 222.023 211.414 221.326 211.544C222.942 211.241 222.253 208.732 220.645 209.035L220.603 209Z" fill="#0288D1"/>
<path d="M215.209 214.621L208.51 224.098L210.628 225.422L215.536 217.812L213.295 216.795L210.849 226.798C210.783 227.102 210.819 227.421 210.951 227.699C211.083 227.977 211.303 228.196 211.571 228.317C211.838 228.439 212.138 228.455 212.416 228.363C212.694 228.271 212.933 228.077 213.09 227.815C214.203 225.839 215.453 223.955 216.828 222.178L214.783 220.898C214.234 223.163 213.175 225.249 211.7 226.974L213.753 228.254C213.878 227.042 214.179 225.859 214.644 224.747C215.274 223.23 213.278 221.889 212.526 223.414C211.834 224.804 211.043 226.134 210.162 227.395L212.403 227.71L212.902 225.212L210.661 224.896L211.021 227.088C211.08 227.308 211.191 227.508 211.344 227.669C211.498 227.829 211.687 227.944 211.894 228.003C212.101 228.061 212.318 228.061 212.525 228.002C212.732 227.943 212.921 227.827 213.074 227.666C215.148 225.365 216.812 222.676 217.982 219.732H215.871C216.426 220.829 216.815 222.012 217.025 223.239C217.319 224.817 219.274 224.23 219.429 222.888C219.781 219.952 219.961 216.994 219.969 214.034H217.515V219.548C217.515 220.977 219.699 221.398 219.928 219.899C220.09 218.569 220.499 217.287 221.131 216.129H218.98C219.498 217.025 219.781 218.055 219.798 219.11C219.798 219.459 219.927 219.793 220.157 220.04C220.387 220.286 220.699 220.425 221.024 220.425C221.35 220.425 221.662 220.286 221.892 220.04C222.122 219.793 222.251 219.459 222.251 219.11L222.562 217.356H220.198C220.436 218.908 221.335 227.649 218.137 226.623C217.597 226.483 217.442 226.518 217.671 226.719L218.399 225.054L220.108 221.17L217.818 220.504C217.965 222.31 218.121 224.887 217.106 226.43C216.288 227.684 213.769 228.184 212.485 227.447C211.637 226.799 210.913 225.984 210.35 225.045L208.673 226.798C210.031 227.859 212.231 230.463 213.982 230.612C215.315 230.726 216.436 229.542 217.311 228.596C218.653 227.109 219.7 225.345 220.388 223.412C221.075 221.478 221.389 219.415 221.311 217.348C221.311 216.999 221.182 216.664 220.951 216.418C220.721 216.171 220.409 216.033 220.084 216.033C219.758 216.033 219.446 216.171 219.216 216.418C218.986 216.664 218.857 216.999 218.857 217.348V220.346C218.857 220.695 218.986 221.029 219.216 221.276C219.446 221.522 219.758 221.661 220.084 221.661C220.409 221.661 220.721 221.522 220.951 221.276C221.182 221.029 221.311 220.695 221.311 220.346V212.99C221.311 212.642 221.182 212.307 220.951 212.061C220.721 211.814 220.409 211.675 220.084 211.675C219.758 211.675 219.446 211.814 219.216 212.061C218.986 212.307 218.857 212.642 218.857 212.99C218.852 214.754 218.71 216.513 218.432 218.251L220.845 218.601C220.652 216.507 220.562 214.403 220.575 212.298C220.571 211.983 220.462 211.68 220.267 211.444C220.072 211.208 219.804 211.054 219.513 211.012C219.222 210.97 218.926 211.041 218.679 211.212C218.433 211.384 218.252 211.645 218.17 211.947C217.802 213.622 217.352 215.27 216.918 216.909L219.16 216.594L218.988 215.892C218.873 214.218 216.419 214.209 216.534 215.892C216.561 216.602 216.734 217.297 217.041 217.926C217.515 218.996 218.996 218.619 219.282 217.611C219.748 215.962 220.166 214.314 220.534 212.649L218.121 212.298C218.108 214.403 218.199 216.507 218.391 218.601C218.513 219.951 220.542 220.53 220.795 218.952C221.122 216.972 221.295 214.966 221.311 212.955H218.857V220.311H221.311V217.313H218.857C219.001 220.62 217.929 223.856 215.871 226.325C215.553 226.713 215.208 227.077 214.841 227.412C214.26 228.008 213.728 227.921 213.262 227.14C212.101 226.623 210.898 225.29 209.884 224.51C208.87 223.73 207.479 225.273 208.199 226.307C210.08 228.99 212.886 231.98 216.378 230.691C220.051 229.297 220.55 223.967 220.272 220.46C220.182 219.294 218.554 218.505 217.99 219.802C217.172 221.652 216.354 223.493 215.536 225.352C215.112 226.044 214.859 226.841 214.8 227.666C215.07 229.639 217.303 229.314 218.677 229.201C224.002 228.771 223.159 220.679 222.546 216.611C222.341 215.261 220.509 215.472 220.182 216.611C219.922 217.412 219.787 218.253 219.781 219.101H222.235C222.146 217.594 221.753 216.125 221.082 214.796C220.972 214.6 220.817 214.438 220.631 214.325C220.446 214.213 220.236 214.153 220.022 214.153C219.809 214.153 219.599 214.213 219.414 214.325C219.228 214.438 219.073 214.6 218.963 214.796C218.232 216.15 217.738 217.636 217.507 219.18L219.961 219.531V214.016C219.961 213.667 219.832 213.333 219.602 213.086C219.372 212.84 219.06 212.701 218.734 212.701C218.409 212.701 218.097 212.84 217.867 213.086C217.637 213.333 217.507 213.667 217.507 214.016C217.499 216.977 217.319 219.934 216.967 222.871L219.38 222.52C219.103 221.087 218.632 219.705 217.982 218.417C217.872 218.221 217.717 218.059 217.531 217.946C217.345 217.833 217.136 217.774 216.922 217.774C216.709 217.774 216.499 217.833 216.314 217.946C216.128 218.059 215.973 218.221 215.863 218.417C214.796 221.163 213.263 223.672 211.34 225.816L213.393 226.395L213.033 224.203C212.845 223.037 211.307 223.002 210.792 223.888C210.385 224.547 210.109 225.289 209.981 226.067C209.853 226.845 209.876 227.643 210.047 228.411C210.252 229.656 211.724 229.525 212.289 228.727C213.17 227.47 213.96 226.142 214.653 224.756L212.534 223.423C211.968 224.733 211.583 226.124 211.389 227.552C211.242 228.71 212.526 229.919 213.442 228.832C215.2 226.77 216.474 224.287 217.156 221.591C217.458 220.399 215.92 219.268 215.102 220.311C213.598 222.244 212.23 224.295 211.013 226.448L213.254 227.465L215.749 217.497C215.815 217.193 215.778 216.874 215.646 216.596C215.514 216.318 215.295 216.099 215.027 215.978C214.759 215.856 214.46 215.84 214.182 215.932C213.904 216.024 213.665 216.218 213.507 216.48L208.6 224.098C207.683 225.51 209.786 226.728 210.718 225.422L217.393 215.954C218.342 214.604 216.215 213.324 215.274 214.621H215.209Z" fill="#0288D1"/>
<path d="M320.598 205.838C329.068 200.633 335.802 192.868 343.284 186.373C351.401 179.331 359.921 172.772 368.695 166.56C385.734 154.505 403.628 143.72 421.507 132.963C421.739 132.815 421.905 132.584 421.97 132.316C422.035 132.048 421.994 131.766 421.856 131.528C421.718 131.29 421.493 131.115 421.229 131.04C420.966 130.965 420.683 130.996 420.441 131.126C402.562 141.883 384.661 152.647 367.622 164.724C359.582 170.396 351.733 176.41 344.209 182.792C336.021 189.741 328.729 198.392 319.504 204.001C318.339 204.71 319.405 206.554 320.57 205.838H320.598Z" fill="#0288D1"/>
<path d="M448.173 100.006C439.053 100.948 429.232 103.309 423.62 111.418C418.772 118.394 418.878 130.562 423.431 137.723C428.601 145.862 439.166 146.154 447.373 143.522C455.581 140.89 464.077 136.275 463.999 126.304C463.957 120.955 462.056 115.384 459.959 110.534C458.149 106.347 454.943 102.688 450.088 103.152C448.748 103.28 448.734 105.42 450.088 105.291C456.591 104.678 458.682 112.531 460.225 117.488C461.628 122.117 462.926 127.595 460.723 132.196C458.521 136.796 453.21 139.143 448.671 140.826C443.761 142.638 438.366 143.743 433.238 142.253C423.08 139.364 420.274 126.276 423.199 116.989C426.566 106.29 438.492 103.145 448.208 102.146C449.541 102.01 449.555 99.8707 448.208 100.006H448.173Z" fill="#0288D1"/>
<path d="M434.252 120.903L440.827 128.694C440.957 128.825 441.118 128.918 441.293 128.965C441.468 129.012 441.652 129.012 441.827 128.963C442.001 128.914 442.161 128.819 442.29 128.688C442.419 128.556 442.513 128.392 442.563 128.211C443.952 124.416 443.688 120.484 444.014 116.494C444.374 112.371 445.37 108.334 446.965 104.54C450.168 96.8431 455.6 90.3748 462.505 86.0338C463.65 85.3123 462.602 83.4365 461.456 84.1652C454.648 88.4248 449.187 94.659 445.743 102.101C444.057 105.722 442.888 109.579 442.271 113.551C441.577 118.233 442.209 123.139 440.542 127.634L442.285 127.151L435.744 119.373C434.856 118.327 433.391 119.864 434.272 120.903H434.252Z" fill="#0288D1"/>
<path d="M156.304 247.05L250.938 245.822L261.818 245.679C263.773 245.679 265.729 245.611 267.685 245.603C270.437 245.603 272.291 247.874 272.24 250.65C272.113 256.538 268.388 256.327 263.511 256.538L251.751 257.068L203.862 259.162C195.285 259.54 186.7 260.003 178.123 260.297C170.384 260.533 155.669 258.026 159.106 246.839C159.581 245.283 157.134 244.619 156.651 246.166C154.958 251.667 157.955 257.253 162.781 260.138C169.631 264.226 178.656 262.838 186.217 262.501L245.011 259.852L259.286 259.221C262.944 259.053 268.032 259.793 271.394 258.102C275.339 256.125 276.033 248.278 273.544 244.972C272.266 243.29 270.471 243.138 268.464 243.063C263.198 242.861 257.838 243.206 252.563 243.273L223.251 243.66L156.27 244.501C155.933 244.501 155.61 244.634 155.372 244.87C155.134 245.107 155 245.428 155 245.763C155 246.097 155.134 246.418 155.372 246.655C155.61 246.891 155.933 247.024 156.27 247.024L156.304 247.05Z" fill="#0288D1"/>
<path d="M907.034 669.559H56V671.242H907.034V669.559Z" fill="#E6E6E6"/>
<path d="M907.034 583.559H56V585.242H907.034V583.559Z" fill="#ADADAD"/>
<path d="M443.841 396.792C444.452 404.472 448.91 410.382 453.797 409.992C458.685 409.603 462.15 403.062 461.538 395.379C461.335 392.307 460.4 389.328 458.81 386.691L455.81 354.184L440.585 355.917L445.159 387.779C444.006 390.635 443.554 393.726 443.841 396.792Z" fill="#FFB6B6"/>
<path d="M425.653 245.132C425.653 245.132 439.885 237.598 447.102 248.857C454.318 260.115 459.299 381.878 459.299 381.878L439.297 384.013L435.505 298.211L425.653 245.132Z" fill="#E6E6E6"/>
<path d="M396.115 577.204L407.702 577.202L413.214 532.508L396.112 532.509L396.115 577.204Z" fill="#FFB6B6"/>
<path d="M435.814 576.941C436.175 577.548 436.365 579.509 436.365 580.216C436.365 582.388 434.604 584.149 432.432 584.149H396.548C395.066 584.149 393.865 582.948 393.865 581.466V579.972C393.865 579.972 392.089 575.482 395.744 569.947C395.744 569.947 400.287 574.281 407.074 567.493L409.076 563.867L423.564 574.463L431.595 575.452C433.352 575.668 434.91 575.418 435.814 576.941Z" fill="#2F2E41"/>
<path d="M463.169 575.283L474.395 572.414L468.674 527.746L452.104 531.98L463.169 575.283Z" fill="#FFB6B6"/>
<path d="M501.569 565.201C502.068 565.701 502.738 567.554 502.913 568.238C503.451 570.343 502.181 572.485 500.076 573.022L465.308 581.904C463.872 582.27 462.411 581.404 462.044 579.968L461.675 578.521C461.675 578.521 458.843 574.61 461.015 568.343C461.015 568.343 466.488 571.417 471.385 563.161L472.427 559.152L489.087 565.833L497.113 564.803C498.869 564.578 500.316 563.95 501.569 565.201Z" fill="#2F2E41"/>
<path d="M386.528 235.522L385.979 231.535L392.508 215.587L410.45 213.594L414.324 236.425L386.528 235.522Z" fill="#FFB6B6"/>
<path opacity="0.1" d="M386.528 235.522L385.979 231.535L392.508 215.587L410.45 213.594L414.324 236.425L386.528 235.522Z" fill="black"/>
<path d="M365.596 348.155L357.622 370.083L363.603 382.044L393.505 555.479H413.385L409.453 401.979L455.303 555.479H474.979L459.157 451.817L447.329 356.129L440.156 351.697L405.466 332.207L365.596 348.155Z" fill="#2F2E41"/>
<path d="M416.43 363.106L404.469 365.099L388.521 327.223H424.404L416.43 363.106Z" fill="#E6E6E6"/>
<path d="M440.352 353.138L416.43 363.106L408.456 345.164L404.469 365.099L362.605 351.623L368.586 327.223L362.605 247.483L383.717 233.409L386.527 231.535L412.443 233.529L414.715 234.765L430.384 243.496L434.371 309.281L440.352 353.138Z" fill="#2F2E41"/>
<path d="M414.716 234.765L403.472 282.369L383.717 233.409L386.528 231.535L412.443 233.529L414.716 234.765Z" fill="#E6E6E6"/>
<path d="M395.499 231.535L391.512 238.402L395.499 240.69L393.505 282.493L401.479 293.334L409.453 277.312L403.473 240.69L405.466 231.535H395.499Z" fill="#2F2E41"/>
<path d="M401.479 227.548C411.939 227.548 420.417 219.069 420.417 208.61C420.417 198.151 411.939 189.672 401.479 189.672C391.02 189.672 382.541 198.151 382.541 208.61C382.541 219.069 391.02 227.548 401.479 227.548Z" fill="#FFB6B6"/>
<path d="M389.376 210.273L393.468 212.058L395.254 201.343C395.254 201.343 402.398 197.772 407.755 199.558C413.113 201.343 422.042 199.558 422.042 199.558C422.042 199.558 422.042 181.699 409.541 181.699C397.04 181.699 384.539 183.485 384.539 188.843C384.539 194.2 379.182 199.558 379.182 199.558C379.182 199.558 372.038 210.273 379.182 217.416C386.325 224.559 389.897 224.559 389.897 224.559L389.376 210.273Z" fill="#2F2E41"/>
<path d="M352.629 396.23C352.422 403.931 356.227 410.281 361.128 410.412C366.029 410.544 370.17 404.408 370.376 396.703C370.501 393.627 369.887 390.566 368.586 387.775L369.054 355.133L353.731 355.24L354.897 387.408C353.447 390.125 352.67 393.15 352.629 396.23Z" fill="#FFB6B6"/>
<path d="M371.586 243.462C371.586 243.462 358.628 239.475 352.648 251.436C346.667 263.397 354.641 385 354.641 385H374.757L369.418 299.28L371.586 243.462Z" fill="#E6E6E6"/>
<path d="M868.657 470.008L820.335 455.215C819.267 454.888 818.145 454.769 817.031 454.864L572.129 475.706C568.638 476.003 567.76 480.713 570.911 482.248L578.755 486.07H578.546V669.021H585.938V489.569L610.524 501.547C612.405 502.463 614.504 502.837 616.586 502.627L619.202 502.363V669.021H626.594V501.616L816.014 482.483V669.021H823.406V481.736L854.822 478.563V669.021H862.214V477.816L867.945 477.237C871.969 476.831 872.524 471.191 868.657 470.008Z" fill="#3F3D56"/>
<path d="M643.226 474.984C647.846 474.984 716.221 466.668 716.221 466.668L726.385 480.528L655.238 494.388L643.226 474.984Z" fill="white"/>
<path d="M718.27 661.915L706.391 661.893L700.818 616.062L718.351 616.094L718.27 661.915Z" fill="#A0616A"/>
<path d="M677.57 661.575C677.199 662.197 677 664.207 676.999 664.932C676.995 667.158 678.797 668.967 681.024 668.97L717.813 669.034C719.332 669.036 720.566 667.807 720.568 666.288L720.571 664.756C720.571 664.756 722.399 660.156 718.662 654.475C718.662 654.475 713.997 658.91 707.051 651.94L705.005 648.219L690.132 659.057L681.897 660.056C680.096 660.275 678.499 660.016 677.57 661.575Z" fill="#2F2E41"/>
<path d="M782.028 640.605L772.655 647.674L740.926 614.887L754.759 604.453L782.028 640.605Z" fill="#A0616A"/>
<path d="M749.757 664.617C749.836 665.329 750.878 667.031 751.31 667.603C752.635 669.359 755.133 669.709 756.89 668.384L785.915 646.489C787.113 645.584 787.352 643.88 786.448 642.681L785.536 641.473C785.536 641.473 784.232 636.758 777.899 634.512C777.899 634.512 776.869 640.788 767.238 639.44L763.407 637.728L758.153 655.139L752.261 660.839C750.972 662.086 749.559 662.834 749.757 664.617Z" fill="#2F2E41"/>
<path d="M757.2 403.742C757.2 414.697 748.32 423.577 737.365 423.577C726.41 423.577 717.529 414.697 717.529 403.742C717.529 392.787 726.41 383.906 737.365 383.906C748.32 383.906 757.2 392.787 757.2 403.742Z" fill="#A0616A"/>
<path d="M755.331 518.108C755.331 518.108 682.3 513.974 678.166 522.242C674.032 530.509 700.514 644.075 700.514 644.075L724.14 639.123L712.615 559.446C712.615 559.446 773.558 575.587 781.826 556.295C790.094 537.004 787.713 529.82 787.713 529.82L755.331 518.108Z" fill="#2F2E41"/>
<path d="M774.043 504.23C774.043 504.23 702.519 519.563 700.72 528.63C698.92 537.697 754.501 640.211 754.501 640.211L775.976 629.186L743.783 555.397C743.783 555.397 806.825 554.84 809.695 534.049C812.565 513.258 808.37 506.96 808.37 506.96L774.043 504.23Z" fill="#2F2E41"/>
<path d="M782.201 426.473H747.839L724.327 465.056C724.327 465.056 718.815 489.989 724.327 492.68C729.838 495.371 729.839 524.308 729.839 524.308L787.713 529.82C787.713 529.82 795.981 443.008 793.225 434.74C790.469 426.473 782.201 426.473 782.201 426.473Z" fill="#0288D1"/>
<path d="M727.772 451.965L724.327 492.68L685.579 476.235L676.332 471.584C674.521 469.222 672.17 467.328 669.477 466.061C662.779 462.797 655.669 463.606 653.593 467.866C651.516 472.127 655.26 478.226 661.955 481.488C664.614 482.829 667.555 483.513 670.532 483.484L697.59 498.852L697.622 498.792L697.742 499.006L740.174 516.729L749.937 463.28L727.772 451.965Z" fill="#A0616A"/>
<path d="M723.638 406.492C723.638 406.492 702.969 409.248 711.236 391.334C711.236 391.334 709.976 381.624 716.118 380.967C722.26 380.311 730.528 369.287 730.528 369.287C730.528 369.287 749.483 359.641 759.297 369.287C769.111 378.933 798.048 435.429 798.048 435.429L778.756 456.098C778.756 456.098 767.159 425.61 753.666 429.141C740.173 432.673 727.772 443.203 727.772 443.203C727.772 443.203 714.079 436.351 720.236 430.378C726.394 424.405 723.638 406.492 723.638 406.492Z" fill="#2F2E41"/>
<path d="M751.197 436.808C751.197 436.808 741.551 424.406 734.661 434.052C727.772 443.698 722.26 456.099 722.26 456.099L749.819 465.745L751.197 436.808Z" fill="#0288D1"/>
<path d="M855.835 666.279L823.816 564.509L823.821 564.509H823.895L823.766 564.343L823.763 564.339L821.482 557.09L821.483 557.089C824.958 554.095 827.323 549.817 827.794 544.892L813.158 464.394C814.165 453.823 806.062 444.583 795.445 444.204L762.421 444.121C753.034 443.788 744.902 450.571 743.535 459.866L742.805 464.8L732.687 533.629C732.317 536.105 732.465 538.545 733.047 540.827L725.766 541.779L723.558 542.074L714.826 543.211L714.798 543.22L713.708 543.359H712.525V572.926H712.599V667.433C712.599 668.043 713.098 668.542 713.708 668.542C714.327 668.542 714.826 668.043 714.826 667.433V572.926H727.781L740.707 667.322C740.791 667.877 741.262 668.283 741.816 668.283C741.862 668.283 741.918 668.283 741.964 668.274C742.574 668.191 742.999 667.627 742.916 667.017L730.035 572.926H792.193C798.364 572.926 804.083 570.968 808.74 567.614L833.385 667.149C833.513 667.653 833.965 667.987 834.462 667.987C834.553 667.987 834.645 667.977 834.738 667.953C835.333 667.802 835.693 667.196 835.542 666.6L810.659 566.103C810.99 565.827 811.321 565.533 811.633 565.229L821.527 564.648L853.712 666.948C853.862 667.423 854.3 667.727 854.773 667.727C854.884 667.727 854.997 667.71 855.108 667.675C855.694 667.491 856.02 666.866 855.835 666.279ZM819.367 558.669C819.45 558.623 819.524 558.568 819.598 558.521L819.837 559.277L819.367 558.669Z" fill="#1E1C2F"/>
<path d="M227.565 493.774L249.114 480.07L257.875 485.355L227.565 520.183V493.774Z" fill="#FFB6B6"/>
<path d="M198.097 440.733C198.097 440.733 183.785 444.101 190.52 463.466C197.256 482.83 219.146 523.243 225.882 520.718C232.617 518.192 233.459 492.934 233.459 492.934C233.459 492.934 232.617 493.776 229.249 490.408C225.882 487.04 225.882 488.578 225.882 484.862C225.882 481.146 223.127 478.392 223.127 478.392L219.988 471.885C219.988 471.885 219.988 441.575 207.359 439.891C194.73 438.207 198.097 440.733 198.097 440.733Z" fill="#E6E6E6"/>
<path d="M264.969 484.452C270.558 478.862 272.291 471.532 268.838 468.08C265.386 464.627 258.056 466.36 252.467 471.95C246.877 477.539 245.144 484.869 248.597 488.321C252.049 491.774 259.379 490.041 264.969 484.452Z" fill="#FFB6B6"/>
<path d="M142.349 552.289L157.053 576.627L242.742 571.557L219.925 542.148L142.349 552.289Z" fill="#1E1C2F"/>
<path d="M167.952 666.118C167.453 666.118 167.018 665.75 166.949 665.242L141.343 478.235C141.267 477.68 141.656 477.168 142.211 477.092C142.765 477.012 143.277 477.404 143.353 477.959L168.958 664.967C169.034 665.522 168.646 666.033 168.091 666.109C168.044 666.115 167.998 666.118 167.952 666.118Z" fill="#1E1C2F"/>
<path d="M142.348 666.358C141.788 666.358 141.334 665.904 141.334 665.344V478.135C141.334 477.575 141.788 477.121 142.348 477.121C142.908 477.121 143.362 477.575 143.362 478.135V665.344C143.362 665.904 142.908 666.358 142.348 666.358Z" fill="#1E1C2F"/>
<path d="M270.881 665.613C270.45 665.613 270.05 665.336 269.914 664.903L209.323 472.319C209.155 471.784 209.452 471.215 209.986 471.047C210.52 470.879 211.09 471.176 211.258 471.71L271.849 664.294C272.017 664.829 271.72 665.398 271.186 665.566C271.085 665.598 270.982 665.613 270.881 665.613Z" fill="#1E1C2F"/>
<path d="M252.374 665.849C251.921 665.849 251.509 665.544 251.392 665.085L209.308 495.116C209.17 494.573 209.498 494.021 210.041 493.883C210.585 493.746 211.135 494.073 211.274 494.616L253.358 664.585C253.496 665.128 253.168 665.68 252.625 665.818C252.541 665.839 252.457 665.849 252.374 665.849Z" fill="#1E1C2F"/>
<path d="M142.349 481.119L212.573 480.039L225.503 553.813H143.363L142.349 481.119Z" fill="#1E1C2F"/>
<path d="M250.266 589.598L232.568 620.756L253.117 625.28L261.684 603.119L250.266 589.598Z" fill="#FFB6B6"/>
<path d="M238.925 614.871C238.925 614.871 238.238 609.79 234.195 611.402C230.152 613.015 218.483 619.007 218.483 619.007C218.483 619.007 248.917 668.458 254.693 666.154C260.468 663.851 253.554 649.872 253.554 649.872L255.08 625.164L238.925 614.871Z" fill="#2F2E41"/>
<path d="M171.998 529.136C171.998 529.136 165.683 558.183 185.048 568.286C204.412 578.39 270.505 553.552 270.505 553.552L240.195 598.967L261.243 607.436C261.243 607.436 309.234 544.291 305.866 534.188C302.498 524.084 279.766 523.242 279.766 523.242L228.408 525.768L214.937 521.559L171.998 529.136Z" fill="#2F2E41"/>
<path d="M224.083 603.43L196.261 626.012L213.755 637.703L229.798 620.179L224.083 603.43Z" fill="#FFB6B6"/>
<path d="M204.322 622.847C204.322 622.847 205.53 617.864 201.178 617.895C196.825 617.925 183.776 619.261 183.776 619.261C183.776 619.261 194.129 676.396 200.347 676.352C206.565 676.308 205.212 660.772 205.212 660.772L215.624 638.313L204.322 622.847Z" fill="#2F2E41"/>
<path d="M173.181 518.633C173.181 518.633 156.73 543.391 171.09 559.848C185.451 576.305 256.05 577.22 256.05 577.22L211.292 608.493L227.816 624.04C227.816 624.04 295.494 582.687 296.034 572.051C296.573 561.414 275.706 552.358 275.706 552.358L226.949 536.023L215.933 527.2L173.181 518.633Z" fill="#2F2E41"/>
<path d="M215.444 461.286C215.444 461.286 199.447 455.392 191.87 455.392C191.145 455.392 190.43 455.477 189.714 455.628C184.865 456.655 180.402 460.823 178.264 463.096C177.43 463.989 176.95 464.586 176.95 464.586C176.95 464.586 177.001 464.005 177.102 462.987C177.599 457.632 179.434 440.061 182.726 428.812C183.905 424.796 185.26 421.588 186.818 420.031C190.447 416.394 192.122 412.032 192.897 408.783C193.553 405.996 193.553 404.034 193.553 404.034L187.416 401.39L186.279 393.964C186.077 394.84 185.142 396.549 182.002 399.824C181.733 400.102 181.438 400.338 181.126 400.54C176.597 403.386 167.361 398.435 162.385 395.32C164.456 388.121 168.211 381.537 175.031 380.46C191.028 377.934 191.028 368.673 201.131 378.776C201.964 379.609 202.806 380.409 203.648 381.184C206.881 387.364 208.06 395.648 208.481 401.407C208.784 405.44 208.708 408.244 208.708 408.244C208.708 408.244 212.918 433.502 219.654 438.554C226.389 443.605 215.444 461.286 215.444 461.286Z" fill="#2F2E41"/>
<path d="M184.291 420.871L172.915 437.558L198.604 444.445V420.871H184.291Z" fill="#FFB6B6"/>
<path opacity="0.1" d="M184.291 420.871L172.915 437.558L198.604 444.445V420.871H184.291Z" fill="#1E1C2F"/>
<path d="M200.203 436.947L175.786 426.844C175.786 426.844 142.951 441.157 145.476 468.941C148.002 496.725 171.577 544.715 171.577 544.715L218.725 524.509L213.674 470.625L200.203 436.947Z" fill="#E6E6E6"/>
<path d="M189.733 428.324C201.63 428.324 211.274 418.68 211.274 406.783C211.274 394.886 201.63 385.242 189.733 385.242C177.837 385.242 168.192 394.886 168.192 406.783C168.192 418.68 177.837 428.324 189.733 428.324Z" fill="#FFB6B6"/>
<path d="M218.811 398.982C214.601 403.192 211.234 407.402 211.234 407.402L209.55 400.666C209.55 400.666 209.162 400.953 208.48 401.407C205.812 403.226 198.647 407.797 192.896 408.783C190.337 409.22 188.063 408.943 186.582 407.402C183.441 404.127 182.507 402.418 182.305 401.542L181.168 408.968L175.03 411.612C175.03 411.612 175.03 420.856 181.766 427.608C182.094 427.937 182.414 428.341 182.726 428.812C185.942 433.662 188.249 445.533 189.714 455.628C191.01 464.603 191.633 472.164 191.633 472.164C191.633 472.164 185.26 464.182 178.263 463.096C177.876 463.037 177.489 462.995 177.101 462.987C176.975 462.97 176.84 462.97 176.714 462.97C169.137 462.97 153.14 468.863 153.14 468.863C153.14 468.863 142.195 451.183 148.93 446.131C155.666 441.079 159.875 415.821 159.875 415.821C159.875 415.821 159.597 405.011 162.384 395.32C164.455 388.121 168.211 381.537 175.03 380.46C191.027 377.934 191.027 368.673 201.13 378.776C201.964 379.609 202.806 380.409 203.648 381.184C213.061 389.839 222.676 395.118 218.811 398.982Z" fill="#2F2E41"/>
<path d="M124.334 512H116.334V670H124.334V512Z" fill="#3F3D56"/>
<path d="M318.334 512H310.334V670H318.334V512Z" fill="#3F3D56"/>
<path d="M267.334 445H214.334V498H267.334V445Z" fill="#0288D1"/>
<path d="M183.784 501.352L205.333 487.648L214.094 492.933L183.784 527.761V501.352Z" fill="#FFB6B6"/>
<path d="M154.316 448.311C154.316 448.311 140.003 451.679 146.739 471.044C153.474 490.408 175.365 530.822 182.1 528.296C188.836 525.77 189.678 500.512 189.678 500.512C189.678 500.512 188.836 501.354 185.468 497.986C182.1 494.618 182.1 496.156 182.1 492.44C182.1 488.725 179.346 485.97 179.346 485.97L176.207 479.463C176.207 479.463 176.207 449.153 163.578 447.469C150.948 445.786 154.316 448.311 154.316 448.311Z" fill="#E6E6E6"/>
<path d="M221.187 492.03C226.777 486.44 228.51 479.11 225.057 475.658C221.605 472.206 214.275 473.938 208.685 479.528C203.096 485.117 201.363 492.447 204.816 495.9C208.268 499.352 215.598 497.619 221.187 492.03Z" fill="#FFB6B6"/>
<path d="M334.334 506H92.334V524H334.334V506Z" fill="#3F3D56"/>
</svg>
