<svg width="878" height="535" viewBox="0 0 878 535" fill="none" xmlns="http://www.w3.org/2000/svg">
<path d="M727.5 498C805.096 498 868 435.096 868 357.5C868 279.904 805.096 217 727.5 217C649.904 217 587 279.904 587 357.5C587 435.096 649.904 498 727.5 498Z" fill="#F2F2F2"/>
<path d="M700.5 535C731.704 535 757 509.704 757 478.5C757 447.296 731.704 422 700.5 422C669.296 422 644 447.296 644 478.5C644 509.704 669.296 535 700.5 535Z" fill="#F2F2F2"/>
<path d="M83.5 167C129.616 167 167 129.616 167 83.5C167 37.3842 129.616 0 83.5 0C37.3842 0 0 37.3842 0 83.5C0 129.616 37.3842 167 83.5 167Z" fill="#F2F2F2"/>
<path d="M830 496.874L830.189 496.142C830.23 495.981 834.487 479.942 847.335 471.233C860.183 462.523 877.062 464.235 877.231 464.253L878 464.337L877.811 465.069C877.77 465.23 873.513 481.269 860.665 489.978C847.817 498.688 830.938 496.976 830.769 496.958L830 496.874ZM848.105 472.316C837.242 479.679 832.717 492.482 831.719 495.709C835.166 495.922 849.043 496.252 859.895 488.895C870.746 481.539 875.28 468.731 876.281 465.502C872.832 465.289 858.956 464.959 848.105 472.316Z" fill="#F1F1F1"/>
<path d="M853.574 476.575C847.055 490.383 831.695 497.105 831.695 497.105C831.695 497.105 826.906 481.443 833.426 467.636C839.945 453.828 855.305 447.105 855.305 447.105C855.305 447.105 860.094 462.768 853.574 476.575Z" fill="#F1F1F1"/>
<path d="M745.317 410.407V412.306C745.321 415.452 746.572 418.468 748.797 420.693C751.022 422.918 754.038 424.169 757.184 424.173H842.644C845.791 424.173 848.81 422.922 851.035 420.697C853.26 418.471 854.511 415.453 854.511 412.306V410.407C854.518 407.628 853.543 404.937 851.757 402.807C851.165 402.101 850.494 401.464 849.757 400.909C849.757 400.909 802.775 399.842 802.775 398.535H757.188C754.042 398.54 751.027 399.792 748.802 402.016C746.578 404.241 745.326 407.256 745.321 410.402L745.317 410.407Z" fill="#CCCCCC"/>
<path d="M806.775 423.699H794.431V503.459H806.775V423.699Z" fill="#CCCCCC"/>
<path d="M841.906 503.028C841.906 504.361 823.201 503.544 800.127 503.544C777.054 503.544 758.349 504.361 758.349 503.028C758.349 501.695 777.054 491.117 800.127 491.117C823.201 491.117 841.906 501.695 841.906 503.028Z" fill="#CCCCCC"/>
<path d="M686.283 25H78C74.6863 25 72 27.6863 72 31V363.882C72 367.196 74.6863 369.882 78 369.882H686.283C689.597 369.882 692.283 367.196 692.283 363.882V31C692.283 27.6863 689.597 25 686.283 25Z" fill="#E6E6E6"/>
<path d="M678.175 37.0039H86.7373C84.5282 37.0039 82.7373 38.7948 82.7373 41.0039V354.515C82.7373 356.724 84.5282 358.515 86.7373 358.515H678.175C680.384 358.515 682.175 356.724 682.175 354.515V41.0039C682.175 38.7948 680.384 37.0039 678.175 37.0039Z" fill="white"/>
<path d="M146.667 164.417C146.334 163.996 146.102 163.505 145.988 162.981C145.874 162.457 145.881 161.914 146.009 161.393C149.051 148.652 149.051 135.375 146.009 122.634C145.881 122.113 145.875 121.571 145.989 121.047C146.103 120.523 146.335 120.032 146.668 119.612C146.993 119.199 147.408 118.866 147.881 118.638C148.354 118.409 148.873 118.291 149.399 118.293H181.917C182.748 118.295 183.551 118.591 184.184 119.13C184.817 119.668 185.238 120.414 185.373 121.234C187.494 135.01 187.494 149.03 185.373 162.807C185.238 163.627 184.817 164.373 184.184 164.911C183.551 165.45 182.748 165.746 181.917 165.748H149.399C148.872 165.748 148.352 165.629 147.879 165.398C147.406 165.167 146.991 164.832 146.667 164.417Z" fill="#0288D1"/>
<path d="M175.645 135.797H158.515C157.877 135.796 157.265 135.542 156.814 135.091C156.363 134.64 156.109 134.028 156.108 133.39V132.368C156.109 131.73 156.363 131.118 156.814 130.667C157.265 130.216 157.877 129.962 158.515 129.961H175.645C176.284 129.962 176.895 130.216 177.347 130.667C177.798 131.118 178.052 131.73 178.052 132.368V133.39C178.052 134.028 177.798 134.64 177.347 135.091C176.895 135.542 176.284 135.796 175.645 135.797Z" fill="white"/>
<path d="M175.645 145.865H158.515C157.877 145.864 157.265 145.611 156.814 145.159C156.363 144.708 156.109 144.096 156.108 143.458V142.438C156.109 141.8 156.363 141.188 156.814 140.737C157.265 140.286 157.877 140.032 158.515 140.031H175.645C176.284 140.032 176.895 140.286 177.347 140.737C177.798 141.188 178.052 141.8 178.052 142.438V143.46C178.051 144.098 177.797 144.709 177.346 145.16C176.895 145.611 176.283 145.864 175.645 145.865Z" fill="white"/>
<path d="M645.286 74.9129H118.716C118.485 74.9129 118.264 74.8212 118.101 74.6579C117.937 74.4947 117.846 74.2733 117.846 74.0424C117.846 73.8115 117.937 73.5901 118.101 73.4268C118.264 73.2636 118.485 73.1719 118.716 73.1719H645.286C645.517 73.1719 645.738 73.2636 645.902 73.4268C646.065 73.5901 646.157 73.8115 646.157 74.0424C646.157 74.2733 646.065 74.4947 645.902 74.6579C645.738 74.8212 645.517 74.9129 645.286 74.9129Z" fill="#3F3D56"/>
<path d="M267.549 332.215C267.318 332.215 267.097 332.123 266.934 331.96C266.77 331.797 266.679 331.575 266.679 331.345V44.9955C266.679 44.7646 266.77 44.5432 266.934 44.38C267.097 44.2167 267.318 44.125 267.549 44.125C267.78 44.125 268.001 44.2167 268.165 44.38C268.328 44.5432 268.42 44.7646 268.42 44.9955V331.345C268.42 331.575 268.328 331.797 268.165 331.96C268.002 332.123 267.779 332.215 267.549 332.215Z" fill="#3F3D56"/>
<path d="M398.974 332.215C398.744 332.215 398.522 332.123 398.359 331.96C398.196 331.797 398.104 331.575 398.104 331.345V44.9955C398.104 44.7646 398.196 44.5432 398.359 44.38C398.523 44.2167 398.744 44.125 398.975 44.125C399.206 44.125 399.427 44.2167 399.591 44.38C399.754 44.5432 399.845 44.7646 399.845 44.9955V331.345C399.845 331.459 399.823 331.572 399.779 331.678C399.735 331.783 399.671 331.879 399.59 331.96C399.509 332.041 399.413 332.105 399.308 332.149C399.202 332.192 399.089 332.215 398.974 332.215Z" fill="#3F3D56"/>
<path d="M530.398 332.215C530.168 332.215 529.946 332.123 529.783 331.96C529.62 331.797 529.528 331.575 529.528 331.345V44.9955C529.528 44.7646 529.62 44.5432 529.783 44.38C529.947 44.2167 530.168 44.125 530.399 44.125C530.63 44.125 530.851 44.2167 531.014 44.38C531.178 44.5432 531.269 44.7646 531.269 44.9955V331.345C531.269 331.575 531.178 331.797 531.014 331.96C530.851 332.123 530.629 332.215 530.398 332.215Z" fill="#3F3D56"/>
<path d="M510.307 210.008H478.507C477.468 210.006 476.473 209.593 475.738 208.859C475.004 208.125 474.591 207.129 474.59 206.091V168.562C474.591 167.523 475.004 166.527 475.738 165.793C476.473 165.059 477.468 164.646 478.507 164.645H510.307C511.345 164.646 512.341 165.059 513.075 165.793C513.81 166.527 514.223 167.523 514.224 168.562V206.092C514.223 207.13 513.809 208.125 513.075 208.859C512.341 209.594 511.345 210.006 510.307 210.008Z" fill="#090814"/>
<path d="M448.51 223.933H416.71C415.671 223.932 414.676 223.519 413.941 222.785C413.207 222.051 412.794 221.055 412.793 220.016V182.487C412.794 181.449 413.207 180.453 413.941 179.719C414.676 178.984 415.671 178.571 416.71 178.57H448.51C449.549 178.571 450.544 178.984 451.279 179.719C452.013 180.453 452.426 181.449 452.427 182.487V220.017C452.426 221.056 452.013 222.051 451.278 222.785C450.544 223.519 449.548 223.932 448.51 223.933Z" fill="#E6E6E6"/>
<path d="M315.346 283.117H283.546C282.507 283.116 281.512 282.703 280.777 281.968C280.043 281.234 279.63 280.238 279.629 279.2V241.671C279.63 240.632 280.043 239.637 280.777 238.902C281.512 238.168 282.507 237.755 283.546 237.754H315.346C316.384 237.755 317.38 238.168 318.115 238.902C318.849 239.637 319.262 240.632 319.263 241.671V279.201C319.262 280.239 318.848 281.235 318.114 281.969C317.38 282.703 316.384 283.116 315.346 283.117Z" fill="#E6E6E6"/>
<path d="M154.329 233.508H122.529C121.491 233.506 120.495 233.093 119.761 232.359C119.026 231.625 118.613 230.629 118.612 229.591V192.062C118.613 191.023 119.026 190.027 119.761 189.293C120.495 188.559 121.491 188.146 122.529 188.145H154.329C155.368 188.146 156.364 188.559 157.098 189.293C157.832 190.027 158.245 191.023 158.246 192.062V229.592C158.245 230.63 157.832 231.625 157.098 232.359C156.363 233.094 155.368 233.506 154.329 233.508Z" fill="#090814"/>
<path d="M243.975 164.746H212.175C211.136 164.745 210.141 164.332 209.406 163.597C208.672 162.863 208.259 161.867 208.258 160.829V123.3C208.259 122.261 208.672 121.266 209.406 120.531C210.141 119.797 211.136 119.384 212.175 119.383H243.975C245.013 119.384 246.009 119.797 246.743 120.531C247.478 121.266 247.891 122.261 247.892 123.3V160.83C247.89 161.868 247.477 162.864 246.743 163.598C246.009 164.332 245.013 164.745 243.975 164.746Z" fill="#E6E6E6"/>
<path d="M217.939 60.6622H168.329C167.406 60.6622 166.52 60.2954 165.867 59.6425C165.214 58.9896 164.848 58.1041 164.848 57.1807C164.848 56.2574 165.214 55.3718 165.867 54.7189C166.52 54.066 167.406 53.6992 168.329 53.6992H217.939C218.862 53.6992 219.748 54.066 220.401 54.7189C221.054 55.3718 221.421 56.2574 221.421 57.1807C221.421 58.1041 221.054 58.9896 220.401 59.6425C219.748 60.2954 218.862 60.6622 217.939 60.6622Z" fill="#E6E6E6"/>
<path d="M358.065 60.6622H308.455C307.532 60.6622 306.646 60.2954 305.993 59.6425C305.34 58.9896 304.974 58.1041 304.974 57.1807C304.974 56.2574 305.34 55.3718 305.993 54.7189C306.646 54.066 307.532 53.6992 308.455 53.6992H358.065C358.988 53.6992 359.874 54.066 360.527 54.7189C361.18 55.3718 361.547 56.2574 361.547 57.1807C361.547 58.1041 361.18 58.9896 360.527 59.6425C359.874 60.2954 358.988 60.6622 358.065 60.6622Z" fill="#E6E6E6"/>
<path d="M489.492 60.6622H439.882C438.959 60.6622 438.073 60.2954 437.42 59.6425C436.767 58.9896 436.4 58.1041 436.4 57.1807C436.4 56.2574 436.767 55.3718 437.42 54.7189C438.073 54.066 438.959 53.6992 439.882 53.6992H489.492C490.415 53.6992 491.301 54.066 491.954 54.7189C492.607 55.3718 492.973 56.2574 492.973 57.1807C492.973 58.1041 492.607 58.9896 491.954 59.6425C491.301 60.2954 490.415 60.6622 489.492 60.6622Z" fill="#E6E6E6"/>
<path d="M612.212 60.6622H562.602C561.678 60.6622 560.793 60.2954 560.14 59.6425C559.487 58.9896 559.12 58.1041 559.12 57.1807C559.12 56.2574 559.487 55.3718 560.14 54.7189C560.793 54.066 561.678 53.6992 562.602 53.6992H612.212C613.135 53.6992 614.02 54.066 614.673 54.7189C615.326 55.3718 615.693 56.2574 615.693 57.1807C615.693 58.1041 615.326 58.9896 614.673 59.6425C614.02 60.2954 613.135 60.6622 612.212 60.6622Z" fill="#E6E6E6"/>
<path d="M699.804 294.147C699.216 293.949 698.682 293.619 698.241 293.183C697.801 292.747 697.465 292.216 697.261 291.631C692.184 277.356 683.818 264.476 672.839 254.035C672.387 253.61 672.038 253.087 671.819 252.507C671.599 251.927 671.515 251.304 671.573 250.687C671.626 250.08 671.818 249.493 672.133 248.971C672.448 248.45 672.878 248.007 673.39 247.677L704.937 227.185C705.744 226.661 706.711 226.441 707.665 226.565C708.619 226.688 709.498 227.146 710.146 227.857C720.884 239.884 729.718 253.483 736.341 268.183C736.727 269.064 736.788 270.053 736.513 270.975C736.238 271.897 735.644 272.691 734.838 273.216L703.291 293.708C702.782 294.041 702.203 294.255 701.598 294.331C700.994 294.407 700.38 294.344 699.804 294.147Z" fill="#0288D1"/>
<path d="M709.88 248.125L693.263 258.918C692.644 259.32 691.891 259.459 691.169 259.305C690.447 259.152 689.815 258.719 689.412 258.1L688.768 257.108C688.366 256.489 688.227 255.735 688.38 255.013C688.533 254.291 688.967 253.66 689.586 253.257L706.202 242.463C706.822 242.061 707.575 241.922 708.297 242.075C709.019 242.229 709.651 242.662 710.054 243.281L710.697 244.272C711.099 244.892 711.239 245.645 711.086 246.367C710.932 247.09 710.499 247.722 709.88 248.125Z" fill="white"/>
<path d="M716.223 257.89L699.606 268.684C698.987 269.085 698.233 269.224 697.511 269.071C696.789 268.918 696.158 268.484 695.755 267.866L695.11 266.874C694.709 266.254 694.569 265.501 694.723 264.779C694.876 264.057 695.31 263.425 695.928 263.023L712.545 252.229C713.165 251.827 713.918 251.688 714.64 251.842C715.362 251.995 715.993 252.428 716.396 253.047L717.04 254.038C717.442 254.657 717.582 255.411 717.428 256.133C717.275 256.855 716.842 257.487 716.223 257.89Z" fill="white"/>
<path d="M643.473 156.914H611.673C610.634 156.913 609.639 156.5 608.904 155.765C608.17 155.031 607.757 154.035 607.756 152.997V115.468C607.757 114.429 608.17 113.434 608.904 112.699C609.639 111.965 610.634 111.552 611.673 111.551H643.473C644.511 111.552 645.507 111.965 646.241 112.699C646.976 113.434 647.389 114.429 647.39 115.468V152.998C647.389 154.036 646.975 155.032 646.241 155.766C645.507 156.5 644.511 156.913 643.473 156.914Z" fill="#E6E6E6"/>
<path d="M618.232 223.933H586.432C585.393 223.932 584.397 223.519 583.663 222.785C582.929 222.051 582.516 221.055 582.515 220.016V182.487C582.516 181.449 582.929 180.453 583.663 179.719C584.397 178.984 585.393 178.571 586.432 178.57H618.232C619.27 178.571 620.266 178.984 621 179.719C621.735 180.453 622.148 181.449 622.149 182.487V220.017C622.147 221.056 621.734 222.051 621 222.785C620.266 223.519 619.27 223.932 618.232 223.933Z" fill="#E6E6E6"/>
<path d="M201.649 274.405C201.316 273.985 201.084 273.493 200.97 272.969C200.856 272.445 200.863 271.902 200.991 271.381C204.033 258.641 204.033 245.363 200.991 232.622C200.864 232.102 200.857 231.559 200.971 231.035C201.086 230.511 201.318 230.021 201.65 229.6C201.975 229.188 202.39 228.855 202.864 228.626C203.337 228.397 203.856 228.28 204.381 228.281H236.899C237.73 228.283 238.534 228.579 239.166 229.118C239.799 229.656 240.221 230.402 240.355 231.222C242.476 244.999 242.476 259.019 240.355 272.795C240.221 273.615 239.799 274.361 239.166 274.9C238.534 275.438 237.73 275.735 236.899 275.736H204.381C203.854 275.737 203.335 275.617 202.861 275.386C202.388 275.156 201.973 274.82 201.649 274.405Z" fill="#0288D1"/>
<path d="M230.628 245.785H213.498C212.86 245.784 212.248 245.531 211.797 245.079C211.345 244.628 211.092 244.016 211.091 243.378V242.356C211.092 241.718 211.345 241.106 211.797 240.655C212.248 240.204 212.86 239.95 213.498 239.949H230.628C231.266 239.95 231.878 240.204 232.329 240.655C232.78 241.106 233.034 241.718 233.035 242.356V243.378C233.034 244.016 232.78 244.628 232.329 245.079C231.878 245.531 231.266 245.784 230.628 245.785Z" fill="white"/>
<path d="M230.628 255.854H213.498C212.86 255.853 212.248 255.599 211.797 255.148C211.345 254.696 211.092 254.085 211.091 253.447V252.427C211.092 251.788 211.345 251.177 211.797 250.725C212.248 250.274 212.86 250.02 213.498 250.02H230.628C231.266 250.02 231.878 250.274 232.329 250.725C232.78 251.177 233.034 251.788 233.035 252.427V253.449C233.034 254.086 232.779 254.698 232.328 255.148C231.877 255.599 231.266 255.853 230.628 255.854Z" fill="white"/>
<path d="M334.02 185.999C333.687 185.578 333.455 185.087 333.341 184.563C333.227 184.039 333.234 183.496 333.362 182.975C336.404 170.234 336.404 156.957 333.362 144.216C333.235 143.695 333.228 143.153 333.342 142.629C333.457 142.105 333.689 141.614 334.021 141.194C334.347 140.781 334.761 140.448 335.235 140.22C335.708 139.991 336.227 139.873 336.752 139.875H369.27C370.101 139.877 370.905 140.173 371.538 140.712C372.17 141.25 372.592 141.996 372.726 142.816C374.847 156.593 374.847 170.613 372.726 184.389C372.592 185.209 372.17 185.955 371.538 186.493C370.905 187.032 370.101 187.328 369.27 187.33H336.752C336.226 187.33 335.706 187.211 335.233 186.98C334.759 186.749 334.344 186.414 334.02 185.999Z" fill="#0288D1"/>
<path d="M362.999 157.379H345.869C345.231 157.378 344.619 157.124 344.168 156.673C343.717 156.222 343.463 155.61 343.462 154.972V153.95C343.463 153.312 343.717 152.7 344.168 152.249C344.619 151.798 345.231 151.544 345.869 151.543H362.999C363.637 151.544 364.249 151.798 364.7 152.249C365.151 152.7 365.405 153.312 365.406 153.95V154.972C365.405 155.61 365.151 156.222 364.7 156.673C364.249 157.124 363.637 157.378 362.999 157.379Z" fill="white"/>
<path d="M362.999 167.447H345.869C345.231 167.446 344.619 167.193 344.168 166.741C343.717 166.29 343.463 165.678 343.462 165.04V164.02C343.463 163.382 343.717 162.77 344.168 162.319C344.619 161.868 345.231 161.614 345.869 161.613H362.999C363.637 161.614 364.249 161.868 364.7 162.319C365.151 162.77 365.405 163.382 365.406 164.02V165.042C365.405 165.68 365.151 166.291 364.699 166.742C364.248 167.193 363.637 167.446 362.999 167.447Z" fill="white"/>
<path d="M424.387 145.144C424.055 144.723 423.822 144.232 423.708 143.708C423.594 143.184 423.602 142.64 423.729 142.12C426.771 129.379 426.771 116.101 423.729 103.361C423.602 102.84 423.595 102.297 423.71 101.773C423.824 101.25 424.056 100.759 424.388 100.339C424.714 99.926 425.129 99.5928 425.602 99.3643C426.075 99.1358 426.594 99.0179 427.119 99.0195H459.637C460.468 99.0211 461.272 99.3176 461.905 99.8562C462.538 100.395 462.959 101.14 463.093 101.961C465.214 115.737 465.214 129.757 463.093 143.534C462.959 144.354 462.538 145.099 461.905 145.638C461.272 146.176 460.468 146.473 459.637 146.475H427.119C426.593 146.475 426.073 146.355 425.6 146.125C425.126 145.894 424.712 145.558 424.387 145.144Z" fill="#0288D1"/>
<path d="M453.366 116.523H436.236C435.598 116.523 434.986 116.269 434.535 115.818C434.084 115.366 433.83 114.755 433.829 114.117V113.095C433.83 112.456 434.084 111.845 434.535 111.393C434.986 110.942 435.598 110.688 436.236 110.688H453.366C454.004 110.688 454.616 110.942 455.067 111.393C455.518 111.845 455.772 112.456 455.773 113.095V114.117C455.772 114.755 455.518 115.366 455.067 115.818C454.616 116.269 454.004 116.523 453.366 116.523Z" fill="white"/>
<path d="M453.366 126.592H436.236C435.598 126.591 434.986 126.337 434.535 125.886C434.084 125.435 433.83 124.823 433.829 124.185V123.165C433.83 122.527 434.084 121.915 434.535 121.464C434.986 121.012 435.598 120.759 436.236 120.758H453.366C454.004 120.759 454.616 121.012 455.067 121.464C455.518 121.915 455.772 122.527 455.773 123.165V124.187C455.772 124.825 455.518 125.436 455.067 125.887C454.615 126.337 454.004 126.591 453.366 126.592Z" fill="white"/>
<path d="M550.812 150.593C550.479 150.172 550.247 149.681 550.133 149.157C550.019 148.633 550.026 148.09 550.154 147.569C553.196 134.828 553.196 121.55 550.154 108.81C550.027 108.289 550.02 107.746 550.134 107.223C550.249 106.699 550.481 106.208 550.813 105.788C551.139 105.375 551.553 105.042 552.027 104.813C552.5 104.585 553.019 104.467 553.544 104.469H586.062C586.893 104.47 587.697 104.767 588.33 105.305C588.962 105.844 589.384 106.59 589.518 107.41C591.639 121.186 591.639 135.206 589.518 148.983C589.384 149.803 588.962 150.549 588.33 151.087C587.697 151.626 586.893 151.922 586.062 151.924H553.544C553.018 151.924 552.498 151.804 552.024 151.574C551.551 151.343 551.136 151.008 550.812 150.593Z" fill="#0288D1"/>
<path d="M579.791 121.973H562.661C562.023 121.972 561.411 121.718 560.96 121.267C560.509 120.816 560.255 120.204 560.254 119.566V118.544C560.255 117.906 560.509 117.294 560.96 116.843C561.411 116.391 562.023 116.138 562.661 116.137H579.791C580.429 116.138 581.041 116.391 581.492 116.843C581.943 117.294 582.197 117.906 582.198 118.544V119.566C582.197 120.204 581.943 120.816 581.492 121.267C581.041 121.718 580.429 121.972 579.791 121.973Z" fill="white"/>
<path d="M579.791 132.041H562.661C562.023 132.04 561.411 131.786 560.96 131.335C560.509 130.884 560.255 130.272 560.254 129.634V128.614C560.255 127.976 560.509 127.364 560.96 126.913C561.411 126.462 562.023 126.208 562.661 126.207H579.791C580.429 126.208 581.041 126.462 581.492 126.913C581.943 127.364 582.197 127.976 582.198 128.614V129.636C582.197 130.274 581.943 130.885 581.491 131.336C581.04 131.787 580.429 132.04 579.791 132.041Z" fill="white"/>
<path d="M841.567 504.43H841.543C841.663 504.404 841.787 504.404 841.907 504.43C841.794 504.418 841.68 504.418 841.567 504.43Z" fill="white"/>
<path d="M837.75 474.164C837.934 474.228 838.017 474.259 838.035 474.267L837.758 474.167L837.75 474.164Z" fill="white"/>
<path d="M837.777 459.491L837.856 459.465C837.525 459.701 837.494 459.641 837.634 459.557C837.684 459.537 837.722 459.516 837.768 459.494L837.777 459.491Z" fill="white"/>
<path d="M719.999 283.39C717.354 280.301 713.617 279.161 711.651 280.844C709.685 282.527 710.235 286.395 712.881 289.486C713.921 290.734 715.245 291.716 716.742 292.349L728.111 305.297L734.074 299.833L722.233 287.648C721.839 286.07 721.073 284.611 719.999 283.39Z" fill="#FFB6B6"/>
<path d="M805.334 299.174C805.334 299.174 807.821 310.556 797.951 314.185C788.081 317.815 762.504 331.75 760.611 331.112C758.718 330.473 752.524 333.591 745.214 326.94C737.903 320.289 720.242 300.237 720.242 300.237L727.507 290.371L754.858 309.266C754.858 309.266 755.443 309.092 758.036 308.823C760.629 308.555 758.601 310.19 762.657 306.919C766.712 303.648 792.597 291.925 792.597 291.925C792.597 291.925 800.192 288.161 805.334 299.174Z" fill="#090814"/>
<path d="M740.795 457.955L744.816 470.911L733.647 478.507L725.604 471.358C725.604 471.358 728.732 460.189 727.392 457.508L740.795 457.955Z" fill="#FFB6B6"/>
<path d="M797.536 274.332L803.943 288.464L785.199 300.115L784.133 283.268L797.536 274.332Z" fill="#FFB6B6"/>
<path opacity="0.1" d="M797.536 274.332L803.943 288.464L785.199 300.115L784.133 283.268L797.536 274.332Z" fill="black"/>
<path d="M790.17 286.929C797.687 286.929 803.78 280.835 803.78 273.318C803.78 265.801 797.687 259.707 790.17 259.707C782.652 259.707 776.559 265.801 776.559 273.318C776.559 280.835 782.652 286.929 790.17 286.929Z" fill="#FFB6B6"/>
<path d="M785.026 297.117L804.238 284.16L801.11 393.622C801.11 393.622 785.25 366.145 773.187 364.804C773.187 364.804 774.527 361.677 775.42 359.89C776.314 358.103 777.654 349.167 777.654 349.167L783.909 300.914L785.026 297.117Z" fill="#0288D1"/>
<path d="M800.44 410.376L783.462 350.507C783.462 350.507 786.143 302.255 804.237 284.16L808.482 290.638C808.482 290.638 812.679 291.261 811.921 294.077C811.162 296.893 828.587 400.547 828.587 400.547H810.527C810.527 400.547 808.928 410.376 800.44 410.376Z" fill="#090814"/>
<path d="M785.025 297.119V295.332C785.025 295.332 776.759 296.002 776.313 300.917C775.866 305.831 772.292 325.043 775.866 336.659L771.398 343.808L768.271 360.786L778.1 363.466L783.461 322.237C783.461 322.237 787.035 300.47 785.025 297.119Z" fill="#090814"/>
<path d="M800.886 382.232C800.886 382.232 808.481 404.124 792.397 404.571C776.313 405.018 751.256 405.018 751.256 405.018L738.783 411.72L742.358 460.419L717.338 460.866C717.338 460.866 709.296 400.997 716.444 393.848C723.593 386.7 744.145 379.104 744.145 379.104L767.824 367.041L774.484 358.957L800.886 382.232Z" fill="#090814"/>
<path d="M801.798 281.252C802.747 280.915 811.631 270.502 804.237 263.604C804.237 263.604 801.356 255.177 789.865 256.061C778.375 256.945 775.281 263.23 775.281 266.495C775.281 269.761 778.324 273.433 778.324 273.433C778.324 273.433 776.165 264.458 781.027 264.9C785.888 265.342 784.562 267.11 788.098 266.226C791.633 265.342 795.169 266.668 795.169 266.668L798.704 267.994V273.386C798.704 273.386 800.246 272.149 800.359 273.386C800.472 274.623 801.798 281.252 801.798 281.252Z" fill="#090814"/>
<path d="M724.934 391.61L724.487 405.46L707.062 402.333C707.062 402.333 714.544 390.02 713.484 386.57L724.934 391.61Z" fill="#FFB6B6"/>
<path d="M723.147 402.333C723.147 402.333 726.275 402.333 726.275 404.121C726.275 405.908 731.189 419.758 721.807 420.205C712.424 420.652 712.871 418.864 712.871 418.864C712.871 418.864 686.511 430.928 677.129 413.056C677.129 413.056 674.895 408.588 680.256 407.695C685.617 406.801 707.063 399.32 707.063 399.32C707.063 399.32 719.573 404.121 723.147 402.333Z" fill="#090814"/>
<path d="M741.241 470.912C741.241 470.912 744.369 467.123 744.816 467.454C745.262 467.785 755.092 478.954 748.39 482.082C741.688 485.209 738.114 486.55 738.114 486.55L736.327 483.869C736.327 483.869 722.923 496.826 702.371 487.89C702.371 487.89 700.584 483.869 704.605 482.975C708.626 482.082 725.604 468.467 725.604 468.467C725.604 468.467 732.753 473.593 736.327 472.699C739.901 471.806 741.241 470.912 741.241 470.912Z" fill="#090814"/>
<path d="M773.187 363.464C773.187 363.464 731.412 342.242 727.838 342.242C724.264 342.242 717.432 343.713 715.933 350.573C714.435 357.433 705.499 390.495 705.499 390.495L727.391 395.856L735.88 372.177L749.73 384.686L773.187 370.699V363.464Z" fill="#090814"/>
<path d="M753.516 355.262C749.493 355.852 746.536 358.407 746.912 360.968C747.288 363.528 750.855 365.124 754.879 364.533C756.49 364.319 758.027 363.722 759.36 362.792L776.376 360.075L774.93 352.117L758.309 355.641C756.765 355.134 755.121 355.004 753.516 355.262Z" fill="#FFB6B6"/>
<path d="M812.361 291.476C812.361 291.476 823.317 295.439 821.127 305.725C818.937 316.01 817.095 345.078 815.546 346.34C813.996 347.601 813.333 354.504 803.809 357.144C794.285 359.784 766.955 371.471 766.955 371.471L763.43 352.634L793.995 339.563C793.995 339.563 794.16 338.976 795.315 336.639C796.47 334.302 796.772 336.889 796.167 331.714C795.561 326.539 799.439 298.39 799.439 298.39C799.439 298.39 800.303 289.957 812.361 291.476Z" fill="#090814"/>
<path d="M612.771 254.202V252.801C612.771 252.609 612.733 252.428 612.658 252.259C612.587 252.086 612.487 251.937 612.36 251.81C612.233 251.683 612.084 251.583 611.911 251.512C611.742 251.437 611.561 251.399 611.369 251.399C611.177 251.399 610.995 251.437 610.822 251.512C610.653 251.583 610.505 251.683 610.378 251.81C610.251 251.937 610.15 252.086 610.075 252.259C610.004 252.428 609.968 252.609 609.968 252.801V254.202H612.771ZM614.172 257H612.771V255.599H609.968V257H608.571V252.801C608.571 252.413 608.645 252.05 608.791 251.712C608.938 251.37 609.136 251.072 609.387 250.818C609.641 250.564 609.937 250.364 610.275 250.218C610.617 250.071 610.982 249.998 611.369 249.998C611.757 249.998 612.119 250.071 612.458 250.218C612.8 250.364 613.098 250.564 613.352 250.818C613.605 251.072 613.806 251.37 613.952 251.712C614.099 252.05 614.172 252.413 614.172 252.801V257ZM620.988 257H619.489L616.789 252.391V257H615.388V249.998H616.887L619.587 254.612V249.998H620.988V257ZM626.413 254.202V252.801C626.413 252.609 626.376 252.428 626.301 252.259C626.229 252.086 626.13 251.937 626.003 251.81C625.876 251.683 625.726 251.583 625.554 251.512C625.384 251.437 625.204 251.399 625.012 251.399C624.82 251.399 624.637 251.437 624.465 251.512C624.296 251.583 624.147 251.683 624.021 251.81C623.894 251.937 623.793 252.086 623.718 252.259C623.646 252.428 623.61 252.609 623.61 252.801V254.202H626.413ZM627.814 257H626.413V255.599H623.61V257H622.214V252.801C622.214 252.413 622.287 252.05 622.434 251.712C622.58 251.37 622.779 251.072 623.029 250.818C623.283 250.564 623.579 250.364 623.918 250.218C624.26 250.071 624.624 249.998 625.012 249.998C625.399 249.998 625.762 250.071 626.101 250.218C626.442 250.364 626.74 250.564 626.994 250.818C627.248 251.072 627.448 251.37 627.595 251.712C627.741 252.05 627.814 252.413 627.814 252.801V257ZM633.933 257H629.03V249.998H630.432V255.599H633.933V257ZM636.916 257H635.52V254.808C635.21 254.729 634.925 254.604 634.665 254.432C634.408 254.259 634.187 254.054 634.001 253.816C633.815 253.576 633.671 253.31 633.566 253.021C633.465 252.728 633.415 252.42 633.415 252.098V249.998H634.816V252.098C634.816 252.29 634.852 252.472 634.924 252.645C634.999 252.814 635.1 252.962 635.227 253.089C635.354 253.216 635.502 253.317 635.671 253.392C635.843 253.463 636.026 253.499 636.218 253.499C636.41 253.499 636.59 253.463 636.76 253.392C636.932 253.317 637.082 253.216 637.209 253.089C637.336 252.962 637.435 252.814 637.507 252.645C637.582 252.472 637.619 252.29 637.619 252.098V249.998H639.016V252.098C639.016 252.42 638.964 252.728 638.859 253.021C638.758 253.31 638.615 253.576 638.43 253.816C638.244 254.054 638.023 254.259 637.766 254.432C637.508 254.604 637.225 254.729 636.916 254.808V257ZM639.558 252.098C639.558 251.808 639.613 251.536 639.724 251.282C639.834 251.028 639.984 250.807 640.173 250.618C640.365 250.426 640.588 250.275 640.842 250.164C641.096 250.053 641.368 249.998 641.657 249.998H644.87V251.399H641.657C641.56 251.399 641.468 251.417 641.384 251.453C641.299 251.489 641.224 251.539 641.159 251.604C641.097 251.666 641.049 251.74 641.013 251.824C640.977 251.909 640.959 252 640.959 252.098C640.959 252.195 640.977 252.288 641.013 252.376C641.049 252.461 641.097 252.535 641.159 252.601C641.224 252.662 641.299 252.711 641.384 252.747C641.468 252.783 641.56 252.801 641.657 252.801H643.059C643.348 252.801 643.62 252.856 643.874 252.967C644.131 253.074 644.354 253.224 644.543 253.416C644.735 253.605 644.885 253.828 644.992 254.085C645.103 254.339 645.158 254.611 645.158 254.9C645.158 255.19 645.103 255.462 644.992 255.716C644.885 255.97 644.735 256.193 644.543 256.385C644.354 256.574 644.131 256.723 643.874 256.834C643.62 256.945 643.348 257 643.059 257H639.948V255.599H643.059C643.156 255.599 643.247 255.581 643.332 255.545C643.417 255.509 643.49 255.46 643.552 255.398C643.617 255.333 643.667 255.258 643.703 255.174C643.739 255.089 643.757 254.998 643.757 254.9C643.757 254.803 643.739 254.712 643.703 254.627C643.667 254.542 643.617 254.469 643.552 254.407C643.49 254.342 643.417 254.292 643.332 254.256C643.247 254.22 643.156 254.202 643.059 254.202H641.657C641.368 254.202 641.096 254.147 640.842 254.036C640.588 253.925 640.365 253.776 640.173 253.587C639.984 253.395 639.834 253.172 639.724 252.918C639.613 252.661 639.558 252.387 639.558 252.098ZM650.881 257H646.081V249.998H650.881V251.399H647.482V252.801H649.782V254.202H647.482V255.599H650.881V257Z" fill="black"/>
<path d="M553.552 333H548.649V325.998H550.051V331.599H553.552V333ZM559.025 330.9C559.025 331.19 558.97 331.462 558.859 331.716C558.749 331.97 558.597 332.193 558.405 332.385C558.216 332.574 557.995 332.723 557.741 332.834C557.487 332.945 557.215 333 556.926 333H554.123V331.599H556.926C557.023 331.599 557.115 331.581 557.199 331.545C557.284 331.509 557.357 331.46 557.419 331.398C557.484 331.333 557.535 331.258 557.57 331.174C557.606 331.089 557.624 330.998 557.624 330.9C557.624 330.803 557.606 330.712 557.57 330.627C557.535 330.542 557.484 330.469 557.419 330.407C557.357 330.342 557.284 330.292 557.199 330.256C557.115 330.22 557.023 330.202 556.926 330.202H555.017V328.801H556.926C557.023 328.801 557.115 328.783 557.199 328.747C557.284 328.711 557.357 328.662 557.419 328.601C557.484 328.535 557.535 328.461 557.57 328.376C557.606 328.288 557.624 328.195 557.624 328.098C557.624 328 557.606 327.909 557.57 327.824C557.535 327.74 557.484 327.666 557.419 327.604C557.357 327.539 557.284 327.489 557.199 327.453C557.115 327.417 557.023 327.399 556.926 327.399H554.123V325.998H556.926C557.215 325.998 557.487 326.053 557.741 326.164C557.995 326.275 558.216 326.426 558.405 326.618C558.597 326.807 558.749 327.028 558.859 327.282C558.97 327.536 559.025 327.808 559.025 328.098C559.025 328.355 558.978 328.605 558.884 328.85C558.789 329.09 558.656 329.307 558.483 329.499C558.656 329.691 558.789 329.909 558.884 330.153C558.978 330.394 559.025 330.643 559.025 330.9Z" fill="black"/>
<path d="M121.051 61H119.649V53.998H121.051V61ZM127.955 61H126.456L123.756 56.3906V61H122.354V53.998H123.854L126.554 58.6123V53.998H127.955V61ZM130.66 61H129.259V53.998H134.161V55.3994H130.66V56.8008H132.76V58.2021H130.66V61ZM141.588 57.5283C141.588 57.8604 141.544 58.181 141.456 58.4902C141.371 58.7962 141.251 59.0843 141.095 59.3545C140.938 59.6214 140.75 59.8656 140.528 60.0869C140.307 60.3083 140.063 60.4987 139.796 60.6582C139.529 60.8145 139.241 60.9349 138.932 61.0195C138.622 61.1074 138.302 61.1514 137.97 61.1514C137.638 61.1514 137.317 61.1074 137.008 61.0195C136.702 60.9349 136.414 60.8145 136.144 60.6582C135.877 60.4987 135.632 60.3083 135.411 60.0869C135.19 59.8656 134.999 59.6214 134.84 59.3545C134.684 59.0843 134.562 58.7962 134.474 58.4902C134.389 58.181 134.347 57.8604 134.347 57.5283C134.347 57.1963 134.389 56.8757 134.474 56.5664C134.562 56.2572 134.684 55.9691 134.84 55.7021C134.999 55.4352 135.19 55.1911 135.411 54.9697C135.632 54.7484 135.877 54.5596 136.144 54.4033C136.414 54.2471 136.702 54.1266 137.008 54.042C137.317 53.9541 137.638 53.9102 137.97 53.9102C138.302 53.9102 138.622 53.9541 138.932 54.042C139.241 54.1266 139.529 54.2471 139.796 54.4033C140.063 54.5596 140.307 54.7484 140.528 54.9697C140.75 55.1911 140.938 55.4352 141.095 55.7021C141.251 55.9691 141.371 56.2572 141.456 56.5664C141.544 56.8757 141.588 57.1963 141.588 57.5283ZM140.196 57.5283C140.196 57.2223 140.138 56.9342 140.021 56.6641C139.903 56.3906 139.744 56.1546 139.542 55.9561C139.343 55.7542 139.107 55.5947 138.834 55.4775C138.564 55.3604 138.276 55.3018 137.97 55.3018C137.66 55.3018 137.371 55.3604 137.101 55.4775C136.83 55.5947 136.594 55.7542 136.393 55.9561C136.191 56.1546 136.031 56.3906 135.914 56.6641C135.797 56.9342 135.738 57.2223 135.738 57.5283C135.738 57.8343 135.797 58.1224 135.914 58.3926C136.031 58.6595 136.191 58.8939 136.393 59.0957C136.594 59.2975 136.83 59.457 137.101 59.5742C137.371 59.6914 137.66 59.75 137.97 59.75C138.276 59.75 138.564 59.6914 138.834 59.5742C139.107 59.457 139.343 59.2975 139.542 59.0957C139.744 58.8939 139.903 58.6595 140.021 58.3926C140.138 58.1224 140.196 57.8343 140.196 57.5283Z" fill="black"/>
<path d="M382.598 234H381.201V229C381.201 228.902 381.182 228.811 381.143 228.727C381.107 228.642 381.056 228.569 380.991 228.507C380.929 228.442 380.856 228.391 380.771 228.355C380.687 228.32 380.596 228.302 380.498 228.302C380.4 228.302 380.309 228.32 380.225 228.355C380.14 228.391 380.065 228.442 380 228.507C379.938 228.569 379.889 228.642 379.854 228.727C379.818 228.811 379.8 228.902 379.8 229V234H378.398V229C378.398 228.902 378.381 228.811 378.345 228.727C378.309 228.642 378.258 228.569 378.193 228.507C378.132 228.442 378.058 228.391 377.974 228.355C377.889 228.32 377.798 228.302 377.7 228.302C377.603 228.302 377.511 228.32 377.427 228.355C377.342 228.391 377.267 228.442 377.202 228.507C377.14 228.569 377.091 228.642 377.056 228.727C377.02 228.811 377.002 228.902 377.002 229V234H375.601V229C375.601 228.71 375.654 228.438 375.762 228.185C375.872 227.927 376.022 227.704 376.211 227.516C376.403 227.324 376.626 227.174 376.88 227.066C377.137 226.956 377.41 226.9 377.7 226.9C377.961 226.9 378.211 226.948 378.452 227.042C378.693 227.133 378.91 227.267 379.102 227.442C379.294 227.267 379.508 227.133 379.746 227.042C379.987 226.948 380.238 226.9 380.498 226.9C380.788 226.9 381.06 226.956 381.313 227.066C381.571 227.174 381.794 227.324 381.982 227.516C382.174 227.704 382.324 227.927 382.432 228.185C382.542 228.438 382.598 228.71 382.598 229V234ZM385.684 234H384.282V228.399H383.584V226.998H385.684V234Z" fill="black"/>
<path d="M608.385 216.601V215.9C608.385 215.804 608.367 215.714 608.329 215.629C608.293 215.543 608.244 215.468 608.18 215.405C608.117 215.341 608.042 215.292 607.956 215.256C607.871 215.218 607.781 215.2 607.685 215.2C607.589 215.2 607.497 215.218 607.411 215.256C607.326 215.292 607.252 215.341 607.189 215.405C607.125 215.468 607.075 215.543 607.038 215.629C607.002 215.714 606.984 215.804 606.984 215.9V216.601H608.385ZM609.086 218H608.385V217.299H606.984V218H606.286V215.9C606.286 215.707 606.322 215.525 606.396 215.356C606.469 215.185 606.568 215.036 606.693 214.909C606.82 214.782 606.968 214.682 607.138 214.609C607.309 214.536 607.491 214.499 607.685 214.499C607.878 214.499 608.06 214.536 608.229 214.609C608.4 214.682 608.549 214.782 608.676 214.909C608.803 215.036 608.903 215.185 608.976 215.356C609.049 215.525 609.086 215.707 609.086 215.9V218ZM609.489 215.549C609.489 215.404 609.516 215.268 609.572 215.141C609.627 215.014 609.702 214.903 609.796 214.809C609.892 214.713 610.004 214.637 610.131 214.582C610.258 214.527 610.394 214.499 610.539 214.499H612.145V215.2H610.539C610.49 215.2 610.444 215.209 610.402 215.227C610.36 215.244 610.322 215.27 610.29 215.302C610.259 215.333 610.234 215.37 610.216 215.412C610.198 215.454 610.189 215.5 610.189 215.549C610.189 215.598 610.198 215.644 610.216 215.688C610.234 215.73 610.259 215.768 610.29 215.8C610.322 215.831 610.36 215.856 610.402 215.874C610.444 215.891 610.49 215.9 610.539 215.9H611.239C611.384 215.9 611.52 215.928 611.647 215.983C611.776 216.037 611.887 216.112 611.981 216.208C612.077 216.302 612.152 216.414 612.206 216.542C612.261 216.669 612.289 216.805 612.289 216.95C612.289 217.095 612.261 217.231 612.206 217.358C612.152 217.485 612.077 217.596 611.981 217.692C611.887 217.787 611.776 217.862 611.647 217.917C611.52 217.972 611.384 218 611.239 218H609.684V217.299H611.239C611.288 217.299 611.334 217.29 611.376 217.272C611.418 217.255 611.455 217.23 611.486 217.199C611.518 217.167 611.544 217.129 611.562 217.087C611.579 217.045 611.588 216.999 611.588 216.95C611.588 216.901 611.579 216.856 611.562 216.813C611.544 216.771 611.518 216.735 611.486 216.704C611.455 216.671 611.418 216.646 611.376 216.628C611.334 216.61 611.288 216.601 611.239 216.601H610.539C610.394 216.601 610.258 216.573 610.131 216.518C610.004 216.463 609.892 216.388 609.796 216.293C609.702 216.197 609.627 216.086 609.572 215.959C609.516 215.83 609.489 215.694 609.489 215.549ZM615.556 216.25C615.556 216.411 615.535 216.566 615.492 216.716C615.451 216.864 615.393 217.003 615.316 217.133C615.24 217.262 615.149 217.38 615.043 217.487C614.937 217.593 614.819 217.684 614.689 217.761C614.559 217.837 614.419 217.897 614.269 217.939C614.121 217.98 613.966 218 613.805 218H612.75V214.499H613.805C613.966 214.499 614.121 214.52 614.269 214.562C614.419 214.603 614.559 214.662 614.689 214.738C614.819 214.815 614.937 214.907 615.043 215.014C615.149 215.12 615.24 215.238 615.316 215.368C615.393 215.497 615.451 215.636 615.492 215.786C615.535 215.934 615.556 216.088 615.556 216.25ZM614.855 216.25C614.855 216.105 614.827 215.969 614.772 215.842C614.718 215.715 614.643 215.604 614.547 215.51C614.453 215.414 614.341 215.338 614.213 215.283C614.086 215.227 613.95 215.2 613.805 215.2H613.456V217.299H613.805C613.95 217.299 614.086 217.272 614.213 217.219C614.341 217.163 614.453 217.089 614.547 216.994C614.643 216.898 614.718 216.787 614.772 216.66C614.827 216.531 614.855 216.394 614.855 216.25Z" fill="#0288D1"/>
<path d="M417.025 184.2V185.601H417.726C417.822 185.601 417.912 185.583 417.997 185.547C418.082 185.51 418.156 185.459 418.219 185.396C418.283 185.333 418.332 185.258 418.368 185.174C418.406 185.088 418.424 184.996 418.424 184.9C418.424 184.804 418.406 184.714 418.368 184.629C418.332 184.543 418.283 184.468 418.219 184.405C418.156 184.341 418.082 184.292 417.997 184.256C417.912 184.218 417.822 184.2 417.726 184.2H417.025ZM417.025 187H416.325V183.499H417.726C417.855 183.499 417.978 183.516 418.097 183.55C418.216 183.583 418.327 183.63 418.429 183.692C418.533 183.752 418.628 183.825 418.712 183.912C418.799 183.996 418.872 184.091 418.932 184.195C418.994 184.299 419.041 184.41 419.074 184.529C419.108 184.648 419.125 184.772 419.125 184.9C419.125 185.092 419.088 185.274 419.015 185.445C418.942 185.614 418.842 185.762 418.715 185.889C418.588 186.016 418.439 186.116 418.268 186.189C418.099 186.263 417.918 186.299 417.726 186.299H417.025V187ZM422.968 185.264C422.968 185.43 422.946 185.59 422.902 185.745C422.86 185.898 422.799 186.042 422.721 186.177C422.643 186.311 422.549 186.433 422.438 186.543C422.327 186.654 422.205 186.749 422.072 186.829C421.938 186.907 421.794 186.967 421.64 187.01C421.485 187.054 421.325 187.076 421.159 187.076C420.993 187.076 420.832 187.054 420.678 187.01C420.525 186.967 420.381 186.907 420.246 186.829C420.112 186.749 419.99 186.654 419.879 186.543C419.769 186.433 419.674 186.311 419.594 186.177C419.516 186.042 419.455 185.898 419.411 185.745C419.368 185.59 419.347 185.43 419.347 185.264C419.347 185.098 419.368 184.938 419.411 184.783C419.455 184.629 419.516 184.485 419.594 184.351C419.674 184.218 419.769 184.096 419.879 183.985C419.99 183.874 420.112 183.78 420.246 183.702C420.381 183.624 420.525 183.563 420.678 183.521C420.832 183.477 420.993 183.455 421.159 183.455C421.325 183.455 421.485 183.477 421.64 183.521C421.794 183.563 421.938 183.624 422.072 183.702C422.205 183.78 422.327 183.874 422.438 183.985C422.549 184.096 422.643 184.218 422.721 184.351C422.799 184.485 422.86 184.629 422.902 184.783C422.946 184.938 422.968 185.098 422.968 185.264ZM422.272 185.264C422.272 185.111 422.243 184.967 422.184 184.832C422.125 184.695 422.046 184.577 421.945 184.478C421.846 184.377 421.728 184.297 421.591 184.239C421.456 184.18 421.312 184.151 421.159 184.151C421.004 184.151 420.859 184.18 420.724 184.239C420.589 184.297 420.471 184.377 420.37 184.478C420.269 184.577 420.189 184.695 420.131 184.832C420.072 184.967 420.043 185.111 420.043 185.264C420.043 185.417 420.072 185.561 420.131 185.696C420.189 185.83 420.269 185.947 420.37 186.048C420.471 186.149 420.589 186.229 420.724 186.287C420.859 186.346 421.004 186.375 421.159 186.375C421.312 186.375 421.456 186.346 421.591 186.287C421.728 186.229 421.846 186.149 421.945 186.048C422.046 185.947 422.125 185.83 422.184 185.696C422.243 185.561 422.272 185.417 422.272 185.264ZM426.859 185.264C426.859 185.43 426.837 185.59 426.793 185.745C426.751 185.898 426.691 186.042 426.613 186.177C426.535 186.311 426.44 186.433 426.33 186.543C426.219 186.654 426.097 186.749 425.963 186.829C425.83 186.907 425.686 186.967 425.531 187.01C425.377 187.054 425.216 187.076 425.05 187.076C424.884 187.076 424.724 187.054 424.569 187.01C424.416 186.967 424.272 186.907 424.137 186.829C424.004 186.749 423.882 186.654 423.771 186.543C423.66 186.433 423.565 186.311 423.485 186.177C423.407 186.042 423.346 185.898 423.302 185.745C423.26 185.59 423.239 185.43 423.239 185.264C423.239 185.098 423.26 184.938 423.302 184.783C423.346 184.629 423.407 184.485 423.485 184.351C423.565 184.218 423.66 184.096 423.771 183.985C423.882 183.874 424.004 183.78 424.137 183.702C424.272 183.624 424.416 183.563 424.569 183.521C424.724 183.477 424.884 183.455 425.05 183.455C425.216 183.455 425.377 183.477 425.531 183.521C425.686 183.563 425.83 183.624 425.963 183.702C426.097 183.78 426.219 183.874 426.33 183.985C426.44 184.096 426.535 184.218 426.613 184.351C426.691 184.485 426.751 184.629 426.793 184.783C426.837 184.938 426.859 185.098 426.859 185.264ZM426.164 185.264C426.164 185.111 426.134 184.967 426.076 184.832C426.017 184.695 425.937 184.577 425.836 184.478C425.737 184.377 425.619 184.297 425.482 184.239C425.347 184.18 425.203 184.151 425.05 184.151C424.896 184.151 424.751 184.18 424.616 184.239C424.481 184.297 424.363 184.377 424.262 184.478C424.161 184.577 424.081 184.695 424.022 184.832C423.964 184.967 423.935 185.111 423.935 185.264C423.935 185.417 423.964 185.561 424.022 185.696C424.081 185.83 424.161 185.947 424.262 186.048C424.363 186.149 424.481 186.229 424.616 186.287C424.751 186.346 424.896 186.375 425.05 186.375C425.203 186.375 425.347 186.346 425.482 186.287C425.619 186.229 425.737 186.149 425.836 186.048C425.937 185.947 426.017 185.83 426.076 185.696C426.134 185.561 426.164 185.417 426.164 185.264Z" fill="#0288D1"/>
<path d="M308.125 243.95C308.125 244.095 308.097 244.231 308.042 244.358C307.987 244.485 307.911 244.596 307.815 244.692C307.721 244.787 307.61 244.862 307.483 244.917C307.356 244.972 307.22 245 307.075 245H305.325V241.499H307.075C307.22 241.499 307.356 241.527 307.483 241.582C307.61 241.637 307.721 241.713 307.815 241.809C307.911 241.903 307.987 242.014 308.042 242.141C308.097 242.268 308.125 242.404 308.125 242.549C308.125 242.614 308.116 242.681 308.098 242.749C308.08 242.817 308.055 242.883 308.022 242.947C307.99 243.01 307.951 243.068 307.905 243.12C307.86 243.172 307.809 243.215 307.754 243.25C307.811 243.28 307.862 243.323 307.908 243.376C307.953 243.429 307.992 243.486 308.025 243.55C308.057 243.613 308.082 243.68 308.098 243.75C308.116 243.818 308.125 243.885 308.125 243.95ZM306.025 244.299H307.075C307.124 244.299 307.17 244.29 307.212 244.272C307.254 244.255 307.291 244.23 307.322 244.199C307.354 244.167 307.38 244.129 307.397 244.087C307.415 244.045 307.424 243.999 307.424 243.95C307.424 243.901 307.415 243.856 307.397 243.813C307.38 243.771 307.354 243.735 307.322 243.704C307.291 243.671 307.254 243.646 307.212 243.628C307.17 243.61 307.124 243.601 307.075 243.601H306.025V244.299ZM306.025 242.9H307.075C307.124 242.9 307.17 242.891 307.212 242.874C307.254 242.856 307.291 242.831 307.322 242.8C307.354 242.768 307.38 242.73 307.397 242.688C307.415 242.644 307.424 242.598 307.424 242.549C307.424 242.5 307.415 242.454 307.397 242.412C307.38 242.37 307.354 242.333 307.322 242.302C307.291 242.27 307.254 242.244 307.212 242.227C307.17 242.209 307.124 242.2 307.075 242.2H306.025V242.9ZM311.46 243.25C311.46 243.411 311.439 243.566 311.396 243.716C311.356 243.864 311.297 244.003 311.221 244.133C311.144 244.262 311.053 244.38 310.947 244.487C310.841 244.593 310.723 244.684 310.593 244.761C310.463 244.837 310.323 244.897 310.173 244.939C310.025 244.98 309.871 245 309.709 245H308.655V241.499H309.709C309.871 241.499 310.025 241.52 310.173 241.562C310.323 241.603 310.463 241.662 310.593 241.738C310.723 241.815 310.841 241.907 310.947 242.014C311.053 242.12 311.144 242.238 311.221 242.368C311.297 242.497 311.356 242.636 311.396 242.786C311.439 242.934 311.46 243.088 311.46 243.25ZM310.759 243.25C310.759 243.105 310.732 242.969 310.676 242.842C310.623 242.715 310.548 242.604 310.452 242.51C310.357 242.414 310.246 242.338 310.117 242.283C309.99 242.227 309.854 242.2 309.709 242.2H309.36V244.299H309.709C309.854 244.299 309.99 244.272 310.117 244.219C310.246 244.163 310.357 244.089 310.452 243.994C310.548 243.898 310.623 243.787 310.676 243.66C310.732 243.531 310.759 243.394 310.759 243.25ZM314.731 243.25C314.731 243.411 314.71 243.566 314.668 243.716C314.627 243.864 314.569 244.003 314.492 244.133C314.416 244.262 314.325 244.38 314.219 244.487C314.113 244.593 313.995 244.684 313.865 244.761C313.735 244.837 313.595 244.897 313.445 244.939C313.297 244.98 313.142 245 312.981 245H311.926V241.499H312.981C313.142 241.499 313.297 241.52 313.445 241.562C313.595 241.603 313.735 241.662 313.865 241.738C313.995 241.815 314.113 241.907 314.219 242.014C314.325 242.12 314.416 242.238 314.492 242.368C314.569 242.497 314.627 242.636 314.668 242.786C314.71 242.934 314.731 243.088 314.731 243.25ZM314.031 243.25C314.031 243.105 314.003 242.969 313.948 242.842C313.894 242.715 313.819 242.604 313.723 242.51C313.629 242.414 313.517 242.338 313.389 242.283C313.262 242.227 313.126 242.2 312.981 242.2H312.632V244.299H312.981C313.126 244.299 313.262 244.272 313.389 244.219C313.517 244.163 313.629 244.089 313.723 243.994C313.819 243.898 313.894 243.787 313.948 243.66C314.003 243.531 314.031 243.394 314.031 243.25Z" fill="#0288D1"/>
<path d="M214.025 156.2V157.601H214.726C214.822 157.601 214.912 157.583 214.997 157.547C215.082 157.51 215.156 157.459 215.219 157.396C215.283 157.333 215.332 157.258 215.368 157.174C215.406 157.088 215.424 156.996 215.424 156.9C215.424 156.804 215.406 156.714 215.368 156.629C215.332 156.543 215.283 156.468 215.219 156.405C215.156 156.341 215.082 156.292 214.997 156.256C214.912 156.218 214.822 156.2 214.726 156.2H214.025ZM214.025 159H213.325V155.499H214.726C214.855 155.499 214.978 155.516 215.097 155.55C215.216 155.583 215.327 155.63 215.429 155.692C215.533 155.752 215.628 155.825 215.712 155.912C215.799 155.996 215.872 156.091 215.932 156.195C215.994 156.299 216.041 156.41 216.074 156.529C216.108 156.648 216.125 156.772 216.125 156.9C216.125 157.092 216.088 157.274 216.015 157.445C215.942 157.614 215.842 157.762 215.715 157.889C215.588 158.016 215.439 158.116 215.268 158.189C215.099 158.263 214.918 158.299 214.726 158.299H214.025V159ZM219.968 157.264C219.968 157.43 219.946 157.59 219.902 157.745C219.86 157.898 219.799 158.042 219.721 158.177C219.643 158.311 219.549 158.433 219.438 158.543C219.327 158.654 219.205 158.749 219.072 158.829C218.938 158.907 218.794 158.967 218.64 159.01C218.485 159.054 218.325 159.076 218.159 159.076C217.993 159.076 217.832 159.054 217.678 159.01C217.525 158.967 217.381 158.907 217.246 158.829C217.112 158.749 216.99 158.654 216.879 158.543C216.769 158.433 216.674 158.311 216.594 158.177C216.516 158.042 216.455 157.898 216.411 157.745C216.368 157.59 216.347 157.43 216.347 157.264C216.347 157.098 216.368 156.938 216.411 156.783C216.455 156.629 216.516 156.485 216.594 156.351C216.674 156.218 216.769 156.096 216.879 155.985C216.99 155.874 217.112 155.78 217.246 155.702C217.381 155.624 217.525 155.563 217.678 155.521C217.832 155.477 217.993 155.455 218.159 155.455C218.325 155.455 218.485 155.477 218.64 155.521C218.794 155.563 218.938 155.624 219.072 155.702C219.205 155.78 219.327 155.874 219.438 155.985C219.549 156.096 219.643 156.218 219.721 156.351C219.799 156.485 219.86 156.629 219.902 156.783C219.946 156.938 219.968 157.098 219.968 157.264ZM219.272 157.264C219.272 157.111 219.243 156.967 219.184 156.832C219.125 156.695 219.046 156.577 218.945 156.478C218.846 156.377 218.728 156.297 218.591 156.239C218.456 156.18 218.312 156.151 218.159 156.151C218.004 156.151 217.859 156.18 217.724 156.239C217.589 156.297 217.471 156.377 217.37 156.478C217.269 156.577 217.189 156.695 217.131 156.832C217.072 156.967 217.043 157.111 217.043 157.264C217.043 157.417 217.072 157.561 217.131 157.696C217.189 157.83 217.269 157.947 217.37 158.048C217.471 158.149 217.589 158.229 217.724 158.287C217.859 158.346 218.004 158.375 218.159 158.375C218.312 158.375 218.456 158.346 218.591 158.287C218.728 158.229 218.846 158.149 218.945 158.048C219.046 157.947 219.125 157.83 219.184 157.696C219.243 157.561 219.272 157.417 219.272 157.264ZM223.859 157.264C223.859 157.43 223.837 157.59 223.793 157.745C223.751 157.898 223.691 158.042 223.613 158.177C223.535 158.311 223.44 158.433 223.33 158.543C223.219 158.654 223.097 158.749 222.963 158.829C222.83 158.907 222.686 158.967 222.531 159.01C222.377 159.054 222.216 159.076 222.05 159.076C221.884 159.076 221.724 159.054 221.569 159.01C221.416 158.967 221.272 158.907 221.137 158.829C221.004 158.749 220.882 158.654 220.771 158.543C220.66 158.433 220.565 158.311 220.485 158.177C220.407 158.042 220.346 157.898 220.302 157.745C220.26 157.59 220.239 157.43 220.239 157.264C220.239 157.098 220.26 156.938 220.302 156.783C220.346 156.629 220.407 156.485 220.485 156.351C220.565 156.218 220.66 156.096 220.771 155.985C220.882 155.874 221.004 155.78 221.137 155.702C221.272 155.624 221.416 155.563 221.569 155.521C221.724 155.477 221.884 155.455 222.05 155.455C222.216 155.455 222.377 155.477 222.531 155.521C222.686 155.563 222.83 155.624 222.963 155.702C223.097 155.78 223.219 155.874 223.33 155.985C223.44 156.096 223.535 156.218 223.613 156.351C223.691 156.485 223.751 156.629 223.793 156.783C223.837 156.938 223.859 157.098 223.859 157.264ZM223.164 157.264C223.164 157.111 223.134 156.967 223.076 156.832C223.017 156.695 222.937 156.577 222.836 156.478C222.737 156.377 222.619 156.297 222.482 156.239C222.347 156.18 222.203 156.151 222.05 156.151C221.896 156.151 221.751 156.18 221.616 156.239C221.481 156.297 221.363 156.377 221.262 156.478C221.161 156.577 221.081 156.695 221.022 156.832C220.964 156.967 220.935 157.111 220.935 157.264C220.935 157.417 220.964 157.561 221.022 157.696C221.081 157.83 221.161 157.947 221.262 158.048C221.363 158.149 221.481 158.229 221.616 158.287C221.751 158.346 221.896 158.375 222.05 158.375C222.203 158.375 222.347 158.346 222.482 158.287C222.619 158.229 222.737 158.149 222.836 158.048C222.937 157.947 223.017 157.83 223.076 157.696C223.134 157.561 223.164 157.417 223.164 157.264Z" fill="#0288D1"/>
<path d="M291.771 110.202V108.801C291.771 108.609 291.733 108.428 291.658 108.259C291.587 108.086 291.487 107.937 291.36 107.81C291.233 107.683 291.084 107.583 290.911 107.512C290.742 107.437 290.561 107.399 290.369 107.399C290.177 107.399 289.995 107.437 289.822 107.512C289.653 107.583 289.505 107.683 289.378 107.81C289.251 107.937 289.15 108.086 289.075 108.259C289.004 108.428 288.968 108.609 288.968 108.801V110.202H291.771ZM293.172 113H291.771V111.599H288.968V113H287.571V108.801C287.571 108.413 287.645 108.05 287.791 107.712C287.938 107.37 288.136 107.072 288.387 106.818C288.641 106.564 288.937 106.364 289.275 106.218C289.617 106.071 289.982 105.998 290.369 105.998C290.757 105.998 291.119 106.071 291.458 106.218C291.8 106.364 292.098 106.564 292.352 106.818C292.605 107.072 292.806 107.37 292.952 107.712C293.099 108.05 293.172 108.413 293.172 108.801V113ZM299.29 113H294.388V105.998H295.789V111.599H299.29V113ZM305.35 112.292C305.024 112.569 304.661 112.782 304.261 112.932C303.86 113.078 303.444 113.151 303.011 113.151C302.679 113.151 302.358 113.107 302.049 113.02C301.743 112.935 301.456 112.814 301.189 112.658C300.923 112.499 300.678 112.31 300.457 112.092C300.236 111.87 300.047 111.626 299.891 111.359C299.734 111.089 299.612 110.799 299.524 110.49C299.44 110.181 299.397 109.86 299.397 109.528C299.397 109.196 299.44 108.877 299.524 108.571C299.612 108.265 299.734 107.979 299.891 107.712C300.047 107.442 300.236 107.198 300.457 106.979C300.678 106.758 300.923 106.569 301.189 106.413C301.456 106.257 301.743 106.136 302.049 106.052C302.358 105.964 302.679 105.92 303.011 105.92C303.444 105.92 303.86 105.995 304.261 106.145C304.661 106.291 305.024 106.503 305.35 106.779L304.617 108C304.406 107.785 304.161 107.618 303.885 107.497C303.608 107.373 303.317 107.312 303.011 107.312C302.705 107.312 302.417 107.37 302.146 107.487C301.88 107.604 301.645 107.764 301.443 107.966C301.242 108.164 301.082 108.399 300.965 108.669C300.848 108.936 300.789 109.222 300.789 109.528C300.789 109.838 300.848 110.127 300.965 110.397C301.082 110.668 301.242 110.904 301.443 111.105C301.645 111.307 301.88 111.467 302.146 111.584C302.417 111.701 302.705 111.76 303.011 111.76C303.187 111.76 303.357 111.739 303.523 111.696C303.689 111.654 303.847 111.595 303.997 111.521V109.528H305.35V112.292ZM311.229 113H306.429V105.998H311.229V107.399H307.83V108.801H310.13V110.202H307.83V111.599H311.229V113ZM317.811 110.9C317.811 111.19 317.755 111.462 317.645 111.716C317.534 111.97 317.382 112.193 317.19 112.385C317.002 112.574 316.78 112.723 316.526 112.834C316.272 112.945 316.001 113 315.711 113H312.21V105.998H315.711C316.001 105.998 316.272 106.053 316.526 106.164C316.78 106.275 317.002 106.426 317.19 106.618C317.382 106.807 317.534 107.028 317.645 107.282C317.755 107.536 317.811 107.808 317.811 108.098C317.811 108.228 317.793 108.361 317.757 108.498C317.721 108.635 317.671 108.767 317.605 108.894C317.54 109.021 317.462 109.136 317.371 109.24C317.28 109.344 317.179 109.431 317.068 109.499C317.182 109.561 317.285 109.646 317.376 109.753C317.467 109.857 317.545 109.973 317.61 110.1C317.675 110.227 317.724 110.36 317.757 110.5C317.793 110.637 317.811 110.77 317.811 110.9ZM313.611 111.599H315.711C315.809 111.599 315.9 111.581 315.984 111.545C316.069 111.509 316.142 111.46 316.204 111.398C316.269 111.333 316.32 111.258 316.355 111.174C316.391 111.089 316.409 110.998 316.409 110.9C316.409 110.803 316.391 110.712 316.355 110.627C316.32 110.542 316.269 110.469 316.204 110.407C316.142 110.342 316.069 110.292 315.984 110.256C315.9 110.22 315.809 110.202 315.711 110.202H313.611V111.599ZM313.611 108.801H315.711C315.809 108.801 315.9 108.783 315.984 108.747C316.069 108.711 316.142 108.662 316.204 108.601C316.269 108.535 316.32 108.461 316.355 108.376C316.391 108.288 316.409 108.195 316.409 108.098C316.409 108 316.391 107.909 316.355 107.824C316.32 107.74 316.269 107.666 316.204 107.604C316.142 107.539 316.069 107.489 315.984 107.453C315.9 107.417 315.809 107.399 315.711 107.399H313.611V108.801ZM320.271 107.399V110.202H321.673C321.865 110.202 322.046 110.166 322.215 110.095C322.384 110.02 322.532 109.919 322.659 109.792C322.786 109.665 322.885 109.517 322.957 109.348C323.032 109.175 323.069 108.993 323.069 108.801C323.069 108.609 323.032 108.428 322.957 108.259C322.885 108.086 322.786 107.937 322.659 107.81C322.532 107.683 322.384 107.583 322.215 107.512C322.046 107.437 321.865 107.399 321.673 107.399H320.271ZM320.271 113H318.87V105.998H321.673C321.93 105.998 322.177 106.032 322.415 106.101C322.653 106.166 322.874 106.26 323.079 106.384C323.287 106.504 323.476 106.651 323.646 106.823C323.818 106.993 323.965 107.181 324.085 107.39C324.209 107.598 324.303 107.821 324.368 108.059C324.437 108.296 324.471 108.544 324.471 108.801C324.471 109.042 324.44 109.276 324.378 109.504C324.319 109.732 324.233 109.948 324.119 110.153C324.008 110.358 323.872 110.547 323.709 110.72C323.546 110.892 323.364 111.042 323.162 111.169L323.938 113H322.449L321.839 111.589L320.271 111.599V113ZM330.193 113H325.394V105.998H330.193V107.399H326.795V108.801H329.095V110.202H326.795V111.599H330.193V113Z" fill="black"/>
<path d="M130.26 289.499C130.26 289.821 130.217 290.132 130.133 290.432C130.051 290.728 129.934 291.006 129.781 291.267C129.628 291.524 129.446 291.76 129.234 291.975C129.023 292.186 128.787 292.368 128.526 292.521C128.266 292.674 127.986 292.793 127.687 292.878C127.39 292.959 127.081 293 126.759 293H124.649V285.998H126.759C127.081 285.998 127.39 286.04 127.687 286.125C127.986 286.206 128.266 286.324 128.526 286.477C128.787 286.63 129.023 286.813 129.234 287.028C129.446 287.24 129.628 287.476 129.781 287.736C129.934 287.993 130.051 288.272 130.133 288.571C130.217 288.868 130.26 289.177 130.26 289.499ZM128.858 289.499C128.858 289.209 128.803 288.938 128.692 288.684C128.585 288.43 128.435 288.208 128.243 288.02C128.054 287.827 127.831 287.676 127.574 287.565C127.32 287.455 127.049 287.399 126.759 287.399H126.061V291.599H126.759C127.049 291.599 127.32 291.545 127.574 291.438C127.831 291.327 128.054 291.177 128.243 290.988C128.435 290.796 128.585 290.573 128.692 290.319C128.803 290.062 128.858 289.789 128.858 289.499ZM135.992 293H131.192V285.998H135.992V287.399H132.594V288.801H134.894V290.202H132.594V291.599H135.992V293ZM142.325 285.998L140.025 293H138.624L136.334 285.998H137.926L139.322 290.671L140.724 285.998H142.325ZM146.915 288.801V290.129H142.813V288.801H146.915ZM155.113 290.998C155.113 291.288 155.058 291.561 154.947 291.818C154.84 292.072 154.69 292.295 154.498 292.487C154.309 292.676 154.086 292.826 153.829 292.937C153.575 293.044 153.303 293.098 153.014 293.098C152.753 293.098 152.503 293.052 152.262 292.961C152.024 292.87 151.809 292.736 151.617 292.561C151.425 292.736 151.209 292.87 150.968 292.961C150.727 293.052 150.476 293.098 150.216 293.098C149.926 293.098 149.653 293.044 149.396 292.937C149.142 292.826 148.919 292.676 148.727 292.487C148.538 292.295 148.388 292.072 148.277 291.818C148.17 291.561 148.116 291.288 148.116 290.998V285.998H149.518V290.998C149.518 291.096 149.535 291.188 149.571 291.276C149.607 291.361 149.656 291.436 149.718 291.501C149.783 291.563 149.858 291.612 149.942 291.647C150.027 291.683 150.118 291.701 150.216 291.701C150.313 291.701 150.405 291.683 150.489 291.647C150.574 291.612 150.647 291.563 150.709 291.501C150.774 291.436 150.825 291.361 150.86 291.276C150.896 291.188 150.914 291.096 150.914 290.998V285.998H152.315V290.998C152.315 291.096 152.333 291.188 152.369 291.276C152.405 291.361 152.454 291.436 152.516 291.501C152.581 291.563 152.656 291.612 152.74 291.647C152.825 291.683 152.916 291.701 153.014 291.701C153.111 291.701 153.202 291.683 153.287 291.647C153.372 291.612 153.445 291.563 153.507 291.501C153.572 291.436 153.622 291.361 153.658 291.276C153.697 291.188 153.717 291.096 153.717 290.998V285.998H155.113V290.998ZM161.168 293H156.368V285.998H161.168V287.399H157.77V288.801H160.069V290.202H157.77V291.599H161.168V293ZM167.75 290.9C167.75 291.19 167.695 291.462 167.584 291.716C167.473 291.97 167.322 292.193 167.13 292.385C166.941 292.574 166.72 292.723 166.466 292.834C166.212 292.945 165.94 293 165.65 293H162.149V285.998H165.65C165.94 285.998 166.212 286.053 166.466 286.164C166.72 286.275 166.941 286.426 167.13 286.618C167.322 286.807 167.473 287.028 167.584 287.282C167.695 287.536 167.75 287.808 167.75 288.098C167.75 288.228 167.732 288.361 167.696 288.498C167.66 288.635 167.61 288.767 167.545 288.894C167.48 289.021 167.402 289.136 167.311 289.24C167.219 289.344 167.118 289.431 167.008 289.499C167.122 289.561 167.224 289.646 167.315 289.753C167.407 289.857 167.485 289.973 167.55 290.1C167.615 290.227 167.664 290.36 167.696 290.5C167.732 290.637 167.75 290.77 167.75 290.9ZM163.551 291.599H165.65C165.748 291.599 165.839 291.581 165.924 291.545C166.008 291.509 166.082 291.46 166.144 291.398C166.209 291.333 166.259 291.258 166.295 291.174C166.331 291.089 166.349 290.998 166.349 290.9C166.349 290.803 166.331 290.712 166.295 290.627C166.259 290.542 166.209 290.469 166.144 290.407C166.082 290.342 166.008 290.292 165.924 290.256C165.839 290.22 165.748 290.202 165.65 290.202H163.551V291.599ZM163.551 288.801H165.65C165.748 288.801 165.839 288.783 165.924 288.747C166.008 288.711 166.082 288.662 166.144 288.601C166.209 288.535 166.259 288.461 166.295 288.376C166.331 288.288 166.349 288.195 166.349 288.098C166.349 288 166.331 287.909 166.295 287.824C166.259 287.74 166.209 287.666 166.144 287.604C166.082 287.539 166.008 287.489 165.924 287.453C165.839 287.417 165.748 287.399 165.65 287.399H163.551V288.801Z" fill="black"/>
</svg>
