<svg width="851" height="1022" viewBox="0 0 851 1022" fill="none" xmlns="http://www.w3.org/2000/svg">
<path d="M155.963 286.204C155.963 210.448 267.046 149.035 404.073 149.035C541.1 149.035 652.183 210.448 652.183 286.204" stroke="#3D4356" stroke-width="2" stroke-miterlimit="10"/>
<path d="M482.088 201.851H280.237C240.314 134.567 240.314 67.2836 280.237 0H482.088C426.266 67.2836 426.266 134.567 482.088 201.851Z" fill="#E6E6E6"/>
<path d="M422.814 24.0312H309.072V38.4492H422.814V24.0312Z" fill="#0288D1"/>
<path d="M422.814 71.2891H272.227V76.095H422.814V71.2891Z" fill="white"/>
<path d="M422.814 96.1211H272.227V100.927H422.814V96.1211Z" fill="white"/>
<path d="M422.814 120.949H272.227V125.755H422.814V120.949Z" fill="white"/>
<path d="M634 735.836C634 799.852 674.16 851.653 723.791 851.653Z" fill="#3D4356"/>
<path d="M723.791 851.654C723.791 786.918 768.608 734.535 823.992 734.535Z" fill="#0288D1"/>
<path d="M666.533 741.637C666.533 802.445 692.143 851.651 723.791 851.651Z" fill="#0288D1"/>
<path d="M723.791 851.651C723.791 768.934 775.592 702 839.608 702Z" fill="#3D4356"/>
<path d="M704.902 852.471C704.902 852.471 717.636 852.078 721.474 849.346C725.311 846.613 741.062 843.35 742.014 847.733C742.966 852.115 761.15 869.53 746.774 869.646C732.397 869.762 713.369 867.407 709.539 865.074C705.709 862.74 704.902 852.471 704.902 852.471Z" fill="#A8A8A8"/>
<path opacity="0.2" d="M747.03 868.12C732.654 868.236 713.626 865.88 709.796 863.547C706.879 861.77 705.716 855.395 705.327 852.453C705.058 852.465 704.902 852.47 704.902 852.47C704.902 852.47 705.709 862.74 709.539 865.073C713.369 867.406 732.397 869.761 746.774 869.645C750.924 869.612 752.357 868.135 752.278 865.949C751.702 867.27 750.119 868.095 747.03 868.12Z" fill="black"/>
<path d="M357.829 157.68C358.998 158.216 360.405 157.417 361.094 156.331C363.718 152.197 358.887 146.866 359.933 142.082C360.771 138.25 365.126 135.975 366.016 132.154C366.881 128.442 364.215 124.257 366.017 120.898C367.429 118.266 370.955 117.574 373.906 118.035C376.857 118.496 379.657 119.793 382.638 119.975C386.61 120.217 390.397 118.468 394.281 117.602C398.165 116.735 402.903 117.075 405.188 120.333C408.121 124.516 405.145 130.342 406.167 135.348C406.978 139.324 410.306 142.616 410.378 146.673C410.403 148.115 406.613 146.953 406.814 148.381C407.016 149.809 405.224 148.552 406.656 148.382C407.241 148.239 407.765 147.913 408.152 147.452C408.54 146.991 408.771 146.419 408.811 145.818C408.982 144.629 411.217 144.233 411.191 143.031C411.13 140.216 416.22 142.114 417.059 139.426C418.986 133.159 418.591 126.408 415.944 120.409C414.803 117.848 413.248 115.424 412.698 112.675C411.95 108.942 413.126 104.935 411.893 101.333C410.231 96.4794 404.732 94.0051 399.626 93.5026C394.52 93 389.332 93.8996 384.255 93.1586C379.708 92.4947 375.305 90.5238 370.718 90.8093C365.214 91.152 360.424 94.6983 356.609 98.6802C352.793 102.662 349.557 107.242 345.224 110.653C343.897 111.566 342.673 112.62 341.573 113.796C339.366 116.485 339.142 120.317 339.756 123.741C340.37 127.166 341.706 130.432 342.27 133.865C342.8 137.092 342.637 140.388 342.865 143.649C343.094 146.911 343.771 150.271 345.735 152.885C346.521 153.953 347.541 154.827 348.716 155.441C349.892 156.055 351.192 156.393 352.517 156.428C353.436 156.449 354.212 155.624 355.138 155.839C356.297 156.108 356.801 157.209 357.829 157.68Z" fill="#2F2E41"/>
<path d="M318.547 394.705L321.951 415.617L328.76 406.376L324.869 392.273L318.547 394.705Z" fill="#ED9DA0"/>
<path d="M322.924 236.652L317.563 250.779C317.563 250.779 312.225 322.732 312.225 328.082C312.225 333.431 316.115 402.003 317.574 404.921C317.574 404.921 323.896 395.681 332.164 397.14C340.431 398.599 337.027 372.824 337.027 372.824L344.808 309.115L343.349 277.017L322.924 236.652Z" fill="#025F91"/>
<path opacity="0.1" d="M322.924 236.652L317.563 250.779C317.563 250.779 312.225 322.732 312.225 328.082C312.225 333.431 316.115 402.003 317.574 404.921C317.574 404.921 323.896 395.681 332.164 397.14C340.431 398.599 337.027 372.824 337.027 372.824L344.808 309.115L343.349 277.017L322.924 236.652Z" fill="black"/>
<path d="M355.992 158.837C355.992 158.837 372.041 199.689 362.801 207.47C353.561 215.251 414.351 194.339 414.351 194.339L412.892 188.989C412.892 188.989 392.953 181.208 402.68 158.837C412.406 136.466 355.992 158.837 355.992 158.837Z" fill="#ED9DA0"/>
<path opacity="0.1" d="M355.992 158.837C355.992 158.837 372.041 199.689 362.801 207.47C353.561 215.251 414.351 194.339 414.351 194.339L412.892 188.989C412.892 188.989 392.953 181.208 402.68 158.837C412.406 136.466 355.992 158.837 355.992 158.837Z" fill="black"/>
<path d="M330.703 704.498C330.703 704.498 323.895 702.552 320.004 707.416C316.113 712.279 301.524 724.437 301.524 724.437C301.524 724.437 273.317 721.519 269.426 735.622C265.536 749.726 313.682 749.726 325.354 746.322C337.026 742.917 339.457 746.322 339.457 746.322C339.457 746.322 375.445 749.24 375.445 743.404C375.445 737.568 372.041 717.628 372.041 717.628L330.703 704.498Z" fill="#025F91"/>
<path d="M444.991 737.079L438.668 756.532C438.668 756.532 419.702 782.794 430.401 788.144C441.1 793.493 479.033 798.843 479.033 784.739V757.991C479.033 757.991 475.143 739.025 471.252 737.079C467.362 735.134 444.991 737.079 444.991 737.079Z" fill="#025F91"/>
<path d="M337.591 387.589C337.591 387.589 317.087 405.404 317.573 407.836C318.059 410.267 327.786 566.378 327.786 566.378L333.135 667.534C333.135 667.534 326.327 691.364 329.731 696.714C333.135 702.063 324.868 703.522 324.868 703.522C324.868 703.522 359.883 735.133 374.473 721.516L388.09 544.98L425.537 673.37C425.537 673.37 431.86 741.456 439.155 741.456C446.449 741.456 476.115 742.915 475.629 739.024C475.143 735.133 477.088 705.467 473.684 687.96C470.279 670.452 447.422 531.849 447.422 531.849C447.422 531.849 445.457 413.027 450.573 401.921C455.69 390.814 447.908 379.143 447.908 379.143L413.866 366.012L373.014 370.875L337.591 387.589Z" fill="#2F2E41"/>
<path d="M378.851 175.375C397.653 175.375 412.894 160.133 412.894 141.332C412.894 122.531 397.653 107.289 378.851 107.289C360.05 107.289 344.809 122.531 344.809 141.332C344.809 160.133 360.05 175.375 378.851 175.375Z" fill="#ED9DA0"/>
<path d="M461.527 214.765C459.845 210.007 457.011 205.74 453.276 202.345C449.542 198.951 445.025 196.534 440.129 195.312C430.319 192.845 420.723 189.592 411.435 185.586C411.435 185.586 376.906 202.121 370.098 202.121C363.289 202.121 363.289 197.744 363.289 197.744C363.289 197.744 345.781 216.224 336.541 218.17C327.301 220.115 313.684 242.972 318.547 255.617C321.85 263.723 326.633 271.145 332.65 277.502C332.65 277.502 330.705 345.587 337.027 358.232C337.027 358.232 321.465 387.898 336.055 389.843C350.644 391.788 406.572 384.98 416.298 391.788C426.025 398.597 444.019 390.329 446.451 399.569C448.882 408.81 454.232 410.755 454.232 410.755C454.232 410.755 462.5 397.624 457.636 389.843C452.773 382.062 461.527 214.765 461.527 214.765Z" fill="#025F91"/>
<path d="M425.537 397.625L417.756 402.488C417.756 402.488 426.023 431.181 429.428 432.154C432.832 433.127 440.845 407.62 440.845 407.62L425.537 397.625Z" fill="#ED9DA0"/>
<path d="M351.993 154.278C353.162 154.814 354.569 154.015 355.258 152.929C357.882 148.795 353.051 143.464 354.097 138.68C354.935 134.847 359.29 132.573 360.18 128.752C361.046 125.039 358.38 120.855 360.181 117.496C361.593 114.864 365.12 114.171 368.07 114.632C371.021 115.093 373.822 116.391 376.802 116.572C380.775 116.814 384.561 115.066 388.445 114.2C392.329 113.333 397.067 113.672 399.352 116.931C402.285 121.114 399.309 126.939 400.331 131.946C401.142 135.922 410.384 138.712 411.223 136.024C413.15 129.757 412.755 123.005 410.109 117.006C408.967 114.445 407.413 112.022 406.862 109.272C406.114 105.54 407.291 101.532 406.057 97.9308C404.395 93.0771 398.896 90.6028 393.79 90.1002C388.685 89.5977 383.496 90.4972 378.419 89.7562C373.872 89.0924 369.469 87.1214 364.882 87.407C359.378 87.7496 354.588 91.296 350.773 95.2779C346.958 99.2597 343.721 103.839 339.388 107.251C338.061 108.164 336.837 109.217 335.737 110.393C333.53 113.083 333.307 116.914 333.92 120.339C334.534 123.763 335.87 127.03 336.434 130.463C336.965 133.689 336.801 136.985 337.029 140.247C337.258 143.508 337.935 146.869 339.899 149.482C340.685 150.55 341.705 151.424 342.881 152.038C344.056 152.652 345.356 152.99 346.682 153.026C347.6 153.047 348.376 152.222 349.303 152.437C350.461 152.706 350.965 153.806 351.993 154.278Z" fill="#2F2E41"/>
<path opacity="0.1" d="M442.316 223.276L458.122 214.766C458.122 214.766 496.542 306.195 487.301 331.484C478.061 356.773 442.559 408.81 442.559 408.81C442.559 408.81 414.352 402.974 417.27 397.138C420.188 391.302 439.155 353.855 440.614 348.992C442.073 344.128 451.799 312.517 447.423 309.113C443.046 305.709 434.535 226.681 434.535 226.681L442.316 223.276Z" fill="black"/>
<path d="M442.073 209.418L461.526 214.768C461.526 214.768 499.946 306.197 490.706 331.486C481.465 356.775 445.964 408.812 445.964 408.812C445.964 408.812 417.757 402.976 420.675 397.14C423.593 391.304 442.559 353.857 444.018 348.994C445.477 344.13 455.204 312.519 450.827 309.115C446.45 305.711 425.538 221.576 425.538 221.576L442.073 209.418Z" fill="#025F91"/>
<path d="M652.183 286.207C652.183 365.632 541.1 430.019 404.073 430.019C267.046 430.019 155.963 365.632 155.963 286.207" stroke="#3D4356" stroke-width="2" stroke-miterlimit="10"/>
<path d="M607.053 432.059C551.594 461.969 479.23 480.07 400.071 480.07C324.174 480.07 254.524 463.43 200.031 435.696" stroke="#3D4356" stroke-width="2" stroke-miterlimit="10"/>
<path d="M527.979 111.906C633.523 139.647 708.691 200.668 715.68 272.537" stroke="#3D4356" stroke-width="2" stroke-miterlimit="10"/>
<path d="M99.1641 225.822C116.948 193.136 149.435 164.372 192 142.273" stroke="#3D4356" stroke-width="2" stroke-miterlimit="10"/>
<path d="M317.357 575.706H519.208C559.131 508.423 559.131 441.139 519.208 373.855H317.357C373.179 441.139 373.179 508.423 317.357 575.706Z" fill="#F2F2F2"/>
<path d="M497.888 412.305H384.146V426.723H497.888V412.305Z" fill="#0288D1"/>
<path d="M525.923 455.559H375.336V460.365H525.923V455.559Z" fill="white"/>
<path d="M525.923 480.387H375.336V485.193H525.923V480.387Z" fill="white"/>
<path d="M231.793 438.698H29.9424C-9.98079 371.415 -9.98079 304.131 29.9424 236.848H231.793C175.971 304.131 175.971 371.415 231.793 438.698Z" fill="#F2F2F2"/>
<path d="M166.112 260.879H52.3711V275.297H166.112V260.879Z" fill="#0288D1"/>
<path d="M178.126 300.93H27.5391V305.736H178.126V300.93Z" fill="white"/>
<path d="M178.126 325.758H27.5391V330.564H178.126V325.758Z" fill="white"/>
<path d="M178.126 350.59H27.5391V355.396H178.126V350.59Z" fill="white"/>
<path d="M178.126 375.422H27.5391V380.228H178.126V375.422Z" fill="white"/>
<path d="M561.787 345.722H763.638C803.561 278.438 803.561 211.155 763.638 143.871H561.787C617.609 211.155 617.609 278.438 561.787 345.722Z" fill="#F2F2F2"/>
<path d="M739.913 163.895H626.172V178.312H739.913V163.895Z" fill="#0288D1"/>
<path d="M764.743 203.945H614.156V208.751H764.743V203.945Z" fill="white"/>
<path d="M94.9346 890.819V878.207C94.9346 876.479 94.5977 874.853 93.9238 873.329C93.2793 871.776 92.3857 870.429 91.2432 869.286C90.1006 868.144 88.7529 867.25 87.2002 866.605C85.6768 865.932 84.0508 865.595 82.3223 865.595C80.5938 865.595 78.9531 865.932 77.4004 866.605C75.877 867.25 74.5439 868.144 73.4014 869.286C72.2588 870.429 71.3506 871.776 70.6768 873.329C70.0322 874.853 69.71 876.479 69.71 878.207V890.819H94.9346ZM107.547 916H94.9346V903.388H69.71V916H57.1416V878.207C57.1416 874.721 57.8008 871.454 59.1191 868.407C60.4375 865.331 62.2246 862.65 64.4805 860.365C66.7656 858.08 69.4316 856.278 72.4785 854.96C75.5547 853.642 78.8359 852.982 82.3223 852.982C85.8086 852.982 89.0752 853.642 92.1221 854.96C95.1982 856.278 97.8789 858.08 100.164 860.365C102.449 862.65 104.251 865.331 105.569 868.407C106.888 871.454 107.547 874.721 107.547 878.207V916ZM168.982 884.491C168.982 887.392 168.602 890.189 167.84 892.885C167.107 895.551 166.053 898.056 164.676 900.399C163.299 902.714 161.658 904.838 159.754 906.771C157.85 908.676 155.726 910.316 153.382 911.693C151.038 913.07 148.519 914.14 145.823 914.901C143.157 915.634 140.374 916 137.474 916H118.489V852.982H137.474C140.374 852.982 143.157 853.363 145.823 854.125C148.519 854.857 151.038 855.912 153.382 857.289C155.726 858.666 157.85 860.321 159.754 862.255C161.658 864.159 163.299 866.283 164.676 868.627C166.053 870.941 167.107 873.446 167.84 876.142C168.602 878.808 168.982 881.591 168.982 884.491ZM156.37 884.491C156.37 881.884 155.872 879.438 154.876 877.152C153.909 874.867 152.562 872.875 150.833 871.176C149.134 869.447 147.127 868.085 144.812 867.089C142.527 866.093 140.081 865.595 137.474 865.595H131.189V903.388H137.474C140.081 903.388 142.527 902.904 144.812 901.938C147.127 900.941 149.134 899.594 150.833 897.895C152.562 896.166 153.909 894.159 154.876 891.874C155.872 889.56 156.37 887.099 156.37 884.491ZM239.91 916H227.342V871C227.342 870.121 227.166 869.301 226.814 868.539C226.492 867.777 226.038 867.118 225.452 866.562C224.896 865.976 224.236 865.521 223.475 865.199C222.713 864.877 221.893 864.716 221.014 864.716C220.135 864.716 219.314 864.877 218.553 865.199C217.791 865.521 217.117 865.976 216.531 866.562C215.975 867.118 215.535 867.777 215.213 868.539C214.891 869.301 214.729 870.121 214.729 871V916H202.117V871C202.117 870.121 201.956 869.301 201.634 868.539C201.312 867.777 200.857 867.118 200.271 866.562C199.715 865.976 199.056 865.521 198.294 865.199C197.532 864.877 196.712 864.716 195.833 864.716C194.954 864.716 194.134 864.877 193.372 865.199C192.61 865.521 191.937 865.976 191.351 866.562C190.794 867.118 190.354 867.777 190.032 868.539C189.71 869.301 189.549 870.121 189.549 871V916H176.937V871C176.937 868.393 177.42 865.946 178.387 863.661C179.383 861.347 180.73 859.34 182.43 857.641C184.158 855.912 186.165 854.564 188.45 853.598C190.765 852.602 193.226 852.104 195.833 852.104C198.177 852.104 200.433 852.528 202.601 853.378C204.769 854.198 206.717 855.399 208.445 856.981C210.174 855.399 212.107 854.198 214.246 853.378C216.414 852.528 218.67 852.104 221.014 852.104C223.621 852.104 226.067 852.602 228.353 853.598C230.667 854.564 232.674 855.912 234.373 857.641C236.102 859.34 237.449 861.347 238.416 863.661C239.412 865.946 239.91 868.393 239.91 871V916ZM263.816 916H251.204V852.982H263.816V916ZM325.955 916H312.464L288.162 874.516V916H275.55V852.982H289.041L313.343 894.511V852.982H325.955V916ZM350.301 916H337.688V852.982H350.301V916ZM358.343 871.879C358.343 869.271 358.841 866.825 359.837 864.54C360.833 862.255 362.181 860.263 363.88 858.563C365.608 856.835 367.615 855.473 369.9 854.477C372.186 853.48 374.632 852.982 377.239 852.982H406.155V865.595H377.239C376.36 865.595 375.54 865.756 374.778 866.078C374.017 866.4 373.343 866.854 372.757 867.44C372.2 867.997 371.761 868.656 371.438 869.418C371.116 870.18 370.955 871 370.955 871.879C370.955 872.758 371.116 873.593 371.438 874.384C371.761 875.146 372.2 875.819 372.757 876.405C373.343 876.962 374.017 877.401 374.778 877.724C375.54 878.046 376.36 878.207 377.239 878.207H389.852C392.459 878.207 394.905 878.705 397.19 879.701C399.505 880.668 401.512 882.016 403.211 883.744C404.939 885.443 406.287 887.45 407.254 889.765C408.25 892.05 408.748 894.496 408.748 897.104C408.748 899.711 408.25 902.157 407.254 904.442C406.287 906.728 404.939 908.734 403.211 910.463C401.512 912.162 399.505 913.51 397.19 914.506C394.905 915.502 392.459 916 389.852 916H361.858V903.388H389.852C390.73 903.388 391.551 903.227 392.312 902.904C393.074 902.582 393.733 902.143 394.29 901.586C394.876 901 395.33 900.326 395.652 899.564C395.975 898.803 396.136 897.982 396.136 897.104C396.136 896.225 395.975 895.404 395.652 894.643C395.33 893.881 394.876 893.222 394.29 892.665C393.733 892.079 393.074 891.625 392.312 891.303C391.551 890.98 390.73 890.819 389.852 890.819H377.239C374.632 890.819 372.186 890.321 369.9 889.325C367.615 888.329 365.608 886.981 363.88 885.282C362.181 883.554 360.833 881.547 359.837 879.262C358.841 876.947 358.343 874.486 358.343 871.879ZM442.63 916H430.062V865.595H411.121V852.982H461.526V865.595H442.63V916ZM480.818 865.595V890.819H493.431C495.159 890.819 496.785 890.497 498.309 889.853C499.832 889.179 501.165 888.271 502.308 887.128C503.45 885.985 504.344 884.652 504.988 883.129C505.662 881.576 505.999 879.936 505.999 878.207C505.999 876.479 505.662 874.853 504.988 873.329C504.344 871.776 503.45 870.429 502.308 869.286C501.165 868.144 499.832 867.25 498.309 866.605C496.785 865.932 495.159 865.595 493.431 865.595H480.818ZM480.818 916H468.206V852.982H493.431C495.745 852.982 497.972 853.29 500.11 853.905C502.249 854.491 504.241 855.341 506.087 856.454C507.962 857.538 509.661 858.856 511.185 860.409C512.737 861.933 514.056 863.632 515.14 865.507C516.253 867.382 517.103 869.389 517.688 871.527C518.304 873.666 518.611 875.893 518.611 878.207C518.611 880.375 518.333 882.484 517.776 884.535C517.249 886.586 516.473 888.534 515.447 890.38C514.451 892.226 513.221 893.925 511.756 895.478C510.291 897.03 508.65 898.378 506.834 899.521L513.821 916H500.418L494.925 903.3L480.818 903.388V916ZM564.007 890.819V878.207C564.007 876.479 563.67 874.853 562.996 873.329C562.352 871.776 561.458 870.429 560.315 869.286C559.173 868.144 557.825 867.25 556.272 866.605C554.749 865.932 553.123 865.595 551.395 865.595C549.666 865.595 548.025 865.932 546.473 866.605C544.949 867.25 543.616 868.144 542.474 869.286C541.331 870.429 540.423 871.776 539.749 873.329C539.104 874.853 538.782 876.479 538.782 878.207V890.819H564.007ZM576.619 916H564.007V903.388H538.782V916H526.214V878.207C526.214 874.721 526.873 871.454 528.191 868.407C529.51 865.331 531.297 862.65 533.553 860.365C535.838 858.08 538.504 856.278 541.551 854.96C544.627 853.642 547.908 852.982 551.395 852.982C554.881 852.982 558.147 853.642 561.194 854.96C564.271 856.278 566.951 858.08 569.236 860.365C571.521 862.65 573.323 865.331 574.642 868.407C575.96 871.454 576.619 874.721 576.619 878.207V916ZM612.083 916H599.515V865.595H580.574V852.982H630.979V865.595H612.083V916ZM697.381 884.755C697.381 887.743 696.985 890.629 696.194 893.412C695.433 896.166 694.349 898.759 692.942 901.19C691.536 903.593 689.837 905.79 687.845 907.782C685.853 909.774 683.655 911.488 681.253 912.924C678.851 914.33 676.258 915.414 673.475 916.176C670.691 916.967 667.806 917.362 664.817 917.362C661.829 917.362 658.943 916.967 656.16 916.176C653.406 915.414 650.813 914.33 648.382 912.924C645.979 911.488 643.782 909.774 641.79 907.782C639.798 905.79 638.084 903.593 636.648 901.19C635.242 898.759 634.144 896.166 633.353 893.412C632.591 890.629 632.21 887.743 632.21 884.755C632.21 881.767 632.591 878.881 633.353 876.098C634.144 873.314 635.242 870.722 636.648 868.319C638.084 865.917 639.798 863.72 641.79 861.728C643.782 859.735 645.979 858.036 648.382 856.63C650.813 855.224 653.406 854.14 656.16 853.378C658.943 852.587 661.829 852.191 664.817 852.191C667.806 852.191 670.691 852.587 673.475 853.378C676.258 854.14 678.851 855.224 681.253 856.63C683.655 858.036 685.853 859.735 687.845 861.728C689.837 863.72 691.536 865.917 692.942 868.319C694.349 870.722 695.433 873.314 696.194 876.098C696.985 878.881 697.381 881.767 697.381 884.755ZM684.856 884.755C684.856 882.001 684.329 879.408 683.274 876.977C682.22 874.516 680.784 872.392 678.968 870.604C677.181 868.788 675.057 867.353 672.596 866.298C670.164 865.243 667.571 864.716 664.817 864.716C662.034 864.716 659.427 865.243 656.995 866.298C654.563 867.353 652.439 868.788 650.623 870.604C648.807 872.392 647.371 874.516 646.316 876.977C645.262 879.408 644.734 882.001 644.734 884.755C644.734 887.509 645.262 890.102 646.316 892.533C647.371 894.936 648.807 897.045 650.623 898.861C652.439 900.678 654.563 902.113 656.995 903.168C659.427 904.223 662.034 904.75 664.817 904.75C667.571 904.75 670.164 904.223 672.596 903.168C675.057 902.113 677.181 900.678 678.968 898.861C680.784 897.045 682.22 894.936 683.274 892.533C684.329 890.102 684.856 887.509 684.856 884.755ZM718.299 865.595V890.819H730.911C732.64 890.819 734.266 890.497 735.789 889.853C737.312 889.179 738.646 888.271 739.788 887.128C740.931 885.985 741.824 884.652 742.469 883.129C743.143 881.576 743.479 879.936 743.479 878.207C743.479 876.479 743.143 874.853 742.469 873.329C741.824 871.776 740.931 870.429 739.788 869.286C738.646 868.144 737.312 867.25 735.789 866.605C734.266 865.932 732.64 865.595 730.911 865.595H718.299ZM718.299 916H705.687V852.982H730.911C733.226 852.982 735.452 853.29 737.591 853.905C739.729 854.491 741.722 855.341 743.567 856.454C745.442 857.538 747.142 858.856 748.665 860.409C750.218 861.933 751.536 863.632 752.62 865.507C753.733 867.382 754.583 869.389 755.169 871.527C755.784 873.666 756.092 875.893 756.092 878.207C756.092 880.375 755.813 882.484 755.257 884.535C754.729 886.586 753.953 888.534 752.928 890.38C751.932 892.226 750.701 893.925 749.236 895.478C747.771 897.03 746.131 898.378 744.314 899.521L751.302 916H737.898L732.405 903.3L718.299 903.388V916Z" fill="white"/>
<path d="M80.7178 956.293C80.7178 955.424 80.8838 954.608 81.2158 953.847C81.5479 953.085 81.9971 952.421 82.5635 951.854C83.1396 951.278 83.8086 950.824 84.5703 950.492C85.332 950.16 86.1475 949.994 87.0166 949.994H96.6553V954.198H87.0166C86.7236 954.198 86.4502 954.252 86.1963 954.359C85.9424 954.467 85.7178 954.618 85.5225 954.813C85.3369 954.999 85.1904 955.219 85.083 955.473C84.9756 955.727 84.9219 956 84.9219 956.293C84.9219 956.586 84.9756 956.864 85.083 957.128C85.1904 957.382 85.3369 957.606 85.5225 957.802C85.7178 957.987 85.9424 958.134 86.1963 958.241C86.4502 958.349 86.7236 958.402 87.0166 958.402H91.2207C92.0898 958.402 92.9053 958.568 93.667 958.9C94.4385 959.223 95.1074 959.672 95.6738 960.248C96.25 960.814 96.6992 961.483 97.0215 962.255C97.3535 963.017 97.5195 963.832 97.5195 964.701C97.5195 965.57 97.3535 966.386 97.0215 967.147C96.6992 967.909 96.25 968.578 95.6738 969.154C95.1074 969.721 94.4385 970.17 93.667 970.502C92.9053 970.834 92.0898 971 91.2207 971H81.8896V966.796H91.2207C91.5137 966.796 91.7871 966.742 92.041 966.635C92.2949 966.527 92.5146 966.381 92.7002 966.195C92.8955 966 93.0469 965.775 93.1543 965.521C93.2617 965.268 93.3154 964.994 93.3154 964.701C93.3154 964.408 93.2617 964.135 93.1543 963.881C93.0469 963.627 92.8955 963.407 92.7002 963.222C92.5146 963.026 92.2949 962.875 92.041 962.768C91.7871 962.66 91.5137 962.606 91.2207 962.606H87.0166C86.1475 962.606 85.332 962.44 84.5703 962.108C83.8086 961.776 83.1396 961.327 82.5635 960.761C81.9971 960.185 81.5479 959.516 81.2158 958.754C80.8838 957.982 80.7178 957.162 80.7178 956.293ZM109.736 971H105.547V964.423C104.619 964.188 103.765 963.812 102.983 963.295C102.212 962.777 101.548 962.162 100.991 961.449C100.435 960.727 100 959.931 99.6875 959.062C99.3848 958.183 99.2334 957.26 99.2334 956.293V949.994H103.438V956.293C103.438 956.869 103.545 957.416 103.76 957.934C103.984 958.441 104.287 958.886 104.668 959.267C105.049 959.647 105.493 959.95 106.001 960.175C106.519 960.39 107.065 960.497 107.642 960.497C108.218 960.497 108.76 960.39 109.268 960.175C109.785 959.95 110.234 959.647 110.615 959.267C110.996 958.886 111.294 958.441 111.509 957.934C111.733 957.416 111.846 956.869 111.846 956.293V949.994H116.035V956.293C116.035 957.26 115.879 958.183 115.566 959.062C115.264 959.931 114.834 960.727 114.277 961.449C113.721 962.162 113.057 962.777 112.285 963.295C111.514 963.812 110.664 964.188 109.736 964.423V971ZM117.661 956.293C117.661 955.424 117.827 954.608 118.159 953.847C118.491 953.085 118.94 952.421 119.507 951.854C120.083 951.278 120.752 950.824 121.514 950.492C122.275 950.16 123.091 949.994 123.96 949.994H133.599V954.198H123.96C123.667 954.198 123.394 954.252 123.14 954.359C122.886 954.467 122.661 954.618 122.466 954.813C122.28 954.999 122.134 955.219 122.026 955.473C121.919 955.727 121.865 956 121.865 956.293C121.865 956.586 121.919 956.864 122.026 957.128C122.134 957.382 122.28 957.606 122.466 957.802C122.661 957.987 122.886 958.134 123.14 958.241C123.394 958.349 123.667 958.402 123.96 958.402H128.164C129.033 958.402 129.849 958.568 130.61 958.9C131.382 959.223 132.051 959.672 132.617 960.248C133.193 960.814 133.643 961.483 133.965 962.255C134.297 963.017 134.463 963.832 134.463 964.701C134.463 965.57 134.297 966.386 133.965 967.147C133.643 967.909 133.193 968.578 132.617 969.154C132.051 969.721 131.382 970.17 130.61 970.502C129.849 970.834 129.033 971 128.164 971H118.833V966.796H128.164C128.457 966.796 128.73 966.742 128.984 966.635C129.238 966.527 129.458 966.381 129.644 966.195C129.839 966 129.99 965.775 130.098 965.521C130.205 965.268 130.259 964.994 130.259 964.701C130.259 964.408 130.205 964.135 130.098 963.881C129.99 963.627 129.839 963.407 129.644 963.222C129.458 963.026 129.238 962.875 128.984 962.768C128.73 962.66 128.457 962.606 128.164 962.606H123.96C123.091 962.606 122.275 962.44 121.514 962.108C120.752 961.776 120.083 961.327 119.507 960.761C118.94 960.185 118.491 959.516 118.159 958.754C117.827 957.982 117.661 957.162 117.661 956.293ZM145.757 971H141.567V954.198H135.254V949.994H152.056V954.198H145.757V971ZM168.682 971H154.282V949.994H168.682V954.198H158.486V958.402H165.386V962.606H158.486V966.796H168.682V971ZM192.471 971H188.281V956C188.281 955.707 188.223 955.434 188.105 955.18C187.998 954.926 187.847 954.706 187.651 954.521C187.466 954.325 187.246 954.174 186.992 954.066C186.738 953.959 186.465 953.905 186.172 953.905C185.879 953.905 185.605 953.959 185.352 954.066C185.098 954.174 184.873 954.325 184.678 954.521C184.492 954.706 184.346 954.926 184.238 955.18C184.131 955.434 184.077 955.707 184.077 956V971H179.873V956C179.873 955.707 179.819 955.434 179.712 955.18C179.604 954.926 179.453 954.706 179.258 954.521C179.072 954.325 178.853 954.174 178.599 954.066C178.345 953.959 178.071 953.905 177.778 953.905C177.485 953.905 177.212 953.959 176.958 954.066C176.704 954.174 176.479 954.325 176.284 954.521C176.099 954.706 175.952 954.926 175.845 955.18C175.737 955.434 175.684 955.707 175.684 956V971H171.479V956C171.479 955.131 171.641 954.315 171.963 953.554C172.295 952.782 172.744 952.113 173.311 951.547C173.887 950.971 174.556 950.521 175.317 950.199C176.089 949.867 176.909 949.701 177.778 949.701C178.56 949.701 179.312 949.843 180.034 950.126C180.757 950.399 181.406 950.8 181.982 951.327C182.559 950.8 183.203 950.399 183.916 950.126C184.639 949.843 185.391 949.701 186.172 949.701C187.041 949.701 187.856 949.867 188.618 950.199C189.39 950.521 190.059 950.971 190.625 951.547C191.201 952.113 191.65 952.782 191.973 953.554C192.305 954.315 192.471 955.131 192.471 956V971ZM217.007 962.606V958.402C217.007 957.826 216.895 957.284 216.67 956.776C216.455 956.259 216.157 955.81 215.776 955.429C215.396 955.048 214.946 954.75 214.429 954.535C213.921 954.311 213.379 954.198 212.803 954.198C212.227 954.198 211.68 954.311 211.162 954.535C210.654 954.75 210.21 955.048 209.829 955.429C209.448 955.81 209.146 956.259 208.921 956.776C208.706 957.284 208.599 957.826 208.599 958.402V962.606H217.007ZM221.211 971H217.007V966.796H208.599V971H204.409V958.402C204.409 957.24 204.629 956.151 205.068 955.136C205.508 954.11 206.104 953.217 206.855 952.455C207.617 951.693 208.506 951.093 209.521 950.653C210.547 950.214 211.641 949.994 212.803 949.994C213.965 949.994 215.054 950.214 216.069 950.653C217.095 951.093 217.988 951.693 218.75 952.455C219.512 953.217 220.112 954.11 220.552 955.136C220.991 956.151 221.211 957.24 221.211 958.402V971ZM241.689 960.497C241.689 961.464 241.562 962.396 241.309 963.295C241.064 964.184 240.713 965.019 240.254 965.8C239.795 966.571 239.248 967.279 238.613 967.924C237.979 968.559 237.271 969.105 236.489 969.564C235.708 970.023 234.868 970.38 233.97 970.634C233.081 970.878 232.153 971 231.187 971H224.858V949.994H231.187C232.153 949.994 233.081 950.121 233.97 950.375C234.868 950.619 235.708 950.971 236.489 951.43C237.271 951.889 237.979 952.44 238.613 953.085C239.248 953.72 239.795 954.428 240.254 955.209C240.713 955.98 241.064 956.815 241.309 957.714C241.562 958.603 241.689 959.53 241.689 960.497ZM237.485 960.497C237.485 959.628 237.319 958.812 236.987 958.051C236.665 957.289 236.216 956.625 235.64 956.059C235.073 955.482 234.404 955.028 233.633 954.696C232.871 954.364 232.056 954.198 231.187 954.198H229.092V966.796H231.187C232.056 966.796 232.871 966.635 233.633 966.312C234.404 965.98 235.073 965.531 235.64 964.965C236.216 964.389 236.665 963.72 236.987 962.958C237.319 962.187 237.485 961.366 237.485 960.497ZM265.332 971H261.143V956C261.143 955.707 261.084 955.434 260.967 955.18C260.859 954.926 260.708 954.706 260.513 954.521C260.327 954.325 260.107 954.174 259.854 954.066C259.6 953.959 259.326 953.905 259.033 953.905C258.74 953.905 258.467 953.959 258.213 954.066C257.959 954.174 257.734 954.325 257.539 954.521C257.354 954.706 257.207 954.926 257.1 955.18C256.992 955.434 256.938 955.707 256.938 956V971H252.734V956C252.734 955.707 252.681 955.434 252.573 955.18C252.466 954.926 252.314 954.706 252.119 954.521C251.934 954.325 251.714 954.174 251.46 954.066C251.206 953.959 250.933 953.905 250.64 953.905C250.347 953.905 250.073 953.959 249.819 954.066C249.565 954.174 249.341 954.325 249.146 954.521C248.96 954.706 248.813 954.926 248.706 955.18C248.599 955.434 248.545 955.707 248.545 956V971H244.341V956C244.341 955.131 244.502 954.315 244.824 953.554C245.156 952.782 245.605 952.113 246.172 951.547C246.748 950.971 247.417 950.521 248.179 950.199C248.95 949.867 249.771 949.701 250.64 949.701C251.421 949.701 252.173 949.843 252.896 950.126C253.618 950.399 254.268 950.8 254.844 951.327C255.42 950.8 256.064 950.399 256.777 950.126C257.5 949.843 258.252 949.701 259.033 949.701C259.902 949.701 260.718 949.867 261.479 950.199C262.251 950.521 262.92 950.971 263.486 951.547C264.062 952.113 264.512 952.782 264.834 953.554C265.166 954.315 265.332 955.131 265.332 956V971ZM273.301 971H269.097V949.994H273.301V971ZM294.014 971H289.517L281.416 957.172V971H277.212V949.994H281.709L289.81 963.837V949.994H294.014V971ZM302.129 971H297.925V949.994H302.129V971ZM304.81 956.293C304.81 955.424 304.976 954.608 305.308 953.847C305.64 953.085 306.089 952.421 306.655 951.854C307.231 951.278 307.9 950.824 308.662 950.492C309.424 950.16 310.239 949.994 311.108 949.994H320.747V954.198H311.108C310.815 954.198 310.542 954.252 310.288 954.359C310.034 954.467 309.81 954.618 309.614 954.813C309.429 954.999 309.282 955.219 309.175 955.473C309.067 955.727 309.014 956 309.014 956.293C309.014 956.586 309.067 956.864 309.175 957.128C309.282 957.382 309.429 957.606 309.614 957.802C309.81 957.987 310.034 958.134 310.288 958.241C310.542 958.349 310.815 958.402 311.108 958.402H315.312C316.182 958.402 316.997 958.568 317.759 958.9C318.53 959.223 319.199 959.672 319.766 960.248C320.342 960.814 320.791 961.483 321.113 962.255C321.445 963.017 321.611 963.832 321.611 964.701C321.611 965.57 321.445 966.386 321.113 967.147C320.791 967.909 320.342 968.578 319.766 969.154C319.199 969.721 318.53 970.17 317.759 970.502C316.997 970.834 316.182 971 315.312 971H305.981V966.796H315.312C315.605 966.796 315.879 966.742 316.133 966.635C316.387 966.527 316.606 966.381 316.792 966.195C316.987 966 317.139 965.775 317.246 965.521C317.354 965.268 317.407 964.994 317.407 964.701C317.407 964.408 317.354 964.135 317.246 963.881C317.139 963.627 316.987 963.407 316.792 963.222C316.606 963.026 316.387 962.875 316.133 962.768C315.879 962.66 315.605 962.606 315.312 962.606H311.108C310.239 962.606 309.424 962.44 308.662 962.108C307.9 961.776 307.231 961.327 306.655 960.761C306.089 960.185 305.64 959.516 305.308 958.754C304.976 957.982 304.81 957.162 304.81 956.293ZM332.905 971H328.716V954.198H322.402V949.994H339.204V954.198H332.905V971ZM345.635 954.198V962.606H349.839C350.415 962.606 350.957 962.499 351.465 962.284C351.973 962.06 352.417 961.757 352.798 961.376C353.179 960.995 353.477 960.551 353.691 960.043C353.916 959.525 354.028 958.979 354.028 958.402C354.028 957.826 353.916 957.284 353.691 956.776C353.477 956.259 353.179 955.81 352.798 955.429C352.417 955.048 351.973 954.75 351.465 954.535C350.957 954.311 350.415 954.198 349.839 954.198H345.635ZM345.635 971H341.431V949.994H349.839C350.61 949.994 351.353 950.097 352.065 950.302C352.778 950.497 353.442 950.78 354.058 951.151C354.683 951.513 355.249 951.952 355.757 952.47C356.274 952.978 356.714 953.544 357.075 954.169C357.446 954.794 357.729 955.463 357.925 956.176C358.13 956.889 358.232 957.631 358.232 958.402C358.232 959.125 358.14 959.828 357.954 960.512C357.778 961.195 357.52 961.845 357.178 962.46C356.846 963.075 356.436 963.642 355.947 964.159C355.459 964.677 354.912 965.126 354.307 965.507L356.636 971H352.168L350.337 966.767L345.635 966.796V971ZM373.364 962.606V958.402C373.364 957.826 373.252 957.284 373.027 956.776C372.812 956.259 372.515 955.81 372.134 955.429C371.753 955.048 371.304 954.75 370.786 954.535C370.278 954.311 369.736 954.198 369.16 954.198C368.584 954.198 368.037 954.311 367.52 954.535C367.012 954.75 366.567 955.048 366.187 955.429C365.806 955.81 365.503 956.259 365.278 956.776C365.063 957.284 364.956 957.826 364.956 958.402V962.606H373.364ZM377.568 971H373.364V966.796H364.956V971H360.767V958.402C360.767 957.24 360.986 956.151 361.426 955.136C361.865 954.11 362.461 953.217 363.213 952.455C363.975 951.693 364.863 951.093 365.879 950.653C366.904 950.214 367.998 949.994 369.16 949.994C370.322 949.994 371.411 950.214 372.427 950.653C373.452 951.093 374.346 951.693 375.107 952.455C375.869 953.217 376.47 954.11 376.909 955.136C377.349 956.151 377.568 957.24 377.568 958.402V971ZM389.39 971H385.2V954.198H378.887V949.994H395.688V954.198H389.39V971ZM402.119 971H397.915V949.994H402.119V971ZM426.611 960.585C426.611 961.581 426.479 962.543 426.216 963.471C425.962 964.389 425.601 965.253 425.132 966.063C424.663 966.864 424.097 967.597 423.433 968.261C422.769 968.925 422.036 969.496 421.235 969.975C420.435 970.443 419.57 970.805 418.643 971.059C417.715 971.322 416.753 971.454 415.757 971.454C414.761 971.454 413.799 971.322 412.871 971.059C411.953 970.805 411.089 970.443 410.278 969.975C409.478 969.496 408.745 968.925 408.081 968.261C407.417 967.597 406.846 966.864 406.367 966.063C405.898 965.253 405.532 964.389 405.269 963.471C405.015 962.543 404.888 961.581 404.888 960.585C404.888 959.589 405.015 958.627 405.269 957.699C405.532 956.771 405.898 955.907 406.367 955.106C406.846 954.306 407.417 953.573 408.081 952.909C408.745 952.245 409.478 951.679 410.278 951.21C411.089 950.741 411.953 950.38 412.871 950.126C413.799 949.862 414.761 949.73 415.757 949.73C416.753 949.73 417.715 949.862 418.643 950.126C419.57 950.38 420.435 950.741 421.235 951.21C422.036 951.679 422.769 952.245 423.433 952.909C424.097 953.573 424.663 954.306 425.132 955.106C425.601 955.907 425.962 956.771 426.216 957.699C426.479 958.627 426.611 959.589 426.611 960.585ZM422.437 960.585C422.437 959.667 422.261 958.803 421.909 957.992C421.558 957.172 421.079 956.464 420.474 955.868C419.878 955.263 419.17 954.784 418.35 954.433C417.539 954.081 416.675 953.905 415.757 953.905C414.829 953.905 413.96 954.081 413.149 954.433C412.339 954.784 411.631 955.263 411.025 955.868C410.42 956.464 409.941 957.172 409.59 957.992C409.238 958.803 409.062 959.667 409.062 960.585C409.062 961.503 409.238 962.367 409.59 963.178C409.941 963.979 410.42 964.682 411.025 965.287C411.631 965.893 412.339 966.371 413.149 966.723C413.96 967.074 414.829 967.25 415.757 967.25C416.675 967.25 417.539 967.074 418.35 966.723C419.17 966.371 419.878 965.893 420.474 965.287C421.079 964.682 421.558 963.979 421.909 963.178C422.261 962.367 422.437 961.503 422.437 960.585ZM446.182 971H441.685L433.584 957.172V971H429.38V949.994H433.877L441.978 963.837V949.994H446.182V971ZM470.864 962.606V958.402C470.864 957.826 470.752 957.284 470.527 956.776C470.312 956.259 470.015 955.81 469.634 955.429C469.253 955.048 468.804 954.75 468.286 954.535C467.778 954.311 467.236 954.198 466.66 954.198C466.084 954.198 465.537 954.311 465.02 954.535C464.512 954.75 464.067 955.048 463.687 955.429C463.306 955.81 463.003 956.259 462.778 956.776C462.563 957.284 462.456 957.826 462.456 958.402V962.606H470.864ZM475.068 971H470.864V966.796H462.456V971H458.267V958.402C458.267 957.24 458.486 956.151 458.926 955.136C459.365 954.11 459.961 953.217 460.713 952.455C461.475 951.693 462.363 951.093 463.379 950.653C464.404 950.214 465.498 949.994 466.66 949.994C467.822 949.994 468.911 950.214 469.927 950.653C470.952 951.093 471.846 951.693 472.607 952.455C473.369 953.217 473.97 954.11 474.409 955.136C474.849 956.151 475.068 957.24 475.068 958.402V971ZM495.518 971H491.021L482.92 957.172V971H478.716V949.994H483.213L491.313 963.837V949.994H495.518V971ZM516.26 960.497C516.26 961.464 516.133 962.396 515.879 963.295C515.635 964.184 515.283 965.019 514.824 965.8C514.365 966.571 513.818 967.279 513.184 967.924C512.549 968.559 511.841 969.105 511.06 969.564C510.278 970.023 509.438 970.38 508.54 970.634C507.651 970.878 506.724 971 505.757 971H499.429V949.994H505.757C506.724 949.994 507.651 950.121 508.54 950.375C509.438 950.619 510.278 950.971 511.06 951.43C511.841 951.889 512.549 952.44 513.184 953.085C513.818 953.72 514.365 954.428 514.824 955.209C515.283 955.98 515.635 956.815 515.879 957.714C516.133 958.603 516.26 959.53 516.26 960.497ZM512.056 960.497C512.056 959.628 511.89 958.812 511.558 958.051C511.235 957.289 510.786 956.625 510.21 956.059C509.644 955.482 508.975 955.028 508.203 954.696C507.441 954.364 506.626 954.198 505.757 954.198H503.662V966.796H505.757C506.626 966.796 507.441 966.635 508.203 966.312C508.975 965.98 509.644 965.531 510.21 964.965C510.786 964.389 511.235 963.72 511.558 962.958C511.89 962.187 512.056 961.366 512.056 960.497ZM548.311 971H544.121V956C544.121 955.707 544.062 955.434 543.945 955.18C543.838 954.926 543.687 954.706 543.491 954.521C543.306 954.325 543.086 954.174 542.832 954.066C542.578 953.959 542.305 953.905 542.012 953.905C541.719 953.905 541.445 953.959 541.191 954.066C540.938 954.174 540.713 954.325 540.518 954.521C540.332 954.706 540.186 954.926 540.078 955.18C539.971 955.434 539.917 955.707 539.917 956V971H535.713V956C535.713 955.707 535.659 955.434 535.552 955.18C535.444 954.926 535.293 954.706 535.098 954.521C534.912 954.325 534.692 954.174 534.438 954.066C534.185 953.959 533.911 953.905 533.618 953.905C533.325 953.905 533.052 953.959 532.798 954.066C532.544 954.174 532.319 954.325 532.124 954.521C531.938 954.706 531.792 954.926 531.685 955.18C531.577 955.434 531.523 955.707 531.523 956V971H527.319V956C527.319 955.131 527.48 954.315 527.803 953.554C528.135 952.782 528.584 952.113 529.15 951.547C529.727 950.971 530.396 950.521 531.157 950.199C531.929 949.867 532.749 949.701 533.618 949.701C534.399 949.701 535.151 949.843 535.874 950.126C536.597 950.399 537.246 950.8 537.822 951.327C538.398 950.8 539.043 950.399 539.756 950.126C540.479 949.843 541.23 949.701 542.012 949.701C542.881 949.701 543.696 949.867 544.458 950.199C545.229 950.521 545.898 950.971 546.465 951.547C547.041 952.113 547.49 952.782 547.812 953.554C548.145 954.315 548.311 955.131 548.311 956V971ZM564.438 962.606V958.402C564.438 957.826 564.326 957.284 564.102 956.776C563.887 956.259 563.589 955.81 563.208 955.429C562.827 955.048 562.378 954.75 561.86 954.535C561.353 954.311 560.811 954.198 560.234 954.198C559.658 954.198 559.111 954.311 558.594 954.535C558.086 954.75 557.642 955.048 557.261 955.429C556.88 955.81 556.577 956.259 556.353 956.776C556.138 957.284 556.03 957.826 556.03 958.402V962.606H564.438ZM568.643 971H564.438V966.796H556.03V971H551.841V958.402C551.841 957.24 552.061 956.151 552.5 955.136C552.939 954.11 553.535 953.217 554.287 952.455C555.049 951.693 555.938 951.093 556.953 950.653C557.979 950.214 559.072 949.994 560.234 949.994C561.396 949.994 562.485 950.214 563.501 950.653C564.526 951.093 565.42 951.693 566.182 952.455C566.943 953.217 567.544 954.11 567.983 955.136C568.423 956.151 568.643 957.24 568.643 958.402V971ZM589.092 971H584.595L576.494 957.172V971H572.29V949.994H576.787L584.888 963.837V949.994H589.092V971ZM605.366 962.606V958.402C605.366 957.826 605.254 957.284 605.029 956.776C604.814 956.259 604.517 955.81 604.136 955.429C603.755 955.048 603.306 954.75 602.788 954.535C602.28 954.311 601.738 954.198 601.162 954.198C600.586 954.198 600.039 954.311 599.521 954.535C599.014 954.75 598.569 955.048 598.188 955.429C597.808 955.81 597.505 956.259 597.28 956.776C597.065 957.284 596.958 957.826 596.958 958.402V962.606H605.366ZM609.57 971H605.366V966.796H596.958V971H592.769V958.402C592.769 957.24 592.988 956.151 593.428 955.136C593.867 954.11 594.463 953.217 595.215 952.455C595.977 951.693 596.865 951.093 597.881 950.653C598.906 950.214 600 949.994 601.162 949.994C602.324 949.994 603.413 950.214 604.429 950.653C605.454 951.093 606.348 951.693 607.109 952.455C607.871 953.217 608.472 954.11 608.911 955.136C609.351 956.151 609.57 957.24 609.57 958.402V971ZM629.932 968.876C628.955 969.706 627.866 970.346 626.665 970.795C625.464 971.234 624.214 971.454 622.915 971.454C621.919 971.454 620.957 971.322 620.029 971.059C619.111 970.805 618.252 970.443 617.451 969.975C616.65 969.496 615.918 968.93 615.254 968.275C614.59 967.611 614.023 966.879 613.555 966.078C613.086 965.268 612.72 964.398 612.456 963.471C612.202 962.543 612.075 961.581 612.075 960.585C612.075 959.589 612.202 958.632 612.456 957.714C612.72 956.796 613.086 955.937 613.555 955.136C614.023 954.325 614.59 953.593 615.254 952.938C615.918 952.274 616.65 951.708 617.451 951.239C618.252 950.771 619.111 950.409 620.029 950.155C620.957 949.892 621.919 949.76 622.915 949.76C624.214 949.76 625.464 949.984 626.665 950.434C627.866 950.873 628.955 951.508 629.932 952.338L627.734 956C627.1 955.355 626.367 954.853 625.537 954.491C624.707 954.12 623.833 953.935 622.915 953.935C621.997 953.935 621.133 954.11 620.322 954.462C619.521 954.813 618.818 955.292 618.213 955.897C617.607 956.493 617.129 957.196 616.777 958.007C616.426 958.808 616.25 959.667 616.25 960.585C616.25 961.513 616.426 962.382 616.777 963.192C617.129 964.003 617.607 964.711 618.213 965.316C618.818 965.922 619.521 966.4 620.322 966.752C621.133 967.104 621.997 967.279 622.915 967.279C623.442 967.279 623.955 967.216 624.453 967.089C624.951 966.962 625.425 966.786 625.874 966.562V960.585H629.932V968.876ZM647.568 971H633.169V949.994H647.568V954.198H637.373V958.402H644.272V962.606H637.373V966.796H647.568V971ZM671.357 971H667.168V956C667.168 955.707 667.109 955.434 666.992 955.18C666.885 954.926 666.733 954.706 666.538 954.521C666.353 954.325 666.133 954.174 665.879 954.066C665.625 953.959 665.352 953.905 665.059 953.905C664.766 953.905 664.492 953.959 664.238 954.066C663.984 954.174 663.76 954.325 663.564 954.521C663.379 954.706 663.232 954.926 663.125 955.18C663.018 955.434 662.964 955.707 662.964 956V971H658.76V956C658.76 955.707 658.706 955.434 658.599 955.18C658.491 954.926 658.34 954.706 658.145 954.521C657.959 954.325 657.739 954.174 657.485 954.066C657.231 953.959 656.958 953.905 656.665 953.905C656.372 953.905 656.099 953.959 655.845 954.066C655.591 954.174 655.366 954.325 655.171 954.521C654.985 954.706 654.839 954.926 654.731 955.18C654.624 955.434 654.57 955.707 654.57 956V971H650.366V956C650.366 955.131 650.527 954.315 650.85 953.554C651.182 952.782 651.631 952.113 652.197 951.547C652.773 950.971 653.442 950.521 654.204 950.199C654.976 949.867 655.796 949.701 656.665 949.701C657.446 949.701 658.198 949.843 658.921 950.126C659.644 950.399 660.293 950.8 660.869 951.327C661.445 950.8 662.09 950.399 662.803 950.126C663.525 949.843 664.277 949.701 665.059 949.701C665.928 949.701 666.743 949.867 667.505 950.199C668.276 950.521 668.945 950.971 669.512 951.547C670.088 952.113 670.537 952.782 670.859 953.554C671.191 954.315 671.357 955.131 671.357 956V971ZM689.521 971H675.122V949.994H689.521V954.198H679.326V958.402H686.226V962.606H679.326V966.796H689.521V971ZM709.268 971H704.771L696.67 957.172V971H692.466V949.994H696.963L705.063 963.837V949.994H709.268V971ZM721.997 971H717.808V954.198H711.494V949.994H728.296V954.198H721.997V971Z" fill="white" fill-opacity="0.8"/>
<path d="M720.75 286L719.55 276.4C718.9 276.15 718.288 275.85 717.714 275.5C717.14 275.15 716.577 274.775 716.025 274.375L707.1 278.125L698.85 263.875L706.575 258.025C706.525 257.675 706.5 257.338 706.5 257.014V254.989C706.5 254.663 706.525 254.325 706.575 253.975L698.85 248.125L707.1 233.875L716.025 237.625C716.575 237.225 717.15 236.85 717.75 236.5C718.35 236.15 718.95 235.85 719.55 235.6L720.75 226H737.25L738.45 235.6C739.1 235.85 739.713 236.15 740.289 236.5C740.865 236.85 741.427 237.225 741.975 237.625L750.9 233.875L759.15 248.125L751.425 253.975C751.475 254.325 751.5 254.663 751.5 254.989V257.011C751.5 257.337 751.45 257.675 751.35 258.025L759.075 263.875L750.825 278.125L741.975 274.375C741.425 274.775 740.85 275.15 740.25 275.5C739.65 275.85 739.05 276.15 738.45 276.4L737.25 286H720.75ZM729.15 266.5C732.05 266.5 734.525 265.475 736.575 263.425C738.625 261.375 739.65 258.9 739.65 256C739.65 253.1 738.625 250.625 736.575 248.575C734.525 246.525 732.05 245.5 729.15 245.5C726.2 245.5 723.712 246.525 721.686 248.575C719.66 250.625 718.648 253.1 718.65 256C718.652 258.9 719.665 261.375 721.689 263.425C723.713 265.475 726.2 266.5 729.15 266.5Z" fill="#0288D1"/>
<path d="M668.803 282.585L668.12 277.118C667.749 276.976 667.401 276.805 667.074 276.605C666.747 276.406 666.427 276.193 666.112 275.965L661.03 278.1L656.332 269.986L660.731 266.654C660.703 266.455 660.688 266.263 660.688 266.079V264.926C660.688 264.74 660.703 264.547 660.731 264.348L656.332 261.017L661.03 252.902L666.112 255.038C666.425 254.81 666.753 254.596 667.095 254.397C667.436 254.198 667.778 254.027 668.12 253.885L668.803 248.418H678.199L678.882 253.885C679.252 254.027 679.601 254.198 679.929 254.397C680.257 254.596 680.577 254.81 680.889 255.038L685.972 252.902L690.67 261.017L686.271 264.348C686.299 264.547 686.313 264.74 686.313 264.926V266.077C686.313 266.263 686.285 266.455 686.228 266.654L690.627 269.986L685.929 278.1L680.889 275.965C680.576 276.193 680.249 276.406 679.907 276.605C679.565 276.805 679.224 276.976 678.882 277.118L678.199 282.585H668.803ZM673.586 271.48C675.238 271.48 676.647 270.897 677.814 269.729C678.982 268.562 679.565 267.153 679.565 265.501C679.565 263.85 678.982 262.441 677.814 261.273C676.647 260.106 675.238 259.522 673.586 259.522C671.906 259.522 670.49 260.106 669.336 261.273C668.182 262.441 667.606 263.85 667.607 265.501C667.608 267.153 668.185 268.562 669.338 269.729C670.49 270.897 671.906 271.48 673.586 271.48Z" fill="#0288D1"/>
<path d="M690.812 324.5L689.912 317.3C689.424 317.112 688.965 316.888 688.535 316.625C688.104 316.362 687.682 316.081 687.268 315.781L680.574 318.594L674.387 307.906L680.18 303.519C680.143 303.256 680.124 303.004 680.124 302.761V301.242C680.124 300.997 680.143 300.744 680.18 300.481L674.387 296.094L680.574 285.406L687.268 288.219C687.68 287.919 688.112 287.638 688.562 287.375C689.012 287.112 689.462 286.887 689.912 286.7L690.812 279.5H703.187L704.087 286.7C704.574 286.887 705.034 287.112 705.466 287.375C705.898 287.638 706.319 287.919 706.73 288.219L713.424 285.406L719.612 296.094L713.818 300.481C713.855 300.744 713.874 300.997 713.874 301.242V302.758C713.874 303.003 713.837 303.256 713.762 303.519L719.555 307.906L713.368 318.594L706.73 315.781C706.318 316.081 705.887 316.362 705.437 316.625C704.987 316.888 704.537 317.112 704.087 317.3L703.187 324.5H690.812ZM697.112 309.875C699.287 309.875 701.143 309.106 702.68 307.569C704.218 306.031 704.987 304.175 704.987 302C704.987 299.825 704.218 297.969 702.68 296.431C701.143 294.894 699.287 294.125 697.112 294.125C694.899 294.125 693.033 294.894 691.514 296.431C689.994 297.969 689.235 299.825 689.237 302C689.238 304.175 689.998 306.031 691.516 307.569C693.034 309.106 694.899 309.875 697.112 309.875Z" fill="#0288D1"/>
<path d="M145.501 421.832C144.08 421.832 142.864 421.327 141.853 420.316C140.842 419.305 140.336 418.088 140.334 416.665V390.832C140.334 389.411 140.84 388.195 141.853 387.184C142.866 386.173 144.082 385.667 145.501 385.665H148.084V380.499C148.084 376.925 149.344 373.879 151.863 371.361C154.383 368.844 157.429 367.584 161.001 367.582C164.573 367.58 167.619 368.84 170.14 371.361C172.662 373.883 173.921 376.929 173.917 380.499V385.665H176.501C177.921 385.665 179.138 386.172 180.151 387.184C181.164 388.197 181.669 389.413 181.667 390.832V416.665C181.667 418.086 181.162 419.303 180.151 420.316C179.14 421.328 177.923 421.834 176.501 421.832H145.501ZM161.001 408.915C162.421 408.915 163.638 408.41 164.651 407.399C165.664 406.388 166.169 405.171 166.167 403.749C166.166 402.326 165.66 401.11 164.651 400.101C163.642 399.092 162.425 398.585 161.001 398.582C159.576 398.579 158.36 399.085 157.353 400.101C156.345 401.117 155.839 402.333 155.834 403.749C155.829 405.164 156.335 406.381 157.353 407.399C158.371 408.417 159.587 408.922 161.001 408.915ZM153.251 385.665H168.751V380.499C168.751 378.346 167.997 376.516 166.49 375.009C164.983 373.502 163.153 372.749 161.001 372.749C158.848 372.749 157.018 373.502 155.511 375.009C154.004 376.516 153.251 378.346 153.251 380.499V385.665Z" fill="#0288D1"/>
<path fill-rule="evenodd" clip-rule="evenodd" d="M449.25 532.5L459.562 522.188L480.188 542.812L521.438 501.562L531.75 511.875L480.188 563.438L449.25 532.5Z" fill="#0288D1" stroke="#0288D1" stroke-width="2" stroke-linecap="round" stroke-linejoin="round"/>
<path d="M425.044 753H60.9556C60.7022 753 60.4591 752.895 60.2799 752.707C60.1007 752.52 60 752.265 60 752C60 751.735 60.1007 751.48 60.2799 751.293C60.4591 751.105 60.7022 751 60.9556 751H425.044C425.298 751 425.541 751.105 425.72 751.293C425.899 751.48 426 751.735 426 752C426 752.265 425.899 752.52 425.72 752.707C425.541 752.895 425.298 753 425.044 753Z" fill="#CBCBCB"/>
<path d="M34 680.207C34 717.907 57.654 748.421 86.883 748.421Z" fill="#46455B"/>
<path d="M82.8848 746.98C82.8848 708.85 109.285 678 141.907 678Z" fill="#0288D1"/>
<path d="M53.166 683.629C53.166 719.447 68.2501 748.429 86.8831 748.429Z" fill="#0288D1"/>
</svg>
