<svg width="809" height="846" viewBox="0 0 809 846" fill="none" xmlns="http://www.w3.org/2000/svg">
<path d="M614 0H130V260H614V0Z" fill="#3F3D56" fill-opacity="0.6"/>
<path d="M222 36H218V43H222V36Z" fill="#0288D1"/>
<path d="M236 35H231V42H236V35Z" fill="#0288D1"/>
<path d="M244 35H240V42H244V35Z" fill="#0288D1"/>
<path d="M244 56H240V63H244V56Z" fill="#0288D1"/>
<path d="M252 44H248V51H252V44Z" fill="#0288D1"/>
<path d="M252 56H248V63H252V56Z" fill="#0288D1"/>
<path d="M244 78H240V85H244V78Z" fill="#0288D1"/>
<path d="M252 89H248V96H252V89Z" fill="#0288D1"/>
<path d="M244 131H240V138H244V131Z" fill="#0288D1"/>
<path d="M236 89H231V96H236V89Z" fill="#0288D1"/>
<path d="M222 47H218V54H222V47Z" fill="#0288D1"/>
<path d="M222 154H218V161H222V154Z" fill="#0288D1"/>
<path d="M222 177H218V184H222V177Z" fill="#0288D1"/>
<path d="M222 188H218V195H222V188Z" fill="#0288D1"/>
<path d="M222 60H216V61H222V60Z" fill="#0288D1"/>
<path d="M244 70H238V71H244V70Z" fill="#0288D1"/>
<path d="M222 114H216V115H222V114Z" fill="#0288D1"/>
<path d="M222 124H216V125H222V124Z" fill="#0288D1"/>
<path d="M244 178H238V179H244V178Z" fill="#0288D1"/>
<path d="M218 67V68.7499H219.6V72.2501H218V74H222V67H218Z" fill="#0288D1"/>
<path d="M231 56V57.7499H233V61.2501H231V63H236V56H231Z" fill="#0288D1"/>
<path d="M248 67V68.7503H249.6V72.2503H248V74H252V67H248Z" fill="#0288D1"/>
<path d="M248 100V101.75H249.6V105.25H248V107H252V100H248Z" fill="#0288D1"/>
<path d="M248 111V112.75H249.6V116.25H248V118H252V111H248Z" fill="#0288D1"/>
<path d="M248 76V77.7497H249.6V81.2497H248V83H252V76H248Z" fill="#0288D1"/>
<path d="M240 44V45.7503H241.6V49.2497H240V51H244V44H240Z" fill="#0288D1"/>
<path d="M244 100H240V107H244V100Z" fill="#0288D1"/>
<path d="M244 120H240V127H244V120Z" fill="#0288D1"/>
<path d="M240 110V111.75H241.6V115.25H240V117H244V110H240Z" fill="#0288D1"/>
<path d="M231 67V68.7503H233V72.2503H231V74H236V67H231Z" fill="#0288D1"/>
<path d="M231 78V79.7503H233V83.2497H231V85H236V78H231Z" fill="#0288D1"/>
<path d="M236 111H231V118H236V111Z" fill="#0288D1"/>
<path d="M231 100V101.75H233V105.25H231V107H236V100H231Z" fill="#0288D1"/>
<path d="M236 133H231V140H236V133Z" fill="#0288D1"/>
<path d="M231 122V123.75H233V127.25H231V129H236V122H231Z" fill="#0288D1"/>
<path d="M236 156H231V161H236V156Z" fill="#0288D1"/>
<path d="M244 153H240V160H244V153Z" fill="#0288D1"/>
<path d="M231 145V146.75H233V150.25H231V152H236V145H231Z" fill="#0288D1"/>
<path d="M248 145V146.75H249.6V150.25H248V152H252V145H248Z" fill="#0288D1"/>
<path d="M295 44H291V51H295V44Z" fill="#0288D1"/>
<path d="M295 56H291V63H295V56Z" fill="#0288D1"/>
<path d="M295 89H291V96H295V89Z" fill="#0288D1"/>
<path d="M291 67V68.7503H292.6V72.2503H291V74H295V67H291Z" fill="#0288D1"/>
<path d="M291 100V101.75H292.6V105.25H291V107H295V100H291Z" fill="#0288D1"/>
<path d="M291 111V112.75H292.6V116.25H291V118H295V111H291Z" fill="#0288D1"/>
<path d="M291 76V77.7497H292.6V81.2497H291V83H295V76H291Z" fill="#0288D1"/>
<path d="M291 145V146.75H292.6V150.25H291V152H295V145H291Z" fill="#0288D1"/>
<path d="M236 178H231V184H236V178Z" fill="#0288D1"/>
<path d="M244 164H240V171H244V164Z" fill="#0288D1"/>
<path d="M236 206H231V213H236V206Z" fill="#0288D1"/>
<path d="M244 186H240V193H244V186Z" fill="#0288D1"/>
<path d="M231 167V168.25H233V170.75H231V172H236V167H231Z" fill="#0288D1"/>
<path d="M231 218V219.75H233V223.25H231V225H236V218H231Z" fill="#0288D1"/>
<path d="M283 35H279V42H283V35Z" fill="#0288D1"/>
<path d="M283 89H279V96H283V89Z" fill="#0288D1"/>
<path d="M279 56V57.7499H280.6V61.2501H279V63H283V56H279Z" fill="#0288D1"/>
<path d="M279 67V68.7503H280.6V72.2503H279V74H283V67H279Z" fill="#0288D1"/>
<path d="M279 78V79.7503H280.6V83.2497H279V85H283V78H279Z" fill="#0288D1"/>
<path d="M283 111H279V118H283V111Z" fill="#0288D1"/>
<path d="M279 100V101.75H280.6V105.25H279V107H283V100H279Z" fill="#0288D1"/>
<path d="M283 133H279V140H283V133Z" fill="#0288D1"/>
<path d="M279 122V123.75H280.6V127.25H279V129H283V122H279Z" fill="#0288D1"/>
<path d="M283 156H279V161H283V156Z" fill="#0288D1"/>
<path d="M279 145V146.75H280.6V150.25H279V152H283V145H279Z" fill="#0288D1"/>
<path d="M283 178H279V184H283V178Z" fill="#0288D1"/>
<path d="M283 206H279V213H283V206Z" fill="#0288D1"/>
<path d="M279 167V168.25H280.6V170.75H279V172H283V167H279Z" fill="#0288D1"/>
<path d="M279 218V219.75H280.6V223.25H279V225H283V218H279Z" fill="#0288D1"/>
<path d="M304 35H300V42H304V35Z" fill="#0288D1"/>
<path d="M304 89H300V96H304V89Z" fill="#0288D1"/>
<path d="M300 56V57.7499H301.6V61.2501H300V63H304V56H300Z" fill="#0288D1"/>
<path d="M300 67V68.7503H301.6V72.2503H300V74H304V67H300Z" fill="#0288D1"/>
<path d="M300 78V79.7503H301.6V83.2497H300V85H304V78H300Z" fill="#0288D1"/>
<path d="M304 111H300V118H304V111Z" fill="#0288D1"/>
<path d="M300 100V101.75H301.6V105.25H300V107H304V100H300Z" fill="#0288D1"/>
<path d="M304 133H300V140H304V133Z" fill="#0288D1"/>
<path d="M300 122V123.75H301.6V127.25H300V129H304V122H300Z" fill="#0288D1"/>
<path d="M304 156H300V161H304V156Z" fill="#0288D1"/>
<path d="M300 145V146.75H301.6V150.25H300V152H304V145H300Z" fill="#0288D1"/>
<path d="M304 178H300V184H304V178Z" fill="#0288D1"/>
<path d="M304 206H300V213H304V206Z" fill="#0288D1"/>
<path d="M300 167V168.25H301.6V170.75H300V172H304V167H300Z" fill="#0288D1"/>
<path d="M300 218V219.75H301.6V223.25H300V225H304V218H300Z" fill="#0288D1"/>
<path d="M240 206V207.75H241.6V211.25H240V213H244V206H240Z" fill="#0288D1"/>
<path d="M240 217V218.75H241.6V222.25H240V224H244V217H240Z" fill="#0288D1"/>
<path d="M218 89V90.7497H219.6V94.2497H218V96H222V89H218Z" fill="#0288D1"/>
<path d="M218 132V133.75H219.6V137.25H218V139H222V132H218Z" fill="#0288D1"/>
<path d="M218 143V144.75H219.6V148.25H218V150H222V143H218Z" fill="#0288D1"/>
<path d="M218 165V166.75H219.6V170.25H218V172H222V165H218Z" fill="#0288D1"/>
<path d="M218 197V198.75H219.6V202.25H218V204H222V197H218Z" fill="#0288D1"/>
<path d="M218 206V207.75H219.6V211.25H218V213H222V206H218Z" fill="#0288D1"/>
<path d="M266 36H262V43H266V36Z" fill="#0288D1"/>
<path d="M266 47H262V54H266V47Z" fill="#0288D1"/>
<path d="M266 60H261V61H266V60Z" fill="#0288D1"/>
<path d="M266 114H261V115H266V114Z" fill="#0288D1"/>
<path d="M266 124H261V125H266V124Z" fill="#0288D1"/>
<path d="M262 67V68.7499H263.6V72.2501H262V74H266V67H262Z" fill="#0288D1"/>
<path d="M262 89V90.7497H263.6V94.2497H262V96H266V89H262Z" fill="#0288D1"/>
<path d="M262 132V133.75H263.6V137.25H262V139H266V132H262Z" fill="#0288D1"/>
<path d="M315 111H311V118H315V111Z" fill="#0288D1"/>
<path d="M315 122H311V129H315V122Z" fill="#0288D1"/>
<path d="M315 133H308V135H315V133Z" fill="#0288D1"/>
<path d="M315 188H308V189H315V188Z" fill="#0288D1"/>
<path d="M315 197H308V199H315V197Z" fill="#0288D1"/>
<path d="M311 142V143.75H312.6V147.25H311V149H315V142H311Z" fill="#0288D1"/>
<path d="M311 163V164.75H312.6V168.25H311V170H315V163H311Z" fill="#0288D1"/>
<path d="M311 206V207.75H312.6V211.25H311V213H315V206H311Z" fill="#0288D1"/>
<path d="M329 36H325V43H329V36Z" fill="#0288D1"/>
<path d="M343 35H339V42H343V35Z" fill="#0288D1"/>
<path d="M351 35H346V42H351V35Z" fill="#0288D1"/>
<path d="M351 56H346V63H351V56Z" fill="#0288D1"/>
<path d="M359 44H355V51H359V44Z" fill="#0288D1"/>
<path d="M359 56H355V63H359V56Z" fill="#0288D1"/>
<path d="M351 78H346V85H351V78Z" fill="#0288D1"/>
<path d="M359 89H355V96H359V89Z" fill="#0288D1"/>
<path d="M351 131H346V138H351V131Z" fill="#0288D1"/>
<path d="M343 89H339V96H343V89Z" fill="#0288D1"/>
<path d="M329 47H325V54H329V47Z" fill="#0288D1"/>
<path d="M329 154H325V161H329V154Z" fill="#0288D1"/>
<path d="M329 177H325V184H329V177Z" fill="#0288D1"/>
<path d="M329 188H325V195H329V188Z" fill="#0288D1"/>
<path d="M329 60H322V61H329V60Z" fill="#0288D1"/>
<path d="M351 70H346V71H351V70Z" fill="#0288D1"/>
<path d="M329 114H322V115H329V114Z" fill="#0288D1"/>
<path d="M329 124H322V125H329V124Z" fill="#0288D1"/>
<path d="M351 178H346V179H351V178Z" fill="#0288D1"/>
<path d="M325 67V68.7499H326.6V72.2501H325V74H329V67H325Z" fill="#0288D1"/>
<path d="M339 56V57.7499H340.6V61.2501H339V63H343V56H339Z" fill="#0288D1"/>
<path d="M355 67V68.7503H356.6V72.2503H355V74H359V67H355Z" fill="#0288D1"/>
<path d="M355 100V101.75H356.6V105.25H355V107H359V100H355Z" fill="#0288D1"/>
<path d="M355 111V112.75H356.6V116.25H355V118H359V111H355Z" fill="#0288D1"/>
<path d="M355 76V77.7497H356.6V81.2497H355V83H359V76H355Z" fill="#0288D1"/>
<path d="M346 44V45.7503H348V49.2497H346V51H351V44H346Z" fill="#0288D1"/>
<path d="M351 100H346V107H351V100Z" fill="#0288D1"/>
<path d="M351 120H346V127H351V120Z" fill="#0288D1"/>
<path d="M346 110V111.75H348V115.25H346V117H351V110H346Z" fill="#0288D1"/>
<path d="M339 67V68.7503H340.6V72.2503H339V74H343V67H339Z" fill="#0288D1"/>
<path d="M339 78V79.7503H340.6V83.2497H339V85H343V78H339Z" fill="#0288D1"/>
<path d="M343 111H339V118H343V111Z" fill="#0288D1"/>
<path d="M339 100V101.75H340.6V105.25H339V107H343V100H339Z" fill="#0288D1"/>
<path d="M343 133H339V140H343V133Z" fill="#0288D1"/>
<path d="M339 122V123.75H340.6V127.25H339V129H343V122H339Z" fill="#0288D1"/>
<path d="M343 156H339V161H343V156Z" fill="#0288D1"/>
<path d="M351 153H346V160H351V153Z" fill="#0288D1"/>
<path d="M339 145V146.75H340.6V150.25H339V152H343V145H339Z" fill="#0288D1"/>
<path d="M355 145V146.75H356.6V150.25H355V152H359V145H355Z" fill="#0288D1"/>
<path d="M403 44H398V51H403V44Z" fill="#0288D1"/>
<path d="M403 56H398V63H403V56Z" fill="#0288D1"/>
<path d="M403 89H398V96H403V89Z" fill="#0288D1"/>
<path d="M398 67V68.7503H400V72.2503H398V74H403V67H398Z" fill="#0288D1"/>
<path d="M398 100V101.75H400V105.25H398V107H403V100H398Z" fill="#0288D1"/>
<path d="M398 111V112.75H400V116.25H398V118H403V111H398Z" fill="#0288D1"/>
<path d="M398 76V77.7497H400V81.2497H398V83H403V76H398Z" fill="#0288D1"/>
<path d="M398 145V146.75H400V150.25H398V152H403V145H398Z" fill="#0288D1"/>
<path d="M343 178H339V184H343V178Z" fill="#0288D1"/>
<path d="M351 164H346V171H351V164Z" fill="#0288D1"/>
<path d="M343 206H339V213H343V206Z" fill="#0288D1"/>
<path d="M351 186H346V193H351V186Z" fill="#0288D1"/>
<path d="M339 167V168.25H340.6V170.75H339V172H343V167H339Z" fill="#0288D1"/>
<path d="M339 218V219.75H340.6V223.25H339V225H343V218H339Z" fill="#0288D1"/>
<path d="M390 35H386V42H390V35Z" fill="#0288D1"/>
<path d="M390 89H386V96H390V89Z" fill="#0288D1"/>
<path d="M386 56V57.7499H387.6V61.2501H386V63H390V56H386Z" fill="#0288D1"/>
<path d="M386 67V68.7503H387.6V72.2503H386V74H390V67H386Z" fill="#0288D1"/>
<path d="M386 78V79.7503H387.6V83.2497H386V85H390V78H386Z" fill="#0288D1"/>
<path d="M390 111H386V118H390V111Z" fill="#0288D1"/>
<path d="M386 100V101.75H387.6V105.25H386V107H390V100H386Z" fill="#0288D1"/>
<path d="M390 133H386V140H390V133Z" fill="#0288D1"/>
<path d="M386 122V123.75H387.6V127.25H386V129H390V122H386Z" fill="#0288D1"/>
<path d="M390 156H386V161H390V156Z" fill="#0288D1"/>
<path d="M386 145V146.75H387.6V150.25H386V152H390V145H386Z" fill="#0288D1"/>
<path d="M390 178H386V184H390V178Z" fill="#0288D1"/>
<path d="M390 206H386V213H390V206Z" fill="#0288D1"/>
<path d="M386 167V168.25H387.6V170.75H386V172H390V167H386Z" fill="#0288D1"/>
<path d="M386 218V219.75H387.6V223.25H386V225H390V218H386Z" fill="#0288D1"/>
<path d="M409 35H405V42H409V35Z" fill="#0288D1"/>
<path d="M409 89H405V96H409V89Z" fill="#0288D1"/>
<path d="M405 56V57.7499H406.6V61.2501H405V63H409V56H405Z" fill="#0288D1"/>
<path d="M405 67V68.7503H406.6V72.2503H405V74H409V67H405Z" fill="#0288D1"/>
<path d="M405 78V79.7503H406.6V83.2497H405V85H409V78H405Z" fill="#0288D1"/>
<path d="M409 111H405V118H409V111Z" fill="#0288D1"/>
<path d="M405 100V101.75H406.6V105.25H405V107H409V100H405Z" fill="#0288D1"/>
<path d="M409 133H405V140H409V133Z" fill="#0288D1"/>
<path d="M405 122V123.75H406.6V127.25H405V129H409V122H405Z" fill="#0288D1"/>
<path d="M409 156H405V161H409V156Z" fill="#0288D1"/>
<path d="M405 145V146.75H406.6V150.25H405V152H409V145H405Z" fill="#0288D1"/>
<path d="M409 178H405V184H409V178Z" fill="#0288D1"/>
<path d="M409 206H405V213H409V206Z" fill="#0288D1"/>
<path d="M405 167V168.25H406.6V170.75H405V172H409V167H405Z" fill="#0288D1"/>
<path d="M405 218V219.75H406.6V223.25H405V225H409V218H405Z" fill="#0288D1"/>
<path d="M346 206V207.75H348V211.25H346V213H351V206H346Z" fill="#0288D1"/>
<path d="M346 217V218.75H348V222.25H346V224H351V217H346Z" fill="#0288D1"/>
<path d="M325 89V90.7497H326.6V94.2497H325V96H329V89H325Z" fill="#0288D1"/>
<path d="M325 132V133.75H326.6V137.25H325V139H329V132H325Z" fill="#0288D1"/>
<path d="M325 143V144.75H326.6V148.25H325V150H329V143H325Z" fill="#0288D1"/>
<path d="M325 165V166.75H326.6V170.25H325V172H329V165H325Z" fill="#0288D1"/>
<path d="M325 197V198.75H326.6V202.25H325V204H329V197H325Z" fill="#0288D1"/>
<path d="M325 206V207.75H326.6V211.25H325V213H329V206H325Z" fill="#0288D1"/>
<path d="M372 36H368V43H372V36Z" fill="#0288D1"/>
<path d="M372 47H368V54H372V47Z" fill="#0288D1"/>
<path d="M372 60H366V61H372V60Z" fill="#0288D1"/>
<path d="M372 114H366V115H372V114Z" fill="#0288D1"/>
<path d="M372 124H366V125H372V124Z" fill="#0288D1"/>
<path d="M368 67V68.7499H369.6V72.2501H368V74H372V67H368Z" fill="#0288D1"/>
<path d="M368 89V90.7497H369.6V94.2497H368V96H372V89H368Z" fill="#0288D1"/>
<path d="M368 132V133.75H369.6V137.25H368V139H372V132H368Z" fill="#0288D1"/>
<path d="M421 111H416V118H421V111Z" fill="#0288D1"/>
<path d="M421 122H416V129H421V122Z" fill="#0288D1"/>
<path d="M421 133H415V135H421V133Z" fill="#0288D1"/>
<path d="M421 188H415V189H421V188Z" fill="#0288D1"/>
<path d="M421 197H415V199H421V197Z" fill="#0288D1"/>
<path d="M416 142V143.75H418V147.25H416V149H421V142H416Z" fill="#0288D1"/>
<path d="M416 163V164.75H418V168.25H416V170H421V163H416Z" fill="#0288D1"/>
<path d="M416 206V207.75H418V211.25H416V213H421V206H416Z" fill="#0288D1"/>
<path d="M434 36H430V43H434V36Z" fill="#0288D1"/>
<path d="M450 35H446V42H450V35Z" fill="#0288D1"/>
<path d="M457 35H453V42H457V35Z" fill="#0288D1"/>
<path d="M457 56H453V63H457V56Z" fill="#0288D1"/>
<path d="M465 44H461V51H465V44Z" fill="#0288D1"/>
<path d="M465 56H461V63H465V56Z" fill="#0288D1"/>
<path d="M457 78H453V85H457V78Z" fill="#0288D1"/>
<path d="M465 89H461V96H465V89Z" fill="#0288D1"/>
<path d="M457 131H453V138H457V131Z" fill="#0288D1"/>
<path d="M450 89H446V96H450V89Z" fill="#0288D1"/>
<path d="M434 47H430V54H434V47Z" fill="#0288D1"/>
<path d="M434 154H430V161H434V154Z" fill="#0288D1"/>
<path d="M434 177H430V184H434V177Z" fill="#0288D1"/>
<path d="M434 188H430V195H434V188Z" fill="#0288D1"/>
<path d="M434 60H429V61H434V60Z" fill="#0288D1"/>
<path d="M458 70H453V71H458V70Z" fill="#0288D1"/>
<path d="M434 114H429V115H434V114Z" fill="#0288D1"/>
<path d="M434 124H429V125H434V124Z" fill="#0288D1"/>
<path d="M458 178H453V179H458V178Z" fill="#0288D1"/>
<path d="M430 67V68.7499H431.6V72.2501H430V74H434V67H430Z" fill="#0288D1"/>
<path d="M446 56V57.7499H447.6V61.2501H446V63H450V56H446Z" fill="#0288D1"/>
<path d="M461 67V68.7503H462.6V72.2503H461V74H465V67H461Z" fill="#0288D1"/>
<path d="M461 100V101.75H462.6V105.25H461V107H465V100H461Z" fill="#0288D1"/>
<path d="M461 111V112.75H462.6V116.25H461V118H465V111H461Z" fill="#0288D1"/>
<path d="M461 76V77.7497H462.6V81.2497H461V83H465V76H461Z" fill="#0288D1"/>
<path d="M453 44V45.7503H454.6V49.2497H453V51H457V44H453Z" fill="#0288D1"/>
<path d="M457 100H453V107H457V100Z" fill="#0288D1"/>
<path d="M457 120H453V127H457V120Z" fill="#0288D1"/>
<path d="M453 110V111.75H454.6V115.25H453V117H457V110H453Z" fill="#0288D1"/>
<path d="M446 67V68.7503H447.6V72.2503H446V74H450V67H446Z" fill="#0288D1"/>
<path d="M446 78V79.7503H447.6V83.2497H446V85H450V78H446Z" fill="#0288D1"/>
<path d="M450 111H446V118H450V111Z" fill="#0288D1"/>
<path d="M446 100V101.75H447.6V105.25H446V107H450V100H446Z" fill="#0288D1"/>
<path d="M450 133H446V140H450V133Z" fill="#0288D1"/>
<path d="M446 122V123.75H447.6V127.25H446V129H450V122H446Z" fill="#0288D1"/>
<path d="M450 156H446V161H450V156Z" fill="#0288D1"/>
<path d="M457 153H453V160H457V153Z" fill="#0288D1"/>
<path d="M446 145V146.75H447.6V150.25H446V152H450V145H446Z" fill="#0288D1"/>
<path d="M461 145V146.75H462.6V150.25H461V152H465V145H461Z" fill="#0288D1"/>
<path d="M510 44H505V51H510V44Z" fill="#0288D1"/>
<path d="M510 56H505V63H510V56Z" fill="#0288D1"/>
<path d="M510 89H505V96H510V89Z" fill="#0288D1"/>
<path d="M505 67V68.7503H507V72.2503H505V74H510V67H505Z" fill="#0288D1"/>
<path d="M505 100V101.75H507V105.25H505V107H510V100H505Z" fill="#0288D1"/>
<path d="M505 111V112.75H507V116.25H505V118H510V111H505Z" fill="#0288D1"/>
<path d="M505 76V77.7497H507V81.2497H505V83H510V76H505Z" fill="#0288D1"/>
<path d="M505 145V146.75H507V150.25H505V152H510V145H505Z" fill="#0288D1"/>
<path d="M450 178H446V184H450V178Z" fill="#0288D1"/>
<path d="M457 164H453V171H457V164Z" fill="#0288D1"/>
<path d="M450 206H446V213H450V206Z" fill="#0288D1"/>
<path d="M457 186H453V193H457V186Z" fill="#0288D1"/>
<path d="M446 167V168.25H447.6V170.75H446V172H450V167H446Z" fill="#0288D1"/>
<path d="M446 218V219.75H447.6V223.25H446V225H450V218H446Z" fill="#0288D1"/>
<path d="M496 35H491V42H496V35Z" fill="#0288D1"/>
<path d="M496 89H491V96H496V89Z" fill="#0288D1"/>
<path d="M491 56V57.7499H493V61.2501H491V63H496V56H491Z" fill="#0288D1"/>
<path d="M491 67V68.7503H493V72.2503H491V74H496V67H491Z" fill="#0288D1"/>
<path d="M491 78V79.7503H493V83.2497H491V85H496V78H491Z" fill="#0288D1"/>
<path d="M496 111H491V118H496V111Z" fill="#0288D1"/>
<path d="M491 100V101.75H493V105.25H491V107H496V100H491Z" fill="#0288D1"/>
<path d="M496 133H491V140H496V133Z" fill="#0288D1"/>
<path d="M491 122V123.75H493V127.25H491V129H496V122H491Z" fill="#0288D1"/>
<path d="M496 156H491V161H496V156Z" fill="#0288D1"/>
<path d="M491 145V146.75H493V150.25H491V152H496V145H491Z" fill="#0288D1"/>
<path d="M496 178H491V184H496V178Z" fill="#0288D1"/>
<path d="M496 206H491V213H496V206Z" fill="#0288D1"/>
<path d="M491 167V168.25H493V170.75H491V172H496V167H491Z" fill="#0288D1"/>
<path d="M491 218V219.75H493V223.25H491V225H496V218H491Z" fill="#0288D1"/>
<path d="M517 35H512V42H517V35Z" fill="#0288D1"/>
<path d="M517 89H512V96H517V89Z" fill="#0288D1"/>
<path d="M512 56V57.7499H514V61.2501H512V63H517V56H512Z" fill="#0288D1"/>
<path d="M512 67V68.7503H514V72.2503H512V74H517V67H512Z" fill="#0288D1"/>
<path d="M512 78V79.7503H514V83.2497H512V85H517V78H512Z" fill="#0288D1"/>
<path d="M517 111H512V118H517V111Z" fill="#0288D1"/>
<path d="M512 100V101.75H514V105.25H512V107H517V100H512Z" fill="#0288D1"/>
<path d="M517 133H512V140H517V133Z" fill="#0288D1"/>
<path d="M512 122V123.75H514V127.25H512V129H517V122H512Z" fill="#0288D1"/>
<path d="M517 156H512V161H517V156Z" fill="#0288D1"/>
<path d="M512 145V146.75H514V150.25H512V152H517V145H512Z" fill="#0288D1"/>
<path d="M517 178H512V184H517V178Z" fill="#0288D1"/>
<path d="M517 206H512V213H517V206Z" fill="#0288D1"/>
<path d="M512 167V168.25H514V170.75H512V172H517V167H512Z" fill="#0288D1"/>
<path d="M512 218V219.75H514V223.25H512V225H517V218H512Z" fill="#0288D1"/>
<path d="M453 206V207.75H454.6V211.25H453V213H457V206H453Z" fill="#0288D1"/>
<path d="M453 217V218.75H454.6V222.25H453V224H457V217H453Z" fill="#0288D1"/>
<path d="M430 89V90.7497H431.6V94.2497H430V96H434V89H430Z" fill="#0288D1"/>
<path d="M430 132V133.75H431.6V137.25H430V139H434V132H430Z" fill="#0288D1"/>
<path d="M430 143V144.75H431.6V148.25H430V150H434V143H430Z" fill="#0288D1"/>
<path d="M430 165V166.75H431.6V170.25H430V172H434V165H430Z" fill="#0288D1"/>
<path d="M430 197V198.75H431.6V202.25H430V204H434V197H430Z" fill="#0288D1"/>
<path d="M430 206V207.75H431.6V211.25H430V213H434V206H430Z" fill="#0288D1"/>
<path d="M479 36H475V43H479V36Z" fill="#0288D1"/>
<path d="M479 47H475V54H479V47Z" fill="#0288D1"/>
<path d="M479 60H473V61H479V60Z" fill="#0288D1"/>
<path d="M479 114H473V115H479V114Z" fill="#0288D1"/>
<path d="M479 124H473V125H479V124Z" fill="#0288D1"/>
<path d="M475 67V68.7499H476.6V72.2501H475V74H479V67H475Z" fill="#0288D1"/>
<path d="M475 89V90.7497H476.6V94.2497H475V96H479V89H475Z" fill="#0288D1"/>
<path d="M475 132V133.75H476.6V137.25H475V139H479V132H475Z" fill="#0288D1"/>
<path d="M528 111H523V118H528V111Z" fill="#0288D1"/>
<path d="M528 122H523V129H528V122Z" fill="#0288D1"/>
<path d="M528 133H522V135H528V133Z" fill="#0288D1"/>
<path d="M528 188H522V189H528V188Z" fill="#0288D1"/>
<path d="M528 197H522V199H528V197Z" fill="#0288D1"/>
<path d="M523 142V143.75H525V147.25H523V149H528V142H523Z" fill="#0288D1"/>
<path d="M523 163V164.75H525V168.25H523V170H528V163H523Z" fill="#0288D1"/>
<path d="M523 206V207.75H525V211.25H523V213H528V206H523Z" fill="#0288D1"/>
<path d="M161 586C161 624.691 185.152 656 215 656Z" fill="#3D4356"/>
<path d="M215 656C215 617.309 241.836 586 275 586Z" fill="#0288D1"/>
<path d="M180 590C180 626.48 195.654 656 215 656Z" fill="#0288D1"/>
<path d="M215 656C215 606.254 246.309 566 285 566Z" fill="#3D4356"/>
<path d="M203 657.004C203 657.004 210.794 656.775 213.142 655.185C215.491 653.595 225.131 651.697 225.714 654.247C226.296 656.797 237.426 666.93 228.627 666.998C219.828 667.065 208.182 665.695 205.838 664.337C203.494 662.979 203 657.004 203 657.004Z" fill="#A8A8A8"/>
<path opacity="0.2" d="M228.786 666.11C219.986 666.178 208.34 664.808 205.995 663.451C204.21 662.418 203.498 658.711 203.26 657C203.095 657.007 203 657.01 203 657.01C203 657.01 203.494 662.982 205.838 664.339C208.183 665.695 219.829 667.065 228.629 666.998C231.169 666.978 232.046 666.12 231.998 664.848C231.645 665.616 230.676 666.096 228.786 666.11Z" fill="black"/>
<path d="M205.701 676.879C205.701 674.271 206.199 671.825 207.195 669.54C208.191 667.255 209.539 665.263 211.238 663.563C212.967 661.835 214.974 660.473 217.259 659.477C219.544 658.48 221.99 657.982 224.598 657.982H253.514V670.595H224.598C223.719 670.595 222.898 670.756 222.137 671.078C221.375 671.4 220.701 671.854 220.115 672.44C219.559 672.997 219.119 673.656 218.797 674.418C218.475 675.18 218.313 676 218.313 676.879C218.313 677.758 218.475 678.593 218.797 679.384C219.119 680.146 219.559 680.819 220.115 681.405C220.701 681.962 221.375 682.401 222.137 682.724C222.898 683.046 223.719 683.207 224.598 683.207H237.21C239.817 683.207 242.264 683.705 244.549 684.701C246.863 685.668 248.87 687.016 250.569 688.744C252.298 690.443 253.646 692.45 254.612 694.765C255.608 697.05 256.106 699.496 256.106 702.104C256.106 704.711 255.608 707.157 254.612 709.442C253.646 711.728 252.298 713.734 250.569 715.463C248.87 717.162 246.863 718.51 244.549 719.506C242.264 720.502 239.817 721 237.21 721H209.217V708.388H237.21C238.089 708.388 238.909 708.227 239.671 707.904C240.433 707.582 241.092 707.143 241.648 706.586C242.234 706 242.688 705.326 243.011 704.564C243.333 703.803 243.494 702.982 243.494 702.104C243.494 701.225 243.333 700.404 243.011 699.643C242.688 698.881 242.234 698.222 241.648 697.665C241.092 697.079 240.433 696.625 239.671 696.303C238.909 695.98 238.089 695.819 237.21 695.819H224.598C221.99 695.819 219.544 695.321 217.259 694.325C214.974 693.329 212.967 691.981 211.238 690.282C209.539 688.554 208.191 686.547 207.195 684.262C206.199 681.947 205.701 679.486 205.701 676.879ZM289.988 721H277.42V670.595H258.479V657.982H308.885V670.595H289.988V721ZM365.267 695.819C365.267 699.306 364.607 702.587 363.289 705.663C361.971 708.71 360.169 711.376 357.884 713.661C355.599 715.917 352.918 717.704 349.842 719.022C346.795 720.341 343.528 721 340.042 721C336.556 721 333.274 720.341 330.198 719.022C327.151 717.704 324.485 715.917 322.2 713.661C319.944 711.376 318.157 708.71 316.839 705.663C315.521 702.587 314.861 699.306 314.861 695.819V657.982H327.43V695.819C327.43 697.548 327.752 699.174 328.396 700.697C329.07 702.221 329.979 703.554 331.121 704.696C332.264 705.839 333.597 706.747 335.12 707.421C336.673 708.065 338.313 708.388 340.042 708.388C341.771 708.388 343.396 708.065 344.92 707.421C346.473 706.747 347.82 705.839 348.963 704.696C350.105 703.554 350.999 702.221 351.644 700.697C352.317 699.174 352.654 697.548 352.654 695.819V657.982H365.267V695.819ZM426.702 689.491C426.702 692.392 426.321 695.189 425.56 697.885C424.827 700.551 423.772 703.056 422.396 705.399C421.019 707.714 419.378 709.838 417.474 711.771C415.569 713.676 413.445 715.316 411.102 716.693C408.758 718.07 406.238 719.14 403.543 719.901C400.877 720.634 398.094 721 395.193 721H376.209V657.982H395.193C398.094 657.982 400.877 658.363 403.543 659.125C406.238 659.857 408.758 660.912 411.102 662.289C413.445 663.666 415.569 665.321 417.474 667.255C419.378 669.159 421.019 671.283 422.396 673.627C423.772 675.941 424.827 678.446 425.56 681.142C426.321 683.808 426.702 686.591 426.702 689.491ZM414.09 689.491C414.09 686.884 413.592 684.438 412.596 682.152C411.629 679.867 410.281 677.875 408.553 676.176C406.854 674.447 404.847 673.085 402.532 672.089C400.247 671.093 397.801 670.595 395.193 670.595H388.909V708.388H395.193C397.801 708.388 400.247 707.904 402.532 706.938C404.847 705.941 406.854 704.594 408.553 702.895C410.281 701.166 411.629 699.159 412.596 696.874C413.592 694.56 414.09 692.099 414.09 689.491ZM478.294 721H435.096V657.982H478.294V670.595H447.708V683.207H468.406V695.819H447.708V708.388H478.294V721ZM537.532 721H524.041L499.739 679.516V721H487.127V657.982H500.618L524.92 699.511V657.982H537.532V721ZM575.721 721H563.152V670.595H544.212V657.982H594.617V670.595H575.721V721Z" fill="white"/>
<path d="M146.811 754.994L139.911 776H135.707L128.837 754.994H133.612L137.802 769.013L142.006 754.994H146.811ZM153.036 776H148.832V754.994H153.036V776ZM171.347 776H156.947V754.994H171.347V759.198H161.151V763.402H168.051V767.606H161.151V771.796H171.347V776ZM195.136 769.994C195.136 770.863 194.97 771.684 194.638 772.455C194.315 773.217 193.866 773.886 193.29 774.462C192.724 775.028 192.055 775.478 191.283 775.81C190.521 776.132 189.706 776.293 188.837 776.293C188.056 776.293 187.304 776.156 186.581 775.883C185.868 775.609 185.224 775.209 184.647 774.682C184.071 775.209 183.422 775.609 182.699 775.883C181.977 776.156 181.225 776.293 180.443 776.293C179.574 776.293 178.754 776.132 177.982 775.81C177.221 775.478 176.552 775.028 175.976 774.462C175.409 773.886 174.96 773.217 174.628 772.455C174.306 771.684 174.145 770.863 174.145 769.994V754.994H178.349V769.994C178.349 770.287 178.402 770.565 178.51 770.829C178.617 771.083 178.764 771.308 178.949 771.503C179.145 771.688 179.369 771.835 179.623 771.942C179.877 772.05 180.15 772.104 180.443 772.104C180.736 772.104 181.01 772.05 181.264 771.942C181.518 771.835 181.737 771.688 181.923 771.503C182.118 771.308 182.27 771.083 182.377 770.829C182.484 770.565 182.538 770.287 182.538 769.994V754.994H186.742V769.994C186.742 770.287 186.796 770.565 186.903 770.829C187.011 771.083 187.157 771.308 187.343 771.503C187.538 771.688 187.763 771.835 188.017 771.942C188.271 772.05 188.544 772.104 188.837 772.104C189.13 772.104 189.403 772.05 189.657 771.942C189.911 771.835 190.131 771.688 190.316 771.503C190.512 771.308 190.663 771.083 190.771 770.829C190.888 770.565 190.946 770.287 190.946 769.994V754.994H195.136V769.994ZM216.757 776H212.567V769.423C211.64 769.188 210.785 768.812 210.004 768.295C209.232 767.777 208.568 767.162 208.012 766.449C207.455 765.727 207.021 764.931 206.708 764.062C206.405 763.183 206.254 762.26 206.254 761.293V754.994H210.458V761.293C210.458 761.869 210.565 762.416 210.78 762.934C211.005 763.441 211.308 763.886 211.688 764.267C212.069 764.647 212.514 764.95 213.021 765.175C213.539 765.39 214.086 765.497 214.662 765.497C215.238 765.497 215.78 765.39 216.288 765.175C216.806 764.95 217.255 764.647 217.636 764.267C218.017 763.886 218.314 763.441 218.529 762.934C218.754 762.416 218.866 761.869 218.866 761.293V754.994H223.056V761.293C223.056 762.26 222.899 763.183 222.587 764.062C222.284 764.931 221.854 765.727 221.298 766.449C220.741 767.162 220.077 767.777 219.306 768.295C218.534 768.812 217.685 769.188 216.757 769.423V776ZM246.493 765.585C246.493 766.581 246.361 767.543 246.098 768.471C245.844 769.389 245.482 770.253 245.014 771.063C244.545 771.864 243.979 772.597 243.314 773.261C242.65 773.925 241.918 774.496 241.117 774.975C240.316 775.443 239.452 775.805 238.524 776.059C237.597 776.322 236.635 776.454 235.639 776.454C234.643 776.454 233.681 776.322 232.753 776.059C231.835 775.805 230.971 775.443 230.16 774.975C229.359 774.496 228.627 773.925 227.963 773.261C227.299 772.597 226.728 771.864 226.249 771.063C225.78 770.253 225.414 769.389 225.15 768.471C224.896 767.543 224.77 766.581 224.77 765.585C224.77 764.589 224.896 763.627 225.15 762.699C225.414 761.771 225.78 760.907 226.249 760.106C226.728 759.306 227.299 758.573 227.963 757.909C228.627 757.245 229.359 756.679 230.16 756.21C230.971 755.741 231.835 755.38 232.753 755.126C233.681 754.862 234.643 754.73 235.639 754.73C236.635 754.73 237.597 754.862 238.524 755.126C239.452 755.38 240.316 755.741 241.117 756.21C241.918 756.679 242.65 757.245 243.314 757.909C243.979 758.573 244.545 759.306 245.014 760.106C245.482 760.907 245.844 761.771 246.098 762.699C246.361 763.627 246.493 764.589 246.493 765.585ZM242.318 765.585C242.318 764.667 242.143 763.803 241.791 762.992C241.439 762.172 240.961 761.464 240.355 760.868C239.76 760.263 239.052 759.784 238.231 759.433C237.421 759.081 236.557 758.905 235.639 758.905C234.711 758.905 233.842 759.081 233.031 759.433C232.221 759.784 231.513 760.263 230.907 760.868C230.302 761.464 229.823 762.172 229.472 762.992C229.12 763.803 228.944 764.667 228.944 765.585C228.944 766.503 229.12 767.367 229.472 768.178C229.823 768.979 230.302 769.682 230.907 770.287C231.513 770.893 232.221 771.371 233.031 771.723C233.842 772.074 234.711 772.25 235.639 772.25C236.557 772.25 237.421 772.074 238.231 771.723C239.052 771.371 239.76 770.893 240.355 770.287C240.961 769.682 241.439 768.979 241.791 768.178C242.143 767.367 242.318 766.503 242.318 765.585ZM265.829 767.606C265.829 768.769 265.609 769.862 265.17 770.888C264.73 771.903 264.13 772.792 263.368 773.554C262.606 774.306 261.713 774.901 260.688 775.341C259.672 775.78 258.583 776 257.421 776C256.259 776 255.165 775.78 254.14 775.341C253.124 774.901 252.235 774.306 251.474 773.554C250.722 772.792 250.126 771.903 249.687 770.888C249.247 769.862 249.027 768.769 249.027 767.606V754.994H253.217V767.606C253.217 768.183 253.324 768.725 253.539 769.232C253.764 769.74 254.066 770.185 254.447 770.565C254.828 770.946 255.272 771.249 255.78 771.474C256.298 771.688 256.845 771.796 257.421 771.796C257.997 771.796 258.539 771.688 259.047 771.474C259.564 771.249 260.014 770.946 260.395 770.565C260.775 770.185 261.073 769.74 261.288 769.232C261.513 768.725 261.625 768.183 261.625 767.606V754.994H265.829V767.606ZM273.681 759.198V767.606H277.885C278.461 767.606 279.003 767.499 279.511 767.284C280.019 767.06 280.463 766.757 280.844 766.376C281.225 765.995 281.522 765.551 281.737 765.043C281.962 764.525 282.074 763.979 282.074 763.402C282.074 762.826 281.962 762.284 281.737 761.776C281.522 761.259 281.225 760.81 280.844 760.429C280.463 760.048 280.019 759.75 279.511 759.535C279.003 759.311 278.461 759.198 277.885 759.198H273.681ZM273.681 776H269.477V754.994H277.885C278.656 754.994 279.398 755.097 280.111 755.302C280.824 755.497 281.488 755.78 282.104 756.151C282.729 756.513 283.295 756.952 283.803 757.47C284.32 757.978 284.76 758.544 285.121 759.169C285.492 759.794 285.775 760.463 285.971 761.176C286.176 761.889 286.278 762.631 286.278 763.402C286.278 764.125 286.186 764.828 286 765.512C285.824 766.195 285.565 766.845 285.224 767.46C284.892 768.075 284.481 768.642 283.993 769.159C283.505 769.677 282.958 770.126 282.353 770.507L284.682 776H280.214L278.383 771.767L273.681 771.796V776ZM309.818 767.606V763.402C309.818 762.826 309.706 762.284 309.481 761.776C309.267 761.259 308.969 760.81 308.588 760.429C308.207 760.048 307.758 759.75 307.24 759.535C306.732 759.311 306.19 759.198 305.614 759.198C305.038 759.198 304.491 759.311 303.974 759.535C303.466 759.75 303.021 760.048 302.641 760.429C302.26 760.81 301.957 761.259 301.732 761.776C301.518 762.284 301.41 762.826 301.41 763.402V767.606H309.818ZM314.022 776H309.818V771.796H301.41V776H297.221V763.402C297.221 762.24 297.44 761.151 297.88 760.136C298.319 759.11 298.915 758.217 299.667 757.455C300.429 756.693 301.317 756.093 302.333 755.653C303.358 755.214 304.452 754.994 305.614 754.994C306.776 754.994 307.865 755.214 308.881 755.653C309.906 756.093 310.8 756.693 311.562 757.455C312.323 758.217 312.924 759.11 313.363 760.136C313.803 761.151 314.022 762.24 314.022 763.402V776ZM325.844 776H321.654V759.198H315.341V754.994H332.143V759.198H325.844V776ZM343.188 776H338.998V759.198H332.685V754.994H349.486V759.198H343.188V776ZM366.112 776H351.713V754.994H366.112V759.198H355.917V763.402H362.816V767.606H355.917V771.796H366.112V776ZM385.858 776H381.361L373.261 762.172V776H369.057V754.994H373.554L381.654 768.837V754.994H385.858V776ZM406.601 765.497C406.601 766.464 406.474 767.396 406.22 768.295C405.976 769.184 405.624 770.019 405.165 770.8C404.706 771.571 404.159 772.279 403.524 772.924C402.89 773.559 402.182 774.105 401.4 774.564C400.619 775.023 399.779 775.38 398.881 775.634C397.992 775.878 397.064 776 396.098 776H389.77V754.994H396.098C397.064 754.994 397.992 755.121 398.881 755.375C399.779 755.619 400.619 755.971 401.4 756.43C402.182 756.889 402.89 757.44 403.524 758.085C404.159 758.72 404.706 759.428 405.165 760.209C405.624 760.98 405.976 761.815 406.22 762.714C406.474 763.603 406.601 764.53 406.601 765.497ZM402.396 765.497C402.396 764.628 402.23 763.812 401.898 763.051C401.576 762.289 401.127 761.625 400.551 761.059C399.984 760.482 399.315 760.028 398.544 759.696C397.782 759.364 396.967 759.198 396.098 759.198H394.003V771.796H396.098C396.967 771.796 397.782 771.635 398.544 771.312C399.315 770.98 399.984 770.531 400.551 769.965C401.127 769.389 401.576 768.72 401.898 767.958C402.23 767.187 402.396 766.366 402.396 765.497ZM421.762 767.606V763.402C421.762 762.826 421.649 762.284 421.425 761.776C421.21 761.259 420.912 760.81 420.531 760.429C420.15 760.048 419.701 759.75 419.184 759.535C418.676 759.311 418.134 759.198 417.558 759.198C416.981 759.198 416.435 759.311 415.917 759.535C415.409 759.75 414.965 760.048 414.584 760.429C414.203 760.81 413.9 761.259 413.676 761.776C413.461 762.284 413.354 762.826 413.354 763.402V767.606H421.762ZM425.966 776H421.762V771.796H413.354V776H409.164V763.402C409.164 762.24 409.384 761.151 409.823 760.136C410.263 759.11 410.858 758.217 411.61 757.455C412.372 756.693 413.261 756.093 414.276 755.653C415.302 755.214 416.396 754.994 417.558 754.994C418.72 754.994 419.809 755.214 420.824 755.653C421.85 756.093 422.743 756.693 423.505 757.455C424.267 758.217 424.867 759.11 425.307 760.136C425.746 761.151 425.966 762.24 425.966 763.402V776ZM446.415 776H441.918L433.817 762.172V776H429.613V754.994H434.11L442.211 768.837V754.994H446.415V776ZM467.099 773.847C466.122 774.687 465.028 775.331 463.817 775.78C462.606 776.229 461.352 776.454 460.053 776.454C459.057 776.454 458.095 776.322 457.167 776.059C456.249 775.805 455.385 775.443 454.574 774.975C453.773 774.496 453.041 773.925 452.377 773.261C451.713 772.597 451.142 771.864 450.663 771.063C450.194 770.253 449.828 769.389 449.564 768.471C449.311 767.543 449.184 766.581 449.184 765.585C449.184 764.589 449.311 763.627 449.564 762.699C449.828 761.771 450.194 760.907 450.663 760.106C451.142 759.296 451.713 758.559 452.377 757.895C453.041 757.23 453.773 756.664 454.574 756.195C455.385 755.717 456.249 755.351 457.167 755.097C458.095 754.833 459.057 754.701 460.053 754.701C461.352 754.701 462.606 754.926 463.817 755.375C465.028 755.814 466.122 756.459 467.099 757.309L464.872 760.971C464.257 760.307 463.529 759.799 462.689 759.447C461.85 759.086 460.971 758.905 460.053 758.905C459.125 758.905 458.256 759.081 457.445 759.433C456.635 759.784 455.927 760.263 455.321 760.868C454.716 761.464 454.237 762.172 453.886 762.992C453.534 763.803 453.358 764.667 453.358 765.585C453.358 766.503 453.534 767.367 453.886 768.178C454.237 768.979 454.716 769.682 455.321 770.287C455.927 770.893 456.635 771.371 457.445 771.723C458.256 772.074 459.125 772.25 460.053 772.25C460.971 772.25 461.85 772.074 462.689 771.723C463.529 771.361 464.257 770.849 464.872 770.185L467.099 773.847ZM483.944 776H469.545V754.994H483.944V759.198H473.749V763.402H480.648V767.606H473.749V771.796H483.944V776ZM499.501 759.198V767.606H503.705C504.281 767.606 504.823 767.499 505.331 767.284C505.839 767.06 506.283 766.757 506.664 766.376C507.045 765.995 507.343 765.551 507.558 765.043C507.782 764.525 507.895 763.979 507.895 763.402C507.895 762.826 507.782 762.284 507.558 761.776C507.343 761.259 507.045 760.81 506.664 760.429C506.283 760.048 505.839 759.75 505.331 759.535C504.823 759.311 504.281 759.198 503.705 759.198H499.501ZM499.501 776H495.297V754.994H503.705C504.477 754.994 505.219 755.097 505.932 755.302C506.645 755.497 507.309 755.78 507.924 756.151C508.549 756.513 509.115 756.952 509.623 757.47C510.141 757.978 510.58 758.544 510.941 759.169C511.312 759.794 511.596 760.463 511.791 761.176C511.996 761.889 512.099 762.631 512.099 763.402C512.099 764.125 512.006 764.828 511.82 765.512C511.645 766.195 511.386 766.845 511.044 767.46C510.712 768.075 510.302 768.642 509.813 769.159C509.325 769.677 508.778 770.126 508.173 770.507L510.502 776H506.034L504.203 771.767L499.501 771.796V776ZM529.267 776H514.867V754.994H529.267V759.198H519.071V763.402H525.971V767.606H519.071V771.796H529.267V776ZM548.456 773.847C547.479 774.687 546.386 775.331 545.175 775.78C543.964 776.229 542.709 776.454 541.41 776.454C540.414 776.454 539.452 776.322 538.524 776.059C537.606 775.805 536.742 775.443 535.932 774.975C535.131 774.496 534.398 773.925 533.734 773.261C533.07 772.597 532.499 771.864 532.021 771.063C531.552 770.253 531.186 769.389 530.922 768.471C530.668 767.543 530.541 766.581 530.541 765.585C530.541 764.589 530.668 763.627 530.922 762.699C531.186 761.771 531.552 760.907 532.021 760.106C532.499 759.296 533.07 758.559 533.734 757.895C534.398 757.23 535.131 756.664 535.932 756.195C536.742 755.717 537.606 755.351 538.524 755.097C539.452 754.833 540.414 754.701 541.41 754.701C542.709 754.701 543.964 754.926 545.175 755.375C546.386 755.814 547.479 756.459 548.456 757.309L546.229 760.971C545.614 760.307 544.887 759.799 544.047 759.447C543.207 759.086 542.328 758.905 541.41 758.905C540.482 758.905 539.613 759.081 538.803 759.433C537.992 759.784 537.284 760.263 536.679 760.868C536.073 761.464 535.595 762.172 535.243 762.992C534.892 763.803 534.716 764.667 534.716 765.585C534.716 766.503 534.892 767.367 535.243 768.178C535.595 768.979 536.073 769.682 536.679 770.287C537.284 770.893 537.992 771.371 538.803 771.723C539.613 772.074 540.482 772.25 541.41 772.25C542.328 772.25 543.207 772.074 544.047 771.723C544.887 771.361 545.614 770.849 546.229 770.185L548.456 773.847ZM570.868 765.585C570.868 766.581 570.736 767.543 570.473 768.471C570.219 769.389 569.857 770.253 569.389 771.063C568.92 771.864 568.354 772.597 567.689 773.261C567.025 773.925 566.293 774.496 565.492 774.975C564.691 775.443 563.827 775.805 562.899 776.059C561.972 776.322 561.01 776.454 560.014 776.454C559.018 776.454 558.056 776.322 557.128 776.059C556.21 775.805 555.346 775.443 554.535 774.975C553.734 774.496 553.002 773.925 552.338 773.261C551.674 772.597 551.103 771.864 550.624 771.063C550.155 770.253 549.789 769.389 549.525 768.471C549.271 767.543 549.145 766.581 549.145 765.585C549.145 764.589 549.271 763.627 549.525 762.699C549.789 761.771 550.155 760.907 550.624 760.106C551.103 759.306 551.674 758.573 552.338 757.909C553.002 757.245 553.734 756.679 554.535 756.21C555.346 755.741 556.21 755.38 557.128 755.126C558.056 754.862 559.018 754.73 560.014 754.73C561.01 754.73 561.972 754.862 562.899 755.126C563.827 755.38 564.691 755.741 565.492 756.21C566.293 756.679 567.025 757.245 567.689 757.909C568.354 758.573 568.92 759.306 569.389 760.106C569.857 760.907 570.219 761.771 570.473 762.699C570.736 763.627 570.868 764.589 570.868 765.585ZM566.693 765.585C566.693 764.667 566.518 763.803 566.166 762.992C565.814 762.172 565.336 761.464 564.73 760.868C564.135 760.263 563.427 759.784 562.606 759.433C561.796 759.081 560.932 758.905 560.014 758.905C559.086 758.905 558.217 759.081 557.406 759.433C556.596 759.784 555.888 760.263 555.282 760.868C554.677 761.464 554.198 762.172 553.847 762.992C553.495 763.803 553.319 764.667 553.319 765.585C553.319 766.503 553.495 767.367 553.847 768.178C554.198 768.979 554.677 769.682 555.282 770.287C555.888 770.893 556.596 771.371 557.406 771.723C558.217 772.074 559.086 772.25 560.014 772.25C560.932 772.25 561.796 772.074 562.606 771.723C563.427 771.371 564.135 770.893 564.73 770.287C565.336 769.682 565.814 768.979 566.166 768.178C566.518 767.367 566.693 766.503 566.693 765.585ZM577.841 759.198V767.606H582.045C582.621 767.606 583.163 767.499 583.671 767.284C584.179 767.06 584.623 766.757 585.004 766.376C585.385 765.995 585.683 765.551 585.897 765.043C586.122 764.525 586.234 763.979 586.234 763.402C586.234 762.826 586.122 762.284 585.897 761.776C585.683 761.259 585.385 760.81 585.004 760.429C584.623 760.048 584.179 759.75 583.671 759.535C583.163 759.311 582.621 759.198 582.045 759.198H577.841ZM577.841 776H573.637V754.994H582.045C582.816 754.994 583.559 755.097 584.271 755.302C584.984 755.497 585.648 755.78 586.264 756.151C586.889 756.513 587.455 756.952 587.963 757.47C588.48 757.978 588.92 758.544 589.281 759.169C589.652 759.794 589.936 760.463 590.131 761.176C590.336 761.889 590.438 762.631 590.438 763.402C590.438 764.125 590.346 764.828 590.16 765.512C589.984 766.195 589.726 766.845 589.384 767.46C589.052 768.075 588.642 768.642 588.153 769.159C587.665 769.677 587.118 770.126 586.513 770.507L588.842 776H584.374L582.543 771.767L577.841 771.796V776ZM610.038 765.497C610.038 766.464 609.911 767.396 609.657 768.295C609.413 769.184 609.062 770.019 608.603 770.8C608.144 771.571 607.597 772.279 606.962 772.924C606.327 773.559 605.619 774.105 604.838 774.564C604.057 775.023 603.217 775.38 602.318 775.634C601.43 775.878 600.502 776 599.535 776H593.207V754.994H599.535C600.502 754.994 601.43 755.121 602.318 755.375C603.217 755.619 604.057 755.971 604.838 756.43C605.619 756.889 606.327 757.44 606.962 758.085C607.597 758.72 608.144 759.428 608.603 760.209C609.062 760.98 609.413 761.815 609.657 762.714C609.911 763.603 610.038 764.53 610.038 765.497ZM605.834 765.497C605.834 764.628 605.668 763.812 605.336 763.051C605.014 762.289 604.564 761.625 603.988 761.059C603.422 760.482 602.753 760.028 601.981 759.696C601.22 759.364 600.404 759.198 599.535 759.198H597.44V771.796H599.535C600.404 771.796 601.22 771.635 601.981 771.312C602.753 770.98 603.422 770.531 603.988 769.965C604.564 769.389 605.014 768.72 605.336 767.958C605.668 767.187 605.834 766.366 605.834 765.497ZM611.605 761.293C611.605 760.424 611.771 759.608 612.104 758.847C612.436 758.085 612.885 757.421 613.451 756.854C614.027 756.278 614.696 755.824 615.458 755.492C616.22 755.16 617.035 754.994 617.904 754.994H627.543V759.198H617.904C617.611 759.198 617.338 759.252 617.084 759.359C616.83 759.467 616.605 759.618 616.41 759.813C616.225 759.999 616.078 760.219 615.971 760.473C615.863 760.727 615.81 761 615.81 761.293C615.81 761.586 615.863 761.864 615.971 762.128C616.078 762.382 616.225 762.606 616.41 762.802C616.605 762.987 616.83 763.134 617.084 763.241C617.338 763.349 617.611 763.402 617.904 763.402H622.108C622.978 763.402 623.793 763.568 624.555 763.9C625.326 764.223 625.995 764.672 626.562 765.248C627.138 765.814 627.587 766.483 627.909 767.255C628.241 768.017 628.407 768.832 628.407 769.701C628.407 770.57 628.241 771.386 627.909 772.147C627.587 772.909 627.138 773.578 626.562 774.154C625.995 774.721 625.326 775.17 624.555 775.502C623.793 775.834 622.978 776 622.108 776H612.777V771.796H622.108C622.401 771.796 622.675 771.742 622.929 771.635C623.183 771.527 623.402 771.381 623.588 771.195C623.783 771 623.935 770.775 624.042 770.521C624.149 770.268 624.203 769.994 624.203 769.701C624.203 769.408 624.149 769.135 624.042 768.881C623.935 768.627 623.783 768.407 623.588 768.222C623.402 768.026 623.183 767.875 622.929 767.768C622.675 767.66 622.401 767.606 622.108 767.606H617.904C617.035 767.606 616.22 767.44 615.458 767.108C614.696 766.776 614.027 766.327 613.451 765.761C612.885 765.185 612.436 764.516 612.104 763.754C611.771 762.982 611.605 762.162 611.605 761.293ZM651.947 767.606V763.402C651.947 762.826 651.835 762.284 651.61 761.776C651.396 761.259 651.098 760.81 650.717 760.429C650.336 760.048 649.887 759.75 649.369 759.535C648.861 759.311 648.319 759.198 647.743 759.198C647.167 759.198 646.62 759.311 646.103 759.535C645.595 759.75 645.15 760.048 644.77 760.429C644.389 760.81 644.086 761.259 643.861 761.776C643.646 762.284 643.539 762.826 643.539 763.402V767.606H651.947ZM656.151 776H651.947V771.796H643.539V776H639.35V763.402C639.35 762.24 639.569 761.151 640.009 760.136C640.448 759.11 641.044 758.217 641.796 757.455C642.558 756.693 643.446 756.093 644.462 755.653C645.487 755.214 646.581 754.994 647.743 754.994C648.905 754.994 649.994 755.214 651.01 755.653C652.035 756.093 652.929 756.693 653.69 757.455C654.452 758.217 655.053 759.11 655.492 760.136C655.932 761.151 656.151 762.24 656.151 763.402V776ZM676.601 776H672.104L664.003 762.172V776H659.799V754.994H664.296L672.396 768.837V754.994H676.601V776ZM697.343 765.497C697.343 766.464 697.216 767.396 696.962 768.295C696.718 769.184 696.366 770.019 695.907 770.8C695.448 771.571 694.901 772.279 694.267 772.924C693.632 773.559 692.924 774.105 692.143 774.564C691.361 775.023 690.521 775.38 689.623 775.634C688.734 775.878 687.807 776 686.84 776H680.512V754.994H686.84C687.807 754.994 688.734 755.121 689.623 755.375C690.521 755.619 691.361 755.971 692.143 756.43C692.924 756.889 693.632 757.44 694.267 758.085C694.901 758.72 695.448 759.428 695.907 760.209C696.366 760.98 696.718 761.815 696.962 762.714C697.216 763.603 697.343 764.53 697.343 765.497ZM693.139 765.497C693.139 764.628 692.973 763.812 692.641 763.051C692.318 762.289 691.869 761.625 691.293 761.059C690.727 760.482 690.058 760.028 689.286 759.696C688.524 759.364 687.709 759.198 686.84 759.198H684.745V771.796H686.84C687.709 771.796 688.524 771.635 689.286 771.312C690.058 770.98 690.727 770.531 691.293 769.965C691.869 769.389 692.318 768.72 692.641 767.958C692.973 767.187 693.139 766.366 693.139 765.497ZM310.565 813H296.166V791.994H310.565V796.198H300.37V800.402H307.27V804.606H300.37V808.796H310.565V813ZM329.828 813H324.73L320.688 806.218L316.63 813H311.562L318.007 802.497L311.562 791.994H316.63L320.688 798.776L324.73 791.994H329.828L323.383 802.497L329.828 813ZM344.154 804.606V800.402C344.154 799.826 344.042 799.284 343.817 798.776C343.603 798.259 343.305 797.81 342.924 797.429C342.543 797.048 342.094 796.75 341.576 796.535C341.068 796.311 340.526 796.198 339.95 796.198C339.374 796.198 338.827 796.311 338.31 796.535C337.802 796.75 337.357 797.048 336.977 797.429C336.596 797.81 336.293 798.259 336.068 798.776C335.854 799.284 335.746 799.826 335.746 800.402V804.606H344.154ZM348.358 813H344.154V808.796H335.746V813H331.557V800.402C331.557 799.24 331.776 798.151 332.216 797.136C332.655 796.11 333.251 795.217 334.003 794.455C334.765 793.693 335.653 793.093 336.669 792.653C337.694 792.214 338.788 791.994 339.95 791.994C341.112 791.994 342.201 792.214 343.217 792.653C344.242 793.093 345.136 793.693 345.897 794.455C346.659 795.217 347.26 796.11 347.699 797.136C348.139 798.151 348.358 799.24 348.358 800.402V813ZM372.851 813H368.661V798C368.661 797.707 368.603 797.434 368.485 797.18C368.378 796.926 368.227 796.706 368.031 796.521C367.846 796.325 367.626 796.174 367.372 796.066C367.118 795.959 366.845 795.905 366.552 795.905C366.259 795.905 365.985 795.959 365.731 796.066C365.478 796.174 365.253 796.325 365.058 796.521C364.872 796.706 364.726 796.926 364.618 797.18C364.511 797.434 364.457 797.707 364.457 798V813H360.253V798C360.253 797.707 360.199 797.434 360.092 797.18C359.984 796.926 359.833 796.706 359.638 796.521C359.452 796.325 359.232 796.174 358.979 796.066C358.725 795.959 358.451 795.905 358.158 795.905C357.865 795.905 357.592 795.959 357.338 796.066C357.084 796.174 356.859 796.325 356.664 796.521C356.479 796.706 356.332 796.926 356.225 797.18C356.117 797.434 356.063 797.707 356.063 798V813H351.859V798C351.859 797.131 352.021 796.315 352.343 795.554C352.675 794.782 353.124 794.113 353.69 793.547C354.267 792.971 354.936 792.521 355.697 792.199C356.469 791.867 357.289 791.701 358.158 791.701C358.939 791.701 359.691 791.843 360.414 792.126C361.137 792.399 361.786 792.8 362.362 793.327C362.938 792.8 363.583 792.399 364.296 792.126C365.019 791.843 365.771 791.701 366.552 791.701C367.421 791.701 368.236 791.867 368.998 792.199C369.77 792.521 370.438 792.971 371.005 793.547C371.581 794.113 372.03 794.782 372.353 795.554C372.685 796.315 372.851 797.131 372.851 798V813ZM383.793 798.293C383.793 797.424 383.959 796.608 384.291 795.847C384.623 795.085 385.072 794.421 385.639 793.854C386.215 793.278 386.884 792.824 387.646 792.492C388.407 792.16 389.223 791.994 390.092 791.994H399.73V796.198H390.092C389.799 796.198 389.525 796.252 389.271 796.359C389.018 796.467 388.793 796.618 388.598 796.813C388.412 796.999 388.266 797.219 388.158 797.473C388.051 797.727 387.997 798 387.997 798.293C387.997 798.586 388.051 798.864 388.158 799.128C388.266 799.382 388.412 799.606 388.598 799.802C388.793 799.987 389.018 800.134 389.271 800.241C389.525 800.349 389.799 800.402 390.092 800.402H394.296C395.165 800.402 395.98 800.568 396.742 800.9C397.514 801.223 398.183 801.672 398.749 802.248C399.325 802.814 399.774 803.483 400.097 804.255C400.429 805.017 400.595 805.832 400.595 806.701C400.595 807.57 400.429 808.386 400.097 809.147C399.774 809.909 399.325 810.578 398.749 811.154C398.183 811.721 397.514 812.17 396.742 812.502C395.98 812.834 395.165 813 394.296 813H384.965V808.796H394.296C394.589 808.796 394.862 808.742 395.116 808.635C395.37 808.527 395.59 808.381 395.775 808.195C395.971 808 396.122 807.775 396.229 807.521C396.337 807.268 396.391 806.994 396.391 806.701C396.391 806.408 396.337 806.135 396.229 805.881C396.122 805.627 395.971 805.407 395.775 805.222C395.59 805.026 395.37 804.875 395.116 804.768C394.862 804.66 394.589 804.606 394.296 804.606H390.092C389.223 804.606 388.407 804.44 387.646 804.108C386.884 803.776 386.215 803.327 385.639 802.761C385.072 802.185 384.623 801.516 384.291 800.754C383.959 799.982 383.793 799.162 383.793 798.293ZM420.136 810.847C419.159 811.687 418.065 812.331 416.854 812.78C415.644 813.229 414.389 813.454 413.09 813.454C412.094 813.454 411.132 813.322 410.204 813.059C409.286 812.805 408.422 812.443 407.611 811.975C406.811 811.496 406.078 810.925 405.414 810.261C404.75 809.597 404.179 808.864 403.7 808.063C403.231 807.253 402.865 806.389 402.602 805.471C402.348 804.543 402.221 803.581 402.221 802.585C402.221 801.589 402.348 800.627 402.602 799.699C402.865 798.771 403.231 797.907 403.7 797.106C404.179 796.296 404.75 795.559 405.414 794.895C406.078 794.23 406.811 793.664 407.611 793.195C408.422 792.717 409.286 792.351 410.204 792.097C411.132 791.833 412.094 791.701 413.09 791.701C414.389 791.701 415.644 791.926 416.854 792.375C418.065 792.814 419.159 793.459 420.136 794.309L417.909 797.971C417.294 797.307 416.566 796.799 415.727 796.447C414.887 796.086 414.008 795.905 413.09 795.905C412.162 795.905 411.293 796.081 410.482 796.433C409.672 796.784 408.964 797.263 408.358 797.868C407.753 798.464 407.274 799.172 406.923 799.992C406.571 800.803 406.396 801.667 406.396 802.585C406.396 803.503 406.571 804.367 406.923 805.178C407.274 805.979 407.753 806.682 408.358 807.287C408.964 807.893 409.672 808.371 410.482 808.723C411.293 809.074 412.162 809.25 413.09 809.25C414.008 809.25 414.887 809.074 415.727 808.723C416.566 808.361 417.294 807.849 417.909 807.185L420.136 810.847ZM426.786 813H422.582V791.994H426.786V800.402H435.18V791.994H439.384V813H435.18V804.606H426.786V813ZM457.694 813H443.295V791.994H457.694V796.198H447.499V800.402H454.398V804.606H447.499V808.796H457.694V813ZM477.47 802.497C477.47 803.464 477.343 804.396 477.089 805.295C476.845 806.184 476.493 807.019 476.034 807.8C475.575 808.571 475.028 809.279 474.394 809.924C473.759 810.559 473.051 811.105 472.27 811.564C471.488 812.023 470.648 812.38 469.75 812.634C468.861 812.878 467.934 813 466.967 813H460.639V791.994H466.967C467.934 791.994 468.861 792.121 469.75 792.375C470.648 792.619 471.488 792.971 472.27 793.43C473.051 793.889 473.759 794.44 474.394 795.085C475.028 795.72 475.575 796.428 476.034 797.209C476.493 797.98 476.845 798.815 477.089 799.714C477.343 800.603 477.47 801.53 477.47 802.497ZM473.266 802.497C473.266 801.628 473.1 800.812 472.768 800.051C472.445 799.289 471.996 798.625 471.42 798.059C470.854 797.482 470.185 797.028 469.413 796.696C468.651 796.364 467.836 796.198 466.967 796.198H464.872V808.796H466.967C467.836 808.796 468.651 808.635 469.413 808.312C470.185 807.98 470.854 807.531 471.42 806.965C471.996 806.389 472.445 805.72 472.768 804.958C473.1 804.187 473.266 803.366 473.266 802.497ZM496.835 804.606C496.835 805.769 496.615 806.862 496.176 807.888C495.736 808.903 495.136 809.792 494.374 810.554C493.612 811.306 492.719 811.901 491.693 812.341C490.678 812.78 489.589 813 488.427 813C487.265 813 486.171 812.78 485.146 812.341C484.13 811.901 483.241 811.306 482.479 810.554C481.728 809.792 481.132 808.903 480.692 807.888C480.253 806.862 480.033 805.769 480.033 804.606V791.994H484.223V804.606C484.223 805.183 484.33 805.725 484.545 806.232C484.77 806.74 485.072 807.185 485.453 807.565C485.834 807.946 486.278 808.249 486.786 808.474C487.304 808.688 487.851 808.796 488.427 808.796C489.003 808.796 489.545 808.688 490.053 808.474C490.57 808.249 491.02 807.946 491.4 807.565C491.781 807.185 492.079 806.74 492.294 806.232C492.519 805.725 492.631 805.183 492.631 804.606V791.994H496.835V804.606ZM515.189 813H500.482V791.994H504.687V808.796H515.189V813ZM531.786 813H517.387V791.994H531.786V796.198H521.591V800.402H528.49V804.606H521.591V808.796H531.786V813Z" fill="white" fill-opacity="0.8"/>
<path d="M629 658.207C629 695.907 652.654 726.421 681.883 726.421Z" fill="#46455B"/>
<path d="M677.885 724.98C677.885 686.85 704.285 656 736.907 656Z" fill="#0288D1"/>
<path d="M648.166 661.629C648.166 697.447 663.25 726.429 681.883 726.429Z" fill="#0288D1"/>
<path d="M625.354 572.058C620.025 555.75 619.589 537.216 628.595 522.085C632.424 515.653 637.805 510.099 644.404 506.468C652.017 502.28 660.805 500.91 669.402 500.721C688.096 500.311 706.663 504.804 725.358 502.481C733.746 501.439 742.113 499.101 749.303 494.567C755.52 490.646 760.916 485.161 764.101 478.507C767.203 472.158 767.905 464.909 766.078 458.087C764.311 451.635 760.153 445.602 754.072 442.513C748.546 439.706 741.764 439.632 736.054 441.953C729.913 444.45 725.49 449.616 724.55 456.227C723.376 464.475 727.108 472.635 731.262 479.539C735.261 486.184 740.109 492.42 745.999 497.514C751.704 502.449 758.432 506.338 765.832 508.066C772.853 509.706 780.425 509.561 787.25 507.139C794.291 504.633 800.159 499.638 803.738 493.104C807.733 485.914 809.128 477.607 808.991 469.467C808.829 459.855 806.79 450.339 804.97 440.932C803.125 431.393 801.141 421.88 799.02 412.396C797.986 407.773 796.92 403.157 795.821 398.549C795.591 397.587 794.102 397.994 794.331 398.958C798.702 417.299 802.788 435.787 805.888 454.388C807.36 463.218 808.281 472.376 806.436 481.223C804.88 488.684 801.388 495.917 795.415 500.853C784.017 510.272 767.017 509.08 754.818 501.972C748.239 498.138 742.658 492.769 738.037 486.77C733.261 480.568 728.812 473.475 726.796 465.862C725.755 461.93 725.458 457.734 726.661 453.803C727.589 450.779 729.409 448.102 731.886 446.121C736.525 442.376 743.083 441.032 748.88 442.294C755.411 443.715 760.464 448.607 763.176 454.556C765.991 460.842 766.32 467.954 764.096 474.471C761.757 481.349 756.907 487.228 751.077 491.503C744.44 496.37 736.53 499.13 728.452 500.491C710.33 503.543 692.126 499.552 673.97 499.185C665.696 499.018 657.216 499.652 649.396 502.529C642.43 505.112 636.277 509.488 631.567 515.212C621.235 527.684 618.375 544.235 620.821 559.925C621.496 564.18 622.514 568.374 623.865 572.467C624.171 573.404 625.663 573.003 625.354 572.058Z" fill="#E5E5E5"/>
<path d="M630 568H614V580H630V568Z" fill="#0288D1"/>
<path d="M442 614C498.333 614 544 608.18 544 601C544 593.82 498.333 588 442 588C385.667 588 340 593.82 340 601C340 608.18 385.667 614 442 614Z" fill="white"/>
<path d="M441.5 610C494.795 610 538 563.885 538 507C538 450.115 494.795 404 441.5 404C388.205 404 345 450.115 345 507C345 563.885 388.205 610 441.5 610Z" fill="#3F3D56"/>
<path d="M472 568H412V623H472V568Z" fill="#0288D1"/>
<path d="M550.349 582L547 600.615L568.767 604L583 595.538L582.163 582H550.349Z" fill="#065580"/>
<path d="M437.958 227.505C437.958 227.505 436.211 247.495 431.845 248.364C427.479 249.234 441.451 284 441.451 284H462.408L479 279.654L471.141 260.533C471.141 260.533 460.662 246.626 468.521 235.327C476.38 224.028 437.958 227.505 437.958 227.505Z" fill="#ED9DA0"/>
<path opacity="0.1" d="M437.958 227.505C437.958 227.505 436.211 247.495 431.845 248.364C427.479 249.234 441.451 284 441.451 284H462.408L479 279.654L471.141 260.533C471.141 260.533 460.662 246.626 468.521 235.327C476.38 224.028 437.958 227.505 437.958 227.505Z" fill="black"/>
<path d="M395.299 378.421C395.299 378.421 373.031 421.185 391.017 429.738C409.002 438.29 413.284 437.435 413.284 440.001C413.284 442.567 409.858 441.711 411.571 445.988C413.284 450.264 408.145 467.37 413.284 477.633C418.423 487.896 416.71 495.594 416.71 495.594C416.71 495.594 416.71 496.449 418.423 499.87C420.136 503.291 420.992 505.857 420.136 507.567C419.279 509.278 414.141 520.397 419.279 522.962C424.418 525.528 450.968 527.239 453.537 522.962C456.106 518.686 450.968 516.12 453.537 513.554C456.106 510.989 457.819 510.133 456.106 508.423C454.393 506.712 452.68 485.33 452.68 485.33C452.68 485.33 456.963 460.527 455.25 457.106C453.537 453.685 450.968 450.264 452.68 447.698C454.393 445.132 456.106 445.988 456.963 442.567C457.819 439.146 459.532 431.448 459.532 431.448L468.953 430.593L491.22 434.869C491.22 434.869 516.057 462.238 543.463 470.791C543.463 470.791 551.171 478.488 553.741 478.488C556.31 478.488 556.31 478.488 555.453 480.199C554.597 481.909 552.028 481.909 553.741 483.62C555.453 485.33 558.023 482.764 556.31 485.33C554.597 487.896 552.884 487.896 554.597 489.607C556.31 491.317 553.741 500.725 553.741 501.581C553.741 502.436 546.033 582.832 548.602 584.542C551.171 586.253 587.142 591.384 589.711 584.542C592.28 577.7 587.998 569.147 587.998 569.147C587.998 569.147 600.845 466.514 597.419 459.672C593.993 452.83 582.003 422.04 517.77 402.369C517.77 402.369 499.785 398.948 499.785 396.382C499.785 393.816 498.072 377.566 494.646 376.711C491.22 375.855 471.522 375 471.522 375L446.685 382.697L412.428 376.711L395.299 378.421Z" fill="#2F2E41"/>
<path d="M424.689 522.554L420.323 537.878C420.323 537.878 416.83 562.566 421.196 568.525C424.626 573.206 430.749 578.937 442.106 579.943C445.289 580.227 448.476 579.444 451.14 577.723C453.804 576.002 455.786 573.446 456.758 570.478C456.888 570.123 456.97 569.752 457 569.376C457 567.673 454.38 547.242 454.38 547.242L450.014 525.959L449.141 520L424.689 522.554Z" fill="#2F2E41"/>
<path d="M549.948 595.958C549.948 595.958 545.629 591.658 544.765 595.958C543.902 600.257 540.447 618.313 546.493 619.173C552.54 620.033 610.413 628.631 616.459 625.192C622.506 621.753 633.735 616.594 626.825 614.014C619.914 611.435 600.047 603.696 600.047 603.696C600.047 603.696 588.818 589.079 587.091 588.219C585.363 587.359 575.862 589.079 571.543 592.518C567.224 595.958 549.948 595.958 549.948 595.958Z" fill="#2F2E41"/>
<path d="M458.5 246C473.136 246 485 234.136 485 219.5C485 204.864 473.136 193 458.5 193C443.864 193 432 204.864 432 219.5C432 234.136 443.864 246 458.5 246Z" fill="#ED9DA0"/>
<path d="M456.178 279.93L445.909 268.873L434.526 246.759C434.526 246.759 426.227 244.208 424.515 248.46C422.804 252.713 391.997 266.321 391.997 266.321C391.997 266.321 399.699 337.766 396.276 344.571C392.853 351.375 386.863 378.592 391.997 381.144C397.132 383.695 421.092 381.144 428.794 384.546C436.496 387.948 458.745 387.948 464.735 383.695C470.726 379.443 472.437 376.04 478.427 378.592C483.527 380.764 495.449 306.5 498.881 284.369C499.17 282.51 498.93 280.608 498.188 278.878C497.445 277.148 496.231 275.659 494.681 274.58C487.003 269.226 473.174 260.002 470.726 261.218C467.303 262.919 456.178 279.93 456.178 279.93Z" fill="#065580"/>
<path d="M492.885 276C494.835 276.499 496.589 277.597 497.911 279.146C499.234 280.696 500.062 282.622 500.284 284.667L507 346.557C507 346.557 490.394 383.111 482.092 358.459C473.789 333.806 492.885 276 492.885 276Z" fill="#065580"/>
<path d="M490.782 353.122L509.649 348C509.649 348 513.08 371.902 516.51 371.902C519.94 371.902 504.504 385.56 496.785 383.852C489.067 382.145 477.918 376.17 477.06 371.902C476.203 367.633 484.779 349.707 484.779 349.707L490.782 353.122Z" fill="#065580"/>
<path d="M438.256 231C440.051 227.018 439.739 222.374 441.224 218.265C442.018 216.065 443.308 214.079 444.992 212.463C446.676 210.847 448.709 209.645 450.932 208.95C453.155 208.255 455.507 208.086 457.805 208.456C460.103 208.827 462.285 209.727 464.18 211.086C466.09 212.455 468.004 214.379 470.335 214.118C472.845 213.836 475.083 211.02 477.391 212.052C479.948 213.196 479.257 217.806 481.848 218.871C483.212 219.431 484.824 218.568 485.611 217.315C486.299 215.999 486.674 214.539 486.706 213.052C487.063 209.399 487.386 205.532 485.811 202.221C485.148 201.098 484.571 199.927 484.083 198.717C483.808 197.587 483.697 196.423 483.755 195.261C483.741 190.967 483.429 186.488 481.28 182.777C478.896 178.659 474.488 176.026 469.89 174.877C465.291 173.728 460.474 173.904 455.753 174.306C447.948 174.97 439.809 176.395 433.66 181.274C432.824 181.889 432.105 182.649 431.536 183.518C430.997 184.552 430.615 185.661 430.405 186.809C429.076 192.254 427.083 197.513 424.471 202.466C423.214 204.565 422.188 206.796 421.408 209.118C420.756 211.477 420.8 214.166 422.165 216.194C423.277 217.845 425.053 218.725 426.449 220.075C427.832 221.412 428.479 223.985 430.011 224.998C431.349 225.882 432.951 225.258 434.315 226.195C436.066 227.398 436.193 230.036 438.256 231Z" fill="#2F2E41"/>
<path d="M460 292.125L462.588 287C462.588 287 500.549 298.104 508.314 308.354C508.314 308.354 527.294 296.396 537.647 298.104L548 299.813L516.078 328L475.529 324.583L460 292.125Z" fill="#F2F2F2"/>
<path d="M458.345 287L423 335.95L473.862 360.855C473.862 360.855 478.617 363.431 482.274 360.855L516.103 345.397L548 299.882L516.103 316.198C516.103 316.198 512.655 309.328 505.759 312.763L458.345 287Z" fill="#0288D1"/>
<path d="M512.371 374L519.363 355.884C519.363 355.884 535.097 336.043 526.356 326.553C517.615 317.064 508 354.159 508 354.159L512.371 374Z" fill="#ED9DA0"/>
<path d="M433 371L448.075 358.925C448.075 358.925 471.487 349.654 468.783 337.255C466.078 324.855 439.23 351.884 439.23 351.884L433 371Z" fill="#ED9DA0"/>
<path opacity="0.1" d="M396.593 283.664H395.732C395.732 283.664 382.379 267.761 379.795 289.251C377.21 310.742 368.596 382.09 390.994 384.669C413.391 387.248 429.328 373.923 429.328 373.923C429.328 373.923 445.696 348.995 439.666 348.995C436.748 348.995 428.813 347.687 421.575 348.135C413.854 348.613 406.917 350.783 407.361 348.565C408.223 344.267 420.714 289.681 396.593 283.664Z" fill="black"/>
<path d="M395.197 267.703L391.811 266C391.811 266 378.268 268.555 375.729 289.843C373.189 311.131 364.725 381.809 386.733 384.364C408.74 386.918 438.367 380.957 438.367 380.957C438.367 380.957 444.292 348.599 438.367 348.599C432.441 348.599 401.969 352.857 402.815 348.599C403.662 344.341 418.898 273.664 395.197 267.703Z" fill="#065580"/>
<path d="M500 363.594L509.802 349L516 373.092L500 380V363.594Z" fill="#065580"/>
<path d="M620.5 115C629.06 115 636 108.06 636 99.5C636 90.9396 629.06 84 620.5 84C611.94 84 605 90.9396 605 99.5C605 108.06 611.94 115 620.5 115Z" fill="#F2F2F2"/>
<path d="M681 314H658V337H681V314Z" fill="#F2F2F2"/>
<path d="M261 425L267.5 437L274 449H261H248L254.5 437L261 425Z" fill="#F2F2F2"/>
<path d="M222 339.519C221.852 344.103 220.742 347.777 218.668 350.542C216.594 353.307 214.13 354.689 211.276 354.689C208.952 354.689 206.914 353.336 205.164 350.631C203.413 347.925 202.538 343.762 202.538 338.144C202.538 336.902 202.567 335.719 202.626 334.595C202.685 333.471 202.759 332.407 202.847 331.401L204.392 316.807H194.197C192.432 335.26 190.983 346.239 189.85 349.743C188.717 353.248 186.798 355 184.091 355C182.869 354.97 181.704 354.479 180.825 353.625C180.316 353.171 179.913 352.61 179.646 351.981C179.379 351.352 179.254 350.671 179.281 349.987C179.281 348.628 180.347 346.728 182.48 344.287C184.613 341.848 185.797 339.622 186.033 337.611L188.681 316.807H184.4C183.193 316.814 182.006 317.111 180.936 317.672C179.951 318.127 179.094 318.82 178.442 319.69L176.545 322.529H175C176.441 318.035 178.214 314.656 180.318 312.393C182.421 310.131 184.841 309 187.577 309H221.294V316.807H209.908C209.555 320.356 209.283 323.905 209.092 327.453C208.9 331.002 208.804 334.565 208.805 338.144C208.805 340.569 209.364 342.535 210.482 344.043C211.6 345.552 212.997 346.306 214.674 346.306C215.704 346.306 216.785 345.884 217.918 345.041C218.456 344.662 218.906 344.17 219.237 343.6C219.569 343.03 219.773 342.394 219.838 341.737C219.926 341.087 219.992 340.576 220.036 340.206C220.08 339.837 220.102 339.608 220.102 339.519H222Z" fill="#0288D1"/>
</svg>
