<svg width="808" height="833" viewBox="0 0 808 833" fill="none" xmlns="http://www.w3.org/2000/svg">
<path d="M161 567C161 605.691 185.152 637 215 637Z" fill="#3D4356"/>
<path d="M215 637C215 598.309 241.836 567 275 567Z" fill="#0288D1"/>
<path d="M180 571C180 607.48 195.654 637 215 637Z" fill="#0288D1"/>
<path d="M215 637C215 587.254 246.309 547 285 547Z" fill="#3D4356"/>
<path d="M203 638.004C203 638.004 210.794 637.775 213.142 636.185C215.491 634.595 225.131 632.697 225.714 635.247C226.296 637.797 237.426 647.93 228.627 647.998C219.828 648.065 208.182 646.695 205.838 645.337C203.494 643.979 203 638.004 203 638.004Z" fill="#A8A8A8"/>
<path opacity="0.2" d="M228.786 647.11C219.986 647.178 208.34 645.808 205.995 644.451C204.21 643.418 203.498 639.711 203.26 638C203.095 638.007 203 638.01 203 638.01C203 638.01 203.494 643.982 205.838 645.339C208.183 646.695 219.829 648.065 228.629 647.998C231.169 647.978 232.046 647.12 231.998 645.848C231.645 646.616 230.676 647.096 228.786 647.11Z" fill="black"/>
<path d="M234.178 702H221.609V651.595H202.669V638.982H253.074V651.595H234.178V702ZM302.952 702H259.754V638.982H302.952V651.595H272.366V664.207H293.064V676.819H272.366V689.388H302.952V702ZM348.875 676.819V664.207C348.875 662.479 348.538 660.853 347.864 659.329C347.22 657.776 346.326 656.429 345.184 655.286C344.041 654.144 342.693 653.25 341.141 652.605C339.617 651.932 337.991 651.595 336.263 651.595C334.534 651.595 332.894 651.932 331.341 652.605C329.817 653.25 328.484 654.144 327.342 655.286C326.199 656.429 325.291 657.776 324.617 659.329C323.973 660.853 323.65 662.479 323.65 664.207V676.819H348.875ZM361.487 702H348.875V689.388H323.65V702H311.082V664.207C311.082 660.721 311.741 657.454 313.06 654.407C314.378 651.331 316.165 648.65 318.421 646.365C320.706 644.08 323.372 642.278 326.419 640.96C329.495 639.642 332.776 638.982 336.263 638.982C339.749 638.982 343.016 639.642 346.062 640.96C349.139 642.278 351.819 644.08 354.104 646.365C356.39 648.65 358.191 651.331 359.51 654.407C360.828 657.454 361.487 660.721 361.487 664.207V702ZM422.747 695.54C419.817 698.06 416.536 699.993 412.903 701.341C409.271 702.688 405.506 703.362 401.609 703.362C398.621 703.362 395.735 702.967 392.952 702.176C390.198 701.414 387.605 700.33 385.174 698.924C382.771 697.488 380.574 695.774 378.582 693.782C376.59 691.79 374.876 689.593 373.44 687.19C372.034 684.759 370.936 682.166 370.145 679.412C369.383 676.629 369.002 673.743 369.002 670.755C369.002 667.767 369.383 664.881 370.145 662.098C370.936 659.314 372.034 656.722 373.44 654.319C374.876 651.888 376.59 649.676 378.582 647.684C380.574 645.691 382.771 643.992 385.174 642.586C387.605 641.15 390.198 640.052 392.952 639.29C395.735 638.499 398.621 638.104 401.609 638.104C405.506 638.104 409.271 638.777 412.903 640.125C416.536 641.443 419.817 643.377 422.747 645.926L416.067 656.912C414.222 654.92 412.039 653.396 409.52 652.342C407 651.258 404.363 650.716 401.609 650.716C398.826 650.716 396.219 651.243 393.787 652.298C391.355 653.353 389.231 654.788 387.415 656.604C385.599 658.392 384.163 660.516 383.108 662.977C382.054 665.408 381.526 668.001 381.526 670.755C381.526 673.509 382.054 676.102 383.108 678.533C384.163 680.936 385.599 683.045 387.415 684.861C389.231 686.678 391.355 688.113 393.787 689.168C396.219 690.223 398.826 690.75 401.609 690.75C404.363 690.75 407 690.223 409.52 689.168C412.039 688.084 414.222 686.546 416.067 684.554L422.747 695.54ZM442.698 702H430.086V638.982H442.698V664.207H467.879V638.982H480.491V702H467.879V676.819H442.698V702ZM535.423 702H492.225V638.982H535.423V651.595H504.837V664.207H525.535V676.819H504.837V689.388H535.423V702ZM556.868 651.595V676.819H569.48C571.209 676.819 572.835 676.497 574.358 675.853C575.882 675.179 577.215 674.271 578.357 673.128C579.5 671.985 580.394 670.652 581.038 669.129C581.712 667.576 582.049 665.936 582.049 664.207C582.049 662.479 581.712 660.853 581.038 659.329C580.394 657.776 579.5 656.429 578.357 655.286C577.215 654.144 575.882 653.25 574.358 652.605C572.835 651.932 571.209 651.595 569.48 651.595H556.868ZM556.868 702H544.256V638.982H569.48C571.795 638.982 574.021 639.29 576.16 639.905C578.299 640.491 580.291 641.341 582.137 642.454C584.012 643.538 585.711 644.856 587.234 646.409C588.787 647.933 590.105 649.632 591.189 651.507C592.303 653.382 593.152 655.389 593.738 657.527C594.354 659.666 594.661 661.893 594.661 664.207C594.661 666.375 594.383 668.484 593.826 670.535C593.299 672.586 592.522 674.534 591.497 676.38C590.501 678.226 589.271 679.925 587.806 681.478C586.341 683.03 584.7 684.378 582.884 685.521L589.871 702H576.468L570.975 689.3L556.868 689.388V702Z" fill="white"/>
<path d="M63.0654 746.198V754.606H67.2695C67.8457 754.606 68.3877 754.499 68.8955 754.284C69.4033 754.06 69.8477 753.757 70.2285 753.376C70.6094 752.995 70.9072 752.551 71.1221 752.043C71.3467 751.525 71.459 750.979 71.459 750.402C71.459 749.826 71.3467 749.284 71.1221 748.776C70.9072 748.259 70.6094 747.81 70.2285 747.429C69.8477 747.048 69.4033 746.75 68.8955 746.535C68.3877 746.311 67.8457 746.198 67.2695 746.198H63.0654ZM63.0654 763H58.8613V741.994H67.2695C68.041 741.994 68.7832 742.097 69.4961 742.302C70.209 742.497 70.873 742.78 71.4883 743.151C72.1133 743.513 72.6797 743.952 73.1875 744.47C73.7051 744.978 74.1445 745.544 74.5059 746.169C74.877 746.794 75.1602 747.463 75.3555 748.176C75.5605 748.889 75.6631 749.631 75.6631 750.402C75.6631 751.125 75.5703 751.828 75.3848 752.512C75.209 753.195 74.9502 753.845 74.6084 754.46C74.2764 755.075 73.8662 755.642 73.3779 756.159C72.8896 756.677 72.3428 757.126 71.7373 757.507L74.0664 763H69.5986L67.7676 758.767L63.0654 758.796V763ZM92.8311 763H78.4316V741.994H92.8311V746.198H82.6357V750.402H89.5352V754.606H82.6357V758.796H92.8311V763ZM112.021 760.847C111.044 761.687 109.95 762.331 108.739 762.78C107.528 763.229 106.273 763.454 104.975 763.454C103.979 763.454 103.017 763.322 102.089 763.059C101.171 762.805 100.307 762.443 99.4961 761.975C98.6953 761.496 97.9629 760.925 97.2988 760.261C96.6348 759.597 96.0635 758.864 95.585 758.063C95.1162 757.253 94.75 756.389 94.4863 755.471C94.2324 754.543 94.1055 753.581 94.1055 752.585C94.1055 751.589 94.2324 750.627 94.4863 749.699C94.75 748.771 95.1162 747.907 95.585 747.106C96.0635 746.296 96.6348 745.559 97.2988 744.895C97.9629 744.23 98.6953 743.664 99.4961 743.195C100.307 742.717 101.171 742.351 102.089 742.097C103.017 741.833 103.979 741.701 104.975 741.701C106.273 741.701 107.528 741.926 108.739 742.375C109.95 742.814 111.044 743.459 112.021 744.309L109.794 747.971C109.179 747.307 108.451 746.799 107.611 746.447C106.771 746.086 105.893 745.905 104.975 745.905C104.047 745.905 103.178 746.081 102.367 746.433C101.557 746.784 100.849 747.263 100.243 747.868C99.6377 748.464 99.1592 749.172 98.8076 749.992C98.4561 750.803 98.2803 751.667 98.2803 752.585C98.2803 753.503 98.4561 754.367 98.8076 755.178C99.1592 755.979 99.6377 756.682 100.243 757.287C100.849 757.893 101.557 758.371 102.367 758.723C103.178 759.074 104.047 759.25 104.975 759.25C105.893 759.25 106.771 759.074 107.611 758.723C108.451 758.361 109.179 757.849 109.794 757.185L112.021 760.847ZM134.433 752.585C134.433 753.581 134.301 754.543 134.037 755.471C133.783 756.389 133.422 757.253 132.953 758.063C132.484 758.864 131.918 759.597 131.254 760.261C130.59 760.925 129.857 761.496 129.057 761.975C128.256 762.443 127.392 762.805 126.464 763.059C125.536 763.322 124.574 763.454 123.578 763.454C122.582 763.454 121.62 763.322 120.692 763.059C119.774 762.805 118.91 762.443 118.1 761.975C117.299 761.496 116.566 760.925 115.902 760.261C115.238 759.597 114.667 758.864 114.188 758.063C113.72 757.253 113.354 756.389 113.09 755.471C112.836 754.543 112.709 753.581 112.709 752.585C112.709 751.589 112.836 750.627 113.09 749.699C113.354 748.771 113.72 747.907 114.188 747.106C114.667 746.306 115.238 745.573 115.902 744.909C116.566 744.245 117.299 743.679 118.1 743.21C118.91 742.741 119.774 742.38 120.692 742.126C121.62 741.862 122.582 741.73 123.578 741.73C124.574 741.73 125.536 741.862 126.464 742.126C127.392 742.38 128.256 742.741 129.057 743.21C129.857 743.679 130.59 744.245 131.254 744.909C131.918 745.573 132.484 746.306 132.953 747.106C133.422 747.907 133.783 748.771 134.037 749.699C134.301 750.627 134.433 751.589 134.433 752.585ZM130.258 752.585C130.258 751.667 130.082 750.803 129.73 749.992C129.379 749.172 128.9 748.464 128.295 747.868C127.699 747.263 126.991 746.784 126.171 746.433C125.36 746.081 124.496 745.905 123.578 745.905C122.65 745.905 121.781 746.081 120.971 746.433C120.16 746.784 119.452 747.263 118.847 747.868C118.241 748.464 117.763 749.172 117.411 749.992C117.06 750.803 116.884 751.667 116.884 752.585C116.884 753.503 117.06 754.367 117.411 755.178C117.763 755.979 118.241 756.682 118.847 757.287C119.452 757.893 120.16 758.371 120.971 758.723C121.781 759.074 122.65 759.25 123.578 759.25C124.496 759.25 125.36 759.074 126.171 758.723C126.991 758.371 127.699 757.893 128.295 757.287C128.9 756.682 129.379 755.979 129.73 755.178C130.082 754.367 130.258 753.503 130.258 752.585ZM141.405 746.198V754.606H145.609C146.186 754.606 146.728 754.499 147.235 754.284C147.743 754.06 148.188 753.757 148.568 753.376C148.949 752.995 149.247 752.551 149.462 752.043C149.687 751.525 149.799 750.979 149.799 750.402C149.799 749.826 149.687 749.284 149.462 748.776C149.247 748.259 148.949 747.81 148.568 747.429C148.188 747.048 147.743 746.75 147.235 746.535C146.728 746.311 146.186 746.198 145.609 746.198H141.405ZM141.405 763H137.201V741.994H145.609C146.381 741.994 147.123 742.097 147.836 742.302C148.549 742.497 149.213 742.78 149.828 743.151C150.453 743.513 151.02 743.952 151.527 744.47C152.045 744.978 152.484 745.544 152.846 746.169C153.217 746.794 153.5 747.463 153.695 748.176C153.9 748.889 154.003 749.631 154.003 750.402C154.003 751.125 153.91 751.828 153.725 752.512C153.549 753.195 153.29 753.845 152.948 754.46C152.616 755.075 152.206 755.642 151.718 756.159C151.229 756.677 150.683 757.126 150.077 757.507L152.406 763H147.938L146.107 758.767L141.405 758.796V763ZM173.603 752.497C173.603 753.464 173.476 754.396 173.222 755.295C172.978 756.184 172.626 757.019 172.167 757.8C171.708 758.571 171.161 759.279 170.526 759.924C169.892 760.559 169.184 761.105 168.402 761.564C167.621 762.023 166.781 762.38 165.883 762.634C164.994 762.878 164.066 763 163.1 763H156.771V741.994H163.1C164.066 741.994 164.994 742.121 165.883 742.375C166.781 742.619 167.621 742.971 168.402 743.43C169.184 743.889 169.892 744.44 170.526 745.085C171.161 745.72 171.708 746.428 172.167 747.209C172.626 747.98 172.978 748.815 173.222 749.714C173.476 750.603 173.603 751.53 173.603 752.497ZM169.398 752.497C169.398 751.628 169.232 750.812 168.9 750.051C168.578 749.289 168.129 748.625 167.553 748.059C166.986 747.482 166.317 747.028 165.546 746.696C164.784 746.364 163.969 746.198 163.1 746.198H161.005V758.796H163.1C163.969 758.796 164.784 758.635 165.546 758.312C166.317 757.98 166.986 757.531 167.553 756.965C168.129 756.389 168.578 755.72 168.9 754.958C169.232 754.187 169.398 753.366 169.398 752.497ZM197.172 754.606V750.402C197.172 749.826 197.06 749.284 196.835 748.776C196.62 748.259 196.322 747.81 195.941 747.429C195.561 747.048 195.111 746.75 194.594 746.535C194.086 746.311 193.544 746.198 192.968 746.198C192.392 746.198 191.845 746.311 191.327 746.535C190.819 746.75 190.375 747.048 189.994 747.429C189.613 747.81 189.311 748.259 189.086 748.776C188.871 749.284 188.764 749.826 188.764 750.402V754.606H197.172ZM201.376 763H197.172V758.796H188.764V763H184.574V750.402C184.574 749.24 184.794 748.151 185.233 747.136C185.673 746.11 186.269 745.217 187.021 744.455C187.782 743.693 188.671 743.093 189.687 742.653C190.712 742.214 191.806 741.994 192.968 741.994C194.13 741.994 195.219 742.214 196.234 742.653C197.26 743.093 198.153 743.693 198.915 744.455C199.677 745.217 200.277 746.11 200.717 747.136C201.156 748.151 201.376 749.24 201.376 750.402V763ZM213.197 763H209.008V746.198H202.694V741.994H219.496V746.198H213.197V763ZM230.541 763H226.352V746.198H220.038V741.994H236.84V746.198H230.541V763ZM253.466 763H239.066V741.994H253.466V746.198H243.271V750.402H250.17V754.606H243.271V758.796H253.466V763ZM273.212 763H268.715L260.614 749.172V763H256.41V741.994H260.907L269.008 755.837V741.994H273.212V763ZM293.954 752.497C293.954 753.464 293.827 754.396 293.573 755.295C293.329 756.184 292.978 757.019 292.519 757.8C292.06 758.571 291.513 759.279 290.878 759.924C290.243 760.559 289.535 761.105 288.754 761.564C287.973 762.023 287.133 762.38 286.234 762.634C285.346 762.878 284.418 763 283.451 763H277.123V741.994H283.451C284.418 741.994 285.346 742.121 286.234 742.375C287.133 742.619 287.973 742.971 288.754 743.43C289.535 743.889 290.243 744.44 290.878 745.085C291.513 745.72 292.06 746.428 292.519 747.209C292.978 747.98 293.329 748.815 293.573 749.714C293.827 750.603 293.954 751.53 293.954 752.497ZM289.75 752.497C289.75 751.628 289.584 750.812 289.252 750.051C288.93 749.289 288.48 748.625 287.904 748.059C287.338 747.482 286.669 747.028 285.897 746.696C285.136 746.364 284.32 746.198 283.451 746.198H281.356V758.796H283.451C284.32 758.796 285.136 758.635 285.897 758.312C286.669 757.98 287.338 757.531 287.904 756.965C288.48 756.389 288.93 755.72 289.252 754.958C289.584 754.187 289.75 753.366 289.75 752.497ZM309.115 754.606V750.402C309.115 749.826 309.003 749.284 308.778 748.776C308.563 748.259 308.266 747.81 307.885 747.429C307.504 747.048 307.055 746.75 306.537 746.535C306.029 746.311 305.487 746.198 304.911 746.198C304.335 746.198 303.788 746.311 303.271 746.535C302.763 746.75 302.318 747.048 301.938 747.429C301.557 747.81 301.254 748.259 301.029 748.776C300.814 749.284 300.707 749.826 300.707 750.402V754.606H309.115ZM313.319 763H309.115V758.796H300.707V763H296.518V750.402C296.518 749.24 296.737 748.151 297.177 747.136C297.616 746.11 298.212 745.217 298.964 744.455C299.726 743.693 300.614 743.093 301.63 742.653C302.655 742.214 303.749 741.994 304.911 741.994C306.073 741.994 307.162 742.214 308.178 742.653C309.203 743.093 310.097 743.693 310.858 744.455C311.62 745.217 312.221 746.11 312.66 747.136C313.1 748.151 313.319 749.24 313.319 750.402V763ZM333.769 763H329.271L321.171 749.172V763H316.967V741.994H321.464L329.564 755.837V741.994H333.769V763ZM354.452 760.847C353.476 761.687 352.382 762.331 351.171 762.78C349.96 763.229 348.705 763.454 347.406 763.454C346.41 763.454 345.448 763.322 344.521 763.059C343.603 762.805 342.738 762.443 341.928 761.975C341.127 761.496 340.395 760.925 339.73 760.261C339.066 759.597 338.495 758.864 338.017 758.063C337.548 757.253 337.182 756.389 336.918 755.471C336.664 754.543 336.537 753.581 336.537 752.585C336.537 751.589 336.664 750.627 336.918 749.699C337.182 748.771 337.548 747.907 338.017 747.106C338.495 746.296 339.066 745.559 339.73 744.895C340.395 744.23 341.127 743.664 341.928 743.195C342.738 742.717 343.603 742.351 344.521 742.097C345.448 741.833 346.41 741.701 347.406 741.701C348.705 741.701 349.96 741.926 351.171 742.375C352.382 742.814 353.476 743.459 354.452 744.309L352.226 747.971C351.61 747.307 350.883 746.799 350.043 746.447C349.203 746.086 348.324 745.905 347.406 745.905C346.479 745.905 345.609 746.081 344.799 746.433C343.988 746.784 343.28 747.263 342.675 747.868C342.069 748.464 341.591 749.172 341.239 749.992C340.888 750.803 340.712 751.667 340.712 752.585C340.712 753.503 340.888 754.367 341.239 755.178C341.591 755.979 342.069 756.682 342.675 757.287C343.28 757.893 343.988 758.371 344.799 758.723C345.609 759.074 346.479 759.25 347.406 759.25C348.324 759.25 349.203 759.074 350.043 758.723C350.883 758.361 351.61 757.849 352.226 757.185L354.452 760.847ZM371.298 763H356.898V741.994H371.298V746.198H361.103V750.402H368.002V754.606H361.103V758.796H371.298V763ZM395.014 754.606V750.402C395.014 749.826 394.901 749.284 394.677 748.776C394.462 748.259 394.164 747.81 393.783 747.429C393.402 747.048 392.953 746.75 392.436 746.535C391.928 746.311 391.386 746.198 390.81 746.198C390.233 746.198 389.687 746.311 389.169 746.535C388.661 746.75 388.217 747.048 387.836 747.429C387.455 747.81 387.152 748.259 386.928 748.776C386.713 749.284 386.605 749.826 386.605 750.402V754.606H395.014ZM399.218 763H395.014V758.796H386.605V763H382.416V750.402C382.416 749.24 382.636 748.151 383.075 747.136C383.515 746.11 384.11 745.217 384.862 744.455C385.624 743.693 386.513 743.093 387.528 742.653C388.554 742.214 389.647 741.994 390.81 741.994C391.972 741.994 393.061 742.214 394.076 742.653C395.102 743.093 395.995 743.693 396.757 744.455C397.519 745.217 398.119 746.11 398.559 747.136C398.998 748.151 399.218 749.24 399.218 750.402V763ZM419.667 763H415.17L407.069 749.172V763H402.865V741.994H407.362L415.463 755.837V741.994H419.667V763ZM440.409 752.497C440.409 753.464 440.282 754.396 440.028 755.295C439.784 756.184 439.433 757.019 438.974 757.8C438.515 758.571 437.968 759.279 437.333 759.924C436.698 760.559 435.99 761.105 435.209 761.564C434.428 762.023 433.588 762.38 432.689 762.634C431.801 762.878 430.873 763 429.906 763H423.578V741.994H429.906C430.873 741.994 431.801 742.121 432.689 742.375C433.588 742.619 434.428 742.971 435.209 743.43C435.99 743.889 436.698 744.44 437.333 745.085C437.968 745.72 438.515 746.428 438.974 747.209C439.433 747.98 439.784 748.815 440.028 749.714C440.282 750.603 440.409 751.53 440.409 752.497ZM436.205 752.497C436.205 751.628 436.039 750.812 435.707 750.051C435.385 749.289 434.936 748.625 434.359 748.059C433.793 747.482 433.124 747.028 432.353 746.696C431.591 746.364 430.775 746.198 429.906 746.198H427.812V758.796H429.906C430.775 758.796 431.591 758.635 432.353 758.312C433.124 757.98 433.793 757.531 434.359 756.965C434.936 756.389 435.385 755.72 435.707 754.958C436.039 754.187 436.205 753.366 436.205 752.497ZM472.46 763H468.271V748C468.271 747.707 468.212 747.434 468.095 747.18C467.987 746.926 467.836 746.706 467.641 746.521C467.455 746.325 467.235 746.174 466.981 746.066C466.728 745.959 466.454 745.905 466.161 745.905C465.868 745.905 465.595 745.959 465.341 746.066C465.087 746.174 464.862 746.325 464.667 746.521C464.481 746.706 464.335 746.926 464.228 747.18C464.12 747.434 464.066 747.707 464.066 748V763H459.862V748C459.862 747.707 459.809 747.434 459.701 747.18C459.594 746.926 459.442 746.706 459.247 746.521C459.062 746.325 458.842 746.174 458.588 746.066C458.334 745.959 458.061 745.905 457.768 745.905C457.475 745.905 457.201 745.959 456.947 746.066C456.693 746.174 456.469 746.325 456.273 746.521C456.088 746.706 455.941 746.926 455.834 747.18C455.727 747.434 455.673 747.707 455.673 748V763H451.469V748C451.469 747.131 451.63 746.315 451.952 745.554C452.284 744.782 452.733 744.113 453.3 743.547C453.876 742.971 454.545 742.521 455.307 742.199C456.078 741.867 456.898 741.701 457.768 741.701C458.549 741.701 459.301 741.843 460.023 742.126C460.746 742.399 461.396 742.8 461.972 743.327C462.548 742.8 463.192 742.399 463.905 742.126C464.628 741.843 465.38 741.701 466.161 741.701C467.03 741.701 467.846 741.867 468.607 742.199C469.379 742.521 470.048 742.971 470.614 743.547C471.19 744.113 471.64 744.782 471.962 745.554C472.294 746.315 472.46 747.131 472.46 748V763ZM496.806 752.585C496.806 753.581 496.674 754.543 496.41 755.471C496.156 756.389 495.795 757.253 495.326 758.063C494.857 758.864 494.291 759.597 493.627 760.261C492.963 760.925 492.23 761.496 491.43 761.975C490.629 762.443 489.765 762.805 488.837 763.059C487.909 763.322 486.947 763.454 485.951 763.454C484.955 763.454 483.993 763.322 483.065 763.059C482.147 762.805 481.283 762.443 480.473 761.975C479.672 761.496 478.939 760.925 478.275 760.261C477.611 759.597 477.04 758.864 476.562 758.063C476.093 757.253 475.727 756.389 475.463 755.471C475.209 754.543 475.082 753.581 475.082 752.585C475.082 751.589 475.209 750.627 475.463 749.699C475.727 748.771 476.093 747.907 476.562 747.106C477.04 746.306 477.611 745.573 478.275 744.909C478.939 744.245 479.672 743.679 480.473 743.21C481.283 742.741 482.147 742.38 483.065 742.126C483.993 741.862 484.955 741.73 485.951 741.73C486.947 741.73 487.909 741.862 488.837 742.126C489.765 742.38 490.629 742.741 491.43 743.21C492.23 743.679 492.963 744.245 493.627 744.909C494.291 745.573 494.857 746.306 495.326 747.106C495.795 747.907 496.156 748.771 496.41 749.699C496.674 750.627 496.806 751.589 496.806 752.585ZM492.631 752.585C492.631 751.667 492.455 750.803 492.104 749.992C491.752 749.172 491.273 748.464 490.668 747.868C490.072 747.263 489.364 746.784 488.544 746.433C487.733 746.081 486.869 745.905 485.951 745.905C485.023 745.905 484.154 746.081 483.344 746.433C482.533 746.784 481.825 747.263 481.22 747.868C480.614 748.464 480.136 749.172 479.784 749.992C479.433 750.803 479.257 751.667 479.257 752.585C479.257 753.503 479.433 754.367 479.784 755.178C480.136 755.979 480.614 756.682 481.22 757.287C481.825 757.893 482.533 758.371 483.344 758.723C484.154 759.074 485.023 759.25 485.951 759.25C486.869 759.25 487.733 759.074 488.544 758.723C489.364 758.371 490.072 757.893 490.668 757.287C491.273 756.682 491.752 755.979 492.104 755.178C492.455 754.367 492.631 753.503 492.631 752.585ZM516.376 763H511.879L503.778 749.172V763H499.574V741.994H504.071L512.172 755.837V741.994H516.376V763ZM524.491 763H520.287V741.994H524.491V763ZM537.221 763H533.031V746.198H526.718V741.994H543.52V746.198H537.221V763ZM565.653 752.585C565.653 753.581 565.521 754.543 565.258 755.471C565.004 756.389 564.643 757.253 564.174 758.063C563.705 758.864 563.139 759.597 562.475 760.261C561.811 760.925 561.078 761.496 560.277 761.975C559.477 762.443 558.612 762.805 557.685 763.059C556.757 763.322 555.795 763.454 554.799 763.454C553.803 763.454 552.841 763.322 551.913 763.059C550.995 762.805 550.131 762.443 549.32 761.975C548.52 761.496 547.787 760.925 547.123 760.261C546.459 759.597 545.888 758.864 545.409 758.063C544.94 757.253 544.574 756.389 544.311 755.471C544.057 754.543 543.93 753.581 543.93 752.585C543.93 751.589 544.057 750.627 544.311 749.699C544.574 748.771 544.94 747.907 545.409 747.106C545.888 746.306 546.459 745.573 547.123 744.909C547.787 744.245 548.52 743.679 549.32 743.21C550.131 742.741 550.995 742.38 551.913 742.126C552.841 741.862 553.803 741.73 554.799 741.73C555.795 741.73 556.757 741.862 557.685 742.126C558.612 742.38 559.477 742.741 560.277 743.21C561.078 743.679 561.811 744.245 562.475 744.909C563.139 745.573 563.705 746.306 564.174 747.106C564.643 747.907 565.004 748.771 565.258 749.699C565.521 750.627 565.653 751.589 565.653 752.585ZM561.479 752.585C561.479 751.667 561.303 750.803 560.951 749.992C560.6 749.172 560.121 748.464 559.516 747.868C558.92 747.263 558.212 746.784 557.392 746.433C556.581 746.081 555.717 745.905 554.799 745.905C553.871 745.905 553.002 746.081 552.191 746.433C551.381 746.784 550.673 747.263 550.067 747.868C549.462 748.464 548.983 749.172 548.632 749.992C548.28 750.803 548.104 751.667 548.104 752.585C548.104 753.503 548.28 754.367 548.632 755.178C548.983 755.979 549.462 756.682 550.067 757.287C550.673 757.893 551.381 758.371 552.191 758.723C553.002 759.074 553.871 759.25 554.799 759.25C555.717 759.25 556.581 759.074 557.392 758.723C558.212 758.371 558.92 757.893 559.516 757.287C560.121 756.682 560.6 755.979 560.951 755.178C561.303 754.367 561.479 753.503 561.479 752.585ZM572.626 746.198V754.606H576.83C577.406 754.606 577.948 754.499 578.456 754.284C578.964 754.06 579.408 753.757 579.789 753.376C580.17 752.995 580.468 752.551 580.683 752.043C580.907 751.525 581.02 750.979 581.02 750.402C581.02 749.826 580.907 749.284 580.683 748.776C580.468 748.259 580.17 747.81 579.789 747.429C579.408 747.048 578.964 746.75 578.456 746.535C577.948 746.311 577.406 746.198 576.83 746.198H572.626ZM572.626 763H568.422V741.994H576.83C577.602 741.994 578.344 742.097 579.057 742.302C579.77 742.497 580.434 742.78 581.049 743.151C581.674 743.513 582.24 743.952 582.748 744.47C583.266 744.978 583.705 745.544 584.066 746.169C584.438 746.794 584.721 747.463 584.916 748.176C585.121 748.889 585.224 749.631 585.224 750.402C585.224 751.125 585.131 751.828 584.945 752.512C584.77 753.195 584.511 753.845 584.169 754.46C583.837 755.075 583.427 755.642 582.938 756.159C582.45 756.677 581.903 757.126 581.298 757.507L583.627 763H579.159L577.328 758.767L572.626 758.796V763ZM595.17 748.293C595.17 747.424 595.336 746.608 595.668 745.847C596 745.085 596.449 744.421 597.016 743.854C597.592 743.278 598.261 742.824 599.022 742.492C599.784 742.16 600.6 741.994 601.469 741.994H611.107V746.198H601.469C601.176 746.198 600.902 746.252 600.648 746.359C600.395 746.467 600.17 746.618 599.975 746.813C599.789 746.999 599.643 747.219 599.535 747.473C599.428 747.727 599.374 748 599.374 748.293C599.374 748.586 599.428 748.864 599.535 749.128C599.643 749.382 599.789 749.606 599.975 749.802C600.17 749.987 600.395 750.134 600.648 750.241C600.902 750.349 601.176 750.402 601.469 750.402H605.673C606.542 750.402 607.357 750.568 608.119 750.9C608.891 751.223 609.56 751.672 610.126 752.248C610.702 752.814 611.151 753.483 611.474 754.255C611.806 755.017 611.972 755.832 611.972 756.701C611.972 757.57 611.806 758.386 611.474 759.147C611.151 759.909 610.702 760.578 610.126 761.154C609.56 761.721 608.891 762.17 608.119 762.502C607.357 762.834 606.542 763 605.673 763H596.342V758.796H605.673C605.966 758.796 606.239 758.742 606.493 758.635C606.747 758.527 606.967 758.381 607.152 758.195C607.348 758 607.499 757.775 607.606 757.521C607.714 757.268 607.768 756.994 607.768 756.701C607.768 756.408 607.714 756.135 607.606 755.881C607.499 755.627 607.348 755.407 607.152 755.222C606.967 755.026 606.747 754.875 606.493 754.768C606.239 754.66 605.966 754.606 605.673 754.606H601.469C600.6 754.606 599.784 754.44 599.022 754.108C598.261 753.776 597.592 753.327 597.016 752.761C596.449 752.185 596 751.516 595.668 750.754C595.336 749.982 595.17 749.162 595.17 748.293ZM623.266 763H619.076V746.198H612.763V741.994H629.564V746.198H623.266V763ZM648.358 754.606C648.358 755.769 648.139 756.862 647.699 757.888C647.26 758.903 646.659 759.792 645.897 760.554C645.136 761.306 644.242 761.901 643.217 762.341C642.201 762.78 641.112 763 639.95 763C638.788 763 637.694 762.78 636.669 762.341C635.653 761.901 634.765 761.306 634.003 760.554C633.251 759.792 632.655 758.903 632.216 757.888C631.776 756.862 631.557 755.769 631.557 754.606V741.994H635.746V754.606C635.746 755.183 635.854 755.725 636.068 756.232C636.293 756.74 636.596 757.185 636.977 757.565C637.357 757.946 637.802 758.249 638.31 758.474C638.827 758.688 639.374 758.796 639.95 758.796C640.526 758.796 641.068 758.688 641.576 758.474C642.094 758.249 642.543 757.946 642.924 757.565C643.305 757.185 643.603 756.74 643.817 756.232C644.042 755.725 644.154 755.183 644.154 754.606V741.994H648.358V754.606ZM668.837 752.497C668.837 753.464 668.71 754.396 668.456 755.295C668.212 756.184 667.86 757.019 667.401 757.8C666.942 758.571 666.396 759.279 665.761 759.924C665.126 760.559 664.418 761.105 663.637 761.564C662.855 762.023 662.016 762.38 661.117 762.634C660.229 762.878 659.301 763 658.334 763H652.006V741.994H658.334C659.301 741.994 660.229 742.121 661.117 742.375C662.016 742.619 662.855 742.971 663.637 743.43C664.418 743.889 665.126 744.44 665.761 745.085C666.396 745.72 666.942 746.428 667.401 747.209C667.86 747.98 668.212 748.815 668.456 749.714C668.71 750.603 668.837 751.53 668.837 752.497ZM664.633 752.497C664.633 751.628 664.467 750.812 664.135 750.051C663.812 749.289 663.363 748.625 662.787 748.059C662.221 747.482 661.552 747.028 660.78 746.696C660.019 746.364 659.203 746.198 658.334 746.198H656.239V758.796H658.334C659.203 758.796 660.019 758.635 660.78 758.312C661.552 757.98 662.221 757.531 662.787 756.965C663.363 756.389 663.812 755.72 664.135 754.958C664.467 754.187 664.633 753.366 664.633 752.497ZM686.034 763H671.635V741.994H686.034V746.198H675.839V750.402H682.738V754.606H675.839V758.796H686.034V763ZM705.78 763H701.283L693.183 749.172V763H688.979V741.994H693.476L701.576 755.837V741.994H705.78V763ZM718.51 763H714.32V746.198H708.007V741.994H724.809V746.198H718.51V763ZM210.795 783.198V791.606H214.999C215.575 791.606 216.117 791.499 216.625 791.284C217.133 791.06 217.577 790.757 217.958 790.376C218.339 789.995 218.637 789.551 218.852 789.043C219.076 788.525 219.188 787.979 219.188 787.402C219.188 786.826 219.076 786.284 218.852 785.776C218.637 785.259 218.339 784.81 217.958 784.429C217.577 784.048 217.133 783.75 216.625 783.535C216.117 783.311 215.575 783.198 214.999 783.198H210.795ZM210.795 800H206.591V778.994H214.999C215.771 778.994 216.513 779.097 217.226 779.302C217.938 779.497 218.603 779.78 219.218 780.151C219.843 780.513 220.409 780.952 220.917 781.47C221.435 781.978 221.874 782.544 222.235 783.169C222.606 783.794 222.89 784.463 223.085 785.176C223.29 785.889 223.393 786.631 223.393 787.402C223.393 788.555 223.173 789.644 222.733 790.669C222.294 791.685 221.693 792.573 220.932 793.335C220.17 794.097 219.276 794.697 218.251 795.137C217.235 795.576 216.151 795.796 214.999 795.796H210.795V800ZM230.072 783.198V791.606H234.276C234.853 791.606 235.395 791.499 235.902 791.284C236.41 791.06 236.854 790.757 237.235 790.376C237.616 789.995 237.914 789.551 238.129 789.043C238.354 788.525 238.466 787.979 238.466 787.402C238.466 786.826 238.354 786.284 238.129 785.776C237.914 785.259 237.616 784.81 237.235 784.429C236.854 784.048 236.41 783.75 235.902 783.535C235.395 783.311 234.853 783.198 234.276 783.198H230.072ZM230.072 800H225.868V778.994H234.276C235.048 778.994 235.79 779.097 236.503 779.302C237.216 779.497 237.88 779.78 238.495 780.151C239.12 780.513 239.687 780.952 240.194 781.47C240.712 781.978 241.151 782.544 241.513 783.169C241.884 783.794 242.167 784.463 242.362 785.176C242.567 785.889 242.67 786.631 242.67 787.402C242.67 788.125 242.577 788.828 242.392 789.512C242.216 790.195 241.957 790.845 241.615 791.46C241.283 792.075 240.873 792.642 240.385 793.159C239.896 793.677 239.35 794.126 238.744 794.507L241.073 800H236.605L234.774 795.767L230.072 795.796V800ZM259.838 800H245.438V778.994H259.838V783.198H249.643V787.402H256.542V791.606H249.643V795.796H259.838V800ZM261.317 785.293C261.317 784.424 261.483 783.608 261.815 782.847C262.147 782.085 262.597 781.421 263.163 780.854C263.739 780.278 264.408 779.824 265.17 779.492C265.932 779.16 266.747 778.994 267.616 778.994H277.255V783.198H267.616C267.323 783.198 267.05 783.252 266.796 783.359C266.542 783.467 266.317 783.618 266.122 783.813C265.937 783.999 265.79 784.219 265.683 784.473C265.575 784.727 265.521 785 265.521 785.293C265.521 785.586 265.575 785.864 265.683 786.128C265.79 786.382 265.937 786.606 266.122 786.802C266.317 786.987 266.542 787.134 266.796 787.241C267.05 787.349 267.323 787.402 267.616 787.402H271.82C272.689 787.402 273.505 787.568 274.267 787.9C275.038 788.223 275.707 788.672 276.273 789.248C276.85 789.814 277.299 790.483 277.621 791.255C277.953 792.017 278.119 792.832 278.119 793.701C278.119 794.57 277.953 795.386 277.621 796.147C277.299 796.909 276.85 797.578 276.273 798.154C275.707 798.721 275.038 799.17 274.267 799.502C273.505 799.834 272.689 800 271.82 800H262.489V795.796H271.82C272.113 795.796 272.387 795.742 272.641 795.635C272.895 795.527 273.114 795.381 273.3 795.195C273.495 795 273.646 794.775 273.754 794.521C273.861 794.268 273.915 793.994 273.915 793.701C273.915 793.408 273.861 793.135 273.754 792.881C273.646 792.627 273.495 792.407 273.3 792.222C273.114 792.026 272.895 791.875 272.641 791.768C272.387 791.66 272.113 791.606 271.82 791.606H267.616C266.747 791.606 265.932 791.44 265.17 791.108C264.408 790.776 263.739 790.327 263.163 789.761C262.597 789.185 262.147 788.516 261.815 787.754C261.483 786.982 261.317 786.162 261.317 785.293ZM295.287 800H280.888V778.994H295.287V783.198H285.092V787.402H291.991V791.606H285.092V795.796H295.287V800ZM315.033 800H310.536L302.436 786.172V800H298.231V778.994H302.729L310.829 792.837V778.994H315.033V800ZM335.717 797.847C334.74 798.687 333.646 799.331 332.436 799.78C331.225 800.229 329.97 800.454 328.671 800.454C327.675 800.454 326.713 800.322 325.785 800.059C324.867 799.805 324.003 799.443 323.192 798.975C322.392 798.496 321.659 797.925 320.995 797.261C320.331 796.597 319.76 795.864 319.281 795.063C318.812 794.253 318.446 793.389 318.183 792.471C317.929 791.543 317.802 790.581 317.802 789.585C317.802 788.589 317.929 787.627 318.183 786.699C318.446 785.771 318.812 784.907 319.281 784.106C319.76 783.296 320.331 782.559 320.995 781.895C321.659 781.23 322.392 780.664 323.192 780.195C324.003 779.717 324.867 779.351 325.785 779.097C326.713 778.833 327.675 778.701 328.671 778.701C329.97 778.701 331.225 778.926 332.436 779.375C333.646 779.814 334.74 780.459 335.717 781.309L333.49 784.971C332.875 784.307 332.147 783.799 331.308 783.447C330.468 783.086 329.589 782.905 328.671 782.905C327.743 782.905 326.874 783.081 326.063 783.433C325.253 783.784 324.545 784.263 323.939 784.868C323.334 785.464 322.855 786.172 322.504 786.992C322.152 787.803 321.977 788.667 321.977 789.585C321.977 790.503 322.152 791.367 322.504 792.178C322.855 792.979 323.334 793.682 323.939 794.287C324.545 794.893 325.253 795.371 326.063 795.723C326.874 796.074 327.743 796.25 328.671 796.25C329.589 796.25 330.468 796.074 331.308 795.723C332.147 795.361 332.875 794.849 333.49 794.185L335.717 797.847ZM352.562 800H338.163V778.994H352.562V783.198H342.367V787.402H349.267V791.606H342.367V795.796H352.562V800ZM380.746 789.497C380.746 790.464 380.619 791.396 380.365 792.295C380.121 793.184 379.77 794.019 379.311 794.8C378.852 795.571 378.305 796.279 377.67 796.924C377.035 797.559 376.327 798.105 375.546 798.564C374.765 799.023 373.925 799.38 373.026 799.634C372.138 799.878 371.21 800 370.243 800H363.915V778.994H370.243C371.21 778.994 372.138 779.121 373.026 779.375C373.925 779.619 374.765 779.971 375.546 780.43C376.327 780.889 377.035 781.44 377.67 782.085C378.305 782.72 378.852 783.428 379.311 784.209C379.77 784.98 380.121 785.815 380.365 786.714C380.619 787.603 380.746 788.53 380.746 789.497ZM376.542 789.497C376.542 788.628 376.376 787.812 376.044 787.051C375.722 786.289 375.272 785.625 374.696 785.059C374.13 784.482 373.461 784.028 372.689 783.696C371.928 783.364 371.112 783.198 370.243 783.198H368.148V795.796H370.243C371.112 795.796 371.928 795.635 372.689 795.312C373.461 794.98 374.13 794.531 374.696 793.965C375.272 793.389 375.722 792.72 376.044 791.958C376.376 791.187 376.542 790.366 376.542 789.497ZM400.111 791.606C400.111 792.769 399.892 793.862 399.452 794.888C399.013 795.903 398.412 796.792 397.65 797.554C396.889 798.306 395.995 798.901 394.97 799.341C393.954 799.78 392.865 800 391.703 800C390.541 800 389.447 799.78 388.422 799.341C387.406 798.901 386.518 798.306 385.756 797.554C385.004 796.792 384.408 795.903 383.969 794.888C383.529 793.862 383.31 792.769 383.31 791.606V778.994H387.499V791.606C387.499 792.183 387.606 792.725 387.821 793.232C388.046 793.74 388.349 794.185 388.729 794.565C389.11 794.946 389.555 795.249 390.062 795.474C390.58 795.688 391.127 795.796 391.703 795.796C392.279 795.796 392.821 795.688 393.329 795.474C393.847 795.249 394.296 794.946 394.677 794.565C395.058 794.185 395.355 793.74 395.57 793.232C395.795 792.725 395.907 792.183 395.907 791.606V778.994H400.111V791.606ZM407.963 783.198V791.606H412.167C412.743 791.606 413.285 791.499 413.793 791.284C414.301 791.06 414.745 790.757 415.126 790.376C415.507 789.995 415.805 789.551 416.02 789.043C416.244 788.525 416.356 787.979 416.356 787.402C416.356 786.826 416.244 786.284 416.02 785.776C415.805 785.259 415.507 784.81 415.126 784.429C414.745 784.048 414.301 783.75 413.793 783.535C413.285 783.311 412.743 783.198 412.167 783.198H407.963ZM407.963 800H403.759V778.994H412.167C412.938 778.994 413.681 779.097 414.394 779.302C415.106 779.497 415.771 779.78 416.386 780.151C417.011 780.513 417.577 780.952 418.085 781.47C418.603 781.978 419.042 782.544 419.403 783.169C419.774 783.794 420.058 784.463 420.253 785.176C420.458 785.889 420.561 786.631 420.561 787.402C420.561 788.125 420.468 788.828 420.282 789.512C420.106 790.195 419.848 790.845 419.506 791.46C419.174 792.075 418.764 792.642 418.275 793.159C417.787 793.677 417.24 794.126 416.635 794.507L418.964 800H414.496L412.665 795.767L407.963 795.796V800ZM427.533 800H423.329V778.994H427.533V800ZM448.246 800H443.749L435.648 786.172V800H431.444V778.994H435.941L444.042 792.837V778.994H448.246V800ZM468.871 797.876C467.895 798.706 466.806 799.346 465.604 799.795C464.403 800.234 463.153 800.454 461.854 800.454C460.858 800.454 459.896 800.322 458.969 800.059C458.051 799.805 457.191 799.443 456.391 798.975C455.59 798.496 454.857 797.93 454.193 797.275C453.529 796.611 452.963 795.879 452.494 795.078C452.025 794.268 451.659 793.398 451.396 792.471C451.142 791.543 451.015 790.581 451.015 789.585C451.015 788.589 451.142 787.632 451.396 786.714C451.659 785.796 452.025 784.937 452.494 784.136C452.963 783.325 453.529 782.593 454.193 781.938C454.857 781.274 455.59 780.708 456.391 780.239C457.191 779.771 458.051 779.409 458.969 779.155C459.896 778.892 460.858 778.76 461.854 778.76C463.153 778.76 464.403 778.984 465.604 779.434C466.806 779.873 467.895 780.508 468.871 781.338L466.674 785C466.039 784.355 465.307 783.853 464.477 783.491C463.646 783.12 462.772 782.935 461.854 782.935C460.937 782.935 460.072 783.11 459.262 783.462C458.461 783.813 457.758 784.292 457.152 784.897C456.547 785.493 456.068 786.196 455.717 787.007C455.365 787.808 455.189 788.667 455.189 789.585C455.189 790.513 455.365 791.382 455.717 792.192C456.068 793.003 456.547 793.711 457.152 794.316C457.758 794.922 458.461 795.4 459.262 795.752C460.072 796.104 460.937 796.279 461.854 796.279C462.382 796.279 462.895 796.216 463.393 796.089C463.891 795.962 464.364 795.786 464.813 795.562V789.585H468.871V797.876ZM494.916 800H480.517V778.994H494.916V783.198H484.721V787.402H491.62V791.606H484.721V795.796H494.916V800ZM514.179 800H509.081L505.038 793.218L500.98 800H495.912L502.357 789.497L495.912 778.994H500.98L505.038 785.776L509.081 778.994H514.179L507.733 789.497L514.179 800ZM528.505 791.606V787.402C528.505 786.826 528.393 786.284 528.168 785.776C527.953 785.259 527.655 784.81 527.274 784.429C526.894 784.048 526.444 783.75 525.927 783.535C525.419 783.311 524.877 783.198 524.301 783.198C523.725 783.198 523.178 783.311 522.66 783.535C522.152 783.75 521.708 784.048 521.327 784.429C520.946 784.81 520.644 785.259 520.419 785.776C520.204 786.284 520.097 786.826 520.097 787.402V791.606H528.505ZM532.709 800H528.505V795.796H520.097V800H515.907V787.402C515.907 786.24 516.127 785.151 516.566 784.136C517.006 783.11 517.602 782.217 518.354 781.455C519.115 780.693 520.004 780.093 521.02 779.653C522.045 779.214 523.139 778.994 524.301 778.994C525.463 778.994 526.552 779.214 527.567 779.653C528.593 780.093 529.486 780.693 530.248 781.455C531.01 782.217 531.61 783.11 532.05 784.136C532.489 785.151 532.709 786.24 532.709 787.402V800ZM557.201 800H553.012V785C553.012 784.707 552.953 784.434 552.836 784.18C552.729 783.926 552.577 783.706 552.382 783.521C552.196 783.325 551.977 783.174 551.723 783.066C551.469 782.959 551.195 782.905 550.902 782.905C550.609 782.905 550.336 782.959 550.082 783.066C549.828 783.174 549.604 783.325 549.408 783.521C549.223 783.706 549.076 783.926 548.969 784.18C548.861 784.434 548.808 784.707 548.808 785V800H544.604V785C544.604 784.707 544.55 784.434 544.442 784.18C544.335 783.926 544.184 783.706 543.988 783.521C543.803 783.325 543.583 783.174 543.329 783.066C543.075 782.959 542.802 782.905 542.509 782.905C542.216 782.905 541.942 782.959 541.688 783.066C541.435 783.174 541.21 783.325 541.015 783.521C540.829 783.706 540.683 783.926 540.575 784.18C540.468 784.434 540.414 784.707 540.414 785V800H536.21V785C536.21 784.131 536.371 783.315 536.693 782.554C537.025 781.782 537.475 781.113 538.041 780.547C538.617 779.971 539.286 779.521 540.048 779.199C540.819 778.867 541.64 778.701 542.509 778.701C543.29 778.701 544.042 778.843 544.765 779.126C545.487 779.399 546.137 779.8 546.713 780.327C547.289 779.8 547.934 779.399 548.646 779.126C549.369 778.843 550.121 778.701 550.902 778.701C551.771 778.701 552.587 778.867 553.349 779.199C554.12 779.521 554.789 779.971 555.355 780.547C555.932 781.113 556.381 781.782 556.703 782.554C557.035 783.315 557.201 784.131 557.201 785V800ZM559.735 785.293C559.735 784.424 559.901 783.608 560.233 782.847C560.565 782.085 561.015 781.421 561.581 780.854C562.157 780.278 562.826 779.824 563.588 779.492C564.35 779.16 565.165 778.994 566.034 778.994H575.673V783.198H566.034C565.741 783.198 565.468 783.252 565.214 783.359C564.96 783.467 564.735 783.618 564.54 783.813C564.354 783.999 564.208 784.219 564.101 784.473C563.993 784.727 563.939 785 563.939 785.293C563.939 785.586 563.993 785.864 564.101 786.128C564.208 786.382 564.354 786.606 564.54 786.802C564.735 786.987 564.96 787.134 565.214 787.241C565.468 787.349 565.741 787.402 566.034 787.402H570.238C571.107 787.402 571.923 787.568 572.685 787.9C573.456 788.223 574.125 788.672 574.691 789.248C575.268 789.814 575.717 790.483 576.039 791.255C576.371 792.017 576.537 792.832 576.537 793.701C576.537 794.57 576.371 795.386 576.039 796.147C575.717 796.909 575.268 797.578 574.691 798.154C574.125 798.721 573.456 799.17 572.685 799.502C571.923 799.834 571.107 800 570.238 800H560.907V795.796H570.238C570.531 795.796 570.805 795.742 571.059 795.635C571.312 795.527 571.532 795.381 571.718 795.195C571.913 795 572.064 794.775 572.172 794.521C572.279 794.268 572.333 793.994 572.333 793.701C572.333 793.408 572.279 793.135 572.172 792.881C572.064 792.627 571.913 792.407 571.718 792.222C571.532 792.026 571.312 791.875 571.059 791.768C570.805 791.66 570.531 791.606 570.238 791.606H566.034C565.165 791.606 564.35 791.44 563.588 791.108C562.826 790.776 562.157 790.327 561.581 789.761C561.015 789.185 560.565 788.516 560.233 787.754C559.901 786.982 559.735 786.162 559.735 785.293Z" fill="white" fill-opacity="0.8"/>
<path opacity="0.1" d="M296.212 26H240.788C237.592 26 235 29.3265 235 33.43V44.57C235 48.6735 237.592 52 240.788 52H296.212C299.408 52 302 48.6735 302 44.57V33.43C302 29.3265 299.408 26 296.212 26Z" fill="#0288D1"/>
<path opacity="0.1" d="M279.57 52H208.43C204.327 52 201 55.3265 201 59.43V70.57C201 74.6735 204.327 78 208.43 78H279.57C283.673 78 287 74.6735 287 70.57V59.43C287 55.3265 283.673 52 279.57 52Z" fill="#0288D1"/>
<path opacity="0.1" d="M279.57 13H208.43C204.327 13 201 16.3265 201 20.43V31.57C201 35.6735 204.327 39 208.43 39H279.57C283.673 39 287 35.6735 287 31.57V20.43C287 16.3265 283.673 13 279.57 13Z" fill="#0288D1"/>
<path opacity="0.1" d="M379.57 0H308.43C304.327 0 301 3.32652 301 7.43V18.57C301 22.6735 304.327 26 308.43 26H379.57C383.673 26 387 22.6735 387 18.57V7.43C387 3.32652 383.673 0 379.57 0Z" fill="#0288D1"/>
<path opacity="0.1" d="M469.57 26H398.43C394.327 26 391 29.3265 391 33.43V44.57C391 48.6735 394.327 52 398.43 52H469.57C473.673 52 477 48.6735 477 44.57V33.43C477 29.3265 473.673 26 469.57 26Z" fill="#0288D1"/>
<path opacity="0.1" d="M559.57 52H488.43C484.327 52 481 55.3265 481 59.43V70.57C481 74.6735 484.327 78 488.43 78H559.57C563.673 78 567 74.6735 567 70.57V59.43C567 55.3265 563.673 52 559.57 52Z" fill="#0288D1"/>
<path opacity="0.1" d="M559.57 13H488.43C484.327 13 481 16.3265 481 20.43V31.57C481 35.6735 484.327 39 488.43 39H559.57C563.673 39 567 35.6735 567 31.57V20.43C567 16.3265 563.673 13 559.57 13Z" fill="#0288D1"/>
<path opacity="0.1" d="M226.212 333H170.788C167.592 333 165 336.327 165 340.43V351.57C165 355.673 167.592 359 170.788 359H226.212C229.408 359 232 355.673 232 351.57V340.43C232 336.327 229.408 333 226.212 333Z" fill="#0288D1"/>
<path opacity="0.1" d="M379.57 333H308.43C304.327 333 301 336.327 301 340.43V351.57C301 355.673 304.327 359 308.43 359H379.57C383.673 359 387 355.673 387 351.57V340.43C387 336.327 383.673 333 379.57 333Z" fill="#0288D1"/>
<path d="M669.372 9H111.628C108.52 9 106 12.228 106 16.21V366.79C106 370.772 108.52 374 111.628 374H669.372C672.48 374 675 370.772 675 366.79V16.21C675 12.228 672.48 9 669.372 9Z" fill="#3F3D56"/>
<path d="M663.375 17H119.625C116.519 17 114 20.2266 114 24.2068V358.793C114 362.773 116.519 366 119.625 366H663.375C666.481 366 669 362.773 669 358.793V24.2068C669 20.2266 666.481 17 663.375 17Z" fill="white"/>
<path opacity="0.1" d="M106 352H675V366.79C675 368.702 674.407 370.536 673.352 371.888C672.296 373.24 670.865 374 669.372 374H111.628C110.135 374 108.704 373.24 107.648 371.888C106.593 370.536 106 368.702 106 366.79V352Z" fill="black"/>
<path d="M202.009 325H162.991C161.891 325 161 326.119 161 327.5V349.5C161 350.881 161.891 352 162.991 352H202.009C203.109 352 204 350.881 204 349.5V327.5C204 326.119 203.109 325 202.009 325Z" fill="#090814"/>
<path d="M242.432 348H216.568C215.702 348 215 348.895 215 350C215 351.105 215.702 352 216.568 352H242.432C243.298 352 244 351.105 244 350C244 348.895 243.298 348 242.432 348Z" fill="#090814"/>
<path d="M639 634.207C639 671.907 662.654 702.421 691.883 702.421Z" fill="#46455B"/>
<path d="M687.885 700.98C687.885 662.85 714.285 632 746.907 632Z" fill="#0288D1"/>
<path d="M658.166 637.629C658.166 673.447 673.25 702.429 691.883 702.429Z" fill="#0288D1"/>
<path d="M247.432 93H207.404V102.636H247.432V93Z" fill="#0288D1"/>
<path d="M233.432 177H193.404V186.636H233.432V177Z" fill="#0288D1"/>
<path d="M386.045 93H371.961V102.636H386.045V93Z" fill="#0288D1"/>
<path d="M372.045 177H357.961V186.636H372.045V177Z" fill="#0288D1"/>
<path d="M414.213 93H400.129V102.636H414.213V93Z" fill="#0288D1"/>
<path d="M400.213 177H386.129V186.636H400.213V177Z" fill="#0288D1"/>
<path d="M357.137 93H261.516V102.636H357.137V93Z" fill="#0288D1"/>
<path d="M343.137 177H247.516V186.636H343.137V177Z" fill="#0288D1"/>
<path d="M197.028 155.266H157V164.902H197.028V155.266Z" fill="#0288D1"/>
<path d="M183.028 239.266H143V248.902H183.028V239.266Z" fill="#0288D1"/>
<path d="M335.642 155.266H321.559V164.902H335.642V155.266Z" fill="#0288D1"/>
<path d="M321.642 239.266H307.559V248.902H321.642V239.266Z" fill="#0288D1"/>
<path d="M363.808 155.266H349.725V164.902H363.808V155.266Z" fill="#0288D1"/>
<path d="M349.808 239.266H335.725V248.902H349.808V239.266Z" fill="#0288D1"/>
<path d="M306.733 155.266H211.111V164.902H306.733V155.266Z" fill="#0288D1"/>
<path d="M292.733 239.266H197.111V248.902H292.733V239.266Z" fill="#0288D1"/>
<path d="M362.326 114.496H322.299V124.132H362.326V114.496Z" fill="#0288D1"/>
<path d="M348.326 198.496H308.299V208.132H348.326V198.496Z" fill="#0288D1"/>
<path d="M416.438 114.496H376.41V124.132H416.438V114.496Z" fill="#0288D1"/>
<path d="M402.438 198.496H362.41V208.132H402.438V198.496Z" fill="#0288D1"/>
<path d="M444.605 114.496H430.521V124.132H444.605V114.496Z" fill="#0288D1"/>
<path d="M430.605 198.496H416.521V208.132H430.605V198.496Z" fill="#0288D1"/>
<path d="M199.252 114.496H185.168V124.132H199.252V114.496Z" fill="#0288D1"/>
<path d="M185.252 198.496H171.168V208.132H185.252V198.496Z" fill="#0288D1"/>
<path d="M308.957 114.496H213.336V124.132H308.957V114.496Z" fill="#0288D1"/>
<path d="M294.957 198.496H199.336V208.132H294.957V198.496Z" fill="#0288D1"/>
<path d="M279.305 135.254H239.277V144.89H279.305V135.254Z" fill="#0288D1"/>
<path d="M265.305 219.254H225.277V228.89H265.305V219.254Z" fill="#0288D1"/>
<path d="M225.195 135.254H185.168V144.89H225.195V135.254Z" fill="#0288D1"/>
<path d="M211.195 219.254H171.168V228.89H211.195V219.254Z" fill="#0288D1"/>
<path d="M444.605 135.254H430.521V144.89H444.605V135.254Z" fill="#0288D1"/>
<path d="M430.605 219.254H416.521V228.89H430.605V219.254Z" fill="#0288D1"/>
<path d="M416.437 135.254H402.354V144.89H416.437V135.254Z" fill="#0288D1"/>
<path d="M402.437 219.254H388.354V228.89H402.437V219.254Z" fill="#0288D1"/>
<path d="M388.27 135.254H292.648V144.89H388.27V135.254Z" fill="#0288D1"/>
<path d="M374.27 219.254H278.648V228.89H374.27V219.254Z" fill="#0288D1"/>
<path d="M624.354 580.058C619.025 563.75 618.589 545.216 627.595 530.085C631.424 523.653 636.805 518.099 643.404 514.468C651.017 510.28 659.805 508.91 668.402 508.721C687.096 508.311 705.663 512.804 724.358 510.481C732.746 509.439 741.113 507.101 748.303 502.567C754.52 498.646 759.916 493.161 763.101 486.507C766.203 480.158 766.905 472.909 765.078 466.087C763.311 459.635 759.153 453.602 753.072 450.513C747.546 447.706 740.764 447.632 735.054 449.953C728.913 452.45 724.49 457.616 723.55 464.227C722.376 472.475 726.108 480.635 730.262 487.539C734.261 494.184 739.109 500.42 744.999 505.514C750.704 510.449 757.432 514.338 764.832 516.066C771.853 517.706 779.425 517.561 786.25 515.139C793.291 512.633 799.159 507.638 802.738 501.104C806.733 493.914 808.128 485.607 807.991 477.467C807.829 467.855 805.79 458.339 803.97 448.932C802.125 439.393 800.141 429.88 798.02 420.396C796.986 415.773 795.92 411.157 794.821 406.549C794.591 405.587 793.102 405.994 793.331 406.958C797.702 425.299 801.788 443.787 804.888 462.388C806.36 471.218 807.281 480.376 805.436 489.223C803.88 496.684 800.388 503.917 794.415 508.853C783.017 518.272 766.017 517.08 753.818 509.972C747.239 506.138 741.658 500.769 737.037 494.77C732.261 488.568 727.812 481.475 725.796 473.862C724.755 469.93 724.458 465.734 725.661 461.803C726.589 458.779 728.409 456.102 730.886 454.121C735.525 450.376 742.083 449.032 747.88 450.294C754.411 451.715 759.464 456.607 762.176 462.556C764.991 468.842 765.32 475.954 763.096 482.471C760.757 489.349 755.907 495.228 750.077 499.503C743.44 504.37 735.53 507.13 727.452 508.491C709.33 511.543 691.126 507.552 672.97 507.185C664.696 507.018 656.216 507.652 648.396 510.529C641.43 513.112 635.277 517.488 630.567 523.212C620.235 535.684 617.375 552.235 619.821 567.925C620.496 572.18 621.514 576.374 622.865 580.467C623.171 581.404 624.663 581.003 624.354 580.058Z" fill="#E5E5E5"/>
<path d="M629 576H613V588H629V576Z" fill="#0288D1"/>
<path d="M675.17 600H358.83C358.61 600 358.399 599.895 358.243 599.707C358.087 599.52 358 599.265 358 599C358 598.735 358.087 598.48 358.243 598.293C358.399 598.105 358.61 598 358.83 598H675.17C675.39 598 675.601 598.105 675.757 598.293C675.913 598.48 676 598.735 676 599C676 599.265 675.913 599.52 675.757 599.707C675.601 599.895 675.39 600 675.17 600Z" fill="#CBCBCB"/>
<path d="M476.605 367.548C477.628 366.245 478.35 364.736 478.718 363.127C479.087 361.519 479.094 359.85 478.739 358.238C478.384 356.627 477.675 355.112 476.663 353.8C475.651 352.488 474.361 351.412 472.882 350.646L478.903 311L459.767 319.762L456.983 356.067C455.845 358.606 455.689 361.469 456.546 364.114C457.403 366.758 459.212 369.001 461.631 370.416C464.049 371.831 466.91 372.321 469.67 371.793C472.43 371.264 474.897 369.754 476.605 367.548Z" fill="#FFB7B7"/>
<path d="M534.998 581L521.446 580.999L515 528L535 528.001L534.998 581Z" fill="#FFB7B7"/>
<path d="M537.999 594L494 593.998V593.432C494 588.809 495.805 584.375 499.016 581.106C502.228 577.837 506.584 576 511.126 576H511.127L538 576.001L537.999 594Z" fill="#2F2E41"/>
<path d="M584 549.097L571.168 554L546 507.236L564.937 500L584 549.097Z" fill="#FFB7B7"/>
<path d="M592 560.34L550.363 576L550.16 575.486C548.505 571.289 548.625 566.621 550.493 562.511C552.362 558.4 555.826 555.182 560.124 553.565L560.125 553.565L585.555 544L592 560.34Z" fill="#2F2E41"/>
<path d="M494.871 336.639L491 359.038L552.936 548L586 537.876L562.374 468.179L538.5 364.836L537.983 328L494.871 336.639Z" fill="#2F2E41"/>
<path d="M509 571L520.142 494.275L518.345 479.795L538.458 435.348L536.141 330L580 336.611L562.824 472.302L540.456 551.995L535.962 569.19L509 571Z" fill="#2F2E41"/>
<path d="M515.5 154C529.583 154 541 142.807 541 129C541 115.193 529.583 104 515.5 104C501.417 104 490 115.193 490 129C490 142.807 501.417 154 515.5 154Z" fill="#FFB8B8"/>
<path d="M540.64 101.835C536.56 95.1797 530.174 90.2755 522.711 88.0663L517.229 92.4715L519.36 87.3333C517.568 87.0587 515.754 86.9534 513.942 87.0188L509.01 93.3889L511.051 87.237C506.771 87.7713 502.648 89.1905 498.941 91.4052C495.235 93.6199 492.025 96.5821 489.515 100.105C483.238 109.197 483.658 121.836 489.832 131C491.527 125.768 492.104 120.864 493.799 115.632C495.131 115.814 496.482 115.821 497.815 115.652L499.877 110.818L500.453 115.447C506.845 114.888 516.325 113.66 522.384 112.535L521.795 108.984L525.32 111.935C527.176 111.505 528.279 111.116 528.188 110.818C532.694 118.116 537.159 122.777 541.665 130.075C543.376 119.781 546.396 111.225 540.64 101.835Z" fill="#2F2E41"/>
<path d="M564.542 160.463C564.542 160.463 516.53 156.176 495.516 173.695L489 330.751L492.593 343.007C492.593 343.007 509.779 346.452 530.632 340.509C551.486 334.566 579.941 343.007 579.941 343.007L583 246.836L564.542 160.463Z" fill="#CBCBCB"/>
<path d="M493.757 334.477L509 181.216L506.123 168C506.123 168 476.716 176.226 466 191.845L485.34 324.657V337L493.757 334.477Z" fill="#3F3D56"/>
<path d="M561.022 324C561.022 324 520.651 187.147 535.138 162.142C535.138 162.142 564.28 153.93 578.203 164.059L585.915 248.112C585.915 248.112 601.388 296.171 589.523 307.473L592.127 318.776C592.127 318.776 576.299 319.708 572.909 320.145C569.52 320.583 561.022 324 561.022 324Z" fill="#3F3D56"/>
<path d="M474.982 191L466.05 191.905C466.05 191.905 462.839 193.659 463.233 201.454C463.628 209.25 453.965 323.49 458.797 330.909L456 340.584L475.744 346L476.917 336.325C476.917 336.325 484.914 311.317 485.938 304.964C486.962 298.611 474.982 191 474.982 191Z" fill="#3F3D56"/>
<path d="M574.003 321.829C573.966 320.18 574.293 318.542 574.96 317.031C575.628 315.521 576.62 314.175 577.866 313.087C579.113 312 580.584 311.198 582.175 310.738C583.766 310.278 585.44 310.171 587.077 310.425L605.975 275L616 293.299L596.518 324.133C595.908 326.844 594.32 329.238 592.056 330.862C589.791 332.485 587.008 333.225 584.233 332.941C581.457 332.657 578.883 331.369 576.998 329.321C575.112 327.273 574.047 324.607 574.003 321.829Z" fill="#FFB7B7"/>
<path d="M567 168.45L577.635 164C577.635 164 594.953 173.502 596.341 182.883C597.729 192.263 632 252.991 632 252.991C632 252.991 619.747 307.055 608.738 310.336L602.755 317L586.225 306.248L591.58 300.842C591.58 300.842 591.44 272.243 596.379 267.119C596.379 267.119 582.477 231.205 576.197 227.582C569.918 223.96 567 168.45 567 168.45Z" fill="#3F3D56"/>
</svg>
